<svg width="318" height="288" viewBox="0 0 318 288" fill="none" xmlns="http://www.w3.org/2000/svg">
<path d="M130.003 0.266175C154.238 -0.241914 178.531 0.141976 202.778 0.0968122C202.836 3.52923 202.847 6.95036 202.859 10.3828C203.681 11.0941 204.504 11.8054 205.326 12.5168C217.212 12.528 229.098 12.6071 240.995 12.4716C242.698 20.1494 241.447 28.0304 242.026 35.8098L242.166 37.2663C245.826 37.8986 250.124 36.5663 253.368 38.689C253.831 42.3472 254.005 46.0393 254.712 49.6637C262.786 51.7976 271.081 48.3765 279.097 50.7928C279.63 58.7415 277.661 67.0403 280.383 74.7181C284.206 75.0455 288.898 73.7922 292.095 76.3665C293.173 79.7425 292.628 83.4233 292.929 86.9122C297.1 87.0138 301.282 87.3638 305.337 88.38C305.325 100.055 305.244 111.73 305.418 123.404C308.997 124.149 312.67 124.262 316.33 124.206C317.257 128.496 317.408 132.889 317.246 137.258C317.153 154.578 317.234 171.898 317.199 189.219C317.095 195.779 317.941 202.463 316.041 208.853C313.434 208.82 310.839 208.786 308.244 208.887L307.294 209.045C306.333 209.745 305.383 210.468 304.445 211.202C304.502 214.194 304.537 217.175 304.549 220.167C300.494 220.178 296.312 220.178 292.721 222.278C292.964 225.948 293.161 229.629 293.231 233.309C292.976 229.629 292.732 225.959 292.176 222.312C291.62 225.857 292.663 229.967 291.111 233.151C287.299 234.235 283.001 233.535 279.132 234.811C279.248 238.605 279.005 242.399 278.252 246.113C274.637 246.079 271.023 246.113 267.408 246.17C266.401 250.257 266.215 254.469 266.366 258.657C262.473 258.725 258.569 258.883 254.77 259.73C254.712 263.535 254.688 267.329 254.735 271.134C238.146 270.84 221.545 271.134 204.956 271.01C204.875 267.25 204.886 263.479 204.967 259.719C212.671 259.775 220.386 259.47 228.09 259.73C228.646 259.73 229.758 259.73 230.303 259.73C230.917 256.106 231.137 252.436 231.357 248.767C235.759 248.496 240.381 248.778 244.425 246.779C244.181 239.373 244.425 231.966 244.193 224.559C247.772 223.848 251.41 223.453 255.071 223.554C258.419 217.909 256.669 211.157 257.11 204.969C256.693 194.074 257.631 183.099 256.588 172.248C255.916 172.102 254.584 171.797 253.912 171.65C250.298 171.729 246.672 171.639 243.15 170.848C243.243 155.369 243.127 139.889 243.092 124.409C243.081 123.856 243.058 122.738 243.046 122.185C238.957 122.038 234.867 121.936 230.778 121.846C230.639 117.815 230.488 113.796 230.245 109.776C226.352 109.697 222.46 109.675 218.568 109.72C218.278 105.418 218.104 101.06 216.795 96.9159C212.74 97.074 208.674 97.1643 204.62 97.2321C177.129 97.3563 149.639 97.2546 122.137 97.2772C119.6 97.3337 117.109 97.8869 114.619 98.3724C114.619 101.839 114.653 105.294 114.537 108.76C106.926 111.244 98.6433 108.602 90.8469 110.126C87.719 112.78 89.5841 117.499 89.1555 121.011C84.5564 122.241 79.4244 121.282 75.196 123.732C75.3003 143.457 75.254 163.193 75.2424 182.93C71.1066 183.291 65.6619 182.196 62.9163 186.057C62.0475 197.879 62.8816 209.779 62.5919 221.635C66.2643 224.232 71.1878 222.854 75.0339 224.232C75.5552 230.611 75.5552 237.024 75.7058 243.415C75.7289 244.691 76.1112 245.865 76.8411 246.938C80.8609 247.773 84.9966 247.942 89.0744 248.462C89.0976 252.188 89.1324 255.902 89.1903 259.628C97.2995 261.469 105.664 260.362 113.9 260.69C114.097 263.761 114.259 266.832 114.375 269.914C98.3074 270.208 82.2163 270.072 66.1368 270.005C65.8588 266.471 66.6697 262.632 65.2912 259.301C61.6768 257.449 57.3325 257.969 53.3706 257.596C53.3126 254.107 53.2779 250.618 53.2663 247.129C45.2961 243.923 36.5381 245.786 28.1855 245.3C27.4789 238.052 27.8728 230.758 27.7569 223.486C26.9228 222.696 26.1003 221.906 25.2546 221.138C24.7912 220.743 23.8876 219.941 23.4358 219.546C21.2695 219.264 19.0916 219.117 16.9253 218.947C16.2765 215.504 17.2844 211.089 14.3535 208.503C11.075 206.9 7.26368 206.911 3.7072 206.279C3.25539 181.767 3.75354 157.254 3.42917 132.753C3.67244 130.653 3.05846 128.124 4.4602 126.351C7.69231 125.098 11.2836 125.087 14.5504 123.901C10.0672 123.449 5.56074 123.427 1.0659 123.483L0.811035 123.246C4.03157 122.806 7.32161 123.19 10.5653 123.178C11.6658 122.354 12.7316 121.485 13.809 120.638C13.6468 109.392 13.7858 98.1353 13.7511 86.8783C14.7126 86.9122 16.6357 86.9912 17.5972 87.0251L16.9484 85.8735C19.7751 85.9751 22.6133 85.9638 25.4516 85.9638C25.5327 82.5314 25.4284 79.0989 25.6717 75.6778L25.9497 75.3052L26.946 75.7568C30.294 73.9729 34.2211 74.6616 37.8587 74.56C38.6928 73.3067 39.5269 72.0422 40.3726 70.7889C40.3726 67.9549 40.4189 65.1321 40.5 62.2981C44.2419 61.8013 49.0032 63.5063 51.9457 60.7852C52.4206 57.1608 52.2121 53.5026 52.2932 49.8669C55.6991 49.754 59.105 49.7314 62.5224 49.754C63.6346 48.6023 64.7351 47.4507 65.8356 46.2877C65.8125 43.3069 65.8588 40.3261 65.9399 37.3453C69.3342 37.3566 72.7401 37.5373 76.1112 37.1082C78.9958 34.9178 77.2002 30.6499 77.6983 27.5788C78.0227 26.89 78.6598 25.5125 78.9842 24.8238C82.6449 24.4173 87.2441 26.0545 90.1981 23.435C90.6499 20.2736 90.5457 17.0557 90.3256 13.8717L90.1981 12.37C102.269 12.2909 114.341 12.2119 126.412 12.3926L126.099 11.4328C126.701 11.4441 127.906 11.4667 128.52 11.478C129.088 7.85363 127.049 2.94211 130.003 0.266175Z" fill="black"/>
<path d="M114.618 98.373C117.108 97.8875 119.599 97.3343 122.136 97.2778C149.638 97.2552 177.129 97.3569 204.619 97.2327C204.573 97.7859 204.457 98.9037 204.41 99.457C175.669 99.8296 146.916 99.3328 118.174 99.7054C117.746 99.7618 116.9 99.8747 116.471 99.9312C115.881 103.86 116.9 108.264 114.815 111.832C107.319 113.661 99.4651 112.34 91.8192 112.667C91.6223 115.84 91.4485 119.024 91.3095 122.197C90.6028 122.908 89.8846 123.619 89.1779 124.342C85.6909 124.218 82.204 124.184 78.7054 124.173C78.2884 137.575 78.6127 150.988 78.5085 164.402C78.381 171.718 79.1456 179.114 77.5122 186.34C73.4923 186.329 69.4724 186.656 65.5221 187.39C65.4642 187.051 65.3367 186.374 65.2788 186.024C69.0438 185.109 73.4807 185.651 76.6897 183.371C77.4543 171.018 76.7013 158.598 76.9793 146.212C77.2573 138.783 76.3074 131.263 77.6164 123.902C81.5784 122.784 85.7836 122.931 89.8614 122.615C90.2089 119.035 90.487 115.445 90.7071 111.854C98.5846 110.883 106.52 111.459 114.432 111.335C114.456 110.691 114.502 109.404 114.537 108.761C114.653 105.294 114.618 101.839 114.618 98.373Z" fill="#8C9086"/>
<path d="M204.62 97.2307C208.675 97.1629 212.741 97.0726 216.796 96.9146C218.105 101.058 218.278 105.417 218.568 109.718C222.46 109.673 226.353 109.696 230.245 109.775C230.489 113.794 230.639 117.814 230.778 121.845C234.868 121.935 238.957 122.037 243.046 122.183C243.058 122.737 243.081 123.855 243.093 124.408C242.595 124.385 241.575 124.34 241.065 124.317C237.127 124.171 233.199 123.809 229.295 123.267C229.168 119.429 228.902 115.601 228.392 111.796C224.534 111.796 220.676 111.739 216.819 111.593C216.506 107.539 216.402 103.475 216.367 99.4211C212.382 99.3647 208.397 99.3534 204.412 99.455C204.458 98.9017 204.574 97.7839 204.62 97.2307Z" fill="#52544E"/>
<path d="M116.47 99.9309C116.899 99.8744 117.745 99.7615 118.173 99.7051L118.092 100.586C116.853 107.699 116.123 114.869 115.509 122.05C107.458 122.998 99.3715 122.219 91.3086 122.196C91.4476 119.024 91.6214 115.84 91.8183 112.667C99.4642 112.34 107.319 113.661 114.814 111.831C116.899 108.264 115.88 103.86 116.47 99.9309Z" fill="#C3C6B8"/>
<path d="M118.175 99.7054C146.917 99.3328 175.67 99.8296 204.411 99.457C203.855 103.194 203.913 106.988 204.631 110.703C208.35 111.064 212.856 110.048 215.926 112.554C217.166 115.885 217.328 119.476 217.861 122.965C221.58 123.428 226.306 122.31 229.156 125.211C230.106 135.983 228.704 146.867 229.7 157.639C231.392 161.263 236.037 160.021 239.223 159.682C239.872 160.484 240.52 161.286 241.169 162.087C241.158 165.576 241.065 169.099 241.609 172.565C244.587 180.277 239.837 188.802 243.336 196.434C246.29 198.478 250.263 197.281 253.646 197.541C253.739 202.034 253.704 206.528 253.611 211.022C247.193 211.191 240.856 209.836 234.45 209.972C232.921 210.13 230.477 210.04 230.083 211.97C229.237 214.838 229.422 217.864 229.376 220.822C229.573 229.392 229.063 237.973 229.793 246.532C229.666 246.543 229.411 246.566 229.283 246.577C225.46 246.995 221.614 247.288 217.78 247.503C217.652 250.777 217.548 254.04 217.432 257.314C212.045 257.676 206.16 256.784 201.318 259.618C200.75 259.945 199.615 260.589 199.047 260.905C199.129 264.416 198.978 267.917 198.688 271.405C196.985 271.665 195.294 271.925 193.603 272.185C193.8 275.933 193.858 279.716 193.081 283.408L192.502 281.861C191.877 278.688 192.189 275.448 192.166 272.241C188.471 268.052 182.064 270.57 177.292 271.225C177.523 275.809 175.623 281.319 179.087 285.135C179.272 285.384 179.655 285.869 179.84 286.117C184.428 286.129 189.004 285.79 193.591 285.564C190.232 289.234 184.416 287.687 179.944 287.619C174.314 286.863 175.183 280.167 174.94 276.114C174.766 279.049 174.87 282.324 172.345 284.413C164.085 282.617 155.246 286.264 147.253 283.34C145.318 279.828 145.619 275.448 144.669 271.575C144.275 276.238 144.773 281.025 143.511 285.576C142.781 285.655 141.31 285.824 140.568 285.903C143.244 281.341 142.514 275.99 142.306 270.976C137.626 270.118 132.679 269.249 128.022 270.581C125.636 273.043 126.701 276.972 126.25 280.054C124.199 277.999 124.523 274.985 123.643 272.444C122.751 271.18 121.581 270.13 120.504 269.023C119.287 270.107 118.106 271.236 116.936 272.388C117.828 263.954 115.696 255.689 114.688 247.367C110.819 247.243 106.973 246.972 103.138 246.509C102.976 242.625 102.617 238.752 102.038 234.902C94.0791 234.665 86.132 234.88 78.185 234.733C77.8722 230.725 77.7332 226.716 77.5941 222.708C77.5826 222.121 77.5362 220.947 77.513 220.36C73.7712 220.258 70.0178 220.19 66.2644 220.134C65.6851 209.227 66.8784 198.241 65.5229 187.39C69.4733 186.656 73.4932 186.329 77.513 186.34C79.1465 179.114 78.3819 171.719 78.5093 164.402C78.6136 150.988 78.2892 137.575 78.7063 124.173C82.2048 124.184 85.6918 124.218 89.1788 124.342C101.238 124.918 113.344 122.908 125.358 123.879C128.045 126.984 126.771 131.681 127.35 135.486C131.405 135.735 135.448 135.983 139.502 136.209C139.711 140.07 139.931 143.932 140.14 147.793C149.095 149.893 159.046 150.051 167.607 146.54C168.684 142.972 168.059 139.19 167.966 135.531C163.598 135.023 158.675 135.814 154.713 133.759C152.964 130.518 153.358 126.589 152.813 123.032C144.924 122.468 136.919 123.281 129.157 121.452C128.949 117.839 128.717 114.225 128.485 110.612C125.358 110.59 122.23 110.567 119.113 110.556C118.731 107.236 118.326 103.917 118.094 100.586L118.175 99.7054ZM114.711 159.321C114.665 159.649 114.595 160.292 114.549 160.608C111.641 160.45 108.71 160.112 105.803 160.484C101.099 162.11 103.393 168.004 102.999 171.651C106.637 171.775 110.274 171.854 113.912 171.91C114.41 176.28 114.202 180.695 114.758 185.042C115.024 185.358 115.557 185.968 115.823 186.272C123.852 186.848 131.938 186.385 139.989 186.419C140.754 185.55 141.53 184.692 142.306 183.822C142.433 176.393 142.248 168.952 142.422 161.523C141.217 160.552 140.186 159.028 138.402 159.253C130.513 159.095 122.6 159.174 114.711 159.321ZM178.357 160.27C178.207 168.218 178.276 176.167 178.265 184.116L179.678 183.958L179.412 185.403C187.891 185.437 196.383 185.651 204.851 185.222C204.932 181.158 204.944 177.104 204.967 173.04C208.779 172.791 212.972 173.48 216.378 171.448C218.382 168.241 218.081 163.216 215.278 160.541C211.837 159.908 208.304 160.213 204.84 160.484C203.531 160.145 202.222 159.829 200.924 159.524C194.205 159.22 187.486 159.547 180.767 159.31L180.57 160.586C180.025 160.507 178.913 160.349 178.357 160.27Z" fill="#EFF4E5"/>
<path d="M204.411 99.4562C208.396 99.3545 212.381 99.3658 216.366 99.4223C216.401 103.476 216.505 107.54 216.818 111.594C220.675 111.741 224.533 111.797 228.391 111.797C228.901 115.602 229.167 119.43 229.294 123.269C233.198 123.811 237.126 124.172 241.064 124.319C241.053 136.908 241.053 149.497 241.169 162.086C240.52 161.285 239.871 160.483 239.222 159.682C236.037 160.02 231.391 161.262 229.7 157.638C228.704 146.866 230.105 135.982 229.155 125.211C226.306 122.309 221.579 123.427 217.86 122.964C217.327 119.475 217.165 115.884 215.926 112.554C212.856 110.047 208.349 111.063 204.631 110.702C203.912 106.987 203.855 103.193 204.411 99.4562Z" fill="#C3C6BB"/>
<path d="M115.511 122.05C116.125 114.869 116.854 107.699 118.094 100.586C118.326 103.917 118.731 107.236 119.113 110.556C122.23 110.567 125.358 110.59 128.485 110.612C128.717 114.226 128.949 117.839 129.157 121.452C136.919 123.281 144.924 122.468 152.813 123.032C153.358 126.589 152.964 130.518 154.713 133.759C158.675 135.814 163.598 135.023 167.966 135.531C168.059 139.19 168.684 142.972 167.607 146.54C159.046 150.051 149.094 149.893 140.14 147.793C139.931 143.932 139.711 140.07 139.502 136.209C135.448 135.983 131.405 135.735 127.35 135.486C126.771 131.681 128.045 126.984 125.358 123.879C113.344 122.908 101.238 124.918 89.1787 124.342C89.8854 123.62 90.6036 122.908 91.3103 122.197C99.3732 122.219 107.459 122.999 115.511 122.05Z" fill="#E0E5D6"/>
<path d="M90.8475 110.126C98.644 108.602 106.927 111.244 114.538 108.76C114.503 109.404 114.457 110.691 114.434 111.335C106.522 111.459 98.586 110.883 90.7085 111.854C90.4884 115.444 90.2103 119.035 89.8628 122.614C85.785 122.93 81.5798 122.784 77.6179 123.901C76.3088 131.263 77.2587 138.783 76.9807 146.212C76.7027 158.598 77.4557 171.018 76.6911 183.37C73.4821 185.651 69.0452 185.109 65.2802 186.024C64.4577 194.955 65.1064 203.92 64.8747 212.862C64.9906 215.651 64.5504 218.666 65.9058 221.251C69.6824 222.38 73.7022 222.267 77.5947 222.708C77.7337 226.716 77.8727 230.724 78.1855 234.732C78.4172 238.504 78.5099 242.297 78.6952 246.08C82.5992 246.08 86.5033 246.114 90.4189 246.17C91.4267 250.054 90.5 254.649 92.0755 258.172C99.6171 258.917 107.24 258.161 114.816 258.556C115.87 262.734 116.137 267.092 115.001 271.292L114.828 272.184C98.447 272.162 82.0779 272.128 65.6973 272.195C62.3956 269.316 63.9016 264.721 63.6236 260.927C59.5111 259.708 55.2016 259.832 50.95 259.651C50.7415 256.072 50.6836 252.482 50.6952 248.902C50.0464 248.552 48.7721 247.864 48.1234 247.514C40.5586 247.423 32.9822 247.66 25.4175 247.277C25.0815 239.565 25.3016 231.853 25.2205 224.142C24.3633 223.679 23.5176 223.216 22.6603 222.753C19.5093 222.222 14.9565 224.029 12.825 221.195C12.4659 217.864 12.6049 214.51 12.5585 211.168C8.7356 211.101 4.92425 211.078 1.10132 211.089C1.04339 210.525 0.927552 209.384 0.869629 208.82C4.70414 208.865 8.59658 208.504 12.3616 209.305C15.8717 211.507 14.2962 216.238 15.3388 219.591C17.8643 222.166 22 220.766 25.2553 221.138C26.101 221.906 26.9235 222.696 27.7576 223.487C27.8734 230.758 27.4795 238.052 28.1862 245.301C36.5387 245.786 45.2967 243.923 53.2669 247.13C53.2785 250.619 53.3133 254.108 53.3712 257.596C57.3331 257.969 61.6774 257.45 65.2918 259.301C66.6704 262.632 65.8594 266.471 66.1375 270.005C82.217 270.073 98.308 270.208 114.376 269.915C114.26 266.832 114.098 263.761 113.901 260.69C105.664 260.363 97.3002 261.469 89.1909 259.629C89.133 255.903 89.0982 252.188 89.0751 248.462C84.9973 247.943 80.8616 247.773 76.8417 246.938C76.1118 245.865 75.7296 244.691 75.7064 243.415C75.5558 237.024 75.5558 230.611 75.0345 224.232C71.1884 222.854 66.2649 224.232 62.5926 221.635C62.8822 209.78 62.0481 197.879 62.9169 186.057C65.6625 182.196 71.1073 183.291 75.243 182.93C75.2546 163.193 75.3009 143.457 75.1967 123.732C79.4251 121.282 84.557 122.242 89.1561 121.011C89.5848 117.499 87.7197 112.78 90.8475 110.126Z" fill="#656662"/>
<path d="M1.06578 123.484C5.56062 123.427 10.067 123.45 14.5503 123.901C11.2834 125.087 7.6922 125.098 4.46008 126.351C3.05834 128.124 3.67233 130.653 3.42905 132.753C3.75342 157.255 3.25528 181.767 3.70708 206.279C7.26356 206.912 11.0749 206.9 14.3534 208.504C17.2843 211.089 16.2764 215.504 16.9252 218.948C19.0915 219.117 21.2694 219.264 23.4357 219.546C23.8875 219.941 24.7911 220.743 25.2545 221.138C21.9992 220.766 17.8635 222.166 15.3381 219.591C14.2954 216.238 15.871 211.507 12.3608 209.305C8.5958 208.504 4.70336 208.865 0.868848 208.82L1.47125 207.702L0 207.962C0.162185 180.378 0.10426 152.795 0.0115827 125.211L0.532892 124.297L1.06578 123.484Z" fill="#252623"/>
<path d="M241.065 124.319C241.575 124.342 242.595 124.387 243.093 124.41C243.128 139.889 243.243 155.369 243.151 170.849C246.672 171.639 250.298 171.73 253.913 171.651C254.585 175.185 255.002 178.764 254.909 182.366C254.434 195.666 256.276 209.068 254.029 222.29C249.893 222.132 245.746 222.426 241.749 223.521C242.12 222.538 241.969 221.127 242.954 220.495C246.429 219.964 249.962 220.235 253.461 220.213C253.507 217.153 253.554 214.093 253.612 211.022C253.704 206.528 253.739 202.034 253.646 197.541C253.032 189.953 254.399 182.185 252.951 174.71C249.14 174.123 245.132 174.315 241.61 172.565C241.065 169.099 241.158 165.576 241.17 162.087C241.054 149.498 241.054 136.909 241.065 124.319Z" fill="#83877D"/>
<path d="M114.713 159.321C122.602 159.174 130.514 159.095 138.403 159.253C140.188 159.027 141.219 160.552 142.423 161.523C142.25 168.952 142.435 176.393 142.307 183.822C141.531 184.691 140.755 185.549 139.991 186.419C131.939 186.385 123.853 186.848 115.825 186.272C115.559 185.967 115.026 185.358 114.759 185.041C114.203 180.694 114.412 176.28 113.914 171.91C113.728 168.139 114.064 164.357 114.551 160.608C114.597 160.292 114.667 159.648 114.713 159.321ZM115.999 163.227C115.883 170.126 115.373 177.194 117.018 183.969C124.317 184.059 131.615 183.946 138.913 184.059C140.072 176.596 139.481 169.008 138.902 161.523C131.754 161.76 124.583 161.252 117.458 161.76C117.088 162.132 116.358 162.866 115.999 163.227Z" fill="#81867A"/>
<path d="M178.358 160.269C178.914 160.348 180.026 160.506 180.571 160.585L180.768 159.309C187.487 159.546 194.206 159.219 200.925 159.524C202.222 159.828 203.532 160.145 204.841 160.483C204.991 164.661 205.014 168.85 204.968 173.039C204.945 177.103 204.933 181.157 204.852 185.222C196.384 185.651 187.892 185.436 179.412 185.402L179.679 183.957L178.265 184.115C178.277 176.166 178.208 168.218 178.358 160.269ZM180.93 162.708C180.663 169.437 180.721 176.166 180.826 182.907C187.776 183.155 194.727 183.054 201.678 183.009C201.921 176.607 200.971 170.058 202.883 163.814C195.839 161.454 188.228 163.125 180.93 162.708Z" fill="#464A43"/>
<path d="M204.841 160.484C208.305 160.213 211.838 159.908 215.279 160.541C218.082 163.216 218.383 168.241 216.379 171.448C212.973 173.48 208.78 172.791 204.968 173.04C205.015 168.851 204.991 164.662 204.841 160.484Z" fill="#C3C8BA"/>
<path d="M102.999 171.65C103.392 168.003 101.099 162.11 105.802 160.484C108.71 160.111 111.641 160.45 114.548 160.608C114.062 164.356 113.726 168.139 113.911 171.91C110.274 171.854 106.636 171.775 102.999 171.65Z" fill="#C3C8B8"/>
<path d="M115.999 163.227C116.358 162.866 117.088 162.132 117.458 161.76C124.583 161.251 131.754 161.76 138.901 161.522C139.481 169.008 140.071 176.596 138.913 184.059C131.615 183.946 124.316 184.059 117.018 183.969C115.373 177.194 115.883 170.126 115.999 163.227Z" fill="#020300"/>
<path d="M180.929 162.707C188.227 163.125 195.838 161.454 202.882 163.814C200.97 170.058 201.92 176.606 201.677 183.008C194.726 183.054 187.776 183.155 180.825 182.907C180.72 176.166 180.663 169.437 180.929 162.707Z" fill="#000200"/>
<path d="M253.913 171.65C254.585 171.797 255.918 172.102 256.59 172.249C257.632 183.099 256.694 194.074 257.111 204.97C256.671 211.157 258.42 217.909 255.072 223.554C251.411 223.453 247.774 223.848 244.194 224.559C244.426 231.966 244.182 239.373 244.426 246.78C240.383 248.778 235.76 248.496 231.358 248.767C231.138 252.436 230.918 256.106 230.304 259.73C229.76 259.73 228.647 259.73 228.091 259.73C229.377 255.451 229.319 250.98 229.285 246.577C229.412 246.565 229.667 246.543 229.794 246.531C233.664 246.226 237.533 246.26 241.402 246.294C242.422 238.741 241.842 231.108 241.75 223.521C245.746 222.425 249.894 222.132 254.029 222.29C256.277 209.068 254.435 195.666 254.91 182.365C255.002 178.764 254.585 175.184 253.913 171.65Z" fill="#3C4137"/>
<path d="M241.609 172.564C245.131 174.314 249.139 174.122 252.95 174.709C254.398 182.184 253.031 189.952 253.645 197.54C250.263 197.28 246.289 198.477 243.335 196.433C239.836 188.8 244.586 180.276 241.609 172.564Z" fill="#C4C7B9"/>
<path d="M64.8747 212.863C65.1064 203.92 64.4576 194.955 65.2802 186.024C65.3381 186.374 65.4655 187.052 65.5234 187.39C66.8788 198.241 65.6856 209.227 66.2649 220.134C70.0183 220.19 73.7717 220.258 77.5135 220.36C77.5367 220.947 77.583 222.121 77.5946 222.708C73.7022 222.268 69.6823 222.381 65.9057 221.252C64.5503 218.666 64.9905 215.651 64.8747 212.863Z" fill="#A7A99F"/>
<path d="M230.083 211.969C230.477 210.038 232.921 210.129 234.45 209.971C240.856 209.835 247.193 211.19 253.611 211.021C253.553 214.092 253.507 217.152 253.46 220.212C249.962 220.234 246.429 219.963 242.953 220.494C241.968 221.126 242.119 222.537 241.748 223.52C241.841 231.107 242.42 238.74 241.401 246.293C237.532 246.26 233.662 246.226 229.793 246.531C229.063 237.972 229.573 229.391 229.376 220.821C229.422 217.863 229.237 214.837 230.083 211.969Z" fill="#C2C7B9"/>
<path d="M78.1851 234.733C86.1321 234.88 94.0792 234.665 102.038 234.903C102.617 238.753 102.976 242.625 103.138 246.51C106.973 246.972 110.819 247.243 114.688 247.368C115.696 255.689 117.828 263.954 116.936 272.388L115.001 271.293C116.136 267.093 115.87 262.734 114.816 258.557C107.239 258.162 99.6166 258.918 92.075 258.173C90.4995 254.65 91.4263 250.055 90.4184 246.171C86.5028 246.114 82.5988 246.08 78.6948 246.08C78.5094 242.298 78.4168 238.504 78.1851 234.733Z" fill="#C2C7B8"/>
<path d="M217.781 247.502C221.615 247.287 225.461 246.994 229.284 246.576C229.319 250.979 229.377 255.451 228.091 259.73C220.387 259.47 212.672 259.775 204.968 259.718C204.887 263.478 204.875 267.25 204.956 271.009C221.546 271.134 238.146 270.84 254.736 271.134C249.812 273.245 244.356 272.601 239.131 272.635C229.887 272.613 220.642 272.613 211.409 272.748C207.876 272.884 204.493 271.822 201.191 270.772C201.493 267.058 201.435 263.332 201.319 259.617C206.161 256.783 212.046 257.675 217.433 257.314C217.549 254.039 217.653 250.776 217.781 247.502Z" fill="#C3C7BC"/>
<path d="M128.023 270.582C132.68 269.249 137.627 270.119 142.307 270.977C142.515 275.99 143.245 281.342 140.569 285.903C136.514 285.553 132.402 286.05 128.37 285.452C126.725 284.3 126.517 281.895 126.25 280.055C126.702 276.972 125.637 273.043 128.023 270.582ZM128.938 272.557C128.324 275.764 128.556 279.05 128.475 282.301C132.263 283.397 136.433 283.995 140.117 282.189C140.071 278.767 140.036 275.324 139.005 272.027C135.657 272.128 132.251 271.891 128.938 272.557Z" fill="#989C91"/>
<path d="M177.293 271.225C182.065 270.57 188.472 268.052 192.167 272.241C188.298 272.275 184.44 272.15 180.583 272.015C179.934 275.402 179.563 278.823 179.401 282.267C183.699 283.848 188.228 283.159 192.503 281.861C193.546 284.661 190.267 285.451 188.321 285.609C185.263 285.733 182.031 286.106 179.088 285.135C175.624 281.319 177.524 275.809 177.293 271.225Z" fill="#90948A"/>
<path d="M180.582 272.014C184.439 272.15 188.297 272.274 192.166 272.24C192.189 275.447 191.877 278.687 192.502 281.86C188.227 283.158 183.698 283.847 179.4 282.267C179.562 278.823 179.933 275.402 180.582 272.014Z" fill="#060902"/>
<path d="M128.938 272.556C132.252 271.89 135.658 272.127 139.006 272.026C140.037 275.323 140.071 278.766 140.118 282.187C136.434 283.994 132.263 283.396 128.475 282.3C128.556 279.049 128.324 275.763 128.938 272.556Z" fill="#030603"/>
</svg>
