<svg width="246" height="218" viewBox="0 0 246 218" fill="none" xmlns="http://www.w3.org/2000/svg">
<path d="M48.1732 1.24144C51.4597 1.44578 54.5419 -0.206009 57.8115 0.066452C58.5778 0.321884 60.1103 0.81572 60.8766 1.07115C71.0939 0.679489 81.3453 1.65013 91.5115 0.338913C101.814 1.53093 112.218 0.849774 122.572 0.934918C125.722 -1.19368 129.111 0.986008 132.466 0.951951C140.963 1.20738 149.495 0.986005 157.941 0.509198C163.748 2.04179 169.486 -0.274123 175.31 0.10051C178.546 1.54796 182.122 1.10521 185.545 0.798691C189.683 -0.546584 194.025 1.97368 198.35 1.15629L198.163 2.85917C197.124 8.58085 197.363 14.4217 199.065 19.9902C198.537 30.4118 197.788 40.8845 199.661 51.255L197.652 50.4547L197.192 48.888C198.146 39.2497 198.299 29.5263 196.375 19.9902C147.604 19.6666 98.8338 19.4112 50.0804 20.1434C49.6717 30.7013 49.9612 41.2762 49.6036 51.834L48.3775 50.3695C45.704 49.9949 42.9964 49.9438 40.3059 49.9949C42.4685 49.7565 44.6141 49.3819 46.7598 49.0583C47.2025 38.8581 46.8449 28.6748 46.5554 18.4746C43.8308 21.2162 40.4932 22.3231 36.5425 21.7612L34.9077 19.1047L34.5501 18.4916L33.6816 16.925C38.4838 16.8909 43.2859 16.8569 48.088 16.7377C47.9688 11.5609 48.0029 6.40116 48.1732 1.24144ZM50.472 5.51567C49.3992 9.34715 50.5402 13.1786 51.9195 16.7377C100.009 16.1587 148.132 17.1293 196.222 16.2779C196.324 12.5145 196.477 8.76817 196.681 5.02183C189.802 2.43346 182.411 3.47221 175.259 3.35301C158.23 3.62547 141.184 2.82512 124.19 3.94902C109.443 2.94432 94.5937 3.37004 79.8297 3.55736C70.1063 5.70298 59.8038 1.02007 50.472 5.51567Z" fill="#050100"/>
<path d="M50.4723 5.51569C59.804 1.02008 70.1065 5.703 79.8299 3.55737C94.5939 3.37006 109.443 2.94434 124.19 3.94904C141.185 2.82513 158.231 3.62549 175.259 3.35303C182.411 3.47223 189.802 2.43347 196.682 5.02185C196.477 8.76819 196.324 12.5145 196.222 16.2779C148.132 17.1293 100.009 16.1587 51.9197 16.7377C50.5404 13.1787 49.3994 9.34717 50.4723 5.51569Z" fill="#030101"/>
<path d="M34.9078 19.1047L36.5426 21.7612C40.4933 22.3231 43.8309 21.2162 46.5555 18.4746C46.845 28.6749 47.2026 38.8581 46.7599 49.0583C44.6142 49.3819 42.4686 49.7565 40.3059 49.9949C37.956 50.0971 35.623 50.1482 33.2901 50.1993C33.852 39.8458 31.8767 29.2198 34.9078 19.1047Z" fill="#050100"/>
<path d="M85.1086 135.377C88.5654 135.854 92.8737 134.424 95.7856 136.501C96.2113 145.952 96.1773 155.454 95.7345 164.905C91.9882 164.326 86.4368 166.761 84.3082 162.453C84.189 153.462 82.997 144.215 85.1086 135.377Z" fill="#050100"/>
<path d="M50.0808 20.1434C98.8343 19.4111 147.605 19.6666 196.375 19.9901C198.3 29.5263 198.146 39.2497 197.193 48.888C196.733 54.5245 196.307 60.1781 196.001 65.8317C192.084 65.6784 187.878 66.3936 184.251 64.5375C182.326 61.6085 183.536 57.7089 183.042 54.3883C184.37 57.181 185.783 59.9397 187.146 62.7154C189.359 61.9832 192.918 62.7494 193.838 59.9567C195.541 53.009 192.663 46.1975 190.551 39.6925C188.866 35.9972 191.369 32.3701 192.476 28.9302C181.713 22.9191 169.163 25.1669 157.413 25.1669C146.277 26.1886 135.106 25.4053 123.952 25.5926C120.853 25.4223 118.06 26.6484 115.642 28.4534C119.78 33.5621 120.921 40.1011 121.517 46.4699C123.254 41.1058 124.463 34.6349 129.895 31.6719C135.804 28.4194 143.603 28.4364 149.682 31.2121C154.263 35.4012 152.884 42.5874 152.73 48.1558C152.85 54.7119 146.311 57.5557 141.662 60.6208C145.902 63.0389 152.645 64.3842 153.037 70.2762C153.531 76.645 154.723 85.4829 148.337 89.3825C143.007 91.6984 136.042 92.056 131.019 88.8376C127.375 84.7507 125.212 79.608 122.385 74.9591C120.376 77.4623 118.366 79.9826 116.527 82.605C116.68 78.3478 116.629 74.0736 116.595 69.8164C121.023 69.5269 125.45 69.4418 129.895 69.5099C129.98 74.5334 130.099 79.5569 130.218 84.5804C135.702 86.6068 141.934 87.4582 147.537 85.4318C152.271 80.2891 149.853 72.3537 148.422 66.2574C143.552 66.019 138.682 65.8998 133.794 65.8998C133.607 61.8129 133.454 57.743 133.335 53.6731C138.869 53.026 144.42 52.4641 149.989 51.9873C149.597 46.0953 151.845 39.2156 148.371 34.0219C143.092 30.3777 136.059 32.6425 130.355 34.107C130.116 39.1475 129.963 44.1881 129.912 49.2456C125.501 49.2286 121.108 49.1434 116.715 48.9732C116.612 44.0007 116.459 39.0283 116.221 34.0559C110.158 32.0125 103.756 31.7911 97.6423 33.7494C96.5184 39.5903 94.3387 46.6402 98.4767 51.7999C103.109 53.588 108.166 53.5369 113.036 54.0988C112.968 58.0325 112.832 61.9661 112.577 65.8998C107.706 65.8146 102.836 65.9679 97.9828 66.2914C96.1097 72.8475 95.6329 79.7442 98.0169 86.2322C104.062 86.5217 110.107 86.4535 116.119 85.8065C115.608 87.4753 115.233 89.5358 113.19 89.9615C106.344 92.3115 96.9952 90.9832 93.4021 83.9503C91.0691 78.8247 90.5413 72.0812 93.8108 67.2451C97.3698 63.7882 102.376 62.511 106.838 60.6208C99.9752 56.1593 90.5413 51.1528 91.9206 41.3953C89.8771 30.5139 103.126 30.0542 110.431 28.3853C106.548 27.1082 102.615 25.9161 98.5107 25.7288C84.3598 24.8263 70.1578 25.1499 56.0239 26.2227C55.496 38.3472 54.7126 50.4717 54.355 62.5962C58.459 60.11 60.5365 55.5633 64.2317 52.6003C64.1466 56.4318 64.4191 60.3654 63.4314 64.1118C59.8383 68.0454 54.0485 66.2404 49.621 65.0654C49.6551 60.6549 49.6551 56.2445 49.604 51.834C49.9616 41.2761 49.6721 30.7012 50.0808 20.1434Z" fill="#C54549"/>
<path d="M199.066 19.9903C203.851 19.8881 208.636 19.9732 213.404 20.2116C213.319 30.6503 213.302 41.0719 213.489 51.4936C209.028 50.5229 204.447 50.6762 199.951 51.3573L199.662 51.2552C197.789 40.8846 198.538 30.4119 199.066 19.9903Z" fill="#060202"/>
<path d="M56.0236 26.2227C70.1575 25.1499 84.3595 24.8263 98.5105 25.7288C102.614 25.9162 106.548 27.1082 110.431 28.3853C103.125 30.0542 89.8769 30.5139 91.9203 41.3953C90.541 51.1529 99.975 56.1593 106.838 60.6209C102.376 62.5111 97.3696 63.7882 93.8105 67.2451C90.541 72.0813 91.0689 78.8247 93.4018 83.9503C96.9949 90.9832 106.344 92.3115 113.189 89.9615C115.233 89.5358 115.607 87.4753 116.118 85.8065C116.22 85.0061 116.425 83.4054 116.527 82.6051C118.366 79.9826 120.375 77.4624 122.385 74.9591C125.212 79.608 127.374 84.7507 131.018 88.8376C136.042 92.056 143.007 91.6984 148.337 89.3825C154.723 85.4829 153.531 76.645 153.037 70.2762C152.645 64.3842 145.902 63.039 141.661 60.6209C146.31 57.5557 152.849 54.7119 152.73 48.1558C152.883 42.5874 154.263 35.4012 149.682 31.2121C143.603 28.4364 135.804 28.4194 129.895 31.6719C124.462 34.6349 123.253 41.1059 121.516 46.4699C120.92 40.1012 119.779 33.5621 115.641 28.4534C118.06 26.6484 120.852 25.4223 123.952 25.5926C135.105 25.4053 146.276 26.1886 157.413 25.1669C169.163 25.1669 181.713 22.9191 192.475 28.9303C191.369 32.3701 188.865 35.9972 190.551 39.6925C192.663 46.1975 195.541 53.009 193.838 59.9567C192.918 62.7495 189.359 61.9832 187.145 62.7154C185.783 59.9397 184.37 57.1811 183.041 54.3883C182.82 53.5369 182.377 51.834 182.173 50.9826C176.979 49.5692 171.496 48.0536 166.149 49.5181C163.033 53.4177 162.965 58.7477 162.505 63.5158C162.045 71.1447 162.096 79.1482 165.842 86.0619C169.861 86.4365 174.016 86.5217 177.78 88.1224C179.636 92.5329 180.232 97.3009 181.049 101.967C185.647 102.614 190.245 103.193 194.876 103.67C195.864 108.216 196.222 112.865 195.711 117.497C147.622 117.276 99.5322 117.548 51.4429 117.276C51.6132 112.695 51.8005 108.131 51.9708 103.568C56.0407 102.648 60.5363 102.682 64.2315 100.587C66.5985 96.4495 66.7007 91.4941 67.5692 86.9133C72.5926 85.9257 81.6349 87.7988 82.265 80.6638C82.7929 71.5704 82.9972 62.3578 81.9244 53.3155C78.5357 46.2656 69.5104 50.0119 64.2315 52.6003C60.5363 55.5633 58.4587 60.11 54.3548 62.5962C54.7124 50.4717 55.4957 38.3472 56.0236 26.2227Z" fill="#C54549"/>
<path d="M130.355 34.1069C136.059 32.6424 143.092 30.3776 148.371 34.0218C151.845 39.2155 149.597 46.0952 149.989 51.9872C144.42 52.464 138.869 53.0259 133.335 53.673C133.454 57.7429 133.607 61.8128 133.794 65.8997C138.682 65.8997 143.552 66.0189 148.422 66.2573C149.853 72.3536 152.271 80.289 147.537 85.4317C141.934 87.4581 135.702 86.6067 130.218 84.5803C130.099 79.5568 129.98 74.5333 129.895 69.5098C125.45 69.4417 121.023 69.5268 116.595 69.8163C116.629 74.0735 116.68 78.3477 116.527 82.6049C116.425 83.4053 116.221 85.006 116.118 85.8064C110.107 86.4535 104.062 86.5216 98.0168 86.2321C95.6328 79.7441 96.1096 72.8474 97.9828 66.2913C102.836 65.9678 107.706 65.8145 112.576 65.8997C112.832 61.966 112.968 58.0324 113.036 54.0987C108.166 53.5368 103.108 53.5879 98.4766 51.7998C94.3386 46.6401 96.5183 39.5902 97.6422 33.7493C103.756 31.791 110.158 32.0124 116.221 34.0558C116.459 39.0282 116.612 44.0006 116.714 48.9731C121.108 49.1433 125.501 49.2285 129.912 49.2455C129.963 44.188 130.116 39.1474 130.355 34.1069ZM100.81 36.9167C100.827 41.0206 100.844 45.1245 100.895 49.2285C104.931 49.2285 108.983 49.2115 113.019 49.1774C112.985 45.3119 113.343 41.3782 112.628 37.5638C109.852 33.8004 104.471 35.7076 100.81 36.9167ZM133.522 49.0923C137.404 49.1263 141.304 49.1944 145.187 49.3477C147.077 46.2825 146.992 42.6554 147.145 39.2156C144.625 34.8391 139.652 35.2989 135.276 35.2649C132.568 39.3858 133.624 44.4604 133.522 49.0923ZM116.34 54.5244C117.089 58.1686 114.705 63.6349 118.843 65.6953C122.453 65.8486 127.494 67.4323 129.929 63.8392C130.201 60.7229 130.099 57.6067 130.082 54.4904C125.757 52.5491 120.427 51.4082 116.34 54.5244ZM101.048 69.4928C101.218 73.801 99.907 78.501 101.746 82.5368C105.544 83.848 109.699 83.0647 113.19 81.2597C113.053 77.3941 112.934 73.5456 112.815 69.6801C108.881 69.4757 104.965 69.4246 101.048 69.4928ZM133.556 69.5098C133.658 74.1076 132.483 79.1651 135.225 83.235C138.511 83.0307 141.815 82.9625 145.119 82.9966C145.885 78.484 145.868 73.8862 145.255 69.3565C141.355 69.4247 137.456 69.4757 133.556 69.5098Z" fill="#FFF6F0"/>
<path d="M100.81 36.9168C104.471 35.7077 109.852 33.8005 112.628 37.5639C113.343 41.3783 112.985 45.312 113.019 49.1775C108.983 49.2116 104.931 49.2286 100.895 49.2286C100.844 45.1246 100.827 41.0207 100.81 36.9168Z" fill="#FFF1EF"/>
<path d="M133.522 49.0924C133.624 44.4606 132.568 39.386 135.276 35.265C139.652 35.2991 144.625 34.8393 147.145 39.2157C146.992 42.6555 147.077 46.2826 145.187 49.3478C141.304 49.1946 137.404 49.1265 133.522 49.0924Z" fill="#FFF4EB"/>
<path d="M166.149 49.518C171.496 48.0535 176.979 49.5691 182.173 50.9825C182.377 51.8339 182.82 53.5368 183.041 54.3882C183.535 57.7089 182.326 61.6085 184.25 64.5374C187.878 66.3936 192.084 65.6783 196 65.8316C196.307 60.178 196.733 54.5245 197.192 48.8879L197.652 50.4546C199.883 56.602 199.747 63.2092 198.146 69.4928C193.139 69.6461 187.946 70.5145 183.058 69.016C179.516 65.7805 180.163 60.144 179.023 55.8016C175.498 54.9502 171.819 53.4006 168.175 54.5245C165.672 62.7153 167.188 71.5022 167.29 79.9315C171.785 81.0213 176.417 81.7876 180.674 83.6437C183.416 87.4922 183.126 92.652 184.097 97.1305C189.172 97.7436 194.4 98.6461 198.18 102.392C198.095 107.28 198.299 112.15 198.521 117.02C209.112 117.718 219.79 116.594 230.313 118.127C230.654 122.963 230.807 127.833 230.586 132.687C228.287 136.808 227.248 143.159 221.884 144.283C214.102 145.816 206.166 143.534 198.333 144.59C198.316 141.065 198.248 137.54 198.197 134.015C187.452 133.742 176.707 134.338 165.978 134.015C161.517 129.468 154.893 131.12 149.205 131.171C148.95 143.245 147.162 155.42 149.239 167.425C148.711 167.051 147.655 166.302 147.128 165.944C146.668 155.42 147.111 144.896 146.94 134.39C131.597 133.725 116.237 134.543 100.911 133.879C100.162 136.45 99.3107 139.055 99.6513 141.763C100.367 149.852 100.026 157.974 99.3107 166.063C98.7828 166.438 97.7441 167.187 97.2332 167.562C98.0676 164.19 99.1234 160.784 98.8169 157.259C98.1017 149.017 99.9408 140.622 97.4716 132.55C91.8691 130.473 85.1938 129.451 80.4769 133.998C70.2255 134.304 59.9571 133.981 49.7058 133.725C49.1779 129.196 48.5649 124.666 47.9859 120.153C37.9048 119.898 27.7727 120.664 17.7257 119.609L15.9888 119.115L16.1761 117.242C26.768 117.208 37.394 117.667 47.9689 116.918C48.1562 112.167 48.2924 107.416 48.4627 102.648C52.8561 99.6508 57.7945 97.6074 62.8861 96.0577C63.8567 92.056 64.027 87.6625 66.2919 84.1376C70.1915 81.9579 74.8403 81.8387 79.1486 81.0043C81.0899 72.0641 79.7446 62.9367 79.0464 53.9455C75.6747 53.639 71.5878 51.289 68.6248 53.9114C65.6277 58.356 67.8926 65.7465 62.6818 68.8457C57.8626 70.2421 52.8391 69.1692 48.071 68.0624C46.9471 62.1874 46.6406 56.1592 48.3776 50.3695L49.6036 51.8339C49.6547 56.2444 49.6547 60.6548 49.6207 65.0653C54.0481 66.2403 59.8379 68.0453 63.431 64.1117C64.4187 60.3654 64.1462 56.4317 64.2314 52.6002C69.5103 50.0118 78.5356 46.2655 81.9243 53.3154C82.9971 62.3577 82.7928 71.5703 82.2649 80.6637C81.6348 87.7988 72.5925 85.9256 67.569 86.9133C66.7005 91.494 66.5984 96.4494 64.2314 100.587C60.5361 102.682 56.0405 102.648 51.9706 103.567C51.8003 108.131 51.613 112.695 51.4427 117.276C99.5321 117.548 147.621 117.276 195.711 117.497C196.222 112.865 195.864 108.216 194.876 103.67C190.245 103.193 185.647 102.614 181.049 101.967C180.232 97.3008 179.636 92.5328 177.779 88.1223C174.016 86.5216 169.861 86.4365 165.842 86.0618C162.096 79.1481 162.045 71.1446 162.505 63.5157C162.964 58.7476 163.033 53.4176 166.149 49.518ZM198.367 120.852C198.265 125.364 196.681 131.903 202.369 133.691C209.691 134.338 217.133 134.373 224.472 133.708C229.53 133.044 230.45 124.768 225.852 122.929C217.167 119.421 207.495 120.426 198.367 120.852Z" fill="#91383B"/>
<path d="M33.29 50.1992C35.623 50.1482 37.9559 50.0971 40.3059 49.9949C42.9965 49.9438 45.704 49.9949 48.3776 50.3695C43.7968 52.396 38.9095 53.5028 33.9712 54.2351C32.7111 63.4817 32.9154 72.8476 33.7328 82.1112C38.5519 82.6221 43.3711 83.0819 48.2073 83.3373C51.1873 89.1101 49.9272 95.5469 48.4968 101.558C48.3265 96.8411 47.9689 92.1242 47.3899 87.4412C46.7598 87.2028 45.4827 86.726 44.8356 86.4876C42.0428 86.3344 39.2671 86.2322 36.4744 86.1641C35.4186 90.7448 34.5331 95.3767 33.1708 99.8723C33.1197 93.7589 34.2607 86.9304 30.4122 81.6515C30.7357 72.8816 31.3317 64.0777 30.4122 55.3249C26.0187 55.0354 21.6083 54.7289 17.2148 54.4224L18.0493 52.7365C22.4767 52.5322 26.9213 52.5833 31.3487 52.5833C31.8256 51.9873 32.7962 50.7953 33.29 50.1992Z" fill="#2E2216"/>
<path d="M33.9716 54.2352C38.9099 53.5029 43.7972 52.3961 48.3779 50.3696C46.641 56.1594 46.9475 62.1876 48.0714 68.0626C52.8395 69.1694 57.863 70.2422 62.6821 68.8459C67.8929 65.7466 65.6281 58.3561 68.6252 53.9116C71.5882 51.2892 75.6751 53.6392 79.0468 53.9457C79.745 62.9369 81.0903 72.0643 79.149 81.0044C74.8407 81.8389 70.1918 81.9581 66.2922 84.1378C64.0274 87.6627 63.8571 92.0561 62.8865 96.0579C57.7949 97.6075 52.8565 99.651 48.4631 102.648L48.4971 101.558C49.9276 95.547 51.1877 89.1102 48.2076 83.3374C43.3715 83.082 38.5523 82.6222 33.7332 82.1113C32.9158 72.8476 32.7114 63.4818 33.9716 54.2352Z" fill="#68372E"/>
<path d="M197.652 50.4546L199.661 51.2549L199.951 51.3571C203.782 53.0941 207.886 54.0306 212.058 54.3882C212.689 63.3454 212.552 72.3196 212.075 81.2597C207.512 81.6684 202.505 81.0554 198.418 83.4564C195.421 89.1951 197.175 95.8023 198.197 101.796L198.18 102.392C194.4 98.6461 189.172 97.7436 184.097 97.1305C183.127 92.652 183.416 87.4922 180.674 83.6437C176.417 81.7876 171.785 81.0213 167.29 79.9315C167.188 71.5022 165.672 62.7153 168.175 54.5245C171.819 53.4006 175.498 54.9502 179.023 55.8016C180.164 60.144 179.516 65.7805 183.058 69.016C187.946 70.5145 193.139 69.646 198.146 69.4928C199.747 63.2092 199.883 56.602 197.652 50.4546Z" fill="#66392E"/>
<path d="M199.951 51.3572C204.447 50.6761 209.027 50.5228 213.489 51.4935C219.109 52.4641 224.813 52.5152 230.484 52.5492C230.722 62.7836 231.114 73.0519 230.382 83.2692C224.524 82.9627 218.547 82.9286 212.893 84.7337C208.5 85.9598 203.919 86.3344 199.389 86.5898C198.895 90.813 198.759 95.0531 198.878 99.3103L198.197 101.797C197.175 95.8024 195.421 89.1952 198.419 83.4565C202.505 81.0555 207.512 81.6685 212.076 81.2598C212.552 72.3197 212.689 63.3455 212.059 54.3884C207.887 54.0308 203.783 53.0942 199.951 51.3572ZM215.328 54.5416C214.971 63.4136 215.124 72.2856 215.141 81.1576C219.636 81.1576 224.132 81.1065 228.628 80.9873C228.934 72.2175 229.173 63.4136 228.304 54.6608C223.979 54.6438 219.653 54.6097 215.328 54.5416Z" fill="#382E28"/>
<path d="M116.34 54.5247C120.427 51.4084 125.757 52.5493 130.082 54.4906C130.099 57.6069 130.201 60.7231 129.929 63.8394C127.494 67.4325 122.453 65.8488 118.843 65.6956C114.705 63.6351 117.089 58.1688 116.34 54.5247Z" fill="#FFF6F0"/>
<path d="M17.2152 54.4224C21.6087 54.7289 26.0191 55.0354 30.4126 55.3249C31.3321 64.0777 30.7361 72.8816 30.4126 81.6514C25.9851 81.7706 21.5576 81.7706 17.1131 81.7706C17.1301 72.6602 16.7044 63.5328 17.2152 54.4224Z" fill="#040200"/>
<path d="M150.704 135.633C154.552 135.497 158.401 135.548 162.232 135.854C161.687 145.527 164.548 155.948 160.427 165.042C157.192 164.956 153.973 164.82 150.755 164.599C150.074 154.961 150.551 145.288 150.704 135.633Z" fill="#040200"/>
<path d="M16.3808 150.635C26.9727 151.555 37.6838 151.129 48.3098 150.805C46.9815 153.922 46.4707 157.259 46.7602 160.631C47.2029 168.175 46.2493 175.77 47.3391 183.279C42.5881 183.415 37.82 183.501 33.069 183.347C33.4096 177.745 33.2904 172.142 33.069 166.523C27.8923 165.127 22.5112 164.99 17.1811 165.229C16.5511 160.393 16.2616 155.522 16.3808 150.635Z" fill="#040200"/>
<path d="M215.328 54.5415C219.654 54.6096 223.979 54.6437 228.304 54.6607C229.173 63.4135 228.934 72.2174 228.628 80.9872C224.132 81.1064 219.636 81.1575 215.141 81.1575C215.124 72.2855 214.971 63.4135 215.328 54.5415Z" fill="#010200"/>
<path d="M101.048 69.4928C104.964 69.4247 108.881 69.4758 112.815 69.6801C112.934 73.5457 113.053 77.3942 113.189 81.2597C109.698 83.0648 105.543 83.8481 101.746 82.5369C99.9067 78.501 101.218 73.8011 101.048 69.4928Z" fill="#FFF5F1"/>
<path d="M133.556 69.5099C137.455 69.4759 141.355 69.4248 145.255 69.3567C145.868 73.8864 145.885 78.4841 145.118 82.9968C141.815 82.9627 138.511 83.0308 135.225 83.2352C132.483 79.1653 133.658 74.1077 133.556 69.5099Z" fill="#FFF5EB"/>
<path d="M199.389 86.5898C203.919 86.3343 208.5 85.9597 212.893 84.7336C213.029 90.4894 213.2 96.2281 213.506 101.967C218.734 102.205 223.979 102.512 229.207 102.818C229.224 106.513 229.224 110.226 229.53 113.904C220.267 113.24 210.867 114.483 201.722 112.422C200.956 108.012 200.002 103.636 198.878 99.3103C198.759 95.0531 198.895 90.8129 199.389 86.5898Z" fill="#020100"/>
<path d="M33.1708 99.8723C34.5331 95.3767 35.4186 90.7448 36.4744 86.1641C39.2671 86.2322 42.0428 86.3344 44.8355 86.4876C48.3775 95.3256 43.6605 104.283 42.2812 113.053C33.7668 114.057 25.1843 113.58 16.6528 113.07C16.9764 109.732 17.0786 106.36 17.1978 103.006C22.3405 102.273 29.765 105.117 33.1708 99.8723Z" fill="#000100"/>
<path d="M44.8358 86.4875C45.4828 86.726 46.76 87.2028 47.3901 87.4412C47.9691 92.1241 48.3267 96.8411 48.4969 101.558L48.4629 102.648C48.2926 107.416 48.1564 112.167 47.9691 116.918C37.3942 117.667 26.7682 117.208 16.1763 117.242C16.3466 115.862 16.4998 114.466 16.6531 113.07C25.1845 113.58 33.767 114.057 42.2814 113.052C43.6608 104.283 48.3777 95.3255 44.8358 86.4875Z" fill="#340908"/>
<path d="M198.197 101.797L198.878 99.3103C200.002 103.636 200.956 108.012 201.722 112.422C210.866 114.483 220.266 113.24 229.53 113.904C229.717 114.96 230.126 117.071 230.313 118.127C219.789 116.595 209.112 117.718 198.52 117.02C198.299 112.15 198.095 107.28 198.18 102.393L198.197 101.797Z" fill="#36080A"/>
<path d="M230.313 118.127C235.099 119.2 240.02 119.115 244.89 119.217L245.554 120.494C241.944 120.733 238.317 120.954 234.707 121.175C234.128 129.196 233.191 137.302 234.23 145.322C237.125 148.2 241.859 148.064 245.605 149.307C239.986 149.341 234.077 148.83 228.951 151.572C218.972 154.143 208.5 152.253 198.316 153.496C198.316 152.713 198.316 151.129 198.299 150.346V149.596C208.755 149.086 219.551 150.908 229.769 148.847C230.722 143.517 230.382 138.068 230.586 132.687C230.807 127.834 230.654 122.963 230.313 118.127Z" fill="#040000"/>
<path d="M0.782021 119.166C5.24357 119.098 9.72214 118.893 14.2007 118.91C13.0087 129.298 16.8913 139.805 13.9623 149.971C9.61997 149.068 5.14139 149.307 0.730934 149.273C0.441444 139.243 0.458474 129.196 0.782021 119.166Z" fill="#040101"/>
<path d="M14.2008 118.91L15.9888 119.115L17.7258 119.609C17.5725 124.598 17.283 129.639 18.2707 134.56C19.8884 137.54 20.9612 141.388 24.2137 143.006C31.6383 144.624 39.3524 143.5 46.8621 144.607L48.1052 144.862C48.1562 146.344 48.2584 149.324 48.3095 150.805C37.6835 151.129 26.9724 151.555 16.3805 150.635C15.7845 150.465 14.5754 150.141 13.9624 149.971C16.8914 139.805 13.0088 129.298 14.2008 118.91Z" fill="#754040"/>
<path d="M17.726 119.609C27.773 120.664 37.9051 119.898 47.9862 120.154C48.5651 124.666 49.1782 129.196 49.7061 133.726C48.6843 137.353 48.0883 141.082 48.1054 144.862L46.8623 144.607C46.4536 141.354 46.2662 138.085 46.0789 134.832C36.8153 134.339 27.5346 134.441 18.2709 134.56C17.2832 129.639 17.5727 124.598 17.726 119.609Z" fill="#BB474A"/>
<path d="M198.367 120.852C207.495 120.426 217.167 119.421 225.852 122.929C230.45 124.768 229.53 133.044 224.473 133.708C217.133 134.373 209.692 134.338 202.369 133.691C196.682 131.903 198.265 125.364 198.367 120.852Z" fill="#BC4949"/>
<path d="M234.707 121.175C238.317 120.954 241.944 120.733 245.554 120.494C245.98 130.098 245.759 139.703 245.605 149.307C241.859 148.064 237.125 148.2 234.23 145.322C233.191 137.302 234.128 129.196 234.707 121.175Z" fill="#040000"/>
<path d="M80.4771 133.998C85.194 129.451 91.8693 130.473 97.4718 132.551C99.941 140.622 98.1019 149.017 98.8171 157.259C99.1236 160.784 98.0678 164.19 97.2334 167.562C91.682 168.618 86.0795 167.817 80.6984 166.37C80.6814 161.346 80.6303 156.323 80.6133 151.316C80.6133 145.544 80.6644 139.771 80.4771 133.998ZM85.1089 135.377C82.9973 144.215 84.1893 153.462 84.3085 162.453C86.4371 166.761 91.9885 164.326 95.7349 164.905C96.1776 155.454 96.2117 145.952 95.7859 136.501C92.874 134.424 88.5657 135.854 85.1089 135.377Z" fill="#503825"/>
<path d="M149.205 131.171C154.893 131.12 161.517 129.468 165.979 134.015C165.74 139.907 165.808 145.833 165.808 151.742C165.791 156.646 165.774 161.568 165.825 166.489C160.444 168.141 154.774 168.618 149.239 167.426C147.162 155.42 148.95 143.245 149.205 131.171ZM150.704 135.633C150.55 145.288 150.074 154.96 150.755 164.599C153.973 164.82 157.192 164.956 160.427 165.042C164.548 155.948 161.687 145.526 162.232 135.854C158.401 135.548 154.552 135.497 150.704 135.633Z" fill="#453423"/>
<path d="M48.1053 144.862C48.0883 141.082 48.6843 137.353 49.706 133.726C59.9574 133.981 70.2258 134.305 80.4771 133.998C80.6644 139.771 80.6133 145.544 80.6133 151.316C75.8963 151.112 71.1964 151.538 66.5646 152.304C65.1001 161.568 64.9298 171.07 65.7302 180.419C68.5229 186.719 76.0326 184.676 81.3967 184.352C81.2264 189.12 80.8177 193.888 81.2604 198.656C76.4583 198.878 71.6391 199.031 66.837 199.167C67.0243 193.888 66.3602 188.661 65.2193 183.535C60.1447 182.275 54.9339 181.951 49.7231 182.292C49.2463 171.802 49.0589 161.295 48.3097 150.805C48.2586 149.324 48.1564 146.344 48.1053 144.862ZM52.9585 135.531C49.5868 136.706 50.7789 140.912 50.4213 143.636C50.0466 147.161 51.5622 150.295 53.9462 152.781C57.1817 151.538 60.4682 150.431 63.7718 149.409C64.5041 145.407 65.1341 141.406 65.662 137.37C61.49 136.552 57.2498 134.764 52.9585 135.531Z" fill="#DCB480"/>
<path d="M165.979 134.015C176.707 134.339 187.452 133.743 198.197 134.015C198.248 137.54 198.316 141.065 198.333 144.59C198.316 145.85 198.316 148.353 198.299 149.596V150.346C197.754 150.891 196.665 151.963 196.12 152.491C196.017 147.093 195.813 141.712 195.609 136.314C191.164 136.11 186.72 136.195 182.292 136.552C181.849 140.844 181.39 145.135 180.93 149.426C175.889 150.226 170.849 151.01 165.808 151.742C165.808 145.833 165.74 139.907 165.979 134.015Z" fill="#DCB480"/>
<path d="M221.884 144.283C227.248 143.159 228.287 136.808 230.586 132.687C230.382 138.068 230.722 143.517 229.769 148.847C219.551 150.908 208.755 149.086 198.299 149.596C198.316 148.353 198.316 145.85 198.333 144.59C206.167 143.534 214.102 145.816 221.884 144.283Z" fill="#7C3F44"/>
<path d="M18.271 134.56C27.5347 134.441 36.8154 134.339 46.079 134.832C46.2663 138.085 46.4537 141.354 46.8624 144.607C39.3527 143.5 31.6386 144.624 24.214 143.006C20.9615 141.389 19.8887 137.54 18.271 134.56Z" fill="#903738"/>
<path d="M52.9583 135.531C57.2495 134.764 61.4897 136.552 65.6618 137.37C65.1339 141.406 64.5038 145.407 63.7716 149.409C60.468 150.431 57.1814 151.538 53.9459 152.781C51.5619 150.295 50.0463 147.161 50.421 143.636C50.7786 140.912 49.5866 136.706 52.9583 135.531Z" fill="#DFB283"/>
<path d="M99.6516 141.763C99.311 139.056 100.162 136.45 100.912 133.879C116.238 134.543 131.598 133.726 146.941 134.39C147.111 144.897 146.668 155.42 147.128 165.944C147.656 166.302 148.712 167.051 149.239 167.426C154.774 168.618 160.444 168.141 165.826 166.489C165.774 161.568 165.791 156.646 165.808 151.742C170.849 151.01 175.89 150.227 180.93 149.426C181.39 145.135 181.85 140.844 182.292 136.552C186.72 136.195 191.164 136.11 195.609 136.314C195.813 141.712 196.018 147.093 196.12 152.491C196.239 162.13 196.307 171.768 196.222 181.406C190.602 181.951 184.268 180.453 179.159 183.194C176.69 187.315 177.746 192.747 177.082 197.413C172.603 197.856 166.626 196.051 163.356 199.985C161.347 204.957 162.505 210.611 162.318 215.856C142.173 215.447 122.027 215.941 101.899 215.651C96.0244 215.583 90.1836 214.238 84.3257 214.919L82.2481 215.651C82.5206 209.964 82.3844 204.242 81.2605 198.656C80.8177 193.888 81.2264 189.12 81.3967 184.352C76.0326 184.676 68.5229 186.719 65.7302 180.419C64.9298 171.07 65.1001 161.568 66.5646 152.304C71.1964 151.538 75.8964 151.112 80.6134 151.316C80.6304 156.323 80.6815 161.346 80.6985 166.37C86.0796 167.817 91.6821 168.618 97.2335 167.562C97.7443 167.187 98.7831 166.438 99.311 166.063C100.026 157.975 100.367 149.852 99.6516 141.763ZM114.705 170.321C114.892 174.442 113.837 178.903 115.403 182.82C120.478 184.795 126.217 183.331 131.564 183.365C131.853 178.409 131.904 173.454 131.938 168.498C127.664 165.331 122.147 166.83 117.242 166.762C116.612 167.647 115.335 169.435 114.705 170.321Z" fill="#DCB480"/>
<path d="M48.3097 150.805C49.059 161.295 49.2463 171.802 49.7231 182.292C54.9339 181.951 60.1447 182.275 65.2193 183.535C66.3602 188.66 67.0243 193.888 66.837 199.167C71.6392 199.031 76.4583 198.878 81.2604 198.656C82.3843 204.242 82.5206 209.964 82.2481 215.651C76.8159 218.222 70.7026 217.916 65.2363 215.685C65.1852 210.628 65.1512 205.57 65.1682 200.513C59.4806 200.598 53.7249 200.513 48.2416 198.878C48.497 193.65 48.3608 188.405 47.3391 183.279C46.2492 175.77 47.2028 168.175 46.7601 160.631C46.4706 157.259 46.9814 153.922 48.3097 150.805ZM51.5452 186.634C50.1829 189.852 50.1318 193.377 50.0296 196.817C54.3379 197.873 58.7994 197.822 63.1929 197.788C63.3972 194.246 63.5675 190.704 63.7378 187.179C59.702 186.6 55.6151 186.6 51.5452 186.634ZM69.0508 214.476C72.5757 214.272 76.1177 214.101 79.6427 213.931C79.6257 209.981 79.4213 206.047 78.8253 202.164C75.5898 202.283 72.3714 202.335 69.1359 202.284C68.5059 206.319 68.1653 210.457 69.0508 214.476Z" fill="#040200"/>
<path d="M196.12 152.491C196.665 151.963 197.754 150.891 198.299 150.346C198.316 151.129 198.316 152.713 198.316 153.496C198.487 162.964 198.146 172.432 198.47 181.883C198.64 182.717 198.98 184.386 199.151 185.221C200.036 190.857 198.623 196.596 198.027 202.215C193.003 202.232 187.98 202.284 182.956 202.318C182.02 206.847 184.71 213.352 180.657 216.417C180.47 211.087 180.113 205.757 179.465 200.444C174.936 200.547 170.423 200.598 165.893 200.666C165.774 205.757 165.757 210.849 165.842 215.958C164.957 215.941 163.186 215.89 162.317 215.856C162.505 210.611 161.347 204.957 163.356 199.985C166.626 196.051 172.603 197.856 177.081 197.413C177.746 192.747 176.69 187.315 179.159 183.194C184.268 180.453 190.602 181.951 196.222 181.406C196.307 171.768 196.239 162.13 196.12 152.491ZM182.582 184.897C180.794 189.427 180.743 194.484 182.445 199.065C187.094 198.861 191.76 198.81 196.409 198.878C197.993 194.365 197.005 189.614 196.596 184.999C191.914 185.033 187.248 185.033 182.582 184.897Z" fill="#030300"/>
<path d="M198.316 153.496C208.5 152.253 218.972 154.143 228.951 151.572C229.224 156.084 229.292 160.614 229.258 165.144C223.928 164.888 218.598 165.263 213.404 166.455C213.183 171.581 212.995 176.723 212.859 181.866C208.057 181.951 203.255 181.951 198.47 181.883C198.146 172.432 198.487 162.964 198.316 153.496Z" fill="#030300"/>
<path d="M114.705 170.32C115.335 169.435 116.612 167.647 117.242 166.761C122.146 166.829 127.664 165.331 131.938 168.498C131.904 173.454 131.853 178.409 131.563 183.364C126.216 183.33 120.478 184.795 115.403 182.82C113.836 178.903 114.892 174.441 114.705 170.32Z" fill="#5E7875"/>
<path d="M182.582 184.897C187.248 185.033 191.914 185.033 196.596 184.999C197.005 189.614 197.993 194.365 196.409 198.878C191.76 198.81 187.094 198.861 182.446 199.065C180.743 194.484 180.794 189.427 182.582 184.897Z" fill="#070502"/>
<path d="M51.5449 186.634C55.6147 186.6 59.7017 186.6 63.7375 187.179C63.5672 190.704 63.3969 194.246 63.1926 197.788C58.7991 197.822 54.3376 197.873 50.0293 196.817C50.1315 193.377 50.1826 189.853 51.5449 186.634Z" fill="#060200"/>
<path d="M165.893 200.666C170.423 200.598 174.936 200.547 179.465 200.444C180.112 205.757 180.47 211.087 180.657 216.417C175.736 215.838 170.781 216.06 165.842 215.958C165.757 210.849 165.774 205.757 165.893 200.666Z" fill="#070405"/>
<path d="M69.0508 214.476C68.1653 210.457 68.5059 206.319 69.136 202.284C72.3715 202.335 75.5899 202.284 78.8254 202.164C79.4214 206.047 79.6257 209.981 79.6428 213.931C76.1178 214.102 72.5758 214.272 69.0508 214.476Z" fill="#080400"/>
</svg>
