<svg width="222" height="274" viewBox="0 0 222 274" fill="none" xmlns="http://www.w3.org/2000/svg">
<path d="M104.026 181.427C108.253 181.053 112.493 181.08 116.706 181.507C117.333 189.56 118.973 198.067 116.226 205.893C112.56 208.24 108.093 206.667 104.106 206.413C103.08 198.107 103.026 189.733 104.026 181.427Z" fill="#A9AAA1"/>
<path d="M93.2534 1.35996C100.8 0.653293 108.4 0.759959 115.96 1.11996C115.973 4.27996 115.96 7.43996 115.933 10.6C108.133 10.36 100.333 10.3466 92.52 10.36C92.72 7.35996 92.9867 4.35996 93.2534 1.35996Z" fill="#010704"/>
<path d="M89.5731 14.0133C90.5598 12.8 91.5464 11.5866 92.5198 10.36C100.333 10.3466 108.133 10.36 115.933 10.6C117 11.6666 118.053 12.7333 119.12 13.8133C119.186 17.44 119.28 21.0666 119.426 24.6933C119 24.68 118.16 24.64 117.733 24.6266C116.786 21.0133 116.106 17.3466 115.413 13.68C108.106 13.32 100.786 13.4133 93.4931 13.92C92.5464 17.9866 91.5598 22.04 90.5464 26.0933C82.5598 26.32 74.5864 26.92 66.5998 27.32C66.7331 29.52 66.7864 31.72 67.1331 33.8933C69.8798 36.6933 73.9998 37.4133 77.4931 38.9066C73.9464 38.9733 70.3998 39 66.8531 38.92C66.0798 38.56 64.5331 37.84 63.7598 37.48C64.1598 33.7866 64.4264 30.0666 64.8664 26.3733C65.3064 26 66.1864 25.2533 66.6264 24.88C74.3998 24.6133 82.1731 24.8266 89.9464 24.6133C89.7064 21.0933 89.5731 17.56 89.5731 14.0133Z" fill="#195D62"/>
<path d="M93.4936 13.9201C100.787 13.4135 108.107 13.3201 115.414 13.6801C116.107 17.3468 116.787 21.0135 117.734 24.6268C118.16 24.6401 119 24.6801 119.427 24.6935C121.374 24.7201 123.32 24.7735 125.267 24.8668C128.654 28.6268 129.907 33.5334 130.68 38.4001C134.04 39.1868 137.387 39.9868 140.747 40.8135C141.44 48.2801 141.147 55.9201 142.96 63.2401C146.6 64.5201 150.36 65.4535 154.12 66.3335C154.667 73.7868 155.04 81.2535 154.894 88.7335C156.16 89.2268 157.427 89.7068 158.707 90.2001C162.907 93.2668 165.84 97.6268 168.8 101.827C172.48 103.44 176.414 104.333 180.32 105.267C180.467 112.48 180.374 119.747 181.694 126.853C183.267 131.32 188.707 133.093 190.467 137.48C191.854 142.267 190.187 147.187 189.254 151.893C187.374 148.16 185.614 144.373 183.934 140.547C179.454 140.6 174.974 140.48 170.494 140.413C165.734 140.373 160.987 140.413 156.24 140.373C160.76 140.16 165.267 139.88 169.787 139.6C169.44 136.387 169.214 133.16 169.094 129.933C152.2 130.2 135.24 129.133 118.387 130.52C118.267 130.12 118.027 129.32 117.894 128.92C117.734 128.373 117.4 127.267 117.227 126.72C134.507 125.907 151.814 126.64 169.094 126.2C169.894 119.827 171.214 113.08 168.84 106.88C167.347 104.68 164.374 104.067 162.24 102.6C156.854 100.493 156.64 93.3601 151.654 90.7868C149.294 89.3734 146.774 88.2935 144.28 87.1468C143.627 80.5335 144.067 73.6135 141.88 67.2668C138.974 64.4801 134.667 63.6935 131.307 61.5201C129.867 50.5735 129.774 39.4268 127.174 28.6001C123.48 28.0401 119.667 27.7068 116.2 26.1735C114.774 22.5735 114.36 18.6801 113.72 14.8801C107.294 14.5335 100.867 14.6135 94.4536 15.1468C94.5736 17.8401 94.5336 20.5601 94.9336 23.2401C97.3736 25.6001 100.534 26.9868 103.467 28.6135C104.4 35.6001 104.147 42.6535 103.067 49.6001C99.6402 50.6935 96.2402 51.8001 92.8269 52.9201C91.7202 56.2401 90.9069 59.7335 89.0002 62.7068C86.3469 64.5735 83.0002 64.8135 79.9336 65.5735C78.8669 68.8535 78.3202 72.4535 76.2402 75.2801C74.3869 76.7735 72.2002 77.7735 70.1336 78.9068C68.0802 85.2668 66.8936 91.8801 64.5069 98.1201C62.6136 103.787 53.5869 102.413 52.4536 108.547C51.1869 114.293 51.9869 120.213 52.2269 126.027C69.7869 126.987 87.3736 125.707 104.934 126.667C104.76 127.133 104.414 128.053 104.24 128.507C104.054 129 103.654 129.973 103.467 130.467C86.6002 129.453 69.6536 129.84 52.7736 130.28C52.6136 133.133 52.4802 136 52.3736 138.853C48.1869 138.747 43.7202 139.36 40.2669 141.88C38.6936 145.04 37.9202 148.547 36.3469 151.72C33.8669 152.893 31.0136 152.76 28.3469 153.12C27.7069 145.92 27.7202 138.693 28.2269 131.493C32.2669 130.907 36.3069 130.307 40.3469 129.707C40.7736 122.267 39.9069 114.68 41.4802 107.347C43.6669 105.2 46.5869 104.027 49.4136 102.973C50.0669 102.947 51.3736 102.893 52.0136 102.853C52.2802 98.8535 52.5736 94.8535 52.9602 90.8668C56.5202 90.3201 60.1469 90.1335 63.6269 89.1468C66.6669 81.4801 65.4669 72.9201 65.2136 64.8668C65.6669 64.8401 66.5469 64.8001 67.0002 64.7735C70.6002 64.5068 74.1602 63.9601 77.7336 63.4268C77.9602 55.2535 78.0536 47.0668 77.4936 38.9068C74.0002 37.4135 69.8802 36.6934 67.1336 33.8934C66.7869 31.7201 66.7336 29.5201 66.6002 27.3201C74.5869 26.9201 82.5602 26.3201 90.5469 26.0935C91.5602 22.0401 92.5469 17.9868 93.4936 13.9201Z" fill="#0899A4"/>
<path d="M66.7198 14.2532C74.3331 13.8532 81.9598 13.7199 89.5731 14.0132C89.5731 17.5599 89.7065 21.0932 89.9465 24.6132C82.1731 24.8265 74.3998 24.6132 66.6265 24.8799C66.8131 21.3332 66.7465 17.7999 66.7198 14.2532Z" fill="#010809"/>
<path d="M94.4533 15.1466C100.867 14.6132 107.293 14.5332 113.72 14.8799C114.36 18.6799 114.773 22.5732 116.2 26.1732C119.667 27.7066 123.48 28.0399 127.173 28.5999C129.773 39.4266 129.867 50.5732 131.307 61.5199C134.667 63.6932 138.973 64.4799 141.88 67.2666C144.067 73.6132 143.627 80.5332 144.28 87.1466C146.773 88.2932 149.293 89.3732 151.653 90.7866C156.64 93.3599 156.853 100.493 162.24 102.6C164.373 104.067 167.347 104.68 168.84 106.88C171.213 113.08 169.893 119.827 169.093 126.2C151.813 126.64 134.507 125.907 117.227 126.72C113.133 126.907 109.027 126.893 104.933 126.667C87.3733 125.707 69.7866 126.987 52.2266 126.027C51.9866 120.213 51.1866 114.293 52.4533 108.547C53.5866 102.413 62.6133 103.787 64.5066 98.1199C66.8933 91.8799 68.08 85.2666 70.1333 78.9066C72.2 77.7732 74.3866 76.7732 76.24 75.2799C78.32 72.4532 78.8666 68.8532 79.9333 65.5732C83 64.8132 86.3466 64.5732 89 62.7066C90.9066 59.7332 91.72 56.2399 92.8266 52.9199C96.24 51.7999 99.64 50.6932 103.067 49.5999C104.147 42.6532 104.4 35.5999 103.467 28.6132C100.533 26.9866 97.3733 25.5999 94.9333 23.2399C94.5333 20.5599 94.5733 17.8399 94.4533 15.1466Z" fill="#01BDD0"/>
<path d="M181.267 244.053C182.253 232.893 180.987 221.653 182.213 210.507C181.36 221.68 182.413 232.907 181.267 244.053Z" fill="#01BDD0"/>
<path d="M119.427 24.6932C119.28 21.0666 119.187 17.4399 119.12 13.8132C122.333 13.9732 125.56 14.1466 128.787 14.3466C128.64 18.0532 128.52 21.7466 128.48 25.4532C127.68 25.3066 126.067 25.0132 125.267 24.8666C123.32 24.7732 121.373 24.7199 119.427 24.6932Z" fill="#000E0B"/>
<path d="M125.267 24.8667C126.067 25.0134 127.68 25.3067 128.48 25.4534C129.36 25.6 131.12 25.88 132 26.0267C132.107 30.04 132.213 34.04 132.32 38.0534C135.84 37.8134 139.36 37.6134 142.893 37.7467L144.027 37.8267C147.8 38.2 151.547 38.7867 155.293 39.36H153.813C150.733 39.4267 147.653 39.52 144.573 39.72C142.973 47.4667 143.693 55.4134 142.96 63.24C141.147 55.92 141.44 48.28 140.747 40.8134C137.387 39.9867 134.04 39.1867 130.68 38.4C129.907 33.5334 128.653 28.6267 125.267 24.8667Z" fill="#245E5C"/>
<path d="M39.9466 103C43.1066 103.267 46.2666 103.187 49.4133 102.973C46.5866 104.027 43.6666 105.2 41.48 107.347C39.9066 114.68 40.7733 122.267 40.3466 129.707C36.3066 130.307 32.2666 130.907 28.2266 131.493C27.72 138.693 27.7066 145.92 28.3466 153.12C31.0133 152.76 33.8666 152.893 36.3466 151.72C37.92 148.547 38.6933 145.04 40.2666 141.88C43.72 139.36 48.1866 138.747 52.3733 138.853C52.9333 138.907 54.0533 139.013 54.6133 139.067C54.1866 140.067 53.32 142.067 52.88 143.067H51.5333C48 143.08 44.4666 143.107 40.92 143.147C40.76 146.507 40.6133 149.867 40.4533 153.24C39.7066 154.067 38.9466 154.893 38.1866 155.72C34.6 155.973 31.0133 156.213 27.4133 156.413C27.48 160.187 27.52 163.96 27.5866 167.733C27.1466 167.413 26.2933 166.787 25.8533 166.467C25.6533 163.253 25.6 160.04 25.52 156.827C21.72 156.613 17.9333 156.36 14.1333 156.067C14.6266 147.867 14.76 139.667 15.4 131.48C15.4933 139.04 15.48 146.613 15.8133 154.16C18.6533 153.853 21.56 153.693 24.2933 152.747C26.48 145.973 25.2666 138.773 25.1866 131.8C21.92 131.693 18.6533 131.587 15.4 131.48C19.5866 130.293 23.76 129.04 28.0133 128.16C31.6933 127.6 35.4133 127.453 39.12 127.333C39.0533 119.733 38.7466 112.133 39.4133 104.56L39.9466 103Z" fill="#245E5C"/>
<path d="M53.3599 27C57.1999 26.9066 61.0399 26.7866 64.8665 26.3733C64.4265 30.0666 64.1599 33.7866 63.7599 37.48C60.3999 36.8533 56.9865 36.6666 53.5865 36.44C53.5332 33.2933 53.4532 30.1466 53.3599 27Z" fill="#040808"/>
<path d="M132 26.0266C135.28 26.4933 138.573 26.9333 141.867 27.3199C142.173 30.7999 142.547 34.2666 142.893 37.7466C139.36 37.6133 135.84 37.8133 132.32 38.0533C132.213 34.0399 132.107 30.0399 132 26.0266Z" fill="#010D0F"/>
<path d="M66.8534 38.9201C70.4 39.0001 73.9467 38.9734 77.4934 38.9067C78.0534 47.0667 77.96 55.2534 77.7334 63.4267C74.16 63.9601 70.6 64.5067 67 64.7734C66.6934 56.1601 66.7067 47.5334 66.8534 38.9201Z" fill="#00080C"/>
<path d="M142.96 63.2401C143.693 55.4134 142.973 47.4668 144.573 39.7201C144.467 47.2134 144.733 54.7068 145.427 62.1734C148.053 62.5068 150.693 62.8534 153.32 63.2001C155.573 55.3868 155 47.2801 153.813 39.3601H155.293C156.853 47.3334 156.2 55.5068 156.213 63.5734C160.547 64.1868 164.893 64.6401 169.253 65.0801C169.307 73.3201 169.493 81.5601 169.56 89.8001C173.587 90.0934 177.613 90.4268 181.64 90.8801C181.853 94.2668 182.147 97.6534 182.44 101.027C182.507 101.68 182.64 102.973 182.707 103.627C186.387 104.187 190.093 104.453 193.813 104.693C190.32 104.973 186.827 105.253 183.36 105.667L182.24 105.84C182.36 112.853 181.987 119.853 181.693 126.853C180.373 119.747 180.467 112.48 180.32 105.267C176.413 104.333 172.48 103.44 168.8 101.827C168.653 98.3868 168.667 94.9468 168.813 91.5201C165.427 91.1734 162.04 90.8534 158.707 90.2001C157.427 89.7068 156.16 89.2268 154.893 88.7334C155.04 81.2534 154.667 73.7868 154.12 66.3334C150.36 65.4534 146.6 64.5201 142.96 63.2401ZM158.067 66.1868C157.56 73.5601 157.547 80.9734 158.107 88.3601C161.387 88.2801 164.667 88.3334 167.947 88.5068C168.387 81.0534 168.333 73.5868 167.987 66.1334C164.68 65.8401 161.36 65.8401 158.067 66.1868ZM170.493 91.9068C170.56 95.0668 170.56 98.2134 170.507 101.373C173.96 101.747 177.413 102.147 180.88 102.56C181.133 99.5068 181.533 96.4401 181.427 93.3601C178.893 89.9068 174.08 92.1601 170.493 91.9068Z" fill="#154E55"/>
<path d="M144.573 39.7201C147.653 39.5201 150.733 39.4268 153.813 39.3601C155 47.2801 155.574 55.3868 153.32 63.2001C150.694 62.8534 148.054 62.5068 145.427 62.1734C144.734 54.7068 144.467 47.2134 144.573 39.7201Z" fill="#010504"/>
<path d="M52.6534 65.3334C56.8401 65.0534 61.0268 65 65.2135 64.8667C65.4668 72.92 66.6668 81.48 63.6268 89.1467C60.1468 90.1334 56.5201 90.32 52.9601 90.8667C52.5734 94.8534 52.2801 98.8534 52.0134 102.853C51.3734 102.893 50.0668 102.947 49.4134 102.973C46.2668 103.187 43.1068 103.267 39.9468 103C40.2001 98.92 40.2801 94.84 40.3868 90.76C44.4268 90.3067 48.4934 90.1334 52.5468 89.9867C52.5068 81.7734 52.5601 73.5467 52.6534 65.3334Z" fill="#010A09"/>
<path d="M158.067 66.1868C161.36 65.8401 164.68 65.8401 167.987 66.1334C168.333 73.5868 168.387 81.0534 167.947 88.5068C164.667 88.3334 161.387 88.2801 158.107 88.3601C157.547 80.9734 157.56 73.5601 158.067 66.1868Z" fill="#000603"/>
<path d="M158.707 90.2C162.04 90.8533 165.427 91.1733 168.813 91.5199C168.667 94.9466 168.653 98.3866 168.8 101.827C165.84 97.6266 162.907 93.2666 158.707 90.2Z" fill="#2C818C"/>
<path d="M170.493 91.9067C174.08 92.16 178.893 89.9067 181.427 93.36C181.533 96.44 181.133 99.5067 180.88 102.56C177.413 102.147 173.96 101.747 170.507 101.373C170.56 98.2134 170.56 95.0667 170.493 91.9067Z" fill="#02090D"/>
<path d="M182.44 101.027L183.52 101.147C187.507 101.493 191.427 102.347 195.333 103.213C195.28 111.227 195.267 119.253 195.8 127.267C200.147 127.88 204.44 128.867 208.613 130.28L206.933 130.427C203.44 130.76 199.92 130.827 196.413 130.68C195.747 129.973 195.093 129.267 194.427 128.573C194.773 120.6 195.08 112.6 193.813 104.693C190.093 104.453 186.387 104.187 182.707 103.627C182.64 102.973 182.507 101.68 182.44 101.027Z" fill="#67706C"/>
<path d="M26.8933 103.6C31.2533 103.453 35.5999 103.227 39.9466 103L39.4133 104.56C35.7599 105.333 32.0266 105.707 28.3066 106C27.9866 113.387 27.7333 120.773 28.0133 128.16C23.7599 129.04 19.5866 130.293 15.3999 131.48C14.7599 139.667 14.6266 147.867 14.1333 156.067C13.9999 159.44 13.9999 162.827 13.9733 166.213C13.9599 166.853 13.9466 168.147 13.9333 168.787C13.8533 176.92 13.6666 185.08 14.7866 193.16C18.9733 193.627 23.1599 194.147 27.3733 194.28C27.1199 198.213 27.0266 202.173 27.0133 206.12C22.9333 206 18.8533 206.227 14.7866 206.387L13.6133 206.44C12.9733 202.44 15.0933 197.227 11.7066 194.24C8.33325 193.933 4.94659 194.133 1.57325 194.413C-0.48008 182.093 0.306585 169.44 0.733252 157.04C4.45325 154.507 9.26659 155.387 13.4933 154.813C13.7866 146.52 13.9333 138.24 13.8133 129.947C17.9199 129.547 22.0399 128.92 25.9733 127.64C27.8933 119.827 26.3466 111.587 26.8933 103.6ZM2.57325 157.2C2.86659 168.533 1.89325 179.92 3.35992 191.187C5.75992 191.107 8.15992 191.013 10.5733 190.933C10.9866 182.36 10.5866 173.747 11.8533 165.24C11.8533 162.88 12.8666 159.947 11.1466 157.987C8.31992 157.467 5.43992 157.387 2.57325 157.2ZM15.8533 194.84C15.8533 198.333 15.8133 201.827 15.7466 205.32C18.6666 205.013 21.5733 204.787 24.5066 204.613C24.2933 201.547 24.2799 198.48 24.4533 195.413C21.5866 195.267 18.7199 195.08 15.8533 194.84Z" fill="#41341F"/>
<path d="M28.3065 106C32.0265 105.707 35.7599 105.333 39.4132 104.56C38.7465 112.133 39.0532 119.733 39.1199 127.333C35.4132 127.453 31.6932 127.6 28.0132 128.16C27.7332 120.773 27.9865 113.387 28.3065 106Z" fill="#000504"/>
<path d="M182.24 105.84L183.36 105.667C182.56 113.2 182.867 120.787 183.267 128.333C186.987 128.413 190.707 128.493 194.427 128.573C195.093 129.267 195.747 129.973 196.413 130.68C195.907 138.413 195.88 146.147 196.04 153.893C199.667 153.92 203.28 153.947 206.906 153.96C206.893 154.56 206.84 155.787 206.826 156.4C203.386 156.413 199.947 156.44 196.52 156.453C196 159.947 195.453 163.44 195.12 166.96L195.053 167.893C195.106 163.747 194.973 159.587 194.826 155.44C190.933 155.507 187.053 155.493 183.16 155.4C183.146 159.293 183.107 163.187 182.653 167.067L182.373 168.48C182.04 164.667 181.88 160.827 181.96 156.987C181.973 155.613 181.96 154.24 181.933 152.867C181.787 149.413 181.507 145.973 181.227 142.533C177.653 142.36 174.08 142.2 170.507 142.013L170.493 140.413C174.973 140.48 179.453 140.6 183.933 140.547C185.613 144.373 187.373 148.16 189.253 151.893C190.187 147.187 191.853 142.267 190.467 137.48C188.707 133.093 183.267 131.32 181.693 126.853C181.987 119.853 182.36 112.853 182.24 105.84Z" fill="#21858A"/>
<path d="M183.36 105.667C186.827 105.253 190.32 104.973 193.813 104.693C195.08 112.6 194.773 120.6 194.427 128.573C190.707 128.493 186.987 128.413 183.267 128.333C182.867 120.787 182.56 113.2 183.36 105.667Z" fill="#000503"/>
<path d="M104.934 126.667C109.027 126.893 113.134 126.907 117.227 126.72C117.4 127.267 117.734 128.373 117.894 128.92C117.96 132.76 117.68 136.613 117.187 140.427C116.934 140.613 116.414 140.973 116.147 141.16C116.094 140.053 115.987 137.84 115.934 136.733C115.76 134.347 115.494 131.987 115.254 129.613C112.214 129.893 109.174 130.173 106.174 130.653L104.614 130.92C104.52 130.32 104.334 129.107 104.24 128.507C104.414 128.053 104.76 127.133 104.934 126.667Z" fill="#6EAC98"/>
<path d="M104.24 128.507C104.333 129.107 104.52 130.32 104.613 130.92C104.893 134.333 105.48 138.013 103.867 141.2C100.213 142.24 96.3465 142.44 92.7999 143.84C91.6399 147.613 91.3332 151.56 90.7999 155.453C82.6132 155.573 74.4399 156.053 66.2532 156.133C65.9199 155.72 65.2665 154.92 64.9465 154.507C64.5599 150.747 64.5465 146.96 64.5199 143.187C60.6399 143.187 56.7599 143.16 52.8799 143.067C53.3199 142.067 54.1865 140.067 54.6132 139.067C58.3065 139.853 62.0265 140.587 65.7999 140.88C66.3065 144.88 66.7599 148.893 67.1865 152.907C74.6532 153.84 82.1999 153.907 89.6799 153.04C89.9866 149.107 90.3466 145.173 90.7599 141.253C94.5332 140.92 98.3066 140.653 102.093 140.413C102.413 137.08 102.707 133.733 103.467 130.467C103.653 129.973 104.053 129 104.24 128.507Z" fill="#6D5E3B"/>
<path d="M106.173 130.653C109.173 130.173 112.213 129.893 115.253 129.613C115.493 131.987 115.76 134.347 115.933 136.733C112.787 136.16 109.627 135.707 106.453 135.373C106.4 133.8 106.307 132.227 106.173 130.653Z" fill="#D6D8A3"/>
<path d="M117.187 140.427C117.68 136.613 117.96 132.76 117.893 128.92C118.027 129.32 118.267 130.12 118.387 130.52C119.2 133.307 119.893 136.133 120.573 138.96C124.187 139.627 128.133 139.587 131.36 141.533C132.56 144.96 132.8 148.627 133.333 152.2C139.987 152.827 146.693 152.773 153.347 152.053C154.307 148.16 155.28 144.267 156.24 140.373C160.987 140.413 165.733 140.373 170.493 140.413L170.507 142.013C170.533 145.64 170.52 149.253 170.467 152.88C174.293 152.853 178.107 152.853 181.933 152.867C181.96 154.24 181.973 155.613 181.96 156.987C178.213 156.44 174.453 155.987 170.733 155.227L169.893 154.68C169.28 150.747 169.08 146.773 168.707 142.827C165.04 142.64 161.36 142.533 157.693 142.733C157.293 147 156.8 151.253 156.333 155.507C147.773 155.613 139.213 155.64 130.653 155.493C130.067 151.6 129.68 147.667 129.36 143.747C125.28 142.747 121.227 141.6 117.187 140.427Z" fill="#4D3E1E"/>
<path d="M207.987 169.187L209.307 169.133C209.52 176.627 209.613 184.107 209.493 191.587C212.76 191.573 216.013 191.587 219.28 191.64C219.32 183.92 219.36 176.173 220.413 168.507C222.387 176.787 221.387 185.32 221.373 193.72C217.013 193.907 212.653 194.013 208.307 194.173C208.227 198.547 208.28 202.92 208.547 207.28L207.773 207.267C203.253 207.267 198.56 207.107 194.533 204.813C194.693 201.307 194.707 197.8 194.587 194.293C195.213 194.24 196.493 194.147 197.133 194.107C200.493 193.8 203.853 193.4 207.213 192.973C207.147 185.027 207.653 177.107 207.987 169.187ZM197.36 194.987C197.387 198.467 197.36 201.947 197.28 205.427C200.307 205.347 203.333 205.413 206.373 205.613C206.28 202.053 206.227 198.493 206.24 194.933C203.28 194.987 200.32 195 197.36 194.987Z" fill="#4D3E1E"/>
<path d="M118.387 130.52C135.24 129.133 152.2 130.2 169.093 129.933C169.213 133.16 169.44 136.387 169.787 139.6C165.267 139.88 160.76 140.16 156.24 140.373C155.28 144.267 154.307 148.16 153.347 152.053C146.693 152.773 139.987 152.827 133.333 152.2C132.8 148.627 132.56 144.96 131.36 141.533C128.133 139.587 124.187 139.627 120.573 138.96C119.893 136.133 119.2 133.307 118.387 130.52Z" fill="#000402"/>
<path d="M52.7735 130.28C69.6535 129.84 86.6002 129.453 103.467 130.467C102.707 133.733 102.414 137.08 102.094 140.413C98.3069 140.653 94.5335 140.92 90.7602 141.253C90.3469 145.173 89.9869 149.107 89.6802 153.04C82.2002 153.907 74.6535 153.84 67.1869 152.907C66.7602 148.893 66.3069 144.88 65.8002 140.88C62.0269 140.587 58.3069 139.853 54.6135 139.067C54.0535 139.013 52.9335 138.907 52.3735 138.853C52.4802 136 52.6135 133.133 52.7735 130.28Z" fill="#000301"/>
<path d="M104.613 130.92L106.173 130.653C106.307 132.227 106.4 133.8 106.453 135.373C106.04 138.08 105.507 140.773 104.987 143.467C101.573 143.773 98.1601 144.067 94.7334 144.347C94.0001 148.293 94.1068 152.653 91.9201 156.16C83.5468 158.187 74.6934 157.347 66.2534 156.133C74.4401 156.053 82.6134 155.573 90.8001 155.453C91.3334 151.56 91.6401 147.613 92.8001 143.84C96.3467 142.44 100.213 142.24 103.867 141.2C105.48 138.013 104.893 134.333 104.613 130.92Z" fill="#BDA370"/>
<path d="M196.04 153.893C195.88 146.147 195.907 138.413 196.413 130.68C199.92 130.827 203.44 130.76 206.933 130.427C207.053 138.267 207.16 146.12 206.907 153.96C203.28 153.947 199.667 153.92 196.04 153.893Z" fill="#000707"/>
<path d="M206.934 130.427L208.614 130.28C209.427 142.173 208.28 154.027 207.8 165.907C212.027 166.68 216.254 167.453 220.414 168.507C216.72 168.867 213.014 169.027 209.307 169.133L207.987 169.187C204.067 169.32 200.147 169.453 196.227 169.467C196.147 177.68 195.894 185.947 197.134 194.107C196.494 194.147 195.214 194.24 194.587 194.293C189.814 194.733 184.614 194.8 181.24 190.827C182.174 183.413 181.4 175.893 182.374 168.48L182.654 167.067L182.774 168.533C183.707 175.333 182.56 182.28 183.827 189.04C185 193.96 193.014 193.92 194.227 189.08C195.307 182.453 194.587 175.68 195.014 168.987L195.054 167.893L195.12 166.96C198.894 166.533 202.667 166.107 206.44 165.733C206.574 162.627 206.694 159.507 206.827 156.4C206.84 155.787 206.894 154.56 206.907 153.96C207.16 146.12 207.054 138.267 206.934 130.427Z" fill="#698D7A"/>
<path d="M15.3999 131.48C18.6532 131.587 21.9199 131.693 25.1866 131.8C25.2666 138.773 26.4799 145.973 24.2932 152.747C21.5599 153.693 18.6532 153.853 15.8132 154.16C15.4799 146.613 15.4932 139.04 15.3999 131.48Z" fill="#000404"/>
<path d="M106.453 135.373C109.627 135.707 112.787 136.16 115.933 136.733C115.987 137.84 116.093 140.053 116.147 141.16C116.413 140.973 116.933 140.613 117.187 140.427C121.227 141.6 125.28 142.747 129.36 143.747C129.68 147.667 130.067 151.6 130.653 155.493C139.213 155.64 147.773 155.613 156.333 155.507C156.8 151.253 157.293 147 157.693 142.733C161.36 142.533 165.04 142.64 168.707 142.827C169.08 146.773 169.28 150.747 169.893 154.68L170.733 155.227C173.187 156.907 175.733 158.573 177.587 160.92C179.68 172.053 173.48 184.933 180.773 194.853C182.707 196.72 184.773 198.453 186.827 200.187C180.88 204.533 177.32 211.347 177.507 218.773C174.827 218.96 172.16 219.133 169.48 219.32C168.827 227.227 168.787 235.2 170.187 243.04C168.987 243.72 167.8 244.427 166.613 245.147C162.96 245.413 159.32 245.68 155.667 245.92C156.253 249.493 156.733 253.08 157.12 256.667C155.987 257.147 154.84 257.613 153.693 258.067C149.827 258.24 143.32 256.213 142.507 261.72C141.187 265.227 143.813 268.067 146 270.427C141.4 270.187 136.8 269.68 132.187 269.893C131.707 266.293 131.253 262.693 130.827 259.107C126.627 258.653 121.533 256.347 117.92 259.653C115.533 263.16 118.04 267.067 119.453 270.4C113.84 269.96 108.2 269.893 102.587 270.307C103.747 267.44 106.293 264.08 104.107 261.053C100.973 257.453 95.2265 257.307 91.2398 259.52C90.5065 262.947 90.6398 266.467 90.7198 269.947C86.7865 269.693 82.8532 269.48 78.9198 269.587C78.4798 266.28 78.0665 262.987 77.6798 259.68C74.3732 258.88 71.0665 258.093 67.7465 257.307C66.6132 253.68 65.7865 249.84 63.7065 246.6C60.7198 244.44 56.9198 243.96 53.4665 242.92C52.9332 236.027 53.3465 229.04 52.0798 222.24C49.3332 220.093 45.8665 219.32 42.6132 218.28C42.2132 213.52 41.8932 208.467 39.3998 204.267C36.9865 202.253 33.7332 201.733 30.8398 200.747C33.8798 199.413 37.4265 198.56 39.6398 195.92C41.6265 192.32 41.4798 188.027 41.6532 184.04C41.5465 175.52 41.2132 167.013 41.6798 158.507C44.9332 157.533 48.1732 156.52 51.4798 155.667C51.9598 155.573 52.9332 155.36 53.4265 155.267C53.7465 151.48 54.1065 147.693 54.5065 143.92C57.4398 143.907 60.3732 143.893 63.2932 143.88C63.7998 147.427 64.2132 150.987 64.9465 154.507C65.2665 154.92 65.9198 155.72 66.2532 156.133C74.6932 157.347 83.5465 158.187 91.9198 156.16C94.1065 152.653 93.9998 148.293 94.7332 144.347C98.1598 144.067 101.573 143.773 104.987 143.467C105.507 140.773 106.04 138.08 106.453 135.373ZM77.4265 168.307C74.1598 167.707 70.5332 165.84 67.3198 167.56C64.1332 169.933 64.5865 174.707 65.5598 178.107C67.5465 182.467 73.0398 182.947 77.1065 181.533C77.1332 185.853 77.1998 190.187 77.3332 194.52C82.2398 194.867 87.5598 196.28 92.1865 193.987C94.4532 192.893 93.5732 190.08 93.8532 188.08C93.6798 181.613 94.3332 175.067 93.3998 168.653C92.3198 165.173 87.8398 165.92 85.0265 165.64C82.4665 165.933 78.0532 164.773 77.4265 168.307ZM130.96 166.267C128.92 166.64 128.307 168.933 128.307 170.72C127.933 178.587 128.373 186.467 128.2 194.347C132.013 194.827 135.867 195.413 139.733 195.213C141.373 194.947 144.36 195.28 144.533 192.92C145.293 189.533 145.213 186.027 145.253 182.573C148.253 181.76 151.493 181.4 154.16 179.707C157.107 176.787 157.866 170.787 153.906 168.4C150.946 167.653 147.867 167.987 144.853 167.973C144.84 167.44 144.787 166.4 144.773 165.867C140.173 165.92 135.507 165.36 130.96 166.267ZM104.027 181.427C103.027 189.733 103.08 198.107 104.107 206.413C108.093 206.667 112.56 208.24 116.227 205.893C118.973 198.067 117.333 189.56 116.707 181.507C112.493 181.08 108.253 181.053 104.027 181.427Z" fill="#FDCE7E"/>
<path d="M40.9198 143.147C44.4665 143.107 47.9998 143.08 51.5331 143.067C51.3865 146.4 51.2798 149.72 51.1731 153.053C47.5998 153.067 44.0265 153.133 40.4531 153.24C40.6131 149.867 40.7598 146.507 40.9198 143.147Z" fill="#030B0A"/>
<path d="M51.5332 143.067H52.8799C53.1732 147.12 53.3199 151.2 53.4265 155.267C52.9332 155.36 51.9599 155.573 51.4799 155.667C47.7999 156.187 44.1065 156.4 40.3999 156.667C40.2932 160.453 40.1599 164.24 39.8399 168.013L38.6532 168.28C38.5332 164.093 38.3732 159.907 38.1865 155.72C38.9465 154.893 39.7065 154.067 40.4532 153.24C44.0265 153.133 47.5999 153.067 51.1732 153.053C51.2799 149.72 51.3865 146.4 51.5332 143.067Z" fill="#665F3D"/>
<path d="M52.8799 143.067C56.7599 143.16 60.6399 143.187 64.5199 143.187C64.5465 146.96 64.5599 150.747 64.9465 154.507C64.2132 150.987 63.7999 147.427 63.2932 143.88C60.3732 143.893 57.4399 143.907 54.5066 143.92C54.1066 147.693 53.7465 151.48 53.4265 155.267C53.3199 151.2 53.1732 147.12 52.8799 143.067Z" fill="#A0CABF"/>
<path d="M170.507 142.013C174.08 142.2 177.653 142.36 181.227 142.533C181.507 145.973 181.787 149.413 181.933 152.867C178.107 152.853 174.293 152.853 170.467 152.88C170.52 149.253 170.533 145.64 170.507 142.013Z" fill="#020803"/>
<path d="M14.1331 156.067C17.9331 156.36 21.7198 156.613 25.5198 156.827C25.5998 160.04 25.6531 163.253 25.8531 166.467C21.9731 165.427 17.9065 165.56 13.9731 166.213C13.9998 162.827 13.9998 159.44 14.1331 156.067Z" fill="#208F95"/>
<path d="M27.4136 156.413C31.0136 156.213 34.6002 155.973 38.1869 155.72C38.3736 159.907 38.5336 164.093 38.6536 168.28C34.9736 168.853 31.2002 168.653 27.5869 167.733C27.5202 163.96 27.4802 160.187 27.4136 156.413Z" fill="#01100A"/>
<path d="M40.3999 156.667C44.1065 156.4 47.7999 156.187 51.4799 155.667C48.1732 156.52 44.9332 157.533 41.6799 158.507C41.2132 167.013 41.5465 175.52 41.6532 184.04C41.4799 188.027 41.6265 192.32 39.6399 195.92C37.4265 198.56 33.8799 199.413 30.8399 200.747C33.7332 201.733 36.9865 202.253 39.3999 204.267C41.8932 208.467 42.2132 213.52 42.6132 218.28C42.5332 225.28 42.3865 232.267 42.7199 239.267C47.2799 241.16 51.5332 243.893 54.2665 248.12C57.2932 252.653 62.2132 255.227 66.0265 258.947C68.3332 262.387 68.5732 266.747 69.6265 270.667L68.5065 271C67.8265 271.2 66.4799 271.587 65.7999 271.773C65.7465 267.88 65.9199 263.933 65.0932 260.107C61.3732 258.56 57.3732 257.933 53.4665 257.067C52.7599 253.347 52.1332 249.627 51.5465 245.893C47.9599 245.52 44.3732 245.12 40.7865 244.747C39.5599 232.333 40.1199 219.853 38.9732 207.44C34.9865 206.893 31.0132 206.347 27.0132 206.12C27.0265 202.173 27.1199 198.213 27.3732 194.28C31.3732 194.173 35.3599 193.8 39.3332 193.453C39.4399 184.973 39.1732 176.467 39.8399 168.013C40.1599 164.24 40.2932 160.453 40.3999 156.667Z" fill="#C0C289"/>
<path d="M170.733 155.227C174.453 155.987 178.213 156.44 181.96 156.987C181.88 160.827 182.04 164.667 182.373 168.48C181.4 175.893 182.173 183.413 181.24 190.827C181.08 192.173 180.933 193.507 180.773 194.853C173.48 184.933 179.68 172.053 177.587 160.92C175.733 158.573 173.187 156.907 170.733 155.227Z" fill="#D3D89F"/>
<path d="M183.16 155.4C187.053 155.493 190.933 155.507 194.827 155.44C194.973 159.587 195.107 163.747 195.053 167.893L195.013 168.987C190.933 168.747 186.853 168.627 182.773 168.533L182.653 167.067C183.107 163.187 183.147 159.293 183.16 155.4Z" fill="#000E09"/>
<path d="M196.52 156.453C199.947 156.44 203.387 156.413 206.827 156.4C206.693 159.507 206.573 162.627 206.44 165.733C202.667 166.107 198.893 166.533 195.12 166.96C195.453 163.44 196 159.947 196.52 156.453Z" fill="#228F90"/>
<path d="M2.57318 157.2C5.43985 157.387 8.31985 157.467 11.1465 157.987C12.8665 159.947 11.8532 162.88 11.8532 165.24C10.5865 173.747 10.9865 182.36 10.5732 190.933C8.15985 191.013 5.75985 191.107 3.35985 191.187C1.89318 179.92 2.86651 168.533 2.57318 157.2Z" fill="#040402"/>
<path d="M13.9731 166.213C17.9064 165.56 21.9731 165.427 25.8531 166.467C26.2931 166.787 27.1464 167.413 27.5864 167.733C31.1998 168.653 34.9731 168.853 38.6531 168.28L39.8398 168.013C39.1731 176.467 39.4398 184.973 39.3331 193.453C35.3598 193.8 31.3731 194.173 27.3731 194.28C23.1598 194.147 18.9731 193.627 14.7864 193.16C18.4931 192.787 22.2131 192.493 25.9331 192.187C25.8931 184.493 25.9331 176.8 25.8931 169.107C21.9064 169.013 17.9198 168.893 13.9331 168.787C13.9464 168.147 13.9598 166.853 13.9731 166.213ZM29.9731 172.787C27.5598 177.24 28.1864 182.867 29.2131 187.653C30.7598 190.52 34.4264 189.307 37.0264 189.547C37.2264 184.493 38.8264 178.88 36.2131 174.2C34.7998 172.413 31.6531 170.027 29.9731 172.787Z" fill="#469277"/>
<path d="M77.4266 168.307C78.0533 164.773 82.4666 165.933 85.0266 165.64C87.8399 165.92 92.32 165.173 93.4 168.653C94.3333 175.067 93.68 181.613 93.8533 188.08C93.5733 190.08 94.4533 192.893 92.1866 193.987C87.56 196.28 82.24 194.867 77.3333 194.52C77.2 190.187 77.1333 185.853 77.1066 181.533C77.08 177.12 77.0266 172.693 77.4266 168.307ZM78.8399 169.08C78.9199 176.987 78.9733 184.893 78.8399 192.8C82.7866 192.773 86.72 192.733 90.6666 192.627C90.6933 185.347 91.3333 178.027 90.5733 170.773C88.2533 166.747 82.6533 169.533 78.8399 169.08Z" fill="#A68D5C"/>
<path d="M130.96 166.267C135.507 165.36 140.173 165.92 144.773 165.867C144.787 166.4 144.84 167.44 144.853 167.973C145.08 172.827 145.253 177.707 145.253 182.573C145.213 186.027 145.293 189.533 144.533 192.92C144.36 195.28 141.373 194.947 139.733 195.213C135.867 195.413 132.013 194.827 128.2 194.347C128.373 186.467 127.933 178.587 128.307 170.72C128.307 168.933 128.92 166.64 130.96 166.267ZM132.12 169.733C130.213 175.053 131.44 181.093 131.173 186.693C131.32 188.84 131.133 193.08 134.267 192.867C137.08 192.613 141.373 194.08 142.733 190.667C143.267 184.013 143.24 177.28 142.867 170.627C140.32 167.947 134.973 167.92 132.12 169.733Z" fill="#9C895F"/>
<path d="M67.32 167.56C70.5333 165.84 74.16 167.707 77.4267 168.307C77.0267 172.693 77.08 177.12 77.1067 181.533C73.04 182.947 67.5467 182.467 65.56 178.107C64.5867 174.707 64.1333 169.933 67.32 167.56Z" fill="#E9B96D"/>
<path d="M144.854 167.973C147.867 167.987 150.947 167.653 153.907 168.4C157.867 170.787 157.107 176.787 154.16 179.707C151.494 181.4 148.254 181.76 145.254 182.573C145.254 177.707 145.08 172.827 144.854 167.973Z" fill="#E7B86E"/>
<path d="M13.9334 168.787C17.9201 168.893 21.9067 169.013 25.8934 169.107C25.9334 176.8 25.8934 184.493 25.9334 192.187C22.2134 192.493 18.4934 192.787 14.7867 193.16C13.6667 185.08 13.8534 176.92 13.9334 168.787Z" fill="#D6BD78"/>
<path d="M78.8398 169.08C82.6532 169.533 88.2532 166.747 90.5732 170.773C91.3332 178.027 90.6932 185.347 90.6665 192.627C86.7198 192.733 82.7865 192.773 78.8398 192.8C78.9732 184.893 78.9198 176.987 78.8398 169.08Z" fill="#070501"/>
<path d="M132.12 169.733C134.973 167.92 140.32 167.947 142.867 170.627C143.24 177.28 143.267 184.013 142.733 190.667C141.373 194.08 137.08 192.613 134.267 192.867C131.133 193.08 131.32 188.84 131.173 186.693C131.44 181.093 130.213 175.053 132.12 169.733Z" fill="#090300"/>
<path d="M182.773 168.533C186.853 168.627 190.933 168.747 195.013 168.987C194.587 175.68 195.307 182.453 194.227 189.08C193.013 193.92 185 193.96 183.827 189.04C182.56 182.28 183.707 175.333 182.773 168.533ZM186.853 188.84C188.24 188.813 189.613 188.773 191 188.747C191.693 182.373 192.8 175.48 189.04 169.787C184.373 175.12 186.133 182.493 186.853 188.84Z" fill="#308F80"/>
<path d="M196.227 169.467C200.147 169.453 204.067 169.32 207.987 169.187C207.653 177.107 207.147 185.027 207.213 192.973C203.853 193.4 200.493 193.8 197.133 194.107C195.893 185.947 196.147 177.68 196.227 169.467Z" fill="#DABB7B"/>
<path d="M209.307 169.133C213.013 169.027 216.72 168.867 220.413 168.507C219.36 176.173 219.32 183.92 219.28 191.64C216.013 191.587 212.76 191.573 209.493 191.587C209.613 184.107 209.52 176.627 209.307 169.133Z" fill="#050501"/>
<path d="M186.853 188.84C186.133 182.493 184.373 175.12 189.04 169.787C192.8 175.48 191.693 182.373 191 188.747C189.613 188.773 188.24 188.813 186.853 188.84Z" fill="#0D999D"/>
<path d="M29.9732 172.787C31.6532 170.027 34.7999 172.413 36.2132 174.2C38.8266 178.88 37.2266 184.493 37.0266 189.547C34.4266 189.307 30.7599 190.52 29.2132 187.653C28.1866 182.867 27.5599 177.24 29.9732 172.787Z" fill="#109696"/>
<path d="M180.774 194.853C180.934 193.507 181.08 192.173 181.24 190.827C184.614 194.8 189.814 194.733 194.587 194.293C194.707 197.8 194.694 201.307 194.534 204.813C191.747 205.173 188.96 205.613 186.227 206.293C183.947 206.573 182.294 208.173 182.214 210.507C180.987 221.653 182.254 232.893 181.267 244.053L181.187 245.08C177.48 245.68 173.734 245.947 169.987 246C169.48 249.973 168.947 253.947 168.4 257.933C164.587 258.373 160.76 258.867 156.947 259.333C156.734 263.133 156.614 266.933 156.667 270.733C156.267 270.84 155.467 271.053 155.067 271.16C154.147 270.867 152.294 270.28 151.374 269.987C152.134 266.013 152.907 262.04 153.694 258.067C154.84 257.613 155.987 257.147 157.12 256.667C159.307 255.627 161.614 254.667 163.44 253.013C165.187 250.747 165.68 247.8 166.614 245.147C167.8 244.427 168.987 243.72 170.187 243.04C172.4 241.8 174.654 240.64 176.894 239.493C177.72 232.613 177.667 225.68 177.507 218.773C177.32 211.347 180.88 204.533 186.827 200.187C184.774 198.453 182.707 196.72 180.774 194.853Z" fill="#C1BF88"/>
<path d="M15.8532 194.84C18.7199 195.08 21.5866 195.267 24.4532 195.413C24.2799 198.48 24.2932 201.547 24.5066 204.613C21.5732 204.787 18.6666 205.013 15.7466 205.32C15.8132 201.827 15.8532 198.333 15.8532 194.84Z" fill="#0B0701"/>
<path d="M197.36 194.987C200.32 195 203.28 194.987 206.24 194.933C206.226 198.493 206.28 202.053 206.373 205.613C203.333 205.413 200.306 205.347 197.28 205.427C197.36 201.947 197.386 198.467 197.36 194.987Z" fill="#090500"/>
<path d="M14.7865 206.387C18.8532 206.227 22.9332 206 27.0132 206.12C31.0132 206.347 34.9865 206.893 38.9732 207.44C40.1198 219.853 39.5598 232.333 40.7865 244.747C44.3732 245.12 47.9598 245.52 51.5465 245.893C52.1332 249.627 52.7598 253.347 53.4665 257.067C57.3732 257.933 61.3732 258.56 65.0932 260.107C65.9198 263.933 65.7465 267.88 65.7998 271.773C65.2932 271.24 64.2798 270.147 63.7732 269.613C63.2665 267.28 62.8665 264.92 62.4798 262.573C59.3865 261.693 56.3065 260.827 53.2265 259.933C52.3865 257.12 51.6398 254.267 50.3998 251.6C49.1998 247.867 44.5465 248.867 41.5332 248.013C40.2665 246.547 39.0132 245.08 37.7598 243.613C37.8532 234.4 38.5465 225.187 38.0665 215.987C37.7465 214.053 37.9598 211.4 35.8265 210.453C33.5732 209.987 31.2532 209.88 28.9732 209.68C27.9865 212.773 26.9865 215.867 25.9598 218.96C25.8265 215.427 25.7998 211.907 25.7998 208.387C22.0932 207.973 18.3865 207.587 14.6665 207.413L14.7865 206.387Z" fill="#479079"/>
<path d="M169.986 246C173.733 245.947 177.48 245.68 181.186 245.08L182.213 244.92C181.693 246.827 181.266 248.76 180.96 250.72C179.12 250.067 177.28 249.44 175.453 248.8C173.52 252.547 171.76 256.533 168.693 259.507C166.453 261.253 163.693 262.133 161.146 263.293C161.12 265.453 161.093 267.627 161.066 269.8C159.586 270.053 158.12 270.373 156.666 270.733C156.613 266.933 156.733 263.133 156.946 259.333C160.76 258.867 164.586 258.373 168.4 257.933C168.946 253.947 169.48 249.973 169.986 246Z" fill="#479079"/>
<path d="M182.213 210.507C182.293 208.173 183.947 206.573 186.227 206.293C188.867 206.24 191.507 206.32 194.133 206.493C194.213 207.093 194.373 208.293 194.453 208.893C191.267 209.053 187.533 208.067 184.813 210.187C182.387 221.453 183.68 233.173 184.253 244.573C183.747 244.667 182.72 244.827 182.213 244.92L181.187 245.08L181.267 244.053C182.413 232.907 181.36 221.68 182.213 210.507Z" fill="#619E7E"/>
<path d="M184.813 210.187C187.533 208.067 191.267 209.053 194.453 208.893C194.52 209.933 194.667 212.013 194.747 213.053C192.28 212.253 189.813 211.44 187.36 210.613C185.307 221.627 184.693 233.333 188.747 243.987C187.253 244.147 185.747 244.347 184.253 244.573C183.68 233.173 182.387 221.453 184.813 210.187Z" fill="#2E9183"/>
<path d="M28.9734 209.68C31.2534 209.88 33.5734 209.987 35.8267 210.453C37.9601 211.4 37.7467 214.053 38.0667 215.987C38.5467 225.187 37.8534 234.4 37.7601 243.613C34.1734 244.307 30.5867 245 27.0401 245.867L25.9334 246.12C22.1334 246.24 18.3201 245.933 14.5201 245.933C14.8534 242.627 15.1467 239.333 15.3867 236.027C19.2934 234.84 23.2267 233.72 27.1601 232.613C27.1201 228.453 27.2401 224.28 27.4934 220.12C22.9734 219.76 18.4401 219.44 13.9067 219.147C17.9201 219.24 21.9467 219.173 25.9601 218.96C26.9867 215.867 27.9867 212.773 28.9734 209.68Z" fill="#10969B"/>
<path d="M187.36 210.613C189.813 211.44 192.28 212.253 194.747 213.053C194.827 215.027 194.893 217.013 194.96 219C198.96 219.107 202.96 219.24 206.96 219.373C207 219.707 207.067 220.387 207.093 220.72C203.2 220.787 199.307 220.88 195.413 220.96C195.547 224.76 195.507 228.56 195.293 232.36C199.2 232.413 203.093 232.547 206.987 232.813C207.04 228.787 207.08 224.747 207.093 220.72C207.493 224.64 207.947 228.573 208.36 232.493C212.36 232.907 216.36 233.387 220.36 233.853C216.387 233.973 212.413 234.08 208.44 234.187C208.427 237.667 208.427 241.133 208.44 244.613C203.88 244.32 199.267 244.773 194.973 246.413L194.347 246.053C192.6 245.093 190.667 244.507 188.747 243.987C184.693 233.333 185.307 221.627 187.36 210.613Z" fill="#12949B"/>
<path d="M42.6133 218.28C45.8666 219.32 49.3333 220.093 52.0799 222.24C53.3466 229.04 52.9333 236.027 53.4666 242.92C56.9199 243.96 60.7199 244.44 63.7066 246.6C65.7866 249.84 66.6132 253.68 67.7466 257.307C71.0666 258.093 74.3733 258.88 77.6799 259.68C78.0666 262.987 78.4799 266.28 78.9199 269.587C75.7999 269.747 72.6933 270.067 69.6266 270.667C68.5733 266.747 68.3332 262.387 66.0266 258.947C62.2132 255.227 57.2933 252.653 54.2666 248.12C51.5333 243.893 47.2799 241.16 42.7199 239.267C42.3866 232.267 42.5333 225.28 42.6133 218.28Z" fill="#E4BB6D"/>
<path d="M169.48 219.32C172.16 219.133 174.827 218.96 177.507 218.773C177.667 225.68 177.72 232.613 176.893 239.493C174.653 240.64 172.4 241.8 170.187 243.04C168.787 235.2 168.827 227.227 169.48 219.32Z" fill="#E9B968"/>
<path d="M12.4267 231.6C12.2133 227.387 12.8267 223.213 13.9067 219.147C18.44 219.44 22.9733 219.76 27.4933 220.12C27.24 224.28 27.12 228.453 27.16 232.613C23.2267 233.72 19.2933 234.84 15.3867 236.027C15.1467 239.333 14.8533 242.627 14.52 245.933C10.1333 246.027 5.54667 246.72 1.34667 245.053C5.22667 244.44 9.13334 244 13.0533 243.6C12.8667 240.893 12.7333 238.173 12.6133 235.453C8.88001 235.173 5.14667 234.907 1.41334 234.627C1.36001 234.133 1.24001 233.133 1.17334 232.64C4.93334 232.48 8.69334 232.133 12.4267 231.6ZM15.6933 221.573C15.48 225.147 15.32 228.733 15.3867 232.32C18.7067 232.12 22.04 232.08 25.36 232.2C25.4267 228.64 25.4533 225.08 25.2667 221.52C22.08 221.613 18.8933 221.627 15.6933 221.573Z" fill="#3A5D5D"/>
<path d="M15.6936 221.573C18.8936 221.627 22.0802 221.613 25.2669 221.52C25.4536 225.08 25.4269 228.64 25.3602 232.2C22.0402 232.08 18.7069 232.12 15.3869 232.32C15.3202 228.733 15.4802 225.147 15.6936 221.573Z" fill="#01080B"/>
<path d="M195.413 220.96C199.307 220.88 203.2 220.787 207.093 220.72C207.08 224.747 207.04 228.787 206.987 232.813C203.093 232.547 199.2 232.413 195.293 232.36C195.507 228.56 195.547 224.76 195.413 220.96Z" fill="#000A0C"/>
<path d="M1.41335 234.627C5.14668 234.907 8.88001 235.173 12.6133 235.453C12.7333 238.173 12.8667 240.893 13.0533 243.6C9.13335 244 5.22668 244.44 1.34668 245.053C1.42668 241.573 1.41335 238.107 1.41335 234.627Z" fill="#030A07"/>
<path d="M208.44 234.187C212.414 234.08 216.387 233.973 220.36 233.853C220.414 237.493 220.44 241.133 220.427 244.787C216.427 244.787 212.427 244.747 208.44 244.613C208.427 241.133 208.427 237.667 208.44 234.187Z" fill="#030904"/>
<path d="M27.0399 245.867C30.5866 245 34.1733 244.307 37.7599 243.613C39.0133 245.08 40.2666 246.547 41.5333 248.013C40.7466 251.653 40.7066 255.667 38.6266 258.88C35.1466 260.347 31.3599 260.853 27.6799 261.573C27.8133 264.413 27.9333 267.253 28.0399 270.093C27.4399 270.12 26.2266 270.147 25.6133 270.16C22.1066 270.027 18.5999 270.013 15.0933 270.093C18.4399 269.84 21.7733 269.547 25.1199 269.227C25.1199 266.573 25.1333 263.92 25.1466 261.28C21.7999 261.107 18.4399 260.947 15.0933 260.893C19.5066 260.587 23.7866 259.467 28.0266 258.267C31.5199 257.8 35.0133 257.32 38.5199 256.853C38.2266 253.627 38.0399 250.387 37.9333 247.133C34.3199 247.227 30.7066 247.293 27.1066 247.293L27.0399 245.867Z" fill="#194D4E"/>
<path d="M184.253 244.573C185.747 244.347 187.253 244.147 188.747 243.987C190.667 244.507 192.6 245.093 194.347 246.053L194.6 247.32C190.893 247.253 187.2 247.147 183.507 247.04C183.6 250.453 183.56 253.88 183.413 257.293C187.013 257.413 190.613 257.507 194.213 257.573C194.12 258.133 193.92 259.227 193.827 259.787C191.693 260.053 189.56 260.253 187.427 260.373C185.72 259.96 184.027 259.427 182.48 258.6C181.48 256.093 181.213 253.373 180.96 250.72C181.267 248.76 181.693 246.827 182.213 244.92C182.72 244.827 183.747 244.667 184.253 244.573Z" fill="#0E5155"/>
<path d="M155.667 245.92C159.32 245.68 162.96 245.413 166.613 245.147C165.68 247.8 165.187 250.747 163.44 253.013C161.613 254.667 159.306 255.627 157.12 256.667C156.733 253.08 156.253 249.493 155.667 245.92Z" fill="#E9BB69"/>
<path d="M27.1064 247.293C30.7064 247.293 34.3198 247.227 37.9331 247.133C38.0398 250.387 38.2264 253.627 38.5198 256.853C35.0131 257.32 31.5198 257.8 28.0264 258.267C27.6798 254.613 27.3331 250.96 27.1064 247.293Z" fill="#000B0B"/>
<path d="M183.506 247.04C187.2 247.147 190.893 247.253 194.6 247.32C194.68 250.747 194.546 254.173 194.213 257.573C190.613 257.507 187.013 257.413 183.413 257.293C183.56 253.88 183.6 250.453 183.506 247.04Z" fill="#000A0D"/>
<path d="M194.347 246.053L194.973 246.413C195.333 249.92 195.507 253.44 195.733 256.96L195.8 257.92C199.907 258.56 205.4 256.213 208.347 259.893C208.707 263.84 208.48 267.8 208.413 271.747C203.56 271.36 198.733 270.867 193.907 270.253C193.907 267.427 193.92 264.613 193.933 261.787C191.76 261.333 189.587 260.893 187.427 260.373C189.56 260.253 191.693 260.053 193.827 259.787C193.92 259.227 194.12 258.133 194.213 257.573C194.547 254.173 194.68 250.747 194.6 247.32L194.347 246.053ZM196.52 261.173C196.76 263.96 196.773 266.76 196.533 269.547C199.907 269.493 203.28 269.547 206.64 269.72C206.64 266.787 206.64 263.84 206.653 260.907C203.28 261.093 199.893 261.187 196.52 261.173Z" fill="#385555"/>
<path d="M41.5335 248.013C44.5468 248.867 49.2002 247.867 50.4002 251.6C51.6402 254.267 52.3868 257.12 53.2268 259.933C56.3068 260.827 59.3868 261.693 62.4802 262.573C62.8668 264.92 63.2668 267.28 63.7735 269.613C51.8668 270.16 39.9468 269.627 28.0402 270.093C27.9335 267.253 27.8135 264.413 27.6802 261.573C31.3602 260.853 35.1468 260.347 38.6268 258.88C40.7068 255.667 40.7468 251.653 41.5335 248.013Z" fill="#0F979D"/>
<path d="M168.694 259.507C171.76 256.533 173.52 252.547 175.454 248.8C177.28 249.44 179.12 250.067 180.96 250.72C181.214 253.373 181.48 256.093 182.48 258.6C184.027 259.427 185.72 259.96 187.427 260.373C189.587 260.893 191.76 261.333 193.934 261.787C193.92 264.613 193.907 267.427 193.907 270.253C182.987 269.467 172 270.067 161.067 269.8C161.094 267.627 161.12 265.453 161.147 263.293C163.694 262.133 166.454 261.253 168.694 259.507Z" fill="#0E969E"/>
<path d="M91.24 259.52C95.2266 257.307 100.973 257.453 104.107 261.053C106.293 264.08 103.747 267.44 102.587 270.307C98.6266 270.4 94.6666 270.2 90.72 269.947C90.64 266.467 90.5066 262.947 91.24 259.52Z" fill="#E9B96C"/>
<path d="M117.92 259.653C121.533 256.347 126.627 258.653 130.827 259.107C131.253 262.693 131.707 266.293 132.187 269.893C127.947 270.08 123.707 270.44 119.453 270.4C118.04 267.067 115.533 263.16 117.92 259.653Z" fill="#E9BA6B"/>
<path d="M142.507 261.72C143.32 256.213 149.827 258.24 153.693 258.067C152.907 262.04 152.133 266.013 151.373 269.987C149.587 270.147 147.8 270.32 146 270.427C143.813 268.067 141.187 265.227 142.507 261.72Z" fill="#E6BB6D"/>
<path d="M15.0935 260.893C18.4402 260.947 21.8002 261.107 25.1469 261.28C25.1335 263.92 25.1202 266.573 25.1202 269.227C21.7735 269.547 18.4402 269.84 15.0935 270.093C15.0802 267.027 15.0669 263.96 15.0935 260.893Z" fill="#030704"/>
<path d="M196.52 261.173C199.893 261.187 203.28 261.093 206.653 260.907C206.64 263.84 206.64 266.787 206.64 269.72C203.28 269.547 199.907 269.493 196.533 269.547C196.773 266.76 196.76 263.96 196.52 261.173Z" fill="#040703"/>
<path d="M25.6134 270.16C26.2267 270.147 27.44 270.12 28.04 270.093C39.9467 269.627 51.8667 270.16 63.7734 269.613C64.28 270.147 65.2934 271.24 65.8 271.773C51.3867 274.587 36.6134 273.24 22.04 272.747C23.9067 272.507 25.76 272.187 27.6267 271.867C27.12 271.44 26.12 270.587 25.6134 270.16Z" fill="#6AC6CA"/>
<path d="M69.6268 270.667C72.6935 270.067 75.8001 269.747 78.9201 269.587C82.8535 269.48 86.7868 269.693 90.7201 269.947C94.6668 270.2 98.6268 270.4 102.587 270.307C108.2 269.893 113.84 269.96 119.453 270.4C123.707 270.44 127.947 270.08 132.187 269.893C136.8 269.68 141.4 270.187 146 270.427C147.8 270.32 149.587 270.147 151.373 269.987C152.293 270.28 154.147 270.867 155.067 271.16L154.04 271.68C151.733 274.253 148.093 273.6 145.013 273.733C119.053 273.413 93.0668 274.053 67.1201 273.267C67.4668 272.693 68.1601 271.573 68.5068 271L69.6268 270.667Z" fill="#FBE1AD"/>
<path d="M156.667 270.733C158.12 270.373 159.587 270.053 161.067 269.8C172 270.067 182.987 269.467 193.907 270.253C198.733 270.867 203.56 271.36 208.413 271.747C201.133 275.72 192.787 272.587 185 272.96C174.707 272.48 164.133 274.32 154.04 271.68L155.067 271.16C155.467 271.053 156.267 270.84 156.667 270.733Z" fill="#69C7CB"/>
</svg>
