<svg width="269" height="253" viewBox="0 0 269 253" fill="none" xmlns="http://www.w3.org/2000/svg">
<path d="M79.3145 101.647C86.739 101.869 94.1636 101.751 101.601 101.738C101.862 105.216 101.106 109.02 102.708 112.224C104.454 115.298 108.375 114.543 111.331 114.959C111.149 114.191 110.81 112.667 110.641 111.898C112.465 112.849 114.692 113.605 115.63 115.624C116.06 119.115 115.76 122.644 115.669 126.161C111.826 126.487 107.293 125.38 104.284 128.428C104.297 128.154 104.311 127.607 104.324 127.334C103.933 126.513 103.151 124.898 102.76 124.09C105.496 123.934 108.557 124.312 110.98 122.814C112.881 120.964 111.357 118.424 111.058 116.288C108.27 115.572 105.209 115.389 102.734 113.852C100.572 110.492 100.39 105.841 97.2507 103.184C92.6526 102.689 86.713 101.491 83.4045 105.633C79.6661 109.632 80.6691 115.728 81.0338 120.717C83.5608 122.957 87.1949 123.387 90.3471 124.351C86.7 126.122 80.9296 128.05 78.7023 123.27C77.9337 116.106 77.7384 108.707 79.3145 101.647Z" fill="#3EC5F7"/>
<path d="M153.921 113.631C155.589 113.565 157.243 113.513 158.91 113.448L158.233 114.699C157.412 116.796 155.914 119.023 156.435 121.368C157.816 124.351 161.541 124.637 164.159 126.083L166.387 127.294L165.644 127.151C161.828 126.252 157.907 126.174 154.012 126.226C153.856 122.032 153.843 117.825 153.921 113.631Z" fill="#3EC5F7"/>
<path d="M65.1516 152.46C69.0332 152.421 72.9149 152.408 76.8095 152.486C76.7704 156.641 77.1482 160.874 79.584 164.404C82.5408 164.3 85.4845 164.261 88.4413 164.235C91.9452 171.855 87.6598 179.722 88.6758 187.59C80.9907 189.934 72.9409 188.749 65.1777 187.551C65.0214 175.854 65.0604 164.157 65.1516 152.46Z" fill="#FFFFFB"/>
<path d="M193.235 152.473C196.583 152.46 199.93 152.421 203.291 152.355C204.411 155.078 204.737 158.009 204.619 160.939C204.463 168.833 204.684 176.726 204.541 184.607C204.997 187.264 201.858 187.863 200.191 188.905C193.404 189.192 186.657 188.527 179.962 187.498C179.884 180.282 179.675 173.079 179.78 165.876C180.561 165.472 182.111 164.678 182.88 164.274C185.706 164.235 188.546 164.183 191.372 164.131C191.49 161.356 191.633 158.569 191.763 155.794C192.128 154.961 192.857 153.306 193.235 152.473Z" fill="#FFFFFB"/>
<path d="M115.902 0.06095C128.524 0.00884776 141.158 -0.0562795 153.78 0.0870018C153.78 4.0077 153.806 7.9284 153.858 11.8491C157.818 11.9142 161.765 11.9533 165.725 11.9012C165.607 12.5525 165.373 13.855 165.256 14.4933L166.845 14.2718C166.728 17.8669 166.402 21.462 165.464 24.9398C161.596 24.9137 157.727 24.9398 153.858 24.9789C153.806 28.6912 153.767 32.4034 153.819 36.1157C153.363 36.5195 152.426 37.3401 151.97 37.7439C148.218 37.7309 144.467 37.7309 140.716 37.7179C140.911 54.2213 140.833 70.7247 140.781 87.2281V87.5277C136.873 87.4625 132.978 87.4625 129.071 87.5016C128.511 84.6881 127.924 81.8615 127.951 78.9829C128.042 65.2279 127.99 51.4729 128.003 37.7179C123.913 37.7309 119.836 37.7048 115.759 37.6137C116.084 53.5179 115.667 69.4351 115.954 85.3263C115.967 85.8474 115.993 86.8633 116.006 87.3844C107.344 87.5667 98.669 87.5928 90.007 87.3583C90.007 83.5549 90.1112 79.7253 89.6423 75.9479C85.8519 75.4399 82.0224 75.6223 78.2189 75.6353C78.1277 79.5039 78.0626 83.3855 78.0365 87.2671C74.2982 87.2932 70.5208 87.3062 66.9127 88.4134C66.561 88.4394 65.8576 88.4915 65.5059 88.5176C65.1282 89.3773 64.3988 91.0836 64.0341 91.9303C64.5942 99.0553 63.9429 106.206 63.8387 113.344C59.9701 113.383 56.1015 113.422 52.2459 113.501C51.6858 121.798 53.1056 130.239 51.2039 138.406C47.2181 138.327 43.2322 138.275 39.2464 138.223C39.2204 134.667 39.1813 131.111 39.1683 127.555C35.1173 127.738 31.0664 127.972 27.0154 127.881C31.0012 127.607 35.0001 127.451 38.9468 126.761C34.7526 126.422 30.5453 126.448 26.3381 126.331C26.299 125.484 26.2078 123.804 26.1687 122.957L27.1196 122.215C27.2238 121.329 27.4192 119.545 27.5104 118.659L25.8301 118.594C26.6507 116.926 27.2368 115.207 27.6016 113.396C31.1185 113.383 34.6223 113.37 38.1392 113.501L37.5401 111.82L39.2334 112.367C39.1943 108.772 39.1943 105.164 39.1552 101.569L41.0049 102.025L40.054 100.397C43.7533 100.501 47.4525 100.501 51.1518 100.579L50.5265 98.8208L52.2068 99.3418C52.0766 91.4614 52.1026 83.5679 52.2068 75.6744C56.1015 75.5962 60.0092 75.5572 63.9168 75.6093C63.9168 71.2587 64.0731 66.8821 65.2585 62.6749C69.1661 62.6228 73.0608 62.5837 76.9684 62.5576C77.0596 58.7411 77.1117 54.9247 77.0466 51.1212C81.2278 49.7405 85.6304 49.5972 89.981 49.6363C89.994 45.7286 90.007 41.8079 89.9549 37.9002C94.2924 37.6788 98.63 37.6788 102.98 37.8221L103.632 34.8522L104.283 37.796C106.953 37.7179 109.624 37.7309 112.294 37.8351L111.994 36.4674C112.997 36.5716 115.003 36.754 116.006 36.8582C115.889 33.211 115.876 29.5769 115.954 25.9428C115.329 26.0209 114.078 26.1902 113.44 26.2814L113.479 24.7965C110.327 24.9007 107.162 24.9528 104.01 25.057L104.622 23.3376L102.954 23.8066C103.085 20.6023 103.085 17.385 102.889 14.1807L104.491 14.4672C104.374 13.816 104.14 12.5264 104.023 11.8751C107.696 11.9272 111.369 11.9142 115.042 11.8751C114.886 11.1978 114.586 9.8171 114.43 9.13977L116.058 9.46541C115.915 6.32625 115.902 3.20011 115.902 0.06095ZM129.019 11.9403C128.706 20.6023 128.927 29.2643 128.849 37.9263C132.705 37.7569 136.56 37.77 140.416 37.6006C141.302 29.5378 140.794 21.3187 140.716 13.2038C137.628 10.5596 132.822 12.4222 129.019 11.9403Z" fill="#010101"/>
<path d="M153.716 87.4874C153.794 70.958 153.794 54.4416 153.742 37.9121C161.454 38.2638 169.178 37.6907 176.889 38.1335C179.741 41.429 177.905 46.6262 178.582 50.7163C182.477 50.8074 186.371 50.8595 190.279 50.8986C190.357 54.5458 190.396 58.1929 190.357 61.8401C194.304 64.1065 198.902 63.807 203.292 63.833C203.331 67.2718 203.357 70.6975 203.37 74.1232C204.529 74.9959 205.688 75.8817 206.848 76.7674C209.804 77.3926 214.598 75.2174 216.083 78.6952C216.578 85.5206 216.044 92.372 216.226 99.2235C216.682 99.8227 217.568 101.034 218.011 101.646C221.892 101.633 225.774 101.868 229.525 102.949C229.421 105.971 229.356 109.006 229.304 112.041C230.242 112.913 231.179 113.786 232.117 114.659C235.009 114.659 237.94 114.489 240.818 114.919C243.384 117.72 240.584 121.953 241.769 125.34C238.187 126.577 234.384 126.564 230.645 126.46C230.554 129.247 230.489 132.035 230.45 134.822C230.085 135.682 229.343 137.388 228.965 138.248C225.214 138.248 221.449 138.235 217.698 138.196C217.034 129.912 218.818 121.354 216.278 113.33C213.439 113.356 210.612 113.369 207.785 113.382C206.743 112.314 205.714 111.246 204.672 110.191C204.672 103.04 204.633 95.902 204.633 88.7509C200.452 87.3311 196.036 87.266 191.686 87.253C191.634 83.3714 191.582 79.5028 191.53 75.6211C187.661 75.5821 183.792 75.5821 179.924 75.5821C178.999 79.4637 178.517 83.4235 178.426 87.3963C170.376 87.5396 162.313 87.4223 154.263 87.4874C154.12 87.4874 153.86 87.4874 153.716 87.4874Z" fill="#010101"/>
<path d="M14.4183 126.552L15.3432 126.617C18.7428 126.865 22.1555 126.63 25.5552 126.578C25.9981 127.242 26.8708 128.597 27.3137 129.274C27.2225 140.919 27.1443 152.577 27.4048 164.222C31.3386 164.209 35.2853 164.196 39.219 164.105V164.222C38.9976 168.13 38.9064 172.037 38.8413 175.945C34.6992 176.088 30.544 176.14 26.3889 176.271C26.0372 187.238 26.2846 198.206 26.1414 209.173C25.9199 211.7 26.8317 214.058 28.1082 216.181C31.5079 216.09 34.9206 216.038 38.3203 215.999C39.0497 219.581 38.8283 223.228 37.9686 226.758C34.3475 226.693 30.7264 226.667 27.0922 226.614C25.9851 230.509 25.959 234.573 26.0762 238.598C22.2728 238.637 18.4693 238.637 14.6658 238.611C14.6007 235.042 14.8612 231.434 14.2099 227.904C11.2662 224.7 6.31644 226.198 2.48692 225.742C2.4739 218.252 2.38272 210.762 2.64323 203.273C6.52485 203.26 10.3934 203.221 14.2751 203.142C14.5877 198.479 14.6007 193.79 14.4183 189.114C10.4846 188.423 6.51182 187.981 2.51297 187.902C2.44784 180.348 2.46087 172.793 2.526 165.238C6.23829 165.212 9.93755 165.199 13.6368 165.147C13.3763 164.574 12.8423 163.427 12.5687 162.854C12.9986 162.893 13.8713 162.998 14.3011 163.05C14.3011 150.884 14.1057 138.705 14.4183 126.552Z" fill="#010101"/>
<path d="M88.7925 129.222C93.5338 126.318 99.1739 128.376 104.319 127.334C104.306 127.607 104.293 128.154 104.28 128.428C104.098 131.02 104.098 133.703 102.938 136.087C102.899 136.881 102.808 138.471 102.756 139.265C98.6138 139.33 94.4586 139.33 90.3165 139.265C90.0299 137.689 90.3816 135.852 89.1051 134.615C88.9488 132.818 88.8706 131.02 88.7925 129.222Z" fill="#010101"/>
<path d="M165.645 127.151L166.387 127.294C170.425 127.958 174.541 127.567 178.605 127.541C178.631 130.081 178.631 132.608 178.631 135.148C178.631 135.93 178.605 137.493 178.605 138.274L176.873 137.897L177.263 139.434C173.46 139.33 169.669 139.29 165.879 139.173C165.749 135.174 165.671 131.163 165.645 127.151Z" fill="#010101"/>
<path d="M242.069 127.712C246.367 127.582 250.679 127.568 254.977 127.712C255.251 139.917 254.795 152.122 255.238 164.327C259.237 164.509 263.222 164.848 267.195 165.421C267.156 173.184 267.26 180.934 267.026 188.684C263.092 188.763 259.171 188.841 255.251 188.958C255.277 189.661 255.316 191.068 255.342 191.772C255.446 195.184 255.433 198.597 255.459 202.01C259.692 202.049 263.913 202.049 268.146 202.166C268.341 209.929 268.094 217.679 268.328 225.443C267.964 225.508 267.234 225.651 266.87 225.716C263.092 226.68 259.197 226.862 255.316 226.849L255.524 228.113C255.42 231.982 255.303 235.85 255.212 239.732C251.486 239.758 247.748 239.771 244.01 239.784C243.658 239.002 242.929 237.413 242.564 236.619C242.564 233.649 242.512 230.679 242.394 227.722C241.73 227.904 240.402 228.256 239.737 228.439L239.815 226.823C236.767 226.862 233.719 226.875 230.658 226.875C230.58 223.45 230.541 220.037 230.437 216.624C231.531 216.116 232.612 215.608 233.706 215.113C236.611 215.1 239.529 215.074 242.46 215.048C244.335 208.027 243.215 200.72 243.45 193.556C243.345 188.411 243.958 183.188 243.059 178.095C240.167 174.539 234.735 176.597 230.724 176.011C230.711 172.494 230.619 168.977 230.919 165.46L231.674 164.288C235.217 164.235 238.773 164.196 242.329 164.17C242.381 152.017 242.942 139.826 242.069 127.712Z" fill="#010101"/>
<path d="M129.018 11.941C132.821 12.4229 137.628 10.5603 140.715 13.2044C140.793 21.3194 141.301 29.5385 140.415 37.6013C136.56 37.7707 132.704 37.7577 128.848 37.927C128.927 29.265 128.705 20.603 129.018 11.941Z" fill="#9D9E9B"/>
<path d="M115.758 37.6133C119.835 37.7045 123.912 37.7305 128.002 37.7175C127.989 51.4725 128.041 65.2275 127.95 78.9825C127.924 81.8611 128.51 84.6877 129.07 87.5012C132.978 87.4621 136.873 87.4621 140.78 87.5273L140.767 88.7517C132.9 88.6735 125.033 88.5302 117.165 88.6735C116.865 87.8399 116.253 86.1726 115.954 85.3259C115.667 69.4347 116.084 53.5175 115.758 37.6133Z" fill="#9D9E9B"/>
<path d="M79.5208 99.3544C87.1277 99.172 94.7607 99.0418 102.368 99.4846C103.253 102.989 103.722 106.649 105.103 110.009C106.822 110.96 108.789 111.286 110.639 111.898C110.808 112.667 111.147 114.191 111.329 114.959C108.372 114.542 104.452 115.298 102.706 112.224C101.104 109.019 101.86 105.216 101.599 101.738C94.1615 101.751 86.737 101.868 79.3124 101.647C77.7363 108.707 77.9317 116.105 78.7002 123.269C80.9275 128.05 86.6979 126.122 90.345 124.35C94.4741 124.064 98.6163 124.025 102.758 124.09C103.149 124.898 103.931 126.513 104.321 127.333C99.1764 128.375 93.5363 126.317 88.795 129.222C84.3924 127.698 79.612 126.93 75.7434 124.168C75.7303 117.108 75.6782 110.048 75.8867 103.002C77.098 101.777 78.3094 100.566 79.5208 99.3544Z" fill="#3EC5F7"/>
<path d="M168.289 99.3166C174.984 99.2775 181.679 98.9909 188.362 99.3036C190.836 99.0821 192.347 101.296 193.989 102.755C193.976 109.437 193.989 116.12 194.015 122.802C190.563 126.449 185.209 127.543 182.227 131.711C182.083 131.268 181.784 130.383 181.627 129.94C180.95 131.841 180.208 133.782 178.631 135.15C178.631 132.61 178.631 130.083 178.605 127.543C174.541 127.569 170.425 127.96 166.387 127.296L164.16 126.084C172.119 120.457 181.758 127.738 190.263 124.156C191.631 117.096 192.256 109.32 189.365 102.586C183.269 100.775 176.404 101.661 170.061 102.052C167.794 105.113 167.377 109.151 165.801 112.577C163.613 114.101 160.747 114.049 158.233 114.7L158.911 113.449C160.513 111.118 163.483 110.219 165.801 108.721C166.114 105.465 166.987 102.312 168.289 99.3166Z" fill="#3EC5F7"/>
<path d="M218.439 151.079C221.904 151.196 225.368 151.248 228.846 151.301C230.266 154.778 231.816 158.204 233.496 161.565C232.884 162.476 232.272 163.375 231.673 164.287L230.917 165.459C230.618 168.976 230.709 172.493 230.722 176.01C234.734 176.596 240.166 174.538 243.057 178.094C243.956 183.187 243.344 188.41 243.448 193.555C243.214 200.72 244.334 208.027 242.458 215.048C239.527 215.074 236.61 215.1 233.705 215.113C232.611 215.608 231.53 216.116 230.435 216.624C230.422 215.855 230.383 214.318 230.357 213.55C233.809 213.107 237.274 212.885 240.752 212.664C240.517 201.306 242.132 189.7 239.788 178.511C235.724 178.706 231.451 178.85 227.961 176.427C228.039 170.813 228.169 165.212 228.26 159.598C228.273 158.386 228.286 155.964 228.286 154.752C225.056 154.817 221.839 154.844 218.608 154.896C218.96 171.66 218.543 188.436 218.778 205.2C219.116 212.156 216.628 218.916 217.709 225.885C215.599 227.774 212.89 228.438 210.142 228.672C211.809 228.021 213.515 227.422 215.182 226.758C217.384 221.626 216.303 215.933 216.42 210.528C216.342 193.139 216.472 175.737 216.355 158.347C216.133 155.716 217.071 153.28 218.439 151.079Z" fill="#010101"/>
<path d="M0 164.47C3.69926 161.982 8.36242 162.542 12.5697 162.855C12.8432 163.428 13.3773 164.574 13.6378 165.147C9.93851 165.199 6.23925 165.212 2.52696 165.238C2.46183 172.793 2.44881 180.348 2.51394 187.903C6.51278 187.981 10.4856 188.424 14.4193 189.114C14.6017 193.79 14.5886 198.479 14.276 203.143C10.3944 203.221 6.52581 203.26 2.64419 203.273C2.38368 210.763 2.47486 218.252 2.48788 225.742C6.3174 226.198 11.2671 224.7 14.2109 227.904C14.8622 231.434 14.6017 235.042 14.6668 238.611C18.4703 238.637 22.2737 238.637 26.0772 238.598C25.96 234.573 25.986 230.509 27.0932 226.615C30.7273 226.667 34.3484 226.693 37.9695 226.758C38.8292 223.228 39.0507 219.581 38.3212 215.999C34.9216 216.038 31.5089 216.09 28.1092 216.181C26.8327 214.058 25.9209 211.7 26.1423 209.173C26.2856 198.206 26.0381 187.238 26.3898 176.271C30.545 176.141 34.7001 176.088 38.8422 175.945C38.9074 172.038 38.9986 168.13 39.22 164.222C41.265 168.794 40.9394 173.848 39.1288 178.433C35.6249 178.459 32.1211 178.524 28.6302 178.615C28.3827 189.974 28.6172 201.345 28.4218 212.716C32.4467 213.081 36.4586 213.55 40.4704 213.915C40.4444 219.086 41.1478 224.426 39.3893 229.402C35.7161 229.402 32.0429 229.532 28.3697 229.78C28.5911 233.961 29.0079 238.572 26.1814 242.063C22.2868 241.868 18.0144 243.014 14.4193 241.086C12.1138 237.712 13.221 233.245 12.8562 229.389C9.05277 229.168 5.02787 229.663 1.48492 227.995C-1.02902 219.451 0.416819 210.189 0.898765 201.397C4.89761 200.967 8.90949 200.772 12.9344 200.72C12.8823 197.385 12.8172 194.051 12.739 190.716C9.00067 190.573 5.27536 190.508 1.53702 190.43C1.2244 189.948 0.599177 189.01 0.286563 188.541C-0.312613 180.543 0.338665 172.493 0 164.47Z" fill="#010101"/>
<path d="M266.867 225.715C267.231 225.65 267.961 225.507 268.326 225.442C268.313 226.419 268.286 228.359 268.273 229.323C264.222 229.349 260.159 229.401 256.199 230.313C256.029 229.766 255.691 228.659 255.521 228.112L255.313 226.848C259.195 226.861 263.089 226.679 266.867 225.715Z" fill="#9D9E9B"/>
<path d="M179.921 75.5825C183.789 75.5825 187.658 75.5825 191.526 75.6216C191.579 79.5032 191.631 83.3718 191.683 87.2534C196.033 87.2665 200.449 87.3316 204.63 88.7514C204.63 95.9024 204.669 103.04 204.669 110.191C205.711 111.247 206.74 112.315 207.782 113.383C210.609 113.37 213.435 113.357 216.275 113.331C218.815 121.354 217.03 129.912 217.695 138.196C221.446 138.235 225.211 138.249 228.962 138.249C229.34 137.389 230.082 135.682 230.447 134.823C230.486 132.035 230.551 129.248 230.642 126.46C234.381 126.565 238.184 126.578 241.766 125.34C241.857 126.122 241.961 126.916 242.066 127.711C242.938 139.825 242.378 152.017 242.326 164.169C238.77 164.195 235.214 164.235 231.671 164.287C232.27 163.375 232.883 162.476 233.495 161.564C235.579 162.059 237.663 162.541 239.76 163.023C240.529 160.249 241.18 157.409 241.076 154.504C240.906 145.595 241.193 136.685 241.024 127.789C237.754 128.336 232.804 126.031 230.903 129.613C230.447 132.895 230.642 136.204 230.668 139.499C226.018 139.733 221.173 140.632 216.653 139.16C215.012 137.819 215.168 135.552 215.051 133.677C214.985 127.398 215.35 121.12 215.233 114.842C211.456 114.255 205.62 116.483 203.484 112.21C202.546 104.89 203.549 97.4655 203.158 90.106C198.977 89.8064 194.431 90.3665 190.641 88.2173C189.885 84.5832 190.12 80.8318 190.081 77.1456C187.345 77.2758 184.584 77.38 181.914 77.9532C180.65 81.1444 181.262 84.7265 180.468 88.0219C178.045 90.3144 174.463 89.8585 171.428 90.0149C166.205 89.8585 160.942 90.3665 155.758 89.7543C155.38 89.1942 154.625 88.061 154.26 87.4879C162.31 87.4228 170.373 87.54 178.423 87.3967C178.514 83.4239 178.996 79.4641 179.921 75.5825Z" fill="#3EC5F7"/>
<path d="M115.969 164.197C128.565 163.65 141.187 163.858 153.782 164.132C154.147 168.183 153.457 172.468 154.772 176.363C161.936 177.822 169.752 174.5 176.681 177.796C178.101 181.286 177.241 185.363 177.476 189.089C169.595 189.909 161.624 190.352 153.795 188.841C153.535 185.285 153.926 181.586 152.792 178.16C146.201 176.454 139.115 177.822 132.329 177.379C127.223 177.769 121.687 176.467 116.868 178.212C116.191 181.886 116.138 185.676 115.24 189.323C107.659 190.222 99.9476 190.6 92.3798 189.297C92.2756 185.376 92.3537 181.469 92.5882 177.548C99.7262 174.2 107.568 178.59 114.68 175.36C114.653 171.595 115.214 167.87 115.969 164.197Z" fill="#07ADEF"/>
<path d="M64.27 192.057C72.6845 190.911 81.4377 191.823 89.9824 191.614C90.1518 195.144 90.2169 198.687 90.243 202.217C81.7894 203.559 73.1925 203.168 64.7128 202.139C63.9443 198.857 63.3061 195.379 64.27 192.057Z" fill="#07ADEF"/>
<path d="M179.531 191.499C187.464 191.825 195.435 191.265 203.355 191.786C205.791 194.026 206.715 199.836 203.641 202.089C195.722 202.376 187.659 204.004 179.844 202.05C179.57 198.533 179.453 195.016 179.531 191.499Z" fill="#07ADEF"/>
<path d="M78.2206 75.6344C82.0241 75.6214 85.8536 75.439 89.6441 75.947C90.113 79.7244 90.0088 83.554 90.0088 87.3574C98.6708 87.5919 107.346 87.5658 116.008 87.3835C115.995 86.8625 115.969 85.8465 115.956 85.3255C116.255 86.1721 116.867 87.8394 117.167 88.673C125.035 88.5297 132.902 88.673 140.769 88.7512L140.782 87.5268V87.2272C145.094 87.4226 149.405 87.5007 153.717 87.4877C153.86 87.4877 154.121 87.4877 154.264 87.4877C154.629 88.0608 155.384 89.194 155.762 89.7541C160.946 90.3663 166.208 89.8583 171.432 90.0147C174.467 89.8583 178.049 90.3142 180.471 88.0217C181.266 84.7263 180.654 81.1442 181.917 77.953C184.587 77.3798 187.349 77.2756 190.084 77.1454C190.123 80.8316 189.889 84.583 190.644 88.2171C194.435 90.3663 198.981 89.8062 203.162 90.1058C203.553 97.4653 202.55 104.89 203.488 112.21C205.624 116.483 211.459 114.255 215.237 114.841C215.354 121.12 214.989 127.398 215.054 133.676C215.171 135.552 215.015 137.818 216.656 139.16C221.176 140.632 226.022 139.733 230.672 139.499C230.646 136.203 230.45 132.895 230.906 129.612C232.808 126.03 237.758 128.336 241.027 127.789C241.197 136.685 240.91 145.595 241.079 154.504C241.184 157.409 240.532 160.249 239.764 163.023C237.667 162.541 235.583 162.059 233.498 161.564C231.818 158.204 230.268 154.778 228.848 151.3C225.371 151.248 221.906 151.196 218.441 151.079C217.073 153.28 216.135 155.716 216.357 158.347C216.474 175.736 216.344 193.138 216.422 210.527C216.305 215.933 217.386 221.625 215.184 226.757C212.423 226.913 209.662 227.031 206.9 227.161C205.858 228.294 204.803 229.44 203.748 230.561C203.605 233.674 203.501 236.774 203.409 239.887C196.037 239.9 188.651 239.9 181.279 239.978C180.445 240.838 179.625 241.697 178.791 242.557C178.179 245.827 180.133 250.555 176.981 252.73C173.724 252.6 169.374 253.981 166.821 251.519C166.508 247.624 167.185 243.508 165.14 239.952C161.454 239.952 157.755 239.991 154.069 240.069C153.912 243.729 153.808 247.377 153.717 251.037C152.987 251.506 151.516 252.444 150.786 252.912C147.139 253.056 143.335 252.899 140.691 250.021C140.743 246.699 140.652 243.365 140.509 240.043C136.81 239.965 133.123 239.939 129.437 239.926C127.705 243.612 127.757 247.689 127.796 251.662C123.849 251.753 119.915 251.727 115.982 251.584C115.93 248.653 115.865 245.722 115.773 242.792C114.849 241.854 113.937 240.916 113.025 239.978C110.524 239.952 108.023 239.939 105.535 239.926C104.715 240.721 103.907 241.515 103.099 242.31C103.034 245.227 102.982 248.132 102.943 251.05C102.214 251.506 100.755 252.417 100.025 252.873C97.6939 252.847 95.3623 252.808 93.0307 252.782C92.2622 252.339 90.7512 251.467 89.9827 251.024C89.9697 248.692 89.9697 246.361 90.0218 244.042C88.6802 242.557 87.6251 240.616 85.6452 239.9C82.0241 239.757 78.5463 241.697 74.9251 240.929C72.0595 240.421 69.1809 239.9 66.2501 239.783C65.4946 238.793 64.7392 237.803 63.9837 236.813C63.9707 233.908 63.9185 231.003 63.8534 228.099C61.0529 228.06 58.2524 228.021 55.4519 227.995C54.6443 227.591 53.0161 226.757 52.1955 226.353C52.0001 204.106 52.1955 181.858 52.1044 159.61C52.0653 157.122 51.3879 154.739 50.8148 152.342C47.363 152.433 43.8982 152.459 40.4334 152.355C38.9485 155.677 39.0527 159.35 39.196 162.893C39.209 163.205 39.2221 163.805 39.2221 164.104C35.2883 164.195 31.3416 164.208 27.4079 164.221C27.1474 152.576 27.2255 140.919 27.3167 129.274C26.8738 128.596 26.0011 127.242 25.5582 126.577C22.1586 126.63 18.7459 126.864 15.3462 126.617C18.6547 124.923 23.0834 124.181 26.3398 126.33C30.547 126.447 34.7543 126.421 38.9485 126.76C35.0018 127.45 31.0029 127.606 27.0171 127.88C31.0681 127.971 35.119 127.737 39.17 127.554C39.183 131.11 39.2221 134.666 39.2481 138.222C43.2339 138.274 47.2198 138.326 51.2056 138.405C53.1073 130.238 51.6875 121.797 52.2476 113.5C56.1032 113.422 59.9718 113.383 63.8404 113.343C63.9446 106.205 64.5959 99.0544 64.0358 91.9294C64.4005 91.0828 65.1299 89.3764 65.5077 88.5167C65.8594 88.4907 66.5627 88.4386 66.9144 88.4125C70.5225 87.3053 74.2999 87.2923 78.0383 87.2663C78.0643 83.3846 78.1294 79.503 78.2206 75.6344ZM79.5232 99.354C78.3118 100.565 77.1004 101.777 75.889 103.001C75.6806 110.048 75.7327 117.108 75.7458 124.168C79.6144 126.929 84.3947 127.698 88.7974 129.222C88.8755 131.019 88.9537 132.817 89.11 134.614C90.3865 135.852 90.0348 137.688 90.3214 139.264C94.4635 139.329 98.6187 139.329 102.761 139.264C102.813 138.47 102.904 136.881 102.943 136.086C104.102 133.702 104.102 131.019 104.285 128.427C107.294 125.379 111.827 126.486 115.669 126.161C115.76 122.644 116.06 119.114 115.63 115.623C114.692 113.604 112.465 112.848 110.641 111.898C108.792 111.285 106.825 110.96 105.105 110.009C103.725 106.648 103.256 102.988 102.37 99.4842C94.7631 99.0414 87.1301 99.1716 79.5232 99.354ZM168.292 99.3149C166.99 102.311 166.117 105.463 165.805 108.719C163.486 110.217 160.516 111.116 158.914 113.448C157.247 113.513 155.593 113.565 153.925 113.63C153.847 117.824 153.86 122.032 154.016 126.226C157.911 126.174 161.832 126.252 165.648 127.151C165.674 131.162 165.752 135.174 165.883 139.173C169.673 139.29 173.464 139.329 177.267 139.434L176.876 137.897L178.609 138.274C178.609 137.493 178.635 135.93 178.635 135.148C180.211 133.781 180.953 131.84 181.631 129.938C181.787 130.381 182.087 131.267 182.23 131.71C185.213 127.541 190.566 126.447 194.018 122.8C193.992 116.118 193.979 109.436 193.992 102.754C192.351 101.295 190.84 99.0804 188.365 99.3019C181.683 98.9893 174.988 99.2758 168.292 99.3149ZM65.156 152.459C65.0648 164.156 65.0257 175.853 65.182 187.55C72.9453 188.748 80.9951 189.934 88.6802 187.589C87.6642 179.722 91.9496 171.854 88.4457 164.234C85.4889 164.26 82.5451 164.299 79.5883 164.404C77.1525 160.874 76.7748 156.64 76.8139 152.485C72.9192 152.407 69.0376 152.42 65.156 152.459ZM193.236 152.472C192.859 153.306 192.129 154.96 191.765 155.794C191.634 158.568 191.491 161.356 191.374 164.13C188.547 164.182 185.708 164.234 182.881 164.273C182.113 164.677 180.563 165.472 179.781 165.876C179.677 173.079 179.885 180.282 179.963 187.498C186.659 188.527 193.406 189.191 200.192 188.905C201.859 187.863 204.999 187.264 204.543 184.606C204.686 176.726 204.464 168.832 204.621 160.939C204.738 158.008 204.412 155.077 203.292 152.355C199.932 152.42 196.584 152.459 193.236 152.472ZM115.969 164.195C115.213 167.868 114.653 171.594 114.679 175.358C107.567 178.589 99.7258 174.199 92.5878 177.546C92.3534 181.467 92.2752 185.375 92.3794 189.296C99.9473 190.598 107.658 190.22 115.239 189.322C116.138 185.674 116.19 181.884 116.867 178.211C121.687 176.465 127.223 177.768 132.329 177.377C139.115 177.82 146.201 176.452 152.792 178.159C153.925 181.584 153.534 185.284 153.795 188.84C161.623 190.351 169.595 189.908 177.475 189.087C177.241 185.362 178.101 181.285 176.681 177.794C169.751 174.498 161.936 177.82 154.772 176.361C153.456 172.467 154.147 168.181 153.782 164.13C141.186 163.857 128.564 163.648 115.969 164.195ZM64.2702 192.057C63.3063 195.378 63.9446 198.856 64.7131 202.139C73.1928 203.168 81.7896 203.559 90.2432 202.217C90.2172 198.687 90.152 195.144 89.9827 191.614C81.4379 191.823 72.6848 190.911 64.2702 192.057ZM179.534 191.497C179.455 195.014 179.573 198.531 179.846 202.048C187.661 204.001 195.724 202.373 203.644 202.087C206.718 199.833 205.793 194.024 203.357 191.783C195.438 191.262 187.466 191.823 179.534 191.497Z" fill="#3EC5F7"/>
<path d="M170.065 102.051C176.409 101.66 183.273 100.775 189.369 102.585C192.261 109.319 191.636 117.096 190.268 124.155C181.762 127.738 172.123 120.456 164.165 126.083C161.547 124.637 157.821 124.351 156.441 121.368C155.92 119.023 157.417 116.796 158.238 114.699C160.752 114.048 163.618 114.1 165.806 112.576C167.382 109.15 167.799 105.112 170.065 102.051Z" fill="#F9EDB1"/>
<path d="M83.4009 105.633C86.7094 101.49 92.649 102.689 97.247 103.184C100.386 105.841 100.569 110.491 102.731 113.852C105.206 115.389 108.267 115.571 111.054 116.287C111.354 118.424 112.878 120.964 110.976 122.813C108.553 124.311 105.492 123.934 102.757 124.09C98.6147 124.025 94.4726 124.064 90.3435 124.35C87.1913 123.386 83.5572 122.957 81.0302 120.716C80.6655 115.727 79.6625 109.631 83.4009 105.633Z" fill="#F9EDB1"/>
<path d="M39.1945 162.894C42.5291 160.419 44.4959 155.248 49.5238 156.303C49.7452 173.067 49.654 189.844 49.615 206.621C50.5528 211.727 44.6913 214.241 40.471 213.915C36.4591 213.551 32.4473 213.082 28.4224 212.717C28.6177 201.346 28.3833 189.974 28.6308 178.616C32.1216 178.525 35.6255 178.46 39.1294 178.434C40.9399 173.849 41.2656 168.795 39.2206 164.223V164.105C39.2206 163.806 39.2075 163.207 39.1945 162.894Z" fill="#F9EDB1"/>
<path d="M220.145 162.359C220.015 159.936 220.601 157.578 221.747 155.455C223.936 156.784 226.124 158.165 228.26 159.597C228.169 165.211 228.039 170.812 227.961 176.427C231.452 178.849 235.724 178.706 239.788 178.511C242.132 189.7 240.517 201.305 240.752 212.664C237.274 212.885 233.809 213.107 230.357 213.549C230.383 214.318 230.423 215.855 230.436 216.623C230.54 220.036 230.579 223.449 230.657 226.875C233.718 226.875 236.766 226.862 239.814 226.822L239.736 228.438C240.4 228.255 241.729 227.904 242.393 227.721C242.51 230.678 242.562 233.648 242.562 236.618C242.927 237.412 243.656 239.001 244.008 239.783C247.747 239.77 251.485 239.757 255.21 239.731C255.301 235.849 255.419 231.981 255.523 228.112C255.692 228.659 256.031 229.766 256.2 230.313C257.333 233.987 258.089 239.093 255.041 242.01C249.87 243.039 243.057 243.951 239.736 238.806C239.749 235.966 239.645 233.14 239.449 230.326C235.581 230.105 230.266 231.173 228.091 227.018C226.606 223.319 227.023 219.202 226.736 215.308C225.043 214.813 222.946 215.034 221.63 213.693C219.937 211.257 220.289 208.131 220.158 205.33C220.302 191.002 220.223 176.687 220.145 162.359Z" fill="#F9EDB1"/>
</svg>
