<svg width="315" height="314" viewBox="0 0 315 314" fill="none" xmlns="http://www.w3.org/2000/svg">
<path d="M121.574 20.2555C143.522 19.9526 165.497 20.2004 187.445 20.0628C190.3 19.7324 192.939 20.7097 194.824 22.9121C194.716 26.5461 194.743 30.18 194.77 33.814C204.303 36.622 214.361 34.048 224.083 35.6723C224.42 40.3386 223.854 45.1288 225.066 49.6713C229.106 50.8963 233.455 49.9053 237.575 50.8C240.416 55.0671 238.774 60.7796 239.272 65.6387C238.693 65.0468 237.508 63.8492 236.915 63.2435C236.565 59.8298 236.579 56.3886 236.592 52.9473C231.624 52.0388 226.359 52.4518 221.659 50.3182C221.659 46.2025 221.66 42.1005 221.767 37.9848C212.167 35.5071 202.135 37.8058 192.373 36.3743C191.969 31.8181 192.562 27.0967 191.377 22.6643C168.244 22.1963 145.057 22.4579 121.897 22.6231C122.059 27.3307 121.709 32.0245 120.793 36.6358C111.381 37.0488 101.969 36.7735 92.5572 36.9111C92.3417 41.2196 92.2879 45.5555 92.7322 49.864C88.5446 52.9336 83.2394 51.9287 78.4189 51.9975L78.4863 51.4745C82.0141 51.2129 85.6766 51.1028 88.8274 49.2308C89.0563 49.1207 89.5276 48.9004 89.7565 48.7903C89.6891 44.647 89.6757 40.5038 90.1739 36.388C90.4701 36.333 91.0626 36.2091 91.3588 36.1403C91.682 35.6723 92.3283 34.7362 92.6514 34.2682C101.525 33.6763 110.412 34.2682 119.285 33.8691C119.353 29.3541 119.379 24.8392 119.554 20.3243C120.053 20.3105 121.063 20.2692 121.574 20.2555Z" fill="#000100"/>
<path d="M140.847 96.678V63.9617L178.675 72.652L162.828 103.835L140.847 96.678Z" fill="#000100" stroke="#000100"/>
<path d="M91.261 97.1905L50.3655 84.4106V107.926L40.6528 123.261L50.3655 137.575L80.5259 119.172L91.261 97.1905Z" fill="#000100" stroke="#000100"/>
<path d="M90.5913 35.7138C90.8875 35.2182 91.4531 34.2409 91.7358 33.7454L92.6515 34.2684C92.3283 34.7364 91.682 35.6725 91.3588 36.1405L90.5913 35.7138Z" fill="#000100"/>
<path d="M90.5888 35.7139L91.3563 36.1406C91.0601 36.2094 90.4676 36.3333 90.1714 36.3884L90.5888 35.7139Z" fill="#000100"/>
<path d="M76.8301 51.557C77.0859 50.9513 77.5706 49.7125 77.8265 49.0931C81.489 48.8866 85.1649 49.038 88.8274 49.2307C85.6766 51.1028 82.0141 51.2129 78.4863 51.4744L76.8301 51.557Z" fill="#000100"/>
<path d="M121.898 22.6232C145.057 22.458 168.244 22.1965 191.377 22.6645C192.562 27.0968 191.969 31.8182 192.373 36.3744C202.135 37.806 212.167 35.5072 221.767 37.9849C221.66 42.1006 221.66 46.2026 221.66 50.3183C226.359 52.4519 231.624 52.039 236.592 52.9475C236.579 56.3887 236.565 59.8299 236.916 63.2437C237.508 63.8493 238.693 65.0469 239.272 65.6388L239.326 66.1618C242.625 65.6801 245.951 65.5149 249.263 65.859C250.461 66.272 251.66 66.6436 252.872 66.9877C252.791 71.2411 252.858 75.5083 252.831 79.7754L255.74 78.743L253.558 80.7665C258.231 80.6151 262.889 80.6839 267.562 80.6564L267.414 81.3446C264.478 96.0181 267.629 111.16 265.65 125.971C264.505 124.553 262.741 123.41 262.916 121.318C262.27 111.201 263.159 101.029 262.499 90.8975C261.987 91.4068 260.991 92.4117 260.493 92.921C262.243 103.107 259.766 113.321 259.887 123.548C253.02 125.2 245.964 125.984 238.935 125.186C236.229 115.606 237.791 105.585 236.727 95.7979C232.135 95.2886 227.53 94.8756 222.939 94.4076C222.602 89.989 220.825 84.1664 224.77 80.8904C228.742 79.4175 233.415 82.1981 237.36 80.1746C240.093 78.5916 239.905 74.9164 240.78 72.2184C238.652 70.2776 235.946 68.7359 234.667 66.0517C233.859 62.2801 234.101 58.3709 234.034 54.5304C231.61 54.8195 229.133 55.7142 226.696 55.1774C223.72 53.8009 221.202 51.5434 218.172 50.277C215.089 49.9604 212.019 50.7038 208.949 50.8552C202.189 51.4746 195.551 48.8592 188.805 49.9329C181.776 51.0341 174.667 51.0066 167.571 51.158C167.261 60.6008 164.635 69.7407 163.302 79.0459C160.03 81.7438 154.564 81.7025 150.699 80.4224C148.693 76.0589 149.81 70.9796 149.514 66.327C149.716 61.5643 148.45 56.7466 149.285 52.039C152.746 47.8269 158.859 50.6212 163.424 50.7726C164.824 45.9824 165.982 39.4027 162.198 35.5485C153.446 32.823 144.074 35.0254 135.255 36.457C134.353 40.7241 133.612 45.0188 132.939 49.3273C119.743 52.562 106.103 50.456 92.7324 49.8641C92.288 45.5556 92.3419 41.2197 92.5573 36.9112C101.969 36.7736 111.381 37.0489 120.793 36.6359C121.709 32.0247 122.059 27.3308 121.898 22.6232Z" fill="#000100"/>
<path d="M135.255 36.457C144.074 35.0254 153.446 32.823 162.198 35.5485C165.982 39.4027 164.824 45.9824 163.424 50.7726C158.859 50.6212 152.746 47.8269 149.285 52.039C148.45 56.7466 149.716 61.5643 149.514 66.327C149.81 70.9796 148.693 76.0589 150.699 80.4224C154.564 81.7025 160.03 81.7438 163.302 79.0459C164.635 69.7407 167.261 60.6008 167.571 51.158C174.667 51.0066 181.776 51.0341 188.805 49.9329C195.551 48.8592 202.189 51.4746 208.949 50.8552C212.019 50.7038 215.089 49.9604 218.172 50.277C221.202 51.5434 223.72 53.8009 226.696 55.1774C229.133 55.7142 231.61 54.8195 234.034 54.5304C234.101 58.3709 233.859 62.2801 234.667 66.0517C235.946 68.7359 238.652 70.2776 240.78 72.2184C239.905 74.9164 240.093 78.5916 237.36 80.1746C233.415 82.1981 228.742 79.4175 224.77 80.8904C220.825 84.1664 222.602 89.989 222.939 94.4076C227.53 94.8756 232.135 95.2886 236.727 95.7979C237.791 105.585 236.229 115.606 238.935 125.186C245.964 125.984 253.02 125.2 259.887 123.548C259.766 113.321 262.243 103.107 260.493 92.921C260.991 92.4117 261.987 91.4068 262.499 90.8975C263.159 101.029 262.27 111.201 262.916 121.318C262.741 123.41 264.505 124.553 265.65 125.971C267.629 111.16 264.478 96.0181 267.414 81.3446C267.912 95.44 267.642 109.577 267.562 123.686L269.447 122.722L267.723 124.966L270.443 124.346L269.891 126.122C274.132 125.984 278.387 126.081 282.629 125.792C282.292 126.026 281.606 126.521 281.255 126.769C281.04 141.209 281.363 155.676 281.094 170.129C277.31 170.156 273.473 169.895 269.729 170.569C265.623 172.827 268.087 178.663 267.387 182.49C263.387 184.114 259.146 184.348 254.972 183.426C254.837 171.904 255.039 160.383 255.012 148.862C254.783 145.489 255.066 141.36 252.279 138.951C247.983 138.194 243.527 138.18 239.245 138.868C234.667 141.677 235.38 147.733 235.528 152.372C232.054 152.84 228.675 153.804 225.322 154.85L224.433 155.084C224.46 145.93 224.352 136.79 224.406 127.636C223.45 126.686 222.494 125.737 221.538 124.787C217.916 124.801 214.294 124.801 210.685 124.649C210.133 124.635 209.016 124.594 208.464 124.567C208.477 120.024 208.423 115.482 208.316 110.953C203.428 110.953 198.54 110.912 193.652 110.733C193.558 105.736 193.518 100.753 193.437 95.7703L191.7 95.729C187.593 95.5225 183.432 95.7428 179.568 97.312C179.501 96.431 179.124 95.7152 178.437 95.1646C176.484 110.003 178.208 125.021 177.238 139.928C173.132 139.997 169.065 139.295 165.053 138.442C165.578 133.803 165.51 129.04 163.881 124.622C159.37 124.787 154.779 124.814 150.497 123.149C149.931 119.446 152.355 113.954 148.45 111.641C148.316 110.981 148.033 109.659 147.898 109.012C144.182 108.255 140.358 108.462 136.588 108.407C136.264 98.7711 137.476 88.9979 135.43 79.4863C130.151 79.1697 124.846 79.1422 119.568 79.4725C118.989 84.1114 118.504 88.7639 118.087 93.4303C114.586 93.7193 111.085 94.0497 107.584 94.4489C102.939 88.117 106.615 80.2296 106.413 73.0994C106.251 70.6354 106.763 67.1942 104.218 65.8177C100.273 64.8817 96.1792 64.9642 92.1666 64.6614C91.4126 62.693 90.6585 60.7384 89.9179 58.7838C87.7905 58.2332 85.663 57.6826 83.5355 57.132C87.1846 55.4526 92.9478 55.2049 92.7324 49.8641C106.103 50.456 119.743 52.562 132.939 49.3273C133.612 45.0188 134.353 40.7241 135.255 36.457Z" fill="#000100"/>
<path d="M78.0008 63.3266C81.9461 63.3128 86.0125 63.8634 89.5672 65.7354C91.3177 70.1265 90.3213 74.9305 89.9308 79.4867C85.4469 79.996 80.9092 80.051 76.4658 80.9182C73.3823 84.6761 74.85 90.3885 74.096 94.9585C69.8276 94.7383 62.6103 97.4224 61.1561 91.5861C60.1597 88.957 58.315 85.8461 60.5906 83.2996C64.4416 79.1976 63.9972 73.3475 64.0107 68.0755C68.7638 67.5524 76.0618 69.2593 78.0008 63.3266Z" fill="#000100"/>
<path d="M49.2541 84.8002C50.3582 85.1305 52.5664 85.805 53.6571 86.1354C50.8699 94.1191 50.6544 103.011 53.2801 111.078C61.1706 111.642 69.088 111.573 76.9919 111.724C81.2334 111.697 85.7576 111.573 89.474 109.219C90.9147 104.938 90.5781 100.258 91.0763 95.7984C93.9713 95.2203 96.8663 94.3118 99.8286 94.4081C101.121 95.4268 102.306 96.583 103.518 97.6842C102.777 106.053 103.68 114.45 102.899 122.805C98.1589 124.388 90.7666 121.525 88.7065 127.83C87.8717 135.951 88.5853 144.169 88.5718 152.331C85.1921 153.749 81.5296 153.721 77.948 153.515C77.7864 149.537 78.0826 145.476 77.1939 141.567C74.9857 137.548 69.8555 138.731 66.1257 138.58C63.0961 138.346 59.0296 139.846 58.9758 143.494C58.3699 156.943 59.1239 170.418 58.6661 183.881C55.5018 184.018 52.351 184.156 49.2002 184.335C48.2442 180.068 47.7864 175.704 47.8806 171.327C43.8815 168.367 38.8725 168.739 34.2002 168.698C34.9542 150.39 33.8097 132.042 34.7523 113.734C39.4919 113.5 46.5072 115.4 48.6212 109.481C49.8869 101.332 48.4596 93.0041 49.2541 84.8002Z" fill="#000100"/>
<path d="M78.4191 51.9979C83.2395 51.9291 88.5447 52.9337 92.7324 49.8641C92.9478 55.2049 87.1846 55.4526 83.5355 57.132C85.663 57.6826 87.7905 58.2332 89.9179 58.7838C90.6585 60.7384 91.4126 62.693 92.1666 64.6614C96.1792 64.9642 100.273 64.8817 104.218 65.8177C106.763 67.1942 106.251 70.6354 106.413 73.0994C106.615 80.2296 102.939 88.117 107.584 94.4489C106.278 94.5727 104.986 94.7107 103.679 94.8345C103.639 95.5503 103.558 96.9684 103.518 97.6842C102.306 96.583 101.121 95.4268 99.8286 94.4081C96.8663 94.3118 93.9713 95.2203 91.0763 95.7984C90.5781 100.258 90.9147 104.938 89.474 109.219C85.7576 111.573 81.2334 111.697 76.9919 111.724C69.088 111.573 61.1706 111.642 53.2801 111.078C50.6544 103.011 50.8699 94.1191 53.6571 86.1354C52.5664 85.805 50.3582 85.1305 49.2541 84.8002L49.4424 83.2307C53.1588 83.1068 56.8877 83.1619 60.5906 83.2996C58.315 85.8461 60.1597 88.957 61.1561 91.5861C62.6103 97.4224 69.8276 94.7383 74.096 94.9585C74.85 90.3885 73.3823 84.6761 76.4658 80.9182C80.9092 80.051 85.4469 79.996 89.9308 79.4867C90.3213 74.9305 91.3177 70.1265 89.5672 65.7354C86.0125 63.8634 81.9461 63.3128 78.0008 63.3266C77.9739 59.555 78.0017 55.7695 78.4191 51.9979Z" fill="#000100"/>
<path d="M47.3008 83.3878V115.082L89.2186 78.2758L252.289 81.343L254.334 68.052L238.487 64.4736V50.1602L223.662 48.1154V33.802L194.013 32.2684V20.511H118.357V33.802H91.7746L89.2186 48.1154L78.4836 50.1602L76.95 64.4736L63.659 68.052L62.1254 83.3878H47.3008Z" fill="#000100" stroke="#000100"/>
<path d="M74.9291 51.6536C75.4003 51.6398 76.3564 51.5847 76.8276 51.5572L78.4838 51.4746L78.4165 51.9977C77.9991 55.7693 77.9722 59.5547 77.9991 63.3263C76.0601 69.259 68.7621 67.5521 64.009 68.0752C63.9955 73.3472 64.4398 79.1973 60.5889 83.2993C56.886 83.1616 53.1562 83.1066 49.4398 83.2304L49.2513 84.7997C48.4569 93.0036 49.8842 101.331 48.6185 109.48C46.5045 115.399 39.4892 113.5 34.7495 113.734C33.807 132.041 34.9515 150.39 34.1975 168.697C34.1167 169.84 34.0224 170.968 33.9416 172.097C33.1472 171.505 31.5583 170.308 30.7639 169.716C30.5754 153.57 30.7639 137.409 30.6427 121.263C30.5485 117.904 31.2217 114.628 31.7064 111.339C32.5682 110.953 34.2783 110.196 35.14 109.824C38.1427 109.659 41.1589 109.714 44.1616 109.797L43.8384 108.104L45.3734 108.2C45.0772 99.0327 45.1984 89.8514 45.3599 80.6839C50.3151 80.56 55.3375 80.5325 60.1714 79.2248C60.158 75.054 60.1849 70.8695 60.0637 66.6987L61.7603 67.1116L61.491 64.9368C62.1239 65.1983 63.3626 65.7214 63.9955 65.9691L64.2648 63.987C66.2711 64.4688 68.3043 64.8817 70.3375 65.2121C71.7917 64.5789 73.3133 64.1522 74.9021 63.9595C74.9021 59.8575 74.9425 55.7555 74.9291 51.6536Z" fill="#4A4B48"/>
<path d="M119.568 79.4723C124.847 79.1419 130.152 79.1695 135.43 79.4861C137.477 88.9977 136.265 98.7708 136.588 108.406C140.358 108.461 144.182 108.255 147.899 109.012C148.033 109.659 148.316 110.98 148.451 111.641C144.734 111.916 141.018 112.233 137.302 112.357C136.561 111.848 135.08 110.815 134.339 110.306C133.653 100.822 134.851 91.2551 133.289 81.8536C129.613 81.8812 125.937 81.8812 122.261 82.0739C121.965 82.1014 121.386 82.1427 121.09 82.1702C120.794 86.6714 120.847 91.2001 120.672 95.715C116.135 95.9903 111.583 96.0866 107.032 95.9903L106.938 96.8437C105.08 106.41 106.588 116.266 105.794 125.957C101.404 126.218 97.0009 126.287 92.5978 126.26C92.4767 126.769 92.2343 127.787 92.1131 128.297C89.8645 137.272 92.5844 146.742 90.6454 155.772C88.0467 156.859 85.1248 156.57 82.3644 156.666C79.86 156.405 76.6014 157.176 75.1068 154.505C74.1912 150.582 76.3321 145.627 73.1813 142.516C69.7208 142.516 66.2738 142.585 62.8133 142.612C62.6786 156.845 62.6517 171.078 62.8133 185.311C67.3914 185.16 72.1041 184.802 76.3995 186.715C76.3321 191.382 76.763 196.034 77.6113 200.618C82.1625 200.356 86.7675 200.356 91.1706 201.733C92.0592 206.675 92.3016 211.713 91.1302 216.64C86.754 217.053 82.3375 217.246 77.9479 216.806C77.2478 216.737 75.8474 216.613 75.1472 216.558C74.9991 212.084 74.8914 207.611 74.851 203.151C74.2181 203.068 72.9659 202.903 72.3465 202.82C68.1858 202.339 64.0925 201.485 59.9452 201.003C60.1741 196.585 59.9587 192.153 59.4874 187.775C55.4345 187.789 51.3815 187.72 47.3285 187.665C46.5072 185.559 45.5916 183.494 44.7702 181.388C44.9991 178.608 45.2011 175.814 45.3626 173.033C41.5386 172.95 37.7145 172.716 33.9443 172.097C34.0251 170.968 34.1194 169.839 34.2002 168.697C38.8725 168.738 43.8815 168.367 47.8806 171.326C47.7863 175.703 48.2442 180.067 49.2002 184.334C52.351 184.155 55.5018 184.017 58.6661 183.88C59.1239 170.418 58.3698 156.942 58.9758 143.493C59.0296 139.846 63.096 138.345 66.1257 138.579C69.8555 138.731 74.9856 137.547 77.1939 141.566C78.0826 145.475 77.7864 149.536 77.9479 153.514C81.5296 153.721 85.1921 153.748 88.5718 152.33C88.5853 144.168 87.8716 135.95 88.7065 127.829C90.7666 121.524 98.1589 124.387 102.899 122.805C103.68 114.449 102.777 106.053 103.518 97.6834C103.558 96.9676 103.639 95.5498 103.68 94.834C104.986 94.7102 106.278 94.5725 107.584 94.4486C111.085 94.0494 114.586 93.7191 118.087 93.43C118.504 88.7637 118.989 84.1111 119.568 79.4723ZM62.9345 188.092C62.8671 191.519 62.6517 194.988 63.096 198.416C65.5736 201.114 70.7576 201.031 73.2352 198.388C73.3429 195.029 74.7837 190.57 71.9156 188.051C68.9264 187.83 65.9237 188.009 62.9345 188.092ZM77.7056 203.22C77.6786 206.95 77.7056 210.694 77.7594 214.424C80.8968 214.479 84.0341 214.562 87.1714 214.7C88.7469 211.451 89.4605 207.046 87.7235 203.811C84.6804 202.27 80.991 203.426 77.7056 203.22Z" fill="#574932"/>
<path d="M121.088 82.1706C121.384 82.143 121.963 82.1017 122.259 82.0742C122.609 91.6271 121.532 101.166 120.522 110.65C116.873 111.6 112.578 112.398 109.104 110.471C106.196 106.631 107.017 101.387 106.936 96.8441L107.03 95.9906C111.582 96.087 116.133 95.9906 120.67 95.7153C120.845 91.2004 120.792 86.6717 121.088 82.1706Z" fill="#F2C884"/>
<path d="M122.261 82.074C125.937 81.8813 129.613 81.8813 133.289 81.8538C134.851 91.2552 133.652 100.822 134.339 110.306C135.08 110.815 136.561 111.848 137.301 112.357C141.018 112.233 144.734 111.917 148.45 111.641C147.764 116.872 148.275 122.116 149.393 127.264C153.702 127.498 158.01 127.581 162.319 127.636C162.575 131.518 162.737 135.427 163.37 139.281C163.518 140.107 163.841 141.759 163.989 142.585C168.486 142.736 172.97 142.791 177.454 142.764C177.575 146.811 177.05 150.954 178.006 154.918C178.558 155.992 179.164 157.685 180.645 157.534C190.232 157.974 199.846 157.768 209.433 157.506C210.712 152.991 211.332 148.242 210.524 143.59C209.985 140.974 207.616 138.882 204.949 138.978C197.032 138.607 189.088 139.199 181.17 138.786C181.197 125.571 181.453 112.343 181.224 99.1426L179.568 97.3118C183.432 95.7426 187.593 95.5224 191.7 95.7289C191.417 99.3078 191.121 102.9 190.825 106.479C190.353 103.974 189.896 101.469 189.451 98.9636C188.563 98.8948 186.772 98.7709 185.87 98.7021C185.291 101.51 184.079 104.387 184.819 107.291C185.533 111.077 189.142 113.059 191.727 115.427C192.306 120.878 192.548 126.673 195.47 131.449C196.13 132.247 196.574 133.913 197.921 133.252C201.449 132.192 203.334 127.044 207.441 127.898C211.776 128.572 216.152 128.861 220.528 128.834C220.744 138.359 220.475 147.884 220.784 157.41C226.076 158.786 231.556 158.883 236.969 158.373C237.696 158.483 239.124 158.69 239.851 158.8C237.669 166.426 237.562 174.478 239.366 182.201C235.084 186.234 234.169 192.084 234.061 197.755C233.536 197.727 232.472 197.659 231.947 197.631C232.849 194.548 234.169 191.148 232.526 188.051C231.018 184.183 224.528 184.761 223.598 188.808C222.494 191.643 224.137 194.465 224.783 197.191C223.922 198.306 223.06 199.421 222.239 200.563C222.09 201.031 221.781 201.967 221.619 202.435L221.458 203.178C220.475 207.184 219.707 211.272 219.505 215.402C219.088 211.437 218.59 207.404 217.149 203.674C215.452 201.678 212.638 201.719 210.349 200.948C210.026 204.982 209.756 209.029 209.554 213.089C208.316 214.19 207.063 215.278 205.811 216.352C202.283 216.778 198.742 217.205 195.201 216.888C189.949 214.796 184.335 215.705 178.854 215.76C178.477 215.76 177.696 215.773 177.319 215.773C176.808 215.787 175.771 215.828 175.259 215.842C174.101 216.53 172.984 217.274 171.839 217.99C161.296 214.397 149.985 217.466 139.159 215.237C137.611 219.972 138.028 224.941 138.877 229.772C137.84 228.891 136.817 227.997 135.78 227.129C135.753 223.303 135.618 219.476 135.47 215.663C129.801 215.168 124.079 215.14 118.477 216.186C114.855 216.737 111.206 217.04 107.557 217.177C105.605 212.704 105.147 207.707 103.141 203.275C100.865 200.907 97.3642 202.903 95.4521 204.775C94.0114 208.561 93.5536 212.621 92.5437 216.53L91.1299 216.641C92.3013 211.713 92.0589 206.675 91.1703 201.733C86.7672 200.357 82.1622 200.357 77.611 200.618C76.7627 196.034 76.3318 191.382 76.3992 186.715C72.1038 184.802 67.3911 185.16 62.813 185.311C62.6514 171.078 62.6783 156.845 62.813 142.612C66.2735 142.585 69.7205 142.516 73.181 142.516C72.5751 147.458 72.3327 152.441 71.8076 157.396C70.9862 153.335 70.0571 149.11 67.3911 145.861C64.0787 153.294 66.3004 161.594 65.6541 169.44C66.0176 173.336 64.3345 178.209 67.4853 181.223C72.7501 181.677 74.9045 176.158 75.6451 171.808C76.9916 167.334 74.6218 163.081 73.0733 159.02C79.2807 158.731 85.488 158.415 91.6954 158.043C93.3112 148.187 92.1667 138.208 92.1128 128.297C92.234 127.788 92.4764 126.769 92.5975 126.26C97.0006 126.287 101.404 126.218 105.793 125.957C106.588 116.266 105.08 106.411 106.938 96.8438C107.019 101.386 106.197 106.631 109.106 110.471C112.58 112.398 116.875 111.6 120.524 110.65C121.534 101.166 122.611 91.6269 122.261 82.074ZM106.036 139.791C102.225 145.09 102.575 152.372 106.116 157.726C114.788 157.534 123.459 157.878 132.131 157.63C134.002 157.864 135.551 156.075 135.564 154.244C135.861 149.412 136.574 144.195 134.339 139.708C124.9 139.777 115.461 139.736 106.036 139.791ZM79.9674 193.956C81.8525 197.246 86.0536 196.392 89.1236 195.938C91.0087 194.506 91.5338 192.029 92.5437 190.005C90.3085 187.417 87.3731 184.472 83.6568 185.669C80.9099 187.266 79.6981 190.872 79.9674 193.956Z" fill="#F7D3A3"/>
<path d="M178.438 95.1646C179.125 95.7152 179.502 96.4309 179.569 97.3119L181.225 99.1426C181.454 112.343 181.198 125.571 181.171 138.786C189.089 139.199 197.033 138.607 204.95 138.979C207.617 138.882 209.986 140.974 210.525 143.59C211.333 148.242 210.714 152.991 209.434 157.506C199.847 157.768 190.233 157.974 180.646 157.534C179.165 157.685 178.559 155.992 178.007 154.918C177.051 150.954 177.576 146.811 177.455 142.764C172.971 142.791 168.487 142.736 163.99 142.585C163.842 141.759 163.519 140.107 163.371 139.281L165.054 138.442C169.066 139.295 173.133 139.997 177.24 139.928C178.209 125.021 176.486 110.003 178.438 95.1646ZM181.804 142.97C180.74 146.439 181.346 150.183 181.212 153.776C189.816 153.914 198.433 153.9 207.038 153.79C206.836 150.252 207.697 146.453 206.418 143.094C198.258 142.378 189.991 142.626 181.804 142.97Z" fill="#81735D"/>
<path d="M191.7 95.729L193.437 95.7703C193.518 100.753 193.558 105.736 193.652 110.733C198.54 110.912 203.428 110.953 208.316 110.953C208.423 115.482 208.477 120.024 208.464 124.567C209.016 124.594 210.133 124.635 210.686 124.649C209.595 125.737 208.518 126.81 207.44 127.898C203.334 127.044 201.449 132.192 197.921 133.252C196.574 133.913 196.13 132.248 195.47 131.449C192.548 126.673 192.306 120.878 191.727 115.427C189.142 113.059 185.533 111.077 184.819 107.292C184.079 104.387 185.291 101.51 185.87 98.7022C186.772 98.7711 188.563 98.895 189.451 98.9638C189.896 101.469 190.353 103.974 190.825 106.479C191.121 102.901 191.417 99.3079 191.7 95.729Z" fill="#F5CC8E"/>
<path d="M29.9988 109.563L31.7088 111.338C31.2241 114.628 30.5509 117.904 30.6451 121.263C30.7663 137.409 30.5778 153.569 30.7663 169.716C31.8031 171.918 32.9611 174.052 34.0921 176.213C32.8264 183.577 33.6074 191.01 33.9979 198.416C33.567 208.767 34.6173 219.105 34.4826 229.456C38.2798 229.993 42.0903 230.378 45.9144 230.64C47.5571 235.058 48.6478 239.669 49.3749 244.35C53.2394 244.886 57.2115 245.148 60.9548 246.373C63.2304 250.365 63.0823 255.279 64.0383 259.711C72.3327 260.441 80.7887 258.927 88.9755 260.523C93.3247 263.469 92.3417 270.09 93.7421 274.715C102.023 275.541 110.439 274.013 118.639 275.335C122.651 278.39 121.843 284.213 122.328 288.742C131.336 290.572 140.533 289.485 149.649 289.733C163.45 289.389 177.319 290.517 191.094 289.086C192.238 284.461 190.852 276.697 196.709 275.224C204.599 274.178 212.598 275.142 220.528 274.784C221.619 270.393 220.879 265.176 223.45 261.377C231.826 258.101 241.184 260.744 249.963 259.684C250.919 255.224 250.825 250.31 253.046 246.263C256.467 244.102 260.816 244.997 264.613 244.047C267.117 240.592 266.215 235.733 267.562 231.755C271.345 229.91 275.762 229.924 279.465 227.887C281.35 225.891 280.771 222.89 281 220.385C280.986 208.905 280.879 197.438 280.959 185.958C281.121 182.283 280.03 178.759 278.684 175.401C279.222 174.823 280.313 173.653 280.852 173.074C284.07 170.101 283.087 165.201 283.329 161.25C282.925 150.266 283.854 139.226 282.925 128.283L281.256 126.769C281.606 126.521 282.292 126.026 282.629 125.792L283.558 125.145C284.379 126.948 285.16 128.82 284.999 130.871C284.945 142.833 284.743 154.795 284.999 166.743C285.255 171.808 283.477 176.791 284.46 181.829C285.147 186.014 283.76 190.143 283.72 194.328C283.329 200.728 285.928 207.06 284.447 213.433C282.818 219.628 286.736 226.07 283.518 232.016C279.101 233.255 274.388 233.585 270.255 235.76C270.039 240.344 269.595 245.437 265.69 248.424C262.539 248.575 259.2 248.08 256.197 249.264C251.767 252.746 257.207 261.363 250.636 263.221C242.53 265.314 233.818 262.079 225.847 265.231C225.726 269.539 226.668 275.541 222.037 277.785C213.769 280.854 204.505 276.849 196.251 280.097C195.861 283.635 195.726 287.31 194.326 290.627C191.39 294.385 186.193 293.945 181.978 293.986C164.016 293.931 146.054 293.917 128.105 294C125.412 294 122.328 293.986 120.335 291.839C117.548 288.535 118.356 283.869 118.194 279.849C109.967 277.73 101.444 279.753 93.1361 278.583C88.1272 276.216 88.3022 270.145 88.383 265.355C81.2869 262.753 73.7196 264.171 66.3677 263.799C63.2439 263.951 60.4431 261.611 59.3255 258.761C58.76 255.871 58.8139 252.925 58.7196 250.007C54.9225 248.286 50.5733 248.713 46.8166 246.992C42.804 244.308 44.9449 238.623 42.8982 234.921C39.0203 233.186 33.6343 234.274 30.874 230.461C28.3695 223.262 29.6487 215.457 29.3659 207.982C29.6756 197.893 28.6523 187.748 30.12 177.741C30.3219 174.01 28.9351 170.39 29.0024 166.66C29.0832 150.142 29.0697 133.624 29.0428 117.106C29.0024 114.546 29.4737 112.04 29.9988 109.563Z" fill="#E8E0B3"/>
<path d="M148.45 111.642C152.355 113.954 149.931 119.446 150.497 123.149C154.779 124.815 159.37 124.787 163.881 124.622C165.51 129.041 165.577 133.803 165.052 138.442L163.369 139.282C162.736 135.428 162.575 131.518 162.319 127.637C158.01 127.581 153.701 127.499 149.393 127.265C148.275 122.117 147.763 116.872 148.45 111.642Z" fill="#8B7D64"/>
<path d="M210.687 124.65C214.296 124.801 217.918 124.801 221.54 124.788C222.496 125.737 223.452 126.687 224.408 127.637C224.354 136.791 224.462 145.931 224.435 155.084C227.518 156.956 231.086 156.943 234.56 156.97C235.166 157.314 236.365 158.016 236.971 158.374C231.558 158.883 226.077 158.787 220.786 157.411C220.476 147.885 220.745 138.36 220.53 128.834C216.154 128.862 211.778 128.573 207.442 127.898C208.519 126.811 209.596 125.737 210.687 124.65Z" fill="#B7A88B"/>
<path d="M90.6455 155.772C92.5845 146.742 89.8646 137.272 92.1132 128.297C92.1671 138.208 93.3116 148.188 91.6958 158.043C85.4884 158.415 79.2811 158.732 73.0737 159.021C74.6222 163.081 76.992 167.335 75.6455 171.808C74.905 176.158 72.7506 181.678 67.4858 181.224C64.3349 178.209 66.0181 173.336 65.6545 169.441C66.3008 161.595 64.0791 153.294 67.3915 145.861C70.0576 149.11 70.9867 153.336 71.808 157.396C72.3332 152.441 72.5755 147.458 73.1814 142.516C76.3322 145.627 74.1913 150.583 75.1069 154.506C76.6015 157.176 79.8601 156.405 82.3646 156.667C85.1249 156.57 88.0468 156.859 90.6455 155.772Z" fill="#F3C780"/>
<path d="M281.094 170.129C281.363 155.676 281.04 141.209 281.256 126.769L282.925 128.283C283.854 139.226 282.925 150.266 283.329 161.25C283.087 165.201 284.07 170.101 280.852 173.075C277.149 173.157 273.459 173.102 269.77 173.212C269.608 178.402 269.339 183.632 267.804 188.629C263.616 188.285 259.402 188.312 255.214 188.67C255.362 193.529 254.756 198.347 253.827 203.096C249.29 202.931 244.752 202.889 240.201 202.931C240.133 207.693 240.362 212.442 240.457 217.205C240.08 217.535 239.689 217.838 239.285 218.127C233.549 217.659 227.032 219.49 221.996 215.884C222.037 211.644 221.74 207.404 221.458 203.179L221.619 202.435C226.265 200.123 231.462 200.26 236.498 200.384C237.36 195.745 235.461 188.326 240.174 185.752C244.361 186.881 248.67 186.702 252.844 185.628C257.598 186.84 262.499 186.963 267.36 186.523C267.36 185.518 267.373 183.508 267.387 182.49C268.087 178.663 265.623 172.827 269.73 170.569C273.473 169.895 277.31 170.156 281.094 170.129ZM239.447 187.968C239.42 192.098 239.42 196.227 239.487 200.357C243.742 200.412 248.172 201.21 252.319 199.916C252.993 195.952 252.656 191.919 252.737 187.913C248.307 187.665 243.863 187.652 239.447 187.968ZM224.676 203.399C224.554 207.515 224.231 211.782 225.82 215.691C229.631 215.374 233.684 216.242 237.333 214.948C238.531 211.231 237.696 207.102 237.939 203.234C233.536 202.669 228.917 201.389 224.676 203.399Z" fill="#897D4F"/>
<path d="M239.246 138.869C243.527 138.18 247.984 138.194 252.28 138.951C255.067 141.36 254.784 145.49 255.013 148.862C255.04 160.383 254.838 171.905 254.973 183.426C259.147 184.348 263.388 184.114 267.387 182.49C267.374 183.509 267.36 185.518 267.36 186.523C262.5 186.964 257.598 186.84 252.845 185.628C248.671 186.702 244.362 186.881 240.175 185.752C244.308 185.312 248.483 185.381 252.63 185.188C252.711 171.093 252.737 157.011 252.67 142.916C249.21 142.475 245.763 141.993 242.329 141.388C241.562 141.801 240 142.627 239.232 143.04C239.192 147.128 239.178 151.216 239.151 155.318C234.546 154.96 229.941 154.464 225.323 154.85C228.676 153.804 232.055 152.84 235.529 152.372C235.381 147.733 234.667 141.677 239.246 138.869Z" fill="#473E24"/>
<path d="M106.036 139.791C115.461 139.736 124.9 139.777 134.339 139.708C136.574 144.196 135.861 149.413 135.565 154.244C135.551 156.075 134.003 157.864 132.131 157.63C123.46 157.878 114.788 157.534 106.117 157.727C102.575 152.372 102.225 145.09 106.036 139.791ZM107.019 153.983C115.758 153.776 124.483 153.914 133.222 153.872C133.855 150.734 134.083 147.541 134.07 144.333C132.239 143.342 130.3 142.544 128.186 142.737C121.278 142.709 114.371 142.86 107.463 142.668C105.82 146.247 105.82 150.252 107.019 153.983Z" fill="#7E715B"/>
<path d="M239.231 143.039C239.998 142.626 241.56 141.8 242.328 141.387C245.761 141.993 249.208 142.475 252.669 142.915C252.736 157.011 252.709 171.092 252.629 185.188C248.481 185.38 244.307 185.312 240.173 185.752C235.461 188.326 237.359 195.745 236.497 200.384C231.462 200.26 226.264 200.123 221.619 202.435C221.78 201.967 222.09 201.031 222.238 200.563C223.059 199.421 223.921 198.306 224.783 197.191C227.166 197.328 229.55 197.48 231.946 197.631C232.471 197.659 233.535 197.728 234.06 197.755C234.168 192.084 235.084 186.234 239.366 182.201C242.53 182.035 245.694 181.857 248.858 181.664C248.818 172.221 249.518 162.764 248.912 153.335C248.845 150.5 246.866 148.394 245.384 146.205C242.745 149.991 240.887 154.285 239.85 158.8C239.123 158.69 237.696 158.484 236.969 158.373C236.363 158.016 235.164 157.314 234.559 156.969C231.085 156.942 227.516 156.956 224.433 155.084L225.322 154.85C229.94 154.464 234.545 154.96 239.15 155.318C239.177 151.216 239.19 147.127 239.231 143.039Z" fill="#D7BF92"/>
<path d="M107.02 153.983C105.822 150.253 105.822 146.247 107.465 142.668C114.372 142.861 121.28 142.71 128.187 142.737C130.301 142.544 132.24 143.343 134.071 144.334C134.085 147.541 133.856 150.734 133.223 153.873C124.484 153.914 115.759 153.777 107.02 153.983Z" fill="#040200"/>
<path d="M181.803 142.969C189.99 142.625 198.258 142.378 206.417 143.093C207.697 146.452 206.835 150.251 207.037 153.789C198.433 153.899 189.815 153.913 181.211 153.775C181.346 150.182 180.74 146.438 181.803 142.969Z" fill="#040400"/>
<path d="M77.7054 203.22C80.9908 203.426 84.6803 202.27 87.7233 203.812C89.4603 207.047 88.7467 211.451 87.1713 214.7C84.0339 214.562 80.8966 214.48 77.7592 214.425C77.7054 210.694 77.6785 206.95 77.7054 203.22Z" fill="#040400"/>
<path d="M239.851 158.8C240.888 154.285 242.746 149.991 245.385 146.205C246.866 148.394 248.846 150.5 248.913 153.336C249.519 162.765 248.819 172.221 248.859 181.664C245.695 181.857 242.531 182.036 239.366 182.201C237.562 174.479 237.67 166.426 239.851 158.8Z" fill="#F6CA80"/>
<path d="M30.7642 169.716C31.5586 170.308 33.1475 171.506 33.9419 172.098C37.7121 172.717 41.5362 172.951 45.3602 173.034C45.1986 175.814 44.9967 178.608 44.7678 181.389C44.1484 186.647 44.9159 191.933 44.4042 197.191C43.8791 203.881 43.9329 210.667 45.4545 217.233C49.7902 218.389 54.2337 217.88 58.5828 217.082C59.0137 221.913 58.7579 226.8 59.3773 231.617C62.6627 235.32 68.0891 232.361 72.1556 232.058C74.862 236.655 75.0371 242.051 75.1313 247.268C84.0451 246.195 93.0128 249.746 101.765 247.131C104.754 251.067 104.674 256.105 104.943 260.841C114.53 263.387 124.521 261.198 134.283 262.437C134.135 266.98 134.498 271.522 135.158 276.023C148.435 277.207 161.846 278.005 175.122 276.739C181.855 276.037 180.616 267.007 178.435 262.561C175.782 261.171 172.699 261.309 169.804 261.198C158.358 261.267 146.9 261.35 135.455 261.309C134.808 256.463 136.841 249.388 132.088 246.374C123.471 245.19 114.732 246.442 106.074 245.782C105.885 241.129 105.481 236.477 104.849 231.865C95.7328 230.034 86.4689 231.342 77.2723 231.012C76.1816 226.29 75.4141 221.211 77.9455 216.806C82.3351 217.247 86.7516 217.054 91.1277 216.641L92.5416 216.531C97.5506 216.682 102.546 217.302 107.555 217.178C111.204 217.04 114.853 216.738 118.475 216.187C118.098 221.789 118.219 227.46 119.781 232.884C125.14 233.434 130.796 235.072 135.818 232.182C143.574 231.549 151.357 232.375 159.113 232.03C164.902 231.755 170.719 232.072 176.375 233.49C177.075 227.612 177.358 221.693 177.317 215.774C177.694 215.774 178.475 215.76 178.852 215.76C178.691 220.605 178.273 225.492 178.785 230.351C182.892 234.701 189.611 233.173 194.687 231.673C194.902 226.745 194.983 221.817 195.199 216.889C198.74 217.206 202.281 216.779 205.809 216.352C210.374 216.669 214.952 217.054 219.53 217.054C219.53 216.641 219.516 215.815 219.503 215.402C219.705 211.273 220.472 207.185 221.455 203.179C221.738 207.405 222.034 211.644 221.994 215.884C227.03 219.491 233.547 217.66 239.283 218.128C238.718 222.34 238.219 226.552 237.721 230.778C228.969 232.732 219.974 231.026 211.195 232.237C207.169 235.678 208.825 241.432 209.566 245.947C218.534 245.672 227.569 246.965 236.469 245.782C239.431 242.024 238.556 236.642 239.337 232.141C243.794 232.113 248.237 231.562 252.613 230.613C252.748 225.96 253.017 221.307 253.475 216.669C257.865 216.696 262.322 217.013 266.631 215.967C269.458 207.13 266.267 197.673 267.802 188.629C269.337 183.633 269.606 178.402 269.768 173.213C273.457 173.102 277.147 173.158 280.85 173.075C280.311 173.653 279.22 174.823 278.682 175.401C280.028 178.76 281.119 182.284 280.957 185.959C280.876 197.439 280.984 208.905 280.998 220.385C280.769 222.89 281.348 225.891 279.463 227.887C275.76 229.924 271.343 229.911 267.56 231.755C266.213 235.733 267.115 240.592 264.611 244.047C260.814 244.997 256.464 244.102 253.044 246.263C250.823 250.31 250.917 255.224 249.961 259.684C241.182 260.744 231.824 258.101 223.448 261.377C220.876 265.177 221.617 270.393 220.526 274.784C212.595 275.142 204.597 274.179 196.707 275.225C190.85 276.698 192.236 284.461 191.092 289.086C177.317 290.518 163.448 289.389 149.647 289.733C140.531 289.486 131.334 290.573 122.326 288.742C121.841 284.214 122.649 278.391 118.637 275.335C110.437 274.014 102.021 275.542 93.74 274.716C92.3396 270.091 93.3225 263.47 88.9733 260.524C80.7866 258.927 72.3306 260.441 64.0362 259.712C63.0802 255.28 63.2283 250.365 60.9527 246.374C57.2094 245.148 53.2372 244.887 49.3728 244.35C48.6457 239.67 47.555 235.059 45.9123 230.64C42.0882 230.379 38.2776 229.993 34.4805 229.456C34.6151 219.105 33.5649 208.768 33.9958 198.416C33.6053 191.011 32.8243 183.578 34.09 176.213C32.959 174.052 31.801 171.919 30.7642 169.716ZM179.633 246.924C178.596 251.632 178.502 256.463 179.364 261.212C189.032 261.02 198.794 263.456 208.367 260.992C209.202 256.587 209.539 251.067 207.129 247.337C198.161 245.341 188.709 245.644 179.633 246.924Z" fill="#D9C477"/>
<path d="M44.4066 197.191C44.9182 191.933 44.1507 186.647 44.7701 181.389C45.5915 183.495 46.5071 185.559 47.3285 187.666C50.5062 196.379 47.2342 205.698 48.8231 214.659C51.7988 214.645 54.7746 214.631 57.7638 214.617C57.9793 211.204 58.1678 207.776 58.5583 204.362C59.0026 204.307 59.8778 204.17 60.3222 204.101C60.9685 208.065 61.6687 212.016 62.4901 215.953C65.8024 215.994 69.1014 216.076 72.4137 215.98C72.4541 215.498 72.5349 214.535 72.5888 214.053C72.7773 210.598 72.8312 207.143 72.9254 203.702L74.4604 203.647C74.7028 207.941 74.9452 212.25 75.1471 216.558C75.8473 216.613 77.2477 216.737 77.9479 216.806C75.4164 221.211 76.1839 226.29 77.2746 231.011C86.4712 231.342 95.7351 230.034 104.851 231.865C105.484 236.476 105.888 241.129 106.076 245.781C114.734 246.442 123.473 245.189 132.091 246.373C136.844 249.388 134.811 256.463 135.457 261.308C146.902 261.35 158.361 261.267 169.806 261.198C172.701 261.308 175.784 261.171 178.437 262.561C180.618 267.007 181.857 276.037 175.125 276.739C161.848 278.005 148.437 277.207 135.161 276.023C134.501 271.522 134.137 266.979 134.285 262.437C124.523 261.198 114.532 263.387 104.945 260.84C104.676 256.105 104.757 251.067 101.767 247.13C93.0152 249.746 84.0475 246.194 75.1337 247.268C75.0394 242.051 74.8644 236.655 72.1579 232.058C68.0915 232.36 62.6651 235.32 59.3796 231.617C58.7602 226.799 59.0161 221.913 58.5852 217.081C54.236 217.88 49.7926 218.389 45.4568 217.233C43.9353 210.667 43.8814 203.881 44.4066 197.191ZM82.1489 233.833C80.587 234.398 78.3653 234.329 77.4362 235.967C76.8841 238.5 78.1094 240.964 78.6076 243.4C86.6328 245.809 95.1696 245.327 103.383 244.405C103.774 240.661 102.777 237.027 101.727 233.489C95.2234 232.911 88.5987 232.581 82.1489 233.833ZM106.79 248.231C107.207 252.017 107.463 255.83 107.517 259.643C116.108 260.358 124.739 260.083 133.343 260.042C133.599 256.05 133.558 251.989 131.889 248.287C123.527 248.053 115.152 247.997 106.79 248.231ZM136.548 264.708C136.48 267.736 136.44 270.765 136.413 273.807C149.73 274.123 163.074 274.192 176.39 273.931C176.552 271.26 176.956 268.576 176.606 265.906C175.758 263.924 173.428 263.414 171.516 263.731C159.909 265.149 148.208 263.992 136.548 264.708Z" fill="#BFA95C"/>
<path d="M79.9669 193.956C79.6976 190.873 80.9094 187.266 83.6563 185.67C87.3726 184.472 90.308 187.418 92.5432 190.006C91.5333 192.029 91.0082 194.507 89.1231 195.938C86.053 196.393 81.852 197.246 79.9669 193.956Z" fill="#F2CA7F"/>
<path d="M223.598 188.809C224.527 184.762 231.017 184.184 232.525 188.051C234.168 191.149 232.848 194.549 231.946 197.632C229.549 197.481 227.166 197.329 224.783 197.191C224.136 194.466 222.494 191.644 223.598 188.809Z" fill="#F5C883"/>
<path d="M47.3281 187.665C51.3811 187.72 55.434 187.789 59.487 187.775C59.9583 192.153 60.1737 196.585 59.9448 201.004C64.092 201.485 68.1854 202.339 72.3461 202.821C69.1683 203.055 66.0175 203.509 62.8667 203.825C62.2339 203.894 60.9547 204.032 60.3218 204.101C59.8775 204.17 59.0023 204.307 58.5579 204.362C58.1674 207.776 57.9789 211.203 57.7635 214.617C54.7743 214.631 51.7985 214.645 48.8227 214.658C47.2339 205.697 50.5059 196.379 47.3281 187.665Z" fill="#B69F5F"/>
<path d="M62.9368 188.092C65.926 188.01 68.9287 187.831 71.9179 188.051C74.786 190.57 73.3452 195.03 73.2375 198.388C70.76 201.031 65.5759 201.114 63.0984 198.416C62.654 194.988 62.8695 191.52 62.9368 188.092Z" fill="#070100"/>
<path d="M239.446 187.968C243.863 187.652 248.306 187.665 252.736 187.913C252.655 191.919 252.992 195.952 252.319 199.916C248.171 201.21 243.741 200.412 239.486 200.357C239.419 196.227 239.419 192.098 239.446 187.968Z" fill="#0A0100"/>
<path d="M255.215 188.67C259.402 188.312 263.617 188.284 267.805 188.628C266.27 197.672 269.461 207.129 266.633 215.966C262.324 217.012 257.867 216.695 253.478 216.668C253.02 221.307 252.751 225.959 252.616 230.612C248.24 231.561 243.797 232.112 239.34 232.14C238.559 236.641 239.434 242.023 236.472 245.781C227.571 246.965 218.536 245.671 209.569 245.946C208.828 241.431 207.172 235.677 211.198 232.236C219.977 231.025 228.972 232.732 237.724 230.777C238.222 226.551 238.72 222.339 239.286 218.127C239.69 217.838 240.08 217.535 240.457 217.205C244.187 216.626 247.93 216.103 251.674 215.594C252.549 211.451 253.236 207.28 253.828 203.096C254.757 198.347 255.363 193.529 255.215 188.67Z" fill="#B9A05B"/>
<path d="M210.348 200.948C212.637 201.719 215.451 201.678 217.148 203.674C218.589 207.404 219.087 211.437 219.504 215.402C219.518 215.815 219.531 216.641 219.531 217.054C214.953 217.054 210.375 216.668 205.811 216.352C207.063 215.278 208.315 214.19 209.554 213.089C209.756 209.029 210.025 204.982 210.348 200.948Z" fill="#F4CA82"/>
<path d="M72.3456 202.821C72.965 202.903 74.2172 203.068 74.8501 203.151C74.8905 207.611 74.9982 212.084 75.1463 216.558C74.9443 212.25 74.7019 207.941 74.4596 203.646L72.9246 203.702C72.8303 207.143 72.7764 210.598 72.5879 214.053C72.0763 214.053 71.0799 214.08 70.5817 214.08C68.2387 210.488 65.7881 206.95 62.8662 203.825C66.017 203.509 69.1678 203.055 72.3456 202.821Z" fill="#DFCB8B"/>
<path d="M95.4519 204.775C97.3639 202.903 100.865 200.907 103.14 203.275C105.147 207.707 105.604 212.704 107.557 217.177C102.548 217.301 97.5524 216.682 92.5435 216.53C93.5533 212.621 94.0111 208.561 95.4519 204.775Z" fill="#F5C980"/>
<path d="M224.674 203.398C228.916 201.389 233.534 202.669 237.937 203.233C237.695 207.101 238.53 211.231 237.331 214.947C233.682 216.241 229.629 215.374 225.819 215.69C224.23 211.781 224.553 207.514 224.674 203.398Z" fill="#0B0300"/>
<path d="M60.3218 204.101C60.9546 204.032 62.2338 203.894 62.8667 203.825C65.7886 206.95 68.2392 210.488 70.5821 214.08C71.0803 214.08 72.0767 214.053 72.5884 214.053C72.5345 214.535 72.4537 215.498 72.4133 215.98C69.101 216.076 65.802 215.994 62.4896 215.952C61.6683 212.016 60.9681 208.065 60.3218 204.101Z" fill="#D6C074"/>
<path d="M240.202 202.931C244.753 202.89 249.291 202.931 253.828 203.097C253.236 207.281 252.549 211.452 251.674 215.595C247.931 216.104 244.187 216.628 240.457 217.206C240.363 212.443 240.134 207.694 240.202 202.931Z" fill="#D5C378"/>
<path d="M118.477 216.186C124.078 215.14 129.801 215.168 135.47 215.663C135.618 219.476 135.752 223.303 135.779 227.129C135.793 228.382 135.806 230.915 135.82 232.181C130.797 235.072 125.142 233.434 119.783 232.883C118.221 227.46 118.1 221.789 118.477 216.186ZM120.833 218.526C121.035 222.394 120.348 226.4 121.358 230.171C125.088 231.3 129.141 230.571 132.992 230.887C134.392 226.964 133.921 222.752 133.988 218.664C129.976 216.241 124.994 216.792 120.833 218.526Z" fill="#93855E"/>
<path d="M139.159 215.236C149.985 217.466 161.296 214.397 171.839 217.989C172.984 217.274 174.101 216.53 175.259 215.842C175.771 215.828 176.808 215.787 177.319 215.773C177.36 221.692 177.077 227.611 176.377 233.489C170.721 232.071 164.905 231.754 159.115 232.03C151.359 232.374 143.576 231.548 135.82 232.181C135.807 230.915 135.793 228.382 135.78 227.129C136.817 227.996 137.84 228.891 138.877 229.772C138.028 224.941 137.611 219.971 139.159 215.236Z" fill="#FBDCA9"/>
<path d="M178.853 215.76C184.333 215.705 189.948 214.797 195.199 216.889C194.984 221.817 194.903 226.745 194.687 231.673C189.611 233.173 182.892 234.701 178.785 230.351C178.274 225.492 178.691 220.605 178.853 215.76ZM181.384 218.155C181.573 222.133 180.724 226.345 181.963 230.186C185.248 230.805 188.601 230.516 191.927 230.489C192.318 226.29 192.277 222.065 191.806 217.88C188.332 217.963 184.858 217.99 181.384 218.155Z" fill="#776A48"/>
<path d="M120.833 218.526C124.994 216.792 129.976 216.241 133.989 218.664C133.921 222.752 134.392 226.964 132.992 230.887C129.141 230.571 125.088 231.3 121.358 230.172C120.348 226.4 121.035 222.394 120.833 218.526Z" fill="#251E1D"/>
<path d="M181.384 218.154C184.858 217.989 188.332 217.962 191.806 217.879C192.277 222.064 192.318 226.29 191.927 230.488C188.601 230.515 185.249 230.804 181.963 230.185C180.724 226.345 181.573 222.133 181.384 218.154Z" fill="#241E1B"/>
<path d="M82.1486 233.834C88.5984 232.581 95.2231 232.912 101.727 233.49C102.777 237.027 103.773 240.661 103.383 244.405C95.1693 245.328 86.6325 245.809 78.6073 243.401C78.1091 240.964 76.8838 238.5 77.4359 235.968C78.365 234.329 80.5867 234.398 82.1486 233.834Z" fill="#B99F59"/>
<path d="M179.634 246.924C188.71 245.643 198.162 245.341 207.13 247.336C209.54 251.067 209.204 256.587 208.369 260.991C198.795 263.455 189.033 261.019 179.365 261.212C178.503 256.463 178.598 251.631 179.634 246.924Z" fill="#BA9F59"/>
<path d="M106.79 248.232C115.152 247.998 123.527 248.053 131.889 248.287C133.558 251.99 133.599 256.05 133.343 260.042C124.739 260.083 116.108 260.359 107.517 259.643C107.463 255.83 107.207 252.017 106.79 248.232Z" fill="#B9A15A"/>
<path d="M136.547 264.707C148.208 263.991 159.909 265.148 171.516 263.73C173.428 263.413 175.757 263.922 176.606 265.905C176.956 268.575 176.552 271.259 176.39 273.93C163.073 274.191 149.729 274.122 136.413 273.806C136.44 270.764 136.48 267.735 136.547 264.707Z" fill="#B79E59"/>
<path d="M117.332 92.078L119.377 77.2534L122.444 43.5146L69.7909 72.1415L67.7461 128.373L100.462 121.727V95.6564L117.332 92.078Z" fill="#000100" stroke="#000100"/>
<path d="M237.01 76.4116H248.861V117.18L240.803 120.972L224.211 125.239L209.515 112.913L197.664 102.01L187.235 89.2109L159.266 72.1451L204.301 56.9756L237.01 76.4116Z" fill="#000100" stroke="#000100"/>
</svg>
