<svg width="236" height="257" viewBox="0 0 236 257" fill="none" xmlns="http://www.w3.org/2000/svg">
<path d="M63.6846 106.698C67.3212 105.457 71.1974 104.87 74.989 105.811C75.5951 110.257 75.2004 115.085 77.2019 119.218C81.1204 120.854 85.5463 120.65 89.7185 121.182C90.1977 124.509 90.5642 127.864 90.8179 131.219C85.9127 131.833 80.9935 132.365 76.0602 132.761C74.0305 143.03 76.2294 153.436 76.4126 163.761C82.2762 165.684 88.4781 165.684 94.3417 163.774C95.0746 154.473 94.2289 145.144 95.0746 135.843C99.7401 135.038 105.731 136.675 109.494 133.429C111.284 124.864 109.325 115.985 110.65 107.339C113.934 106.752 118.134 103.929 120.559 107.557C122.744 116.19 119.149 125.573 122.603 133.92C127.268 135.802 132.511 135.488 137.445 136.129C138.657 145.076 138.023 154.091 138.023 163.079C143.492 164.143 149.313 165.193 154.754 163.474C156.586 162.124 156.361 159.696 156.586 157.733C156.91 149.399 156.798 141.066 156.445 132.733C151.159 132.215 145.874 131.642 140.588 131.083C141.039 128.028 140.799 124.632 142.688 121.973C146.367 119.9 150.708 119.45 154.796 118.522C155.698 114.253 156.614 109.984 157.516 105.716C161.026 105.661 164.536 105.893 168.017 106.329C169.258 112.017 169.483 117.84 168.976 123.623C169.032 127.155 168.257 131.069 170.047 134.329C174.388 135.597 178.955 135.911 183.452 136.457C184.974 152.168 184.058 167.989 184.227 183.755C185.34 191.338 176.066 191.719 170.921 194.106C169.779 198.143 168.637 202.18 167.58 206.231C158.39 208.058 149.003 206.967 139.714 207.567C139.503 212.654 139.263 217.728 139.291 222.815C133.639 223.006 137.064 214.482 132.582 212.695C128.776 211.263 124.576 211.741 120.587 211.659C112.341 211.932 104.081 211.181 95.8781 212.218C95.1733 215.941 97.0762 221.506 92.763 223.551C83.9535 226.143 74.0305 222.951 65.6016 227.111C64.1216 231.448 64.5162 236.904 60.4286 239.999C57.4686 241.759 53.5361 240.995 50.5761 242.713C48.349 246.928 48.9551 253.106 44.1064 255.629C39.5818 256.761 33.4504 257.211 30.0676 253.474C28.2775 249.874 28.5312 245.687 28.052 241.8C23.9362 241.404 19.6653 241.472 15.7468 240.04C13.6889 237.163 14.4642 233.317 14.2105 230.002C14.5347 222.147 13.2379 214.1 15.6341 206.435C16.7476 211.618 17.1986 216.896 16.9308 222.174C16.7617 226.934 16.663 231.694 16.4516 236.44C20.807 237.872 25.4443 237.681 29.983 237.708C30.8569 241.991 31.4348 246.328 31.9563 250.665C36.1708 252.274 40.7094 252.588 45.1635 251.933C45.5441 247.473 46.1502 243.054 46.6153 238.608C51.1822 237.926 55.7913 237.49 60.4286 237.244C60.7105 232.594 61.2321 227.957 61.9227 223.347C71.6907 221.819 81.5855 223.006 91.424 222.665C93.059 218.123 93.1577 213.364 91.6213 208.781C87.1249 208.727 82.6145 208.727 78.1181 208.645L77.0469 208.617C73.0438 207.717 69.0549 206.749 65.0378 205.917C63.8115 201.648 62.5993 197.366 61.4294 193.083C57.5532 192.32 53.5784 191.801 49.8431 190.478C47.01 187.669 47.9826 183.182 47.6302 179.609C48.0249 165.302 47.461 150.982 47.9967 136.675C52.9159 135.938 57.8351 135.175 62.7262 134.343C63.5296 125.137 62.7543 115.89 63.6846 106.698Z" fill="#FCE0AB"/>
<path d="M230.726 131.11C231.882 131.915 233.023 132.747 234.151 133.606C235.913 135.72 235.011 138.829 235.335 141.366C234.954 153.654 235.729 165.956 234.842 178.231C230.19 180.686 224.82 180.631 219.703 181.013C219.619 186.441 219.76 191.856 219.83 197.27C220.027 205.726 217.251 214.113 218.942 222.556C219.309 227.615 221.578 233.807 217.561 238.022C214.812 241.527 209.907 241.595 205.989 243.068C204.551 246.832 205.213 251.033 203.874 254.81C199.223 257.961 192.936 257.006 187.651 256.242C180.913 255.424 182.45 247.173 178.982 243.109C175.487 241.786 171.526 241.636 168.298 239.74C165.437 236.63 165.437 231.912 162.646 228.802C156.317 225.761 148.889 225.911 141.996 226.483C141.7 225.924 141.094 224.806 140.798 224.247C145.619 224.247 150.383 223.483 155.105 222.624C159.954 222.242 164.831 222.406 169.679 222.447C170.441 227.111 171.145 231.775 171.751 236.453C176.065 237.367 180.913 236.835 184.86 238.758C186.988 242.181 186.157 246.709 186.777 250.596C191.062 252.56 195.77 252.997 200.097 250.855C200.181 246.955 200.308 243.054 200.463 239.154C205.594 238.444 210.725 237.694 215.898 237.326C215.94 232.634 216.024 227.916 215.63 223.238C215.559 218.382 215.63 213.527 215.827 208.672C216.856 200.802 215.898 192.878 216.278 185.009C216.771 183.318 216.377 180.686 218.378 179.881C221.874 178.885 225.581 179.008 229.189 178.694C233.404 176.321 232.135 170.048 232.544 165.915C232.206 154.295 233.531 142.539 230.726 131.11Z" fill="#FCE0AB"/>
<path d="M17.6779 150.013C20.5674 151.895 24.5987 153.177 25.4585 156.873C27.4177 163.501 27.0653 170.58 29.3206 177.167C25.4585 176.949 17.9316 179.499 17.2833 173.989C16.4234 166.024 16.945 157.964 17.6779 150.013Z" fill="#FCE0AB"/>
<path d="M205.214 176.622C209.161 168.275 205.735 157.582 213.149 150.763C214.503 159.437 214.432 168.248 213.756 176.963C210.894 176.813 208.061 176.69 205.214 176.622Z" fill="#FCE0AB"/>
<path d="M62.1616 1.21815C65.1216 0.413485 68.1662 -0.0502206 71.2389 0.00433308C103.996 0.181632 136.739 -0.104776 169.497 0.154354C169.341 4.24588 169.229 8.35104 169.088 12.4426C134.456 12.8926 99.8099 12.7017 65.1639 12.5517C64.1772 8.76019 63.1765 4.99599 62.1616 1.21815Z" fill="#040201"/>
<path d="M31.618 15.6884C36.4949 14.6791 41.4987 14.8564 46.4321 15.211C46.0092 19.6299 48.1235 25.2216 44.501 28.7267C40.0328 29.2449 35.5224 28.9176 31.0542 28.7949C31.4207 24.4306 31.4207 20.0527 31.618 15.6884Z" fill="#040201"/>
<path d="M186.312 15.3884C190.273 15.1975 194.248 14.8565 198.209 15.2929C201.944 18.6889 199.646 24.2534 199.914 28.604C195.784 28.604 191.288 29.5996 187.51 27.472C184.959 23.967 186.524 19.3708 186.312 15.3884Z" fill="#040201"/>
<path d="M15.731 30.2275C20.8335 29.982 25.936 30.0366 31.0384 30.2139C31.123 34.7691 30.9538 39.3516 30.0376 43.825C25.5131 43.8386 20.9885 43.9614 16.464 44.0705C15.5337 39.5016 15.6324 34.8509 15.731 30.2275Z" fill="#040201"/>
<path d="M201.267 31.4271C205.509 30.6634 209.794 30.1042 214.107 29.886C215.658 34.1412 216.067 38.6691 215.644 43.1562L215.573 44.3291C210.908 44.0699 206.228 43.7563 201.661 42.7334C201.591 38.9692 201.478 35.1913 201.267 31.4271Z" fill="#040201"/>
<path d="M0.170802 58.9363C5.20279 58.8272 10.263 59.1 15.2668 58.459L15.1681 59.1955C14.1814 59.8774 13.1948 60.532 12.2081 61.2003C15.4077 66.9966 14.4633 73.7204 14.5479 80.0349C14.266 82.599 15.1258 86.0495 11.9685 87.1951C8.03592 87.8907 4.01879 87.7407 0.0439453 87.8498C0.128516 78.2074 -0.0406257 68.565 0.170802 58.9363Z" fill="#040201"/>
<path d="M220.168 58.6904C223.875 58.8268 227.554 59.3314 231.191 60.0679C233.108 69.1238 233.263 78.6434 231.078 87.6584C230.979 88.2039 230.754 89.3087 230.655 89.8542C226.117 89.0223 221.564 88.2585 217.039 87.3993C217.518 77.8388 215.01 67.419 220.168 58.6904Z" fill="#040201"/>
<path d="M217.506 133.92C221.875 132.842 226.273 131.806 230.727 131.11C233.532 142.539 232.207 154.295 232.545 165.915C232.136 170.048 233.405 176.321 229.191 178.695C225.117 178.926 221.072 178.272 217.083 177.59C216.632 167.825 217.844 157.95 215.856 148.295C216.519 143.521 217.195 138.734 217.506 133.92Z" fill="#040201"/>
<path d="M1.39758 133.729C5.62614 134.057 10.7568 132.434 14.3652 135.052C16.0566 139.212 15.2813 143.822 15.4223 148.186C14.9994 158.197 15.9861 168.275 14.788 178.259C10.193 178.381 2.68024 180.7 0.56596 175.299C-0.350228 168.575 0.368626 161.77 0.171293 155.005C0.312245 147.9 -0.603941 140.671 1.39758 133.729Z" fill="#040201"/>
<path d="M77.8362 137.37C80.2606 132.051 87.3082 133.851 91.8328 135.092C91.8187 144.176 91.9737 153.272 91.72 162.356C87.5337 163.378 83.1924 164.265 79.0484 162.519C76.8496 154.322 77.7094 145.744 77.8362 137.37Z" fill="#040201"/>
<path d="M139.967 135.993C143.138 131.942 149.552 134.315 154.034 134.724C155.472 143.889 155.5 153.395 153.71 162.519C149.622 163.447 144.971 164.838 141.137 162.383C139.093 159.383 139.84 155.646 139.671 152.277C139.84 146.849 139.403 141.393 139.967 135.993Z" fill="#040201"/>
<path d="M201.691 203.517C201.663 195.156 200.098 185.937 204.961 178.477C208.485 178.872 212.037 178.968 215.589 179.118C215.913 188.555 215.659 197.979 215.828 207.417C211.163 208.631 202.198 210.35 201.691 203.517Z" fill="#040201"/>
<path d="M17.0012 180.154C21.2016 179.936 25.4019 179.963 29.6023 180.222C29.8137 187.3 30.0674 194.379 29.7996 201.457C30.3634 207.553 20.4968 210.199 17.1985 205.453C16.3951 197.052 16.8884 188.582 17.0012 180.154Z" fill="#040201"/>
<path d="M78.1181 208.645C82.6144 208.727 87.1249 208.727 91.6213 208.781C93.1576 213.364 93.059 218.124 91.4239 222.665C86.702 222.706 81.9802 222.338 77.3569 221.411C77.4415 217.142 77.5825 212.873 78.1181 208.645Z" fill="#040201"/>
<path d="M141.702 222.283C137.825 218.805 139.954 212.954 141.138 208.686C145.578 208.795 150.018 208.836 154.472 209.067C155.064 213.554 155.177 218.096 155.106 222.624C150.638 222.474 146.156 222.76 141.702 222.283Z" fill="#040201"/>
<path d="M16.9309 222.174C21.5682 222.501 26.2196 222.665 30.871 222.788C31.2093 227.766 31.3644 232.839 29.9831 237.708C25.4444 237.681 20.8071 237.872 16.4517 236.44C16.6631 231.693 16.7618 226.934 16.9309 222.174Z" fill="#040201"/>
<path d="M203.269 224.139C207.117 222.311 211.515 222.747 215.631 223.238C215.8 227.821 215.659 232.417 215.222 236.986C210.599 237.668 205.905 237.45 201.366 236.399C201.775 232.349 200.394 227.562 203.269 224.139Z" fill="#040201"/>
<path d="M169.496 0.154541C170.37 4.7916 170.736 9.49685 170.905 14.2021C164.45 17.2844 157.134 16.2615 150.185 16.3297C123.856 15.9205 97.5258 16.3706 71.1819 16.3161C67.8272 16.4115 64.6417 15.3205 61.5972 14.093C61.8791 9.81053 62.0764 5.51444 62.161 1.21834C63.1758 4.99618 64.1766 8.76038 65.1633 12.5519C99.8092 12.7019 134.455 12.8928 169.087 12.4427C169.228 8.35122 169.341 4.24606 169.496 0.154541Z" fill="#D75B03"/>
<path d="M183.31 15.5935C189.286 14.1614 195.474 13.3704 201.521 14.9525C201.535 19.4804 201.662 24.0084 201.887 28.5227C206.271 28.7682 210.654 28.9046 215.052 28.9182C216.123 33.5962 215.982 38.3969 215.644 43.1567C216.067 38.6697 215.658 34.1417 214.108 29.8865C209.794 30.1047 205.51 30.6639 201.267 31.4277C196.235 31.7141 191.062 31.4686 186.213 30.0365C182.605 26.1632 183.859 20.3669 183.31 15.5935ZM186.312 15.3889C186.523 19.3713 184.959 23.9675 187.51 27.4725C191.287 29.6001 195.784 28.6045 199.914 28.6045C199.646 24.2539 201.943 18.6894 198.208 15.2934C194.247 14.857 190.273 15.198 186.312 15.3889Z" fill="#D75B03"/>
<path d="M12.2084 61.2002C13.1951 60.5319 14.1817 59.8772 15.1684 59.1953C17.9874 63.3141 18.1425 68.333 18.3398 73.1065C26.9943 74.7431 35.832 73.7202 44.571 74.293C45.7973 78.4527 48.1934 84.3173 43.5843 87.3723C39.6659 88.627 35.4937 88.7497 31.4202 89.1589C30.9268 93.2095 30.4053 97.2601 29.8415 101.297C25.472 101.938 21.0179 102.375 16.8175 103.766C14.5623 108.703 15.3657 114.322 15.1966 119.573C15.0838 129.365 18.7204 138.857 17.7478 148.691L17.6773 150.013C16.9444 157.965 16.4229 166.025 17.2827 173.99C17.9311 179.5 25.4579 176.949 29.32 177.168L30.9973 177.045C31.4765 182.268 32.5619 187.424 33.4781 192.579C37.467 192.988 41.4559 193.425 45.4308 193.834C46.0369 198.389 46.502 202.958 46.7839 207.54C54.9169 208.413 63.078 209.341 71.2673 209.027C73.1983 208.959 75.1153 208.754 77.0463 208.618L78.1176 208.645C77.5819 212.873 77.441 217.142 77.3564 221.411C81.9796 222.338 86.7015 222.706 91.4234 222.665C81.585 223.006 71.6902 221.82 61.9222 223.347C61.2315 227.957 60.71 232.594 60.4281 237.245C55.7908 237.49 51.1816 237.927 46.6148 238.609C46.1497 243.055 45.5436 247.474 45.163 251.933C40.7089 252.588 36.1702 252.274 31.9558 250.665C31.4343 246.328 30.8564 241.991 29.9825 237.708C31.3638 232.84 31.2087 227.766 30.8705 222.788C26.219 222.665 21.5676 222.502 16.9303 222.174C17.1981 216.896 16.7471 211.618 15.6335 206.436C14.8301 197.98 16.0423 189.456 15.0979 181.014C14.6751 180.536 13.8435 179.595 13.4347 179.131C8.99471 178.695 4.52653 178.913 0.0865418 178.859C-0.0966958 148.527 0.0724456 118.181 0.0442552 87.8496C4.0191 87.7405 8.03623 87.8905 11.9688 87.195C15.1261 86.0493 14.2663 82.5988 14.5482 80.0348C14.4636 73.7202 15.408 66.9965 12.2084 61.2002ZM1.3974 133.729C-0.604122 140.671 0.312064 147.9 0.171112 155.005C0.368445 161.77 -0.350409 168.575 0.565779 175.299C2.68006 180.7 10.1928 178.381 14.7878 178.259C15.9859 168.275 14.9993 158.197 15.4221 148.186C15.2812 143.822 16.0564 139.212 14.365 135.052C10.7566 132.434 5.62596 134.057 1.3974 133.729ZM17.0008 180.154C16.888 188.583 16.3947 197.052 17.1981 205.454C20.4964 210.2 30.363 207.554 29.7992 201.458C30.067 194.379 29.8133 187.301 29.6019 180.223C25.4015 179.963 21.2011 179.936 17.0008 180.154Z" fill="#D75B03"/>
<path d="M49.6034 60.3413C52.6903 58.2682 56.6228 59.4411 60.0762 59.482C60.5554 63.6145 60.6682 67.7878 60.3581 71.9475C56.355 73.3523 50.5337 75.1798 47.3482 71.4429C46.1078 67.8015 45.9951 62.8098 49.6034 60.3413Z" fill="#D75B03"/>
<path d="M172.188 60.3823C175.627 57.9819 180.081 59.4003 183.957 59.5094C186.1 63.9419 186.029 68.7972 183.986 73.2433C179.813 73.3524 175.176 74.007 171.554 71.4703C170.553 67.9243 169.919 63.6009 172.188 60.3823Z" fill="#D75B03"/>
<path d="M215.405 59.8906C215.87 59.686 216.815 59.2632 217.28 59.0587C217.999 58.9632 219.436 58.7859 220.169 58.6904C215.01 67.419 217.519 77.8388 217.04 87.3993C221.565 88.2585 226.117 89.0223 230.656 89.8542C229.853 95.1732 230.233 100.56 230.459 105.907C230.896 114.308 229.895 122.723 230.726 131.11C226.272 131.806 221.875 132.842 217.505 133.92C217.195 138.734 216.519 143.521 215.856 148.295L215.631 146.958C213.685 139.362 216.688 131.86 217.054 124.291C217.449 117.636 217.703 110.844 215.645 104.406C211.43 103.452 207.23 102.374 203.072 101.201C202.381 97.3962 201.902 93.5229 200.563 89.8815C196.616 88.3267 192.12 88.5176 188.272 86.7174C185.354 83.676 185.58 78.6843 187.468 75.1793C195.841 72.6971 204.819 74.5792 213.432 74.1018C214.122 69.3693 214.785 64.6231 215.405 59.8906Z" fill="#D75B03"/>
<path d="M110.382 89.1858C114.301 87.9038 119.304 87.7402 122.8 90.1542C125.661 93.7138 123.73 98.5691 123.392 102.62C118.402 102.292 113.413 102.047 108.423 101.842C108.916 97.7235 106.774 92.2681 110.382 89.1858Z" fill="#D75B03"/>
<path d="M156.022 88.5592C159.997 88.5456 164.028 88.1092 167.975 88.832C172.034 91.5597 170.414 97.1378 170.625 101.216C165.494 102.798 160.096 102.743 154.937 101.352C154.401 97.056 154.387 92.6644 156.022 88.5592Z" fill="#D75B03"/>
<path d="M63.5705 90.3589C66.9815 88.2995 71.3651 88.6132 75.0722 89.7043C78.3282 93.2912 76.7213 98.1601 76.087 102.333C71.3229 102.279 66.5587 102.17 61.8086 101.911C62.4711 98.0783 61.8086 93.9458 63.5705 90.3589Z" fill="#D75B03"/>
<path d="M125.322 102.743C129.805 103.588 135.584 102.443 139.009 105.825C140.869 112.112 139.389 118.809 139.164 125.232C138.375 127.469 138.403 130.742 135.584 131.547C132.525 132.502 129.227 132.052 126.084 132.161C124.251 122.45 125.041 112.549 125.322 102.743Z" fill="#D75B03"/>
<path d="M78.4697 107.094C81.5566 104.898 85.32 102.743 89.2103 104.503C92.6918 107.98 92.4663 113.286 90.648 117.486C86.9973 117.323 83.3748 117.145 79.7383 116.954C79.4 113.654 79.104 110.353 78.4697 107.094Z" fill="#D75B03"/>
<path d="M46.0508 123.801C46.3045 117.2 55.2409 118.836 59.9205 117.909C60.2588 122 60.7944 126.147 60.1601 130.224C56.7773 133.075 51.8581 131.997 47.7564 132.447C47.0093 129.611 45.7407 126.774 46.0508 123.801Z" fill="#D75B03"/>
<path d="M172.908 119.668C176.587 117.09 181.337 119 185.368 119.6C185.41 123.691 185.41 127.769 185.368 131.847C180.745 132.079 176.122 132.12 171.498 132.188L170.625 132.079C171.146 127.987 170.413 123.227 172.908 119.668Z" fill="#D75B03"/>
<path d="M95.2017 119.982C98.7255 119.723 102.235 119.409 105.745 119.068C106.182 122.696 107.873 126.487 106.534 130.101C103.941 133.661 99.0215 131.874 95.3145 131.943C95.0608 130.129 94.8212 128.301 94.5815 126.487C94.7084 124.305 94.9621 122.137 95.2017 119.982Z" fill="#D75B03"/>
<path d="M198.856 192.593C198.786 187.629 199.322 182.651 201.027 177.959C202.014 178.082 203.973 178.341 204.96 178.477C200.097 185.937 201.661 195.157 201.69 203.517C202.197 210.35 211.162 208.632 215.827 207.418V208.673C215.63 213.528 215.559 218.383 215.63 223.238C211.514 222.748 207.116 222.311 203.268 224.139C200.393 227.562 201.774 232.349 201.365 236.4C205.904 237.45 210.598 237.668 215.221 236.986C215.658 232.417 215.799 227.821 215.63 223.238C216.024 227.916 215.94 232.635 215.898 237.327C210.725 237.695 205.594 238.445 200.463 239.155C200.308 243.055 200.181 246.956 200.097 250.856C195.77 252.998 191.062 252.561 186.777 250.597C186.157 246.71 186.988 242.182 184.86 238.759C180.913 236.836 176.065 237.368 171.751 236.454C171.145 231.776 170.441 227.112 169.679 222.447C164.831 222.407 159.954 222.243 155.105 222.625C155.175 218.097 155.063 213.555 154.471 209.068C156.726 209.177 158.981 209.314 161.236 209.259C168.82 209.082 176.361 208.4 183.901 207.745C184.747 203.135 185.537 198.526 186.171 193.889C190.399 193.411 194.614 192.975 198.856 192.593Z" fill="#D75B03"/>
<path d="M46.4306 15.2114C51.519 15.6478 56.6215 15.1841 61.5971 14.093C64.6416 15.3205 67.8271 16.4115 71.1818 16.3161C97.5257 16.3706 123.856 15.9206 150.185 16.3297C157.134 16.2615 164.45 17.2844 170.905 14.2021C174.979 15.0477 179.123 15.7842 183.309 15.5932C183.859 20.3667 182.604 26.163 186.213 30.0363C191.061 31.4683 196.234 31.7138 201.266 31.4274C201.478 35.1916 201.591 38.9695 201.661 42.7337C206.228 43.7566 210.907 44.0702 215.573 44.3294C215.291 49.2801 214.882 54.49 217.279 59.0589C216.813 59.2634 215.869 59.6862 215.404 59.8908C214.784 64.6233 214.121 69.3695 213.431 74.102C204.818 74.5794 195.84 72.6973 187.467 75.1794C185.578 78.6845 185.353 83.6762 188.271 86.7175C192.119 88.5178 196.615 88.3269 200.562 89.8817C201.901 93.5231 202.38 97.3964 203.071 101.202C207.229 102.374 211.429 103.452 215.643 104.407C217.701 110.844 217.448 117.636 217.053 124.291C216.687 131.861 213.684 139.362 215.629 146.958C209.752 144.885 200.703 148.172 200.646 154.951C200.195 162.602 199.349 170.376 201.027 177.958C199.321 182.65 198.786 187.628 198.856 192.593C194.613 192.974 190.399 193.411 186.17 193.888C185.536 198.525 184.747 203.135 183.901 207.745C176.36 208.399 168.819 209.081 161.236 209.259C164.168 208.89 167.339 208.59 169.735 206.763C171.836 203.653 172.118 199.78 173.048 196.261C177.178 195.102 181.308 193.984 185.466 192.947C188.412 184.205 187.213 174.944 187.326 165.916C187.157 157.733 187.749 149.522 187.284 141.339C186.988 138.83 186.889 135.448 184.056 134.316C179.997 133.047 175.669 132.924 171.497 132.188C176.121 132.12 180.744 132.079 185.367 131.847C185.409 127.769 185.409 123.691 185.367 119.6C181.336 119 176.586 117.09 172.907 119.668C170.412 123.228 171.145 127.987 170.623 132.079C169.961 124.237 172.075 116.504 171.779 108.675C171.37 102.838 163.548 101.829 158.854 102.893C152.878 104.188 155.048 111.335 152.567 115.263C148.917 117.145 144.773 117.813 140.812 118.863C140.262 120.977 139.713 123.105 139.163 125.232C139.388 118.809 140.868 112.112 139.008 105.825C135.583 102.443 129.804 103.588 125.321 102.743C124.842 102.715 123.87 102.647 123.39 102.62C123.729 98.5693 125.66 93.714 122.798 90.1544C119.303 87.7404 114.299 87.9041 110.381 89.1861C106.772 92.2684 108.915 97.7237 108.421 101.843C104.926 106.93 104.785 113.217 105.743 119.068C102.234 119.409 98.7238 119.722 95.2 119.982C94.9604 122.136 94.7067 124.305 94.5798 126.487C94.0442 123.214 92.4656 120.254 90.6473 117.486C92.4656 113.285 92.6911 107.98 89.2096 104.502C85.3193 102.743 81.5559 104.898 78.469 107.093C77.7361 105.47 76.9044 103.916 76.0869 102.334C76.7212 98.1602 78.3281 93.2913 75.0721 89.7044C71.365 88.6133 66.9814 88.2996 63.5704 90.359C61.8085 93.9459 62.471 98.0783 61.8085 101.911C59.8352 107.039 59.0176 112.48 59.9197 117.909C55.2401 118.836 46.3038 117.199 46.0501 123.8C45.74 126.774 47.0085 129.61 47.7556 132.447C42.4981 138.325 44.7815 146.563 44.5419 153.641C45.2466 166.502 43.3579 179.554 45.4722 192.306C48.9396 195.402 54.0843 195.838 58.4256 197.311C59.3559 200.694 60.2439 204.076 61.1037 207.486C64.4443 208.236 67.813 208.986 71.2664 209.027C63.0771 209.34 54.9159 208.413 46.783 207.54C46.5011 202.958 46.036 198.389 45.4299 193.834C41.455 193.424 37.4661 192.988 33.4771 192.579C32.561 187.424 31.4756 182.268 30.9964 177.045C30.2916 168.575 32.2227 159.847 29.897 151.541C27.6276 147.34 21.7781 148.704 17.7469 148.69C18.7195 138.857 15.0829 129.365 15.1957 119.572C15.3648 114.322 14.5614 108.703 16.8166 103.766C21.017 102.374 25.4711 101.938 29.8406 101.297C30.4044 97.26 30.9259 93.2094 31.4192 89.1588C35.4928 88.7497 39.6649 88.6269 43.5834 87.3722C48.1925 84.3172 45.7963 78.4527 44.5701 74.293C35.831 73.7201 26.9934 74.743 18.3389 73.1064C18.1416 68.333 17.9865 63.314 15.1675 59.1952L15.2661 58.4588C15.6749 53.6717 15.5762 48.8573 15.3225 44.0566L16.4642 44.0702C20.9888 43.9611 25.5134 43.8384 30.0379 43.8247C30.9541 39.3513 31.1232 34.7688 31.0387 30.2136C25.9362 30.0363 20.8338 29.9818 15.7313 30.2273C20.6928 29.8045 25.6261 29.218 30.5876 28.8907C30.6722 24.3218 30.1789 19.6438 31.2642 15.1568L31.6166 15.6887C31.4192 20.053 31.4192 24.4309 31.0528 28.7952C35.5209 28.918 40.0314 29.2453 44.4996 28.727C48.1221 25.222 46.0078 19.6302 46.4306 15.2114ZM50.6169 28.6725C43.6539 29.8045 46.0219 37.8511 43.5975 42.2972C40.2146 43.5111 36.0002 41.7653 33.0684 44.3021C28.8398 47.4117 30.6158 53.4262 32.6596 57.2859C41.9061 59.8226 51.7586 57.8859 61.2447 58.6224C62.1468 62.6867 62.6401 66.8464 63.7395 70.8833C65.3041 73.3246 68.5883 73.1337 71.1677 73.311C101.289 72.97 131.411 73.5019 161.532 73.3928C164.083 73.161 167.367 73.2837 168.904 70.8833C169.989 66.9555 170.229 62.864 170.722 58.8406C178.418 58.0223 186.086 59.2498 193.782 59.0998C201.351 59.5907 205.946 48.6391 200.223 43.8247C197.024 39.8696 191.541 44.8885 187.735 42.3382C185.593 37.7693 187.044 31.7957 182.463 28.2906C174.02 30.35 165.154 28.8089 156.74 30.4591C154.654 34.0733 154.837 38.4239 153.413 42.27C149.283 45.2568 143.73 44.2612 138.909 44.4521C120.289 43.8247 101.613 44.9431 83.0218 43.9202C75.6218 43.8111 77.3414 34.9325 76.1433 30.0909C67.658 29.2317 59.1163 29.0816 50.6169 28.6725ZM49.602 60.3409C45.9937 62.8094 46.1064 67.8011 47.3468 71.4425C50.5323 75.1795 56.3537 73.3519 60.3567 71.9471C60.6668 67.7874 60.554 63.6141 60.0748 59.4816C56.6215 59.4407 52.6889 58.2678 49.602 60.3409ZM172.188 60.3818C169.919 63.6004 170.553 67.9238 171.554 71.4698C175.176 74.0065 179.813 73.3519 183.986 73.2428C186.029 68.7967 186.1 63.9414 183.957 59.5089C180.081 59.3998 175.627 57.9814 172.188 60.3818ZM156.021 88.5587C154.386 92.6639 154.4 97.0555 154.935 101.352C160.094 102.743 165.493 102.797 170.623 101.215C170.412 97.1373 172.033 91.5592 167.974 88.8315C164.027 88.1087 159.996 88.5451 156.021 88.5587Z" fill="#FA9707"/>
<path d="M50.617 28.6719C59.1164 29.0811 67.6581 29.2311 76.1434 30.0903C77.3415 34.9319 75.6219 43.8105 83.0218 43.9197C101.613 44.9425 120.29 43.8242 138.909 44.4516C143.73 44.2606 149.283 45.2562 153.413 42.2694C154.837 38.4234 154.654 34.0727 156.74 30.4585C165.155 28.8083 174.02 30.3494 182.463 28.29C187.044 31.7951 185.593 37.7687 187.735 42.3376C191.541 44.888 197.024 39.869 200.223 43.8242C205.946 48.6385 201.351 59.5902 193.782 59.0992C186.086 59.2492 178.418 58.0218 170.722 58.8401C170.229 62.8634 169.989 66.9549 168.904 70.8828C167.368 73.2831 164.083 73.1604 161.532 73.3923C131.411 73.5014 101.289 72.9695 71.1678 73.3104C68.5884 73.1331 65.3042 73.3241 63.7396 70.8828C62.6402 66.8458 62.1469 62.6861 61.2448 58.6219C51.7587 57.8854 41.9061 59.822 32.6597 57.2853C30.6159 53.4256 28.8399 47.4111 33.0685 44.3015C36.0003 41.7648 40.2147 43.5105 43.5976 42.2967C46.0219 37.8506 43.654 29.8039 50.617 28.6719Z" fill="#FDB548"/>
<path d="M230.656 89.8545C230.755 89.3089 230.98 88.2042 231.079 87.6587C231.91 88.2179 233.574 89.3498 234.405 89.909C233.771 104.461 234.293 119.041 234.152 133.606C233.024 132.747 231.882 131.915 230.726 131.111C229.895 122.723 230.896 114.308 230.459 105.907C230.233 100.561 229.853 95.1735 230.656 89.8545Z" fill="#FDB548"/>
<path d="M61.8093 101.911C66.5594 102.17 71.3236 102.279 76.0877 102.334C76.9053 103.916 77.7369 105.471 78.4698 107.094C79.1041 110.353 79.4001 113.654 79.7384 116.954C83.3749 117.145 86.9974 117.322 90.6481 117.486C92.4663 120.255 94.045 123.214 94.5806 126.487C94.8202 128.301 95.0599 130.129 95.3136 131.943C99.0206 131.875 103.94 133.661 106.533 130.102C107.872 126.487 106.181 122.696 105.744 119.068C104.786 113.217 104.927 106.93 108.422 101.843C113.412 102.047 118.402 102.293 123.391 102.62C123.87 102.647 124.843 102.716 125.322 102.743C125.04 112.549 124.251 122.45 126.083 132.161C129.227 132.052 132.525 132.502 135.584 131.547C138.403 130.743 138.374 127.469 139.164 125.233C139.713 123.105 140.263 120.977 140.813 118.864C144.774 117.813 148.918 117.145 152.568 115.263C155.049 111.335 152.878 104.189 158.855 102.893C163.548 101.829 171.371 102.838 171.78 108.676C172.076 116.504 169.962 124.237 170.624 132.079L171.498 132.188C175.67 132.925 179.998 133.047 184.057 134.316C186.89 135.448 186.989 138.83 187.285 141.34C187.75 149.523 187.158 157.733 187.327 165.916C187.214 174.945 188.412 184.205 185.466 192.947C181.308 193.984 177.178 195.102 173.049 196.261C172.118 199.78 171.836 203.653 169.736 206.763C167.34 208.591 164.169 208.891 161.237 209.259C158.982 209.313 156.726 209.177 154.471 209.068C150.017 208.836 145.577 208.795 141.137 208.686C139.953 212.955 137.825 218.806 141.701 222.284C146.155 222.761 150.637 222.475 155.105 222.625C150.384 223.484 145.619 224.248 140.799 224.248C140.418 223.879 139.671 223.17 139.291 222.815C139.262 217.728 139.502 212.655 139.713 207.568C149.002 206.968 158.39 208.059 167.58 206.231C168.637 202.181 169.778 198.144 170.92 194.107C176.065 191.72 185.34 191.338 184.226 183.755C184.057 167.989 184.973 152.169 183.451 136.457C178.954 135.912 174.388 135.598 170.046 134.329C168.256 131.07 169.031 127.156 168.975 123.623C169.482 117.841 169.257 112.017 168.017 106.33C164.535 105.893 161.025 105.662 157.516 105.716C156.614 109.985 155.697 114.254 154.795 118.523C150.708 119.45 146.366 119.9 142.688 121.973C140.799 124.633 141.038 128.029 140.587 131.084C145.873 131.643 151.159 132.216 156.444 132.734C156.797 141.067 156.91 149.4 156.585 157.733C156.36 159.697 156.585 162.125 154.753 163.475C149.312 165.193 143.491 164.143 138.022 163.079C138.022 154.092 138.656 145.077 137.444 136.13C132.511 135.489 127.267 135.802 122.602 133.92C119.149 125.574 122.743 116.19 120.558 107.557C118.134 103.929 113.933 106.753 110.649 107.339C109.324 115.986 111.283 124.864 109.493 133.429C105.73 136.675 99.7395 135.039 95.074 135.843C94.2282 145.145 95.074 154.473 94.341 163.775C88.4774 165.684 82.2755 165.684 76.4119 163.761C76.2287 153.437 74.0298 143.031 76.0595 132.761C80.9929 132.366 85.9121 131.834 90.8172 131.22C90.5635 127.865 90.197 124.51 89.7178 121.182C85.5456 120.65 81.1197 120.855 77.2013 119.218C75.1997 115.086 75.5944 110.258 74.9883 105.812C71.1967 104.871 67.3205 105.457 63.684 106.698C62.7537 115.89 63.5289 125.137 62.7255 134.343C57.8345 135.175 52.9152 135.939 47.996 136.675C47.4604 150.982 48.0242 165.302 47.6295 179.609C47.9819 183.182 47.0093 187.669 49.8425 190.479C53.5777 191.802 57.5526 192.32 61.4287 193.084C62.5986 197.366 63.8108 201.649 65.0371 205.917C69.0542 206.749 73.0432 207.718 77.0462 208.618C75.1152 208.754 73.1982 208.959 71.2672 209.027C67.8139 208.986 64.4451 208.236 61.1045 207.486C60.2447 204.076 59.3567 200.694 58.4265 197.312C54.0851 195.839 48.9404 195.402 45.473 192.306C43.3587 179.554 45.2474 166.502 44.5427 153.641C44.7823 146.563 42.4989 138.326 47.7564 132.447C51.8581 131.997 56.7773 133.075 60.1602 130.224C60.7944 126.146 60.2588 122 59.9205 117.909C59.0185 112.481 59.836 107.039 61.8093 101.911ZM77.8355 137.371C77.7087 145.745 76.8489 154.323 79.0477 162.52C83.1917 164.266 87.533 163.379 91.7193 162.356C91.973 153.273 91.818 144.176 91.8321 135.093C87.3075 133.852 80.2599 132.052 77.8355 137.371ZM139.967 135.993C139.403 141.394 139.84 146.85 139.671 152.278C139.84 155.646 139.093 159.383 141.137 162.384C144.971 164.839 149.622 163.447 153.71 162.52C155.5 153.396 155.472 143.89 154.034 134.725C149.552 134.316 143.139 131.943 139.967 135.993Z" fill="#FDB548"/>
<path d="M200.647 154.95C200.703 148.172 209.752 144.885 215.63 146.958L215.855 148.295C217.843 157.951 216.631 167.825 217.082 177.59C221.071 178.272 225.116 178.927 229.19 178.695C225.581 179.008 221.874 178.886 218.379 179.881C216.377 180.686 216.772 183.318 216.278 185.009C215.898 192.879 216.856 200.803 215.827 208.672V207.417C215.658 197.979 215.912 188.555 215.588 179.117C212.036 178.967 208.484 178.872 204.96 178.476C203.973 178.34 202.014 178.081 201.027 177.958C199.35 170.375 200.196 162.601 200.647 154.95ZM205.214 176.622C208.061 176.69 210.894 176.813 213.755 176.963C214.432 168.248 214.502 159.437 213.149 150.763C205.735 157.582 209.16 168.275 205.214 176.622Z" fill="#FDB548"/>
<path d="M17.7467 148.69C21.778 148.703 27.6275 147.34 29.8968 151.54C32.2225 159.846 30.2915 168.575 30.9962 177.044L29.3189 177.167C27.0637 170.579 27.416 163.501 25.4568 156.873C24.597 153.177 20.5658 151.895 17.6763 150.013L17.7467 148.69Z" fill="#FDB548"/>
</svg>
