<svg width="276" height="254" viewBox="0 0 276 254" fill="none" xmlns="http://www.w3.org/2000/svg">
<path d="M103.922 19.9248C111.419 18.2101 119.087 18.9612 126.689 18.8762C138.519 18.8195 150.349 18.9754 162.165 18.777C165.894 18.7061 169.61 19.1313 173.286 19.769C173.234 24.1336 173.208 28.5124 173.181 32.8912C177.422 34.7193 181.952 35.527 186.508 35.527C186.928 40.1042 185.129 46.6795 189.896 49.1736C194.045 50.4915 198.482 49.9814 202.723 49.4429L202.303 49.7405C201.752 50.1372 200.662 50.9308 200.124 51.3276C199.756 55.9048 199.756 60.4962 199.651 65.0734C191.786 63.6421 183.777 63.4437 175.86 64.5066C175.715 69.2255 175.466 73.9444 175.125 78.6633C160.301 79.882 145.425 79.0034 130.575 79.2585C121.489 79.216 112.39 79.6411 103.318 78.7767C102.884 73.8452 102.517 68.9137 102.228 63.9822C93.2472 63.7272 84.2664 63.9822 75.2856 63.5571C75.0493 58.9799 75.3644 54.3885 75.9027 49.8396C80.3274 49.8396 84.7391 49.7688 89.1638 49.6271C89.8728 44.8515 90.3192 40.0334 90.4768 35.2011C94.744 34.7334 99.0768 34.6626 103.291 33.7698C104.263 29.2351 103.935 24.5304 103.922 19.9248Z" fill="#FFFFFB"/>
<path d="M101.4 14.3977C101.571 9.56537 99.7328 3.61358 103.724 0C125.795 0.297589 147.893 0.0425126 169.964 0.113367C172.787 -0.340102 174.993 1.61549 177.159 3.20263C177.08 7.35471 177.172 11.5068 177.343 15.6589C181.61 16.2115 187.046 14.0434 190.407 17.6003C190.972 22.1066 190.775 26.6697 190.88 31.2044C200.149 31.6437 209.445 31.1193 218.728 31.6862L217.848 34.0952C208.697 34.3928 199.545 34.0385 190.407 34.1377C190.407 38.3607 190.42 42.5694 190.407 46.7924C195.186 47.3167 199.952 47.9827 204.732 48.5071L202.723 49.4423C198.482 49.9808 194.044 50.491 189.895 49.1731C185.129 46.679 186.928 40.1037 186.508 35.5265C181.952 35.5265 177.422 34.7188 173.181 32.8907C173.207 28.5119 173.233 24.1331 173.286 19.7684C169.61 19.1307 165.894 18.7056 162.165 18.7765C150.348 18.9749 138.518 18.819 126.688 18.8757C119.086 18.9607 111.418 18.2096 103.921 19.9243C103.934 24.5299 104.263 29.2346 103.291 33.7693C99.0763 34.6621 94.7434 34.7329 90.4763 35.2006C90.3187 40.0328 89.8723 44.851 89.1633 49.6266C84.7385 49.7683 80.3269 49.8391 75.9022 49.8391C75.3638 54.388 75.0487 58.9794 75.2851 63.5566C75.5608 68.8282 75.7577 74.0997 75.8628 79.3855C79.3028 79.3997 82.7691 79.3005 86.1959 79.839C88.5068 83.6935 88.4674 88.7525 87.3645 93.0463C83.3599 94.5625 78.9614 93.7123 74.7993 93.854C74.8124 89.5177 74.8255 85.1814 74.8255 80.8593C70.0332 80.7742 65.2276 80.7601 60.4353 80.8451C60.304 85.0822 59.8576 89.376 60.5272 93.5847C64.3611 96.3622 69.4423 94.5625 73.8014 94.9026C74.1165 99.2531 74.3266 103.632 74.7205 107.982C74.97 108.011 75.4689 108.053 75.7184 108.067C79.9199 108.266 84.1346 108.152 88.3492 108.067C88.1917 104.284 88.126 100.5 87.5877 96.7449C83.7013 95.8096 79.6967 96.3906 75.7709 96.5606C79.6836 95.9938 83.6094 95.5687 87.5483 95.3278C88.2311 99.5507 88.8875 103.759 89.5834 107.982C89.4784 104.199 89.3602 100.429 89.2552 96.6598C93.3385 96.5181 97.4219 96.4189 101.505 96.3481C101.715 100.628 101.899 104.921 102.188 109.201C92.2356 108.124 82.3358 112.375 72.5016 109.399C71.6087 105.559 71.1754 101.605 70.8472 97.6801C67.2628 97.751 63.6652 97.836 60.0808 97.9636C57.074 92.3235 57.6649 85.6915 57.678 79.4563C49.4194 79.3146 41.3052 81.2419 33.0596 81.3552C32.8102 86.1167 33.401 91.0765 32.0487 95.6679C28.3067 99.7349 22.2144 97.666 17.6453 96.5323C17.6321 100.883 17.3958 105.219 17.1726 109.57C17.1989 99.905 13.7063 90.6797 14.481 80.9585C11.0541 80.5475 7.65349 80.0515 4.23975 79.5981L4.77807 77.7842C7.90296 77.6991 11.041 77.7842 14.1659 77.77C14.2447 72.7818 14.3628 67.8079 14.6911 62.8339C19.3653 62.5363 24.0395 62.4371 28.7268 62.4087C28.8056 58.0724 28.845 53.722 28.8844 49.3715C29.8822 48.5496 30.867 47.7418 31.8648 46.9199C40.0447 46.8349 48.2377 46.7499 56.4176 46.9482C58.085 43.0654 57.8881 38.7433 57.8356 34.577C58.8466 33.5426 59.8576 32.5223 60.8686 31.502C69.3635 31.1335 77.8848 31.8421 86.3535 31.091C87.1807 26.0178 86.2484 20.6612 88.231 15.8006C92.6558 15.8289 97.1199 15.7722 101.4 14.3977ZM103.567 3.92535C103.632 7.90737 103.685 11.9036 103.711 15.8998C126.925 15.9139 150.151 15.9706 173.378 15.8714C173.404 11.8894 173.457 7.90737 173.535 3.92535C168.52 2.69248 163.36 3.14594 158.265 3.1176C145.122 3.1176 131.993 3.1176 118.863 3.1176C113.755 3.14594 108.595 2.70665 103.567 3.92535ZM89.3865 18.6773C89.334 22.9711 89.3208 27.2649 89.3077 31.5586C93.2991 31.6295 97.2775 31.6578 101.269 31.6295C102.044 27.279 102.464 22.801 101.505 18.4364C97.4613 18.5072 93.4305 18.5639 89.3865 18.6773ZM176.109 29.4897C176.542 30.2691 177.409 31.8279 177.842 32.6073C178.827 32.5223 180.796 32.338 181.794 32.2388C183.803 31.8846 185.825 31.587 187.86 31.2894C187.821 27.0806 187.807 22.886 187.755 18.6773C184.262 18.5497 180.77 18.323 177.277 18.6064C174.835 21.4123 176.581 25.9753 176.109 29.4897ZM60.4221 48.0252C59.595 48.3937 57.9275 49.1306 57.0872 49.499C48.9598 49.6124 40.8456 49.5274 32.7183 49.584C32.6395 53.9912 32.6132 58.3842 32.6001 62.7913C36.0007 62.7913 39.4145 62.8339 42.8151 62.7913C45.1653 64.2651 47.6862 65.3279 50.2859 66.1782C52.3342 65.6539 54.4087 65.1579 56.4701 64.6619C59.5031 68.5447 59.1486 73.6321 59.0566 78.3794C63.3763 79.0312 67.788 79.2863 72.042 78.0392C72.344 77.5858 72.948 76.6647 73.25 76.2112C74.2741 68.5447 72.3046 60.9775 72.3834 53.311C72.8692 51.653 73.3287 49.995 73.7751 48.3228C78.2918 46.6932 83.0842 47.09 87.7584 46.8632C87.312 42.7678 89.0582 37.7797 86.7211 34.2653C78.3706 33.8827 70.0069 34.3786 61.6432 34.0527C60.1464 38.5307 60.5797 43.363 60.4221 48.0252ZM18.4593 65.4271C15.6758 68.7573 17.6321 74.0005 17.0544 78.1101C20.9277 78.1668 24.8141 78.5211 28.6612 77.9967C31.7467 74.6807 29.5277 69.2533 28.8712 65.2146C25.405 65.2429 21.9125 65.002 18.4593 65.4271ZM32.8102 66.6458C32.8364 70.5145 32.8496 74.3832 32.8496 78.2518C36.8279 78.2802 40.7931 78.2518 44.7583 78.2093C45.4804 75.0208 45.94 71.7615 46.242 68.5022C42.198 65.6822 37.3794 64.6336 32.8102 66.6458ZM18.3543 93.7265C22.0175 93.4289 26.3372 94.9452 29.6065 92.9471C31.1821 89.1493 29.9348 84.6571 28.845 80.8309C25.8908 80.8876 22.9103 80.8167 19.9561 81.1285C16.6999 84.1044 18.9451 89.6736 18.3543 93.7265Z" fill="#989594"/>
<path d="M103.568 3.92503C108.597 2.70633 113.757 3.14563 118.864 3.11729C131.994 3.11729 145.124 3.11729 158.267 3.11729C163.361 3.14563 168.521 2.69216 173.537 3.92503C173.458 7.90706 173.405 11.8891 173.379 15.8711C150.152 15.9703 126.926 15.9136 103.712 15.8995C103.686 11.9033 103.634 7.90706 103.568 3.92503Z" fill="#010100"/>
<path d="M264.026 84.1468C265.641 80.434 270.394 82.7722 273.348 82.0495C273.808 95.8236 273.414 109.612 273.545 123.4C264.985 123.698 256.424 123.414 247.863 123.542C248.178 119.999 246.905 115.833 248.677 112.701C252.209 111.171 256.266 112.177 260.021 112.021C260.862 110.009 262.122 108.096 262.201 105.828C262.529 98.5586 264.157 91.4448 264.026 84.1468Z" fill="#010100"/>
<path d="M89.3879 18.6769C93.4318 18.5636 97.4627 18.5069 101.507 18.436C102.465 22.8007 102.045 27.2787 101.27 31.6292C97.2789 31.6575 93.3005 31.6292 89.3091 31.5583C89.3222 27.2645 89.3353 22.9707 89.3879 18.6769Z" fill="#070703"/>
<path d="M176.111 29.4897C176.584 25.9753 174.838 21.4123 177.28 18.6064C180.772 18.323 184.265 18.5498 187.757 18.6773C187.81 22.8861 187.823 27.0807 187.862 31.2894C185.827 31.587 183.805 31.8846 181.796 32.2389C180.798 32.3381 178.829 32.5223 177.844 32.6073C177.411 31.8279 176.544 30.2691 176.111 29.4897Z" fill="#060606"/>
<path d="M217.849 34.0957C218.059 38.4745 218.02 42.8675 217.98 47.2605L219.818 46.5803L218.86 48.4083C227.775 48.2525 236.69 48.4509 245.592 48.3091L245.632 49.0744C245.789 53.4107 246.38 57.7186 246.787 62.0408C246.065 62.4659 244.634 63.302 243.925 63.7271C235.285 63.6846 226.633 63.6421 217.993 63.8405C217.875 68.6586 217.639 73.4909 216.956 78.2665C212.899 78.2806 208.855 78.2948 204.798 78.2806C204.562 68.361 204.864 58.4414 204.732 48.5075C199.953 47.9832 195.187 47.3172 190.408 46.7929C190.421 42.5699 190.408 38.3612 190.408 34.1382C199.546 34.039 208.698 34.3933 217.849 34.0957Z" fill="#020302"/>
<path d="M60.4241 48.0253C60.5816 43.363 60.1484 38.5307 61.6452 34.0527C70.0088 34.3787 78.3725 33.8827 86.7231 34.2653C89.0602 37.7797 87.3139 42.7679 87.7603 46.8632C83.0861 47.09 78.2937 46.6932 73.7771 48.3229C73.3307 49.995 72.8711 51.653 72.3853 53.311C72.3065 60.9775 74.276 68.5448 73.2519 76.2112C72.9499 76.6647 72.3459 77.5858 72.044 78.0393C68.604 77.6708 65.1639 77.189 61.7239 76.7639C61.4482 72.0875 60.9493 67.4252 60.214 62.8055C54.4238 62.6638 48.6204 62.6071 42.817 62.7914C39.4164 62.8339 36.0027 62.7914 32.6021 62.7914C32.6152 58.3842 32.6414 53.9912 32.7202 49.5841C40.8476 49.5274 48.9618 49.6124 57.0891 49.499C57.9294 49.1306 59.5969 48.3937 60.4241 48.0253Z" fill="#010201"/>
<path d="M202.724 49.4421L204.733 48.5068C204.864 58.4407 204.562 68.3603 204.799 78.2799L204.812 78.946C209.683 78.8609 214.528 79.3428 219.333 80.2214C219.609 85.7764 219.543 91.4022 218.112 96.7872C213.622 96.773 209.145 96.8155 204.667 96.8864C204.654 96.4045 204.641 95.4409 204.628 94.9591C209.158 94.9875 213.674 94.6048 218.125 93.7121C217.955 89.3333 217.6 84.9544 216.944 80.6323C212.795 81.0291 208.121 79.8387 204.313 81.766C202.645 85.4221 203.42 89.8576 203.066 93.8538C198.785 93.8538 194.505 93.8538 190.238 93.868C190.238 89.0498 190.264 84.2317 190.33 79.4136C193.875 79.4278 197.433 79.442 200.978 79.4703C202.632 69.664 202.343 59.6735 202.304 49.7397L202.724 49.4421Z" fill="#9D9D9A"/>
<path d="M245.632 49.0736L247.733 46.7212C248.389 51.7802 248.56 56.8817 248.573 61.9833C253.418 62.0966 258.381 61.7991 263.042 63.5562C263.121 68.0201 263.147 72.4981 263.055 76.9761C267.007 77.3162 272.482 75.063 275.069 79.3852C270.421 79.3568 265.786 79.3143 261.138 79.3001C261.388 84.5009 261.585 89.7016 261.388 94.9165C260.968 89.9 260.771 84.8835 260.364 79.8811C260.351 80.4763 260.311 81.6808 260.285 82.2902C256.201 82.2477 252.118 82.2335 248.048 82.2619C247.982 85.7337 247.93 89.2056 247.864 92.6775C251.908 93.3577 255.978 93.6553 260.062 93.7261C260.022 94.4205 259.957 95.7809 259.917 96.4753C255.755 96.5461 251.554 96.8579 247.431 96.121C244.713 91.5863 245.908 85.8471 245.645 80.7456C236.874 80.5047 228.064 81.3124 219.333 80.2212C214.528 79.3426 209.683 78.8608 204.811 78.9459L204.798 78.2798C208.855 78.294 212.899 78.2798 216.957 78.2657C217.639 73.4901 217.876 68.6578 217.994 63.8397C226.633 63.6413 235.286 63.6838 243.925 63.7263C244.634 63.3012 246.065 62.4651 246.787 62.04C246.38 57.7178 245.79 53.4099 245.632 49.0736ZM246.945 65.2284C247.05 69.5505 247.05 73.8727 246.919 78.1806C251.343 78.294 255.768 78.3223 260.206 78.3365C260.219 74.0002 260.193 69.6639 260.114 65.3418C257.935 64.8458 255.768 64.3215 253.602 63.8255L253.405 65.2851C251.252 65.2568 249.098 65.2426 246.945 65.2284ZM220.068 67.1273C219.504 70.67 219.648 74.2836 219.727 77.8689C227.894 78.1523 236.06 77.9114 244.227 78.1381C245.422 74.3687 245.212 70.4575 244.214 66.6738C236.165 66.9998 228.077 66.2062 220.068 67.1273Z" fill="#B5B6B2"/>
<path d="M200.124 51.3271C200.662 50.9303 201.752 50.1368 202.303 49.74C202.343 59.6738 202.632 69.6643 200.977 79.4706C197.432 79.4422 193.874 79.4281 190.329 79.4139C190.263 84.232 190.237 89.0501 190.237 93.8682C194.504 93.8541 198.785 93.8541 203.065 93.8541C203.42 89.8579 202.645 85.4224 204.312 81.7663C208.12 79.839 212.794 81.0294 216.943 80.6326C217.6 84.9547 217.954 89.3335 218.125 93.7124C213.674 94.6051 209.157 94.9877 204.627 94.9594C204.641 95.4412 204.654 96.4048 204.667 96.8866C204.733 100.642 204.785 104.411 204.601 108.167C199.599 109.499 194.412 109.655 189.331 108.861C189.069 104.666 188.754 100.486 188.268 96.3198C184.171 96.3765 180.075 96.4332 175.978 96.4899C175.991 100.118 176.018 103.76 176.044 107.387C175.085 108.493 174.127 109.598 173.168 110.703L172.985 107.94C172.906 103.618 172.446 99.324 172 95.0444C149.614 95.1861 127.227 95.0586 104.854 95.0586C104.171 104.298 105.471 113.467 106.469 122.621C109.45 122.579 112.443 122.536 115.437 122.493C115.594 118.752 115.699 114.983 116.225 111.27L118.194 111.001C118.299 115.706 117.971 120.425 116.96 125.016C112.509 125.158 108.045 125.129 103.594 125.073C103.042 119.787 102.57 114.501 102.189 109.201C101.9 104.922 101.716 100.628 101.506 96.3482C97.4227 96.419 93.3393 96.5182 89.2559 96.6599C89.361 100.429 89.4792 104.199 89.5842 107.982C88.8883 103.76 88.2318 99.5508 87.5491 95.3278C83.6101 95.5688 79.6843 95.9939 75.7716 96.5607C75.7585 100.401 75.7322 104.227 75.7191 108.068C75.4697 108.053 74.9707 108.011 74.7213 107.982C74.3274 103.632 74.1173 99.2532 73.8022 94.9027C69.4431 94.5626 64.3618 96.3623 60.5279 93.5848C59.8583 89.3761 60.3047 85.0823 60.436 80.8452C65.2284 80.7601 70.0339 80.7743 74.8263 80.8593C74.8263 85.1815 74.8132 89.5178 74.8 93.8541C78.9622 93.7124 83.3607 94.5626 87.3653 93.0463C88.4682 88.7525 88.5075 83.6935 86.1967 79.839C82.7698 79.3005 79.3036 79.3997 75.8635 79.3856C75.7585 74.0998 75.5616 68.8282 75.2858 63.5566C84.2666 63.9818 93.2474 63.7267 102.228 63.9818C102.517 68.9132 102.885 73.8447 103.318 78.7762C112.391 79.6406 121.49 79.2155 130.575 79.258C145.425 79.0029 160.301 79.8815 175.125 78.6628C175.466 73.9439 175.716 69.225 175.86 64.5061C183.777 63.4433 191.787 63.6417 199.651 65.0729C199.756 60.4957 199.756 55.9043 200.124 51.3271ZM90.2538 92.5929C94.1665 92.8054 98.0923 92.8904 102.005 92.8479C102.294 89.036 102.74 85.1815 102.307 81.3695C99.5234 78.1243 94.7967 79.5698 91.1729 79.7398C89.1509 83.3251 90.5952 88.4124 90.2538 92.5929ZM176.805 80.3917C174.928 83.9769 174.429 93.9391 180.547 92.8338C182.241 92.9046 183.935 92.8054 185.629 92.5078C187.257 89.7728 186.469 86.0884 186.403 82.985C186.167 78.0677 179.536 78.6487 176.805 80.3917ZM62.2086 83.1975C61.9722 86.2443 61.749 89.291 61.5258 92.3378C64.8477 92.7912 68.1957 92.8763 71.5438 92.7062C71.4913 89.8154 72.8831 86.3435 71.2419 83.7927C68.2614 83.2826 65.2284 83.3251 62.2086 83.1975ZM205.717 92.7771C208.882 92.692 212.059 92.5645 215.223 92.4086C215.236 89.4469 215.249 86.4994 215.289 83.5376C212.532 83.1692 209.709 82.3331 206.951 83.0983C203.774 84.9264 206.111 89.6595 205.717 92.7771ZM191.432 98.9981C190.815 101.705 191.051 104.525 190.972 107.288C194.491 107.373 198.01 107.331 201.529 107.146C200.78 104.071 202.133 98.9131 198.483 97.7652C196.224 96.7024 192.916 96.4899 191.432 98.9981Z" fill="#DADBD6"/>
<path d="M42.8154 62.7919C48.6188 62.6076 54.4222 62.6643 60.2124 62.806C60.9477 67.4257 61.4466 72.088 61.7223 76.7644C65.1623 77.1895 68.6023 77.6713 72.0424 78.0398C67.7883 79.2868 63.3767 79.0317 59.057 78.3799C59.1489 73.6326 59.5034 68.5452 56.4704 64.6624C54.409 65.1584 52.3345 65.6544 50.2863 66.1787C47.6866 65.3284 45.1657 64.2656 42.8154 62.7919Z" fill="#4A4F49"/>
<path d="M18.4596 65.4271C21.9128 65.002 25.4053 65.2429 28.8715 65.2146C29.528 69.2533 31.747 74.6807 28.6615 77.9967C24.8144 78.5211 20.928 78.1668 17.0547 78.1101C17.6324 74.0005 15.6761 68.7573 18.4596 65.4271Z" fill="#0C0E0B"/>
<path d="M246.945 65.2284C249.098 65.2425 251.251 65.2567 253.405 65.285L253.602 63.8254C255.768 64.3214 257.934 64.8457 260.114 65.3417C260.193 69.6639 260.219 74.0002 260.206 78.3365C255.768 78.3223 251.343 78.294 246.918 78.1806C247.05 73.8726 247.05 69.5505 246.945 65.2284Z" fill="#070803"/>
<path d="M32.8125 66.6458C37.3817 64.6335 42.2003 65.6822 46.2443 68.5022C45.9423 71.7615 45.4827 75.0208 44.7606 78.2093C40.7954 78.2518 36.8302 78.2801 32.8519 78.2518C32.8519 74.3831 32.8388 70.5145 32.8125 66.6458Z" fill="#F6F5F4"/>
<path d="M220.069 67.128C228.078 66.2069 236.166 67.0005 244.215 66.6745C245.212 70.4582 245.423 74.3693 244.228 78.1388C236.061 77.9121 227.894 78.153 219.728 77.8696C219.649 74.2843 219.504 70.6707 220.069 67.128Z" fill="#FBFBF7"/>
<path d="M0.183817 81.7518C-0.223206 78.9176 3.07237 78.62 4.77924 77.7839L4.24092 79.5978C3.42688 82.5595 2.731 85.5921 2.71787 88.6956C2.54718 100.316 3.04611 111.95 2.48153 123.556L3.05924 123.939C6.39421 127.184 11.0028 126.461 15.1124 126.504C20.6269 126.404 26.1545 126.603 31.6691 126.489C33.2184 133.632 32.5881 140.986 32.3781 148.242C32.6669 156.022 32.5619 163.801 32.8245 171.567C36.6059 171.567 40.4004 171.525 44.1818 171.78C44.6019 172.474 45.4422 173.863 45.8624 174.557C44.5888 174.557 43.3283 174.543 42.0679 174.543C37.6562 174.515 33.0871 174.798 28.9775 172.772C28.6623 158.232 28.7936 143.693 28.8462 129.154C19.3402 128.077 9.61101 130.145 0.288855 127.34C-0.131298 112.148 -0.0262595 96.943 0.183817 81.7518Z" fill="#9A9A96"/>
<path d="M275.069 79.3861C275.24 79.3861 275.594 79.3861 275.765 79.3861C275.805 95.4275 276.185 111.483 275.529 127.511C266.338 127.737 257.16 127.567 247.969 127.666C248.324 136.892 245.829 146.145 247.799 155.314C248.206 161.28 247.681 167.246 246.67 173.113C242.376 173.368 237.899 172.702 233.763 174.19C233.907 173.509 234.209 172.163 234.354 171.483C238.372 171.412 242.389 171.724 246.394 172.078C247.772 165.63 248.035 158.97 246.88 152.451C245.357 144.204 248.416 135.999 247.352 127.709C246.88 127.681 245.947 127.638 245.488 127.624C236.376 127.624 227.277 127.751 218.178 127.539C217.049 122.537 216.931 117.364 216.248 112.291C212.112 111.752 207.95 112.008 203.801 112.149C204.05 110.973 204.3 109.797 204.536 108.621C209.237 108.436 214.554 106.835 218.782 109.854C219.767 114.303 219.53 118.923 219.701 123.458C228.196 123.784 236.717 123.812 245.225 123.443C245.37 118.739 245.54 114.034 245.724 109.329C250.031 108.479 254.39 107.983 258.775 107.813C259.195 104.043 259.629 100.26 259.918 96.4762C259.957 95.7818 260.023 94.4214 260.062 93.727C260.193 89.915 260.193 86.1031 260.285 82.2911C260.311 81.6817 260.351 80.4772 260.364 79.882C260.771 84.8844 260.968 89.9009 261.388 94.9174C261.585 89.7025 261.388 84.5018 261.139 79.301C265.787 79.3152 270.421 79.3577 275.069 79.3861ZM264.027 84.1475C264.158 91.4455 262.53 98.5593 262.202 105.829C262.123 108.096 260.863 110.009 260.023 112.022C256.267 112.178 252.21 111.171 248.678 112.702C246.906 115.834 248.179 120 247.864 123.543C256.425 123.415 264.986 123.699 273.546 123.401C273.415 109.613 273.809 95.8243 273.349 82.0502C270.395 82.7729 265.642 80.4347 264.027 84.1475Z" fill="#4D424A"/>
<path d="M2.71778 88.6964C2.73091 85.5929 3.42679 82.5604 4.24084 79.5986C7.65458 80.0521 11.0552 80.5481 14.4821 80.959C13.7074 90.6803 17.1999 99.9056 17.1737 109.57C21.5065 110.463 25.905 110.76 30.3035 110.69C31.4326 115.338 30.9468 120.099 30.0803 124.733C21.0732 124.393 12.0137 125.314 3.05916 123.939L2.48145 123.557C3.04603 111.951 2.54709 100.317 2.71778 88.6964Z" fill="#030302"/>
<path d="M33.0616 81.3551C41.3071 81.2417 49.4214 79.3145 57.68 79.4562C57.6669 85.6914 57.076 92.3234 60.0828 97.9634C63.6672 97.8359 67.2647 97.7508 70.8492 97.68C71.1774 101.605 71.6107 105.559 72.5035 109.399C68.4464 108.62 64.3105 108.762 60.2272 109.286C60.7392 114.997 60.2797 120.736 59.1505 126.334C49.9859 126.319 40.8345 126.234 31.6699 126.489C26.1554 126.603 20.6277 126.404 15.1132 126.504C11.0036 126.461 6.39503 127.184 3.06006 123.939C12.0146 125.313 21.0741 124.392 30.0812 124.732C30.9477 120.098 31.4335 115.337 30.3044 110.689C25.9059 110.76 21.5074 110.462 17.1746 109.569C17.3978 105.219 17.6341 100.883 17.6473 96.5321C22.2164 97.6658 28.3087 99.7348 32.0506 95.6677C33.403 91.0763 32.8122 86.1165 33.0616 81.3551Z" fill="#7C537A"/>
<path d="M90.254 92.5925C90.5954 88.4121 89.1511 83.3248 91.1731 79.7395C94.7969 79.5695 99.5237 78.124 102.307 81.3692C102.74 85.1812 102.294 89.0356 102.005 92.8476C98.0925 92.8901 94.1667 92.8051 90.254 92.5925Z" fill="#FBFCF7"/>
<path d="M176.805 80.3918C179.536 78.6488 186.166 78.0678 186.403 82.9851C186.468 86.0886 187.256 89.773 185.628 92.508C183.934 92.8056 182.241 92.9048 180.547 92.8339C174.428 93.9392 174.927 83.9771 176.805 80.3918Z" fill="#FCFCF7"/>
<path d="M219.333 80.2219C228.064 81.3131 236.874 80.5053 245.645 80.7463C245.908 85.8478 244.713 91.587 247.431 96.1217C251.553 96.8586 255.755 96.5468 259.917 96.476C259.628 100.26 259.195 104.043 258.775 107.813C254.389 107.983 250.03 108.479 245.724 109.329C245.54 114.034 245.369 118.738 245.225 123.443C236.717 123.812 228.196 123.783 219.701 123.457C219.53 118.923 219.766 114.303 218.781 109.853C214.554 106.835 209.236 108.436 204.536 108.62L204.601 108.167C204.785 104.412 204.733 100.642 204.667 96.8869C209.144 96.8161 213.621 96.7736 218.112 96.7877C219.543 91.4028 219.609 85.7769 219.333 80.2219Z" fill="#7E527B"/>
<path d="M18.3548 93.7261C18.9456 89.6732 16.7004 84.104 19.9566 81.1282C22.9108 80.8164 25.8913 80.8873 28.8455 80.8306C29.9352 84.6567 31.1826 89.1489 29.607 92.9467C26.3377 94.9448 22.018 93.4285 18.3548 93.7261Z" fill="#F7FCF3"/>
<path d="M62.2096 83.1978C65.2295 83.3253 68.2624 83.2828 71.2429 83.7929C72.8841 86.3437 71.4924 89.8156 71.5449 92.7065C68.1968 92.8765 64.8487 92.7915 61.5269 92.338C61.7501 89.2913 61.9733 86.2445 62.2096 83.1978Z" fill="#FCFAF8"/>
<path d="M205.718 92.7774C206.112 89.6598 203.775 84.9267 206.952 83.0987C209.709 82.3334 212.532 83.1695 215.289 83.538C215.25 86.4997 215.237 89.4472 215.224 92.4089C212.06 92.5648 208.882 92.6924 205.718 92.7774Z" fill="#FCFCFA"/>
<path d="M248.05 82.2618C252.12 82.2335 256.203 82.2476 260.287 82.2902C260.195 86.1021 260.195 89.9141 260.063 93.7261C255.98 93.6552 251.91 93.3576 247.866 92.6774C247.931 89.2056 247.984 85.7337 248.05 82.2618Z" fill="#FAFCF3"/>
<path d="M104.855 95.0591C127.228 95.0591 149.614 95.1866 172 95.0449C172.447 99.3245 172.906 103.618 172.985 107.94C171.804 112.688 171.226 117.591 171.134 122.522C168.692 122.537 166.25 122.537 163.808 122.551C163.164 118.2 163.309 113.481 161.26 109.542C155.404 105.9 148.419 108.635 142.353 110.25C137.955 111.724 133.583 109.613 129.316 108.649C125.153 107.487 120.807 107.997 116.632 108.734C116.527 109.372 116.33 110.633 116.225 111.271C115.7 114.983 115.595 118.753 115.437 122.494C112.444 122.537 109.45 122.579 106.47 122.622C105.472 113.467 104.172 104.299 104.855 95.0591Z" fill="#FDFDF9"/>
<path d="M175.98 96.4894C180.076 96.4327 184.173 96.376 188.269 96.3193C188.755 100.486 189.07 104.666 189.333 108.861C185.499 108.421 181.639 107.755 177.792 108.251C173.682 112.403 175.546 119.432 174.772 124.874C173.892 124.973 172.133 125.143 171.253 125.242L172.211 124.619C173.511 120.126 173.538 115.365 173.17 110.703C174.128 109.597 175.087 108.492 176.045 107.387C176.019 103.759 175.993 100.117 175.98 96.4894Z" fill="#9D9D99"/>
<path d="M75.7727 96.5609C79.6985 96.3909 83.7031 95.8099 87.5895 96.7451C88.1279 100.5 88.1935 104.284 88.3511 108.068C84.1364 108.153 79.9217 108.266 75.7202 108.068C75.7333 104.227 75.7596 100.401 75.7727 96.5609Z" fill="#FCF9F7"/>
<path d="M191.433 98.9973C192.917 96.4891 196.226 96.7016 198.484 97.7644C202.134 98.9123 200.782 104.07 201.53 107.146C198.011 107.33 194.492 107.372 190.974 107.287C191.052 104.524 190.816 101.704 191.433 98.9973Z" fill="#FAFAF5"/>
<path d="M189.333 108.861C194.414 109.655 199.6 109.499 204.603 108.167L204.537 108.62C204.301 109.796 204.051 110.973 203.802 112.149C194.979 112.871 186.208 111.539 177.45 110.604C177.306 116.358 176.899 122.111 175.888 127.765C166.697 128.36 157.506 127.538 148.302 127.68C148.263 131.435 148.25 135.205 148.289 138.96C147.107 139.527 145.926 140.065 144.744 140.604L144.6 139.655C144.481 134 144.468 128.063 148 123.457C151.65 123.783 155.3 124.095 158.924 124.619C163.007 125.214 167.13 125.724 171.253 125.243C172.133 125.143 173.892 124.973 174.772 124.874C175.546 119.433 173.682 112.404 177.792 108.252C181.639 107.756 185.499 108.422 189.333 108.861Z" fill="#6C6C6B"/>
<path d="M245.488 127.624C245.947 127.638 246.879 127.68 247.352 127.709C248.415 135.999 245.356 144.204 246.879 152.451C248.035 158.97 247.772 165.63 246.394 172.078C242.389 171.723 238.371 171.412 234.353 171.483C234.209 172.163 233.907 173.509 233.763 174.189C233.356 192.484 233.789 210.793 233.579 229.087C233.539 231.284 232.857 233.367 232.345 235.464C223.233 235.393 214.12 235.408 205.022 235.549C204.838 240.141 204.733 244.746 205.179 249.323C197.59 251.732 189.633 250.769 181.834 250.896C174.469 250.882 166.998 251.662 159.789 249.593C159.776 244.548 159.737 239.489 160.131 234.458L161.352 234.246L163.085 234.288L162.757 236.612C162.192 240.523 162.166 244.477 162.297 248.416C175.65 248.374 189.003 248.572 202.356 248.246C202.277 243.924 202.186 239.602 202.002 235.294C203.827 234.104 205.665 232.559 207.949 232.786C215.722 232.658 223.508 232.885 231.294 232.758C231.373 215.937 231.347 199.102 231.268 182.281C231.215 178.299 231.767 174.359 232.581 170.476C236.861 170.406 241.128 170.292 245.409 170.15C245.593 155.965 245.474 141.794 245.488 127.624Z" fill="#6C6C6B"/>
<path d="M72.5039 109.399C82.3381 112.375 92.238 108.124 102.19 109.201C102.571 114.501 103.044 119.786 103.595 125.072C108.046 125.129 112.51 125.157 116.961 125.016C121.727 124.817 126.52 124.775 131.286 125.044C131.352 130.599 131.444 136.154 131.128 141.709C122.607 142.12 114.086 141.907 105.578 141.992C104.908 142.375 103.595 143.126 102.939 143.509L101.56 144.288C101.888 142.587 102.243 140.901 102.611 139.215C111.67 138.903 120.73 139.201 129.789 138.946C129.737 135.204 129.684 131.463 129.605 127.736C120.795 127.198 111.854 130.4 103.175 128.161C99.3674 124.534 101.796 117.689 101.284 112.743C96.6496 111.992 91.936 111.964 87.3143 112.843C79.8303 114.246 72.3726 111.879 64.8755 111.907C62.8666 112.219 61.3698 110.944 60.2275 109.286C64.3109 108.761 68.4468 108.62 72.5039 109.399Z" fill="#585344"/>
<path d="M116.632 108.733C120.807 107.996 125.153 107.486 129.316 108.648C133.583 109.611 137.955 111.723 142.353 110.249C148.419 108.634 155.404 105.899 161.26 109.541C163.309 113.48 163.164 118.199 163.807 122.55C166.25 122.535 168.692 122.535 171.134 122.521C171.226 117.59 171.804 112.687 172.985 107.939L173.169 110.703C173.537 115.365 173.51 120.126 172.211 124.618C168.692 124.179 165.107 124.08 161.694 123.06C159.606 119.63 160.774 114.926 159.816 111.014C155.509 108.152 150.31 110.122 145.662 110.632C144.835 114.996 144.362 119.432 144.27 123.882C140.62 123.712 136.957 123.797 133.333 124.222C132.821 124.264 131.797 124.363 131.285 124.406C131.39 119.772 131.206 115.152 130.681 110.561C126.519 110.646 122.344 110.632 118.195 111L116.225 111.269C116.33 110.632 116.527 109.371 116.632 108.733Z" fill="#E5E6E1"/>
<path d="M59.1491 126.334C60.2783 120.736 60.7378 114.997 60.2258 109.286C61.3681 110.944 62.8649 112.219 64.8737 111.908C72.3708 111.879 79.8285 114.246 87.3125 112.843C91.9342 111.964 96.6478 111.993 101.283 112.744C101.795 117.689 99.3657 124.534 103.173 128.162C111.852 130.401 120.794 127.198 129.604 127.736C129.682 131.463 129.735 135.205 129.787 138.946C120.728 139.201 111.668 138.903 102.609 139.215C102.241 140.901 101.887 142.588 101.558 144.288C101.361 147.335 101.388 150.382 101.361 153.428C93.2078 154.123 85.0411 154.137 76.8743 154.434C73.5788 154.279 70.7559 157.538 70.9528 161.066C70.5983 178.029 70.9791 195.006 70.7821 211.968C70.9659 215.143 70.3226 219.465 73.5394 221.165C77.2945 223.05 81.6011 222.795 85.6319 223.404C86.1046 227.401 86.551 231.397 86.9055 235.407C89.0851 236.583 91.2777 238.1 93.838 237.915C100.797 237.802 107.756 237.844 114.714 238.057C114.885 241.26 115.056 244.462 115.226 247.665C104.604 247.948 93.9956 247.764 83.3736 247.693C80.4063 247.622 77.4783 248.218 74.6554 249.167C74.7342 245.185 74.7342 241.189 74.7342 237.207C74.3272 236.427 73.5 234.854 73.0798 234.061C64.0728 233.862 55.0658 234.047 46.0587 233.848C45.7173 214.094 46.1769 194.326 45.8618 174.557C45.4416 173.863 44.6013 172.474 44.1812 171.78C40.3998 171.525 36.6053 171.567 32.8239 171.567C32.5613 163.801 32.6663 156.022 32.3775 148.242C32.5875 140.986 33.2178 133.632 31.6685 126.489C40.8331 126.234 49.9845 126.319 59.1491 126.334Z" fill="#000100"/>
<path d="M175.886 127.766C176.897 122.112 177.304 116.358 177.448 110.605C186.206 111.54 194.977 112.872 203.8 112.149C207.949 112.008 212.111 111.753 216.247 112.291C216.93 117.364 217.048 122.537 218.177 127.539C227.276 127.752 236.375 127.624 245.487 127.624C245.474 141.795 245.592 155.966 245.408 170.151C241.128 170.293 236.861 170.406 232.58 170.477C231.766 174.36 231.215 178.299 231.267 182.281C231.346 199.102 231.372 215.937 231.294 232.758C223.508 232.886 215.722 232.659 207.949 232.786C205.664 232.56 203.826 234.104 202.001 235.295C202.185 239.603 202.277 243.925 202.355 248.247C189.002 248.573 175.649 248.374 162.296 248.417C162.165 244.477 162.191 240.524 162.756 236.613C171.829 236.613 180.967 236.301 189.961 234.983C191.024 230.491 191.182 225.814 191.628 221.209C196.079 221.35 200.544 221.01 204.916 220.033C205.467 201.766 205.152 183.5 205.218 165.234C205.008 161.875 205.559 157.766 202.973 155.286C194.504 154.095 185.904 155.144 177.383 154.747C177.422 149.532 177.146 144.289 175.768 139.273C166.603 138.975 157.438 139.032 148.287 138.961C148.248 135.205 148.261 131.436 148.3 127.681C157.504 127.539 166.695 128.361 175.886 127.766Z" fill="#000100"/>
<path d="M118.195 111.001C122.344 110.632 126.519 110.647 130.681 110.562C131.206 115.153 131.39 119.773 131.285 124.407V125.044C126.519 124.775 121.727 124.817 116.96 125.016C117.971 120.424 118.3 115.706 118.195 111.001Z" fill="#9FA09B"/>
<path d="M145.662 110.633C150.31 110.123 155.51 108.153 159.816 111.015C160.775 114.926 159.606 119.631 161.694 123.061C165.108 124.081 168.692 124.18 172.211 124.619L171.252 125.243C167.13 125.725 163.007 125.215 158.923 124.619C158.464 120.779 158.017 116.925 157.571 113.084C154.486 113.013 151.387 112.957 148.301 112.914C148.249 116.429 148.196 119.943 147.999 123.457C144.468 128.063 144.481 134.001 144.599 139.655C143.759 134.454 144.166 129.14 144.271 123.882C144.362 119.433 144.835 114.997 145.662 110.633Z" fill="#BBBBB2"/>
<path d="M148.3 112.914C151.386 112.957 154.484 113.013 157.57 113.084C158.016 116.924 158.462 120.779 158.922 124.619C155.298 124.095 151.648 123.783 147.998 123.457C148.195 119.943 148.248 116.428 148.3 112.914Z" fill="#9B9B97"/>
<path d="M133.334 124.222C136.958 123.797 140.621 123.712 144.271 123.882C144.166 129.139 143.759 134.453 144.6 139.654L144.744 140.603C154.014 145.124 164.465 142.276 174.273 143.239C173.525 146.895 172.881 150.58 172.264 154.264C168.575 154.207 164.898 154.094 161.222 153.967C162.404 152.521 163.585 151.061 164.767 149.602C161.209 147.831 157.336 147.405 153.567 148.624C149.917 149.928 146.504 147.547 143.746 145.223C140.083 142.205 139.597 136.876 138.166 132.498C136.814 136.465 136.21 141.057 133.558 144.288C126.454 149.276 117.552 149.134 109.425 150.31C113.823 151.954 120.743 151.274 122.266 157.24C124.839 166.593 124.853 176.881 122.62 186.333C119.968 196.919 105.657 197.514 99.6039 190.187C96.374 185.454 98.4223 179.332 99.0919 174.075C99.9059 168.959 100.379 163.801 101.088 158.671C101.652 168.789 100.641 179.021 102.453 189.025C107.744 190.811 114.296 191.732 119.246 188.529C120.191 181.798 119.706 174.94 120.31 168.166C120.467 163.858 120.914 158.402 117.277 155.497C113.351 153.853 109.005 154.122 104.869 153.541C104.843 150.509 104.83 147.462 104.803 144.415C112.117 144.004 119.456 144.43 126.769 144.231C129.409 144.174 132.849 143.636 133.702 140.419C134.713 135.077 133.978 129.564 133.334 124.222Z" fill="#F2E6BD"/>
<path d="M131.285 124.406C131.797 124.364 132.821 124.264 133.333 124.222C133.977 129.564 134.712 135.077 133.701 140.419C132.848 143.636 129.408 144.175 126.769 144.231C119.455 144.43 112.116 144.005 104.802 144.415C104.829 147.462 104.842 150.509 104.868 153.542C109.004 154.123 113.35 153.853 117.276 155.497C120.913 158.402 120.466 163.858 120.309 168.166C119.705 174.94 120.191 181.798 119.245 188.53C114.295 191.732 107.743 190.811 102.452 189.026C107.284 188.799 112.129 188.799 116.974 188.728C118.326 178.383 118.3 167.812 117.052 157.453C112.536 157.155 108.032 156.787 103.529 156.305C103.345 152.039 103.148 147.774 102.938 143.509C103.594 143.126 104.907 142.375 105.577 141.992C114.085 141.907 122.606 142.12 131.128 141.709C131.443 136.154 131.351 130.599 131.285 125.044V124.406Z" fill="#C0B597"/>
<path d="M133.556 144.288C136.209 141.058 136.813 136.466 138.165 132.498C139.596 136.877 140.082 142.205 143.745 145.224C146.502 147.548 149.916 149.929 153.566 148.625C157.335 147.406 161.208 147.831 164.766 149.603C163.584 151.062 162.403 152.522 161.221 153.967C164.897 154.095 168.574 154.208 172.263 154.265C172.88 150.58 173.524 146.896 174.272 143.24C174.469 147.505 174.535 151.785 174.6 156.05C170.753 156.135 166.906 156.164 163.059 156.135C161.694 157.212 160.341 158.289 158.976 159.352C159.173 168.478 158.503 177.633 159.199 186.73C160.105 189.196 162.691 188.729 164.687 188.941C168.429 189.083 172.158 188.785 175.9 188.573C176.071 178.596 176.058 168.606 176.163 158.629C177.305 163.008 177.83 167.642 179.668 171.766C185.997 176.187 193.77 173.084 200.558 171.752C201.214 182.89 200.925 194.057 200.676 205.195C197.695 205.11 194.426 203.962 191.669 205.592C190.159 209.517 190.225 213.854 189.857 218.02C188.767 218.813 187.664 219.621 186.575 220.415C186.522 224.468 186.483 228.52 186.443 232.588C182.78 232.588 179.104 232.588 175.44 232.602C170.412 232.602 165.317 231.681 160.328 232.743C159.173 234.104 158.332 235.719 157.466 237.292C157.269 236.074 157.059 234.855 156.836 233.65C147.645 233.707 138.441 233.99 129.276 233.098C125.928 232.758 121.411 232.616 120.453 237.023C119.363 235.818 118.3 234.6 117.236 233.381C117.236 238.454 117.748 243.598 116.79 248.615C116.54 243.768 116.96 238.922 116.895 234.075C107.704 234.005 98.4999 233.891 89.2959 233.92C89.2565 229.767 89.2302 225.63 89.2302 221.492C88.797 220.755 87.9041 219.253 87.4577 218.502C83.2431 218.473 79.0284 218.473 74.8006 218.473C74.6956 198.606 74.5117 178.724 74.8794 158.856C75.247 158.856 75.9691 158.856 76.3368 158.856C76.3105 163.107 75.0763 167.784 76.9539 171.766C83.9258 174.94 91.6986 174.43 99.0907 174.076C98.4211 179.333 96.3729 185.455 99.6028 190.188C105.656 197.514 119.967 196.919 122.619 186.334C124.851 176.882 124.838 166.594 122.265 157.241C120.742 151.275 113.822 151.955 109.424 150.311C117.551 149.135 126.453 149.277 133.556 144.288ZM79.8687 203.792C77.0195 205.351 75.1945 208.639 75.851 212.139C75.6672 220.528 90.4776 219.295 89.1383 210.708C90.5826 205.223 83.9521 201.284 79.8687 203.792ZM90.0837 218.743C89.808 223.447 89.7292 228.152 89.913 232.871C93.9176 233.239 97.9353 233.239 101.94 232.857C102.071 229.215 103.515 225.233 102.15 221.733C98.7231 219.068 94.0883 219.579 90.0837 218.743ZM176.609 228.747C177.423 232.12 180.863 231.596 183.345 231.978C183.371 228.209 185.314 223.036 181.585 220.599C177.489 217.666 174.403 225.36 176.609 228.747Z" fill="#FDE1AD"/>
<path d="M148.289 138.96C157.44 139.031 166.605 138.974 175.769 139.272C177.148 144.288 177.424 149.531 177.384 154.746C185.906 155.143 194.506 154.095 202.974 155.285C205.561 157.765 205.009 161.874 205.22 165.233C205.154 183.499 205.469 201.765 204.918 220.032C200.545 221.01 196.081 221.35 191.63 221.208C191.184 225.814 191.026 230.49 189.963 234.982C180.969 236.3 171.83 236.612 162.758 236.612L163.086 234.288C171.712 234.727 180.457 235.18 188.991 233.324C189.188 228.704 189.503 224.085 189.989 219.493C194.466 219.323 199.101 219.536 203.355 217.736C203.578 198.081 203.565 178.426 203.355 158.771L201.701 158.813C193.193 158.643 184.671 158.658 176.163 158.629C176.058 168.606 176.071 178.596 175.901 188.572C172.159 188.785 168.43 189.083 164.688 188.941C162.692 188.728 160.106 189.196 159.2 186.73C158.504 177.632 159.173 168.478 158.976 159.352C160.342 158.289 161.694 157.212 163.06 156.135C166.907 156.163 170.754 156.135 174.601 156.05C174.535 151.785 174.47 147.505 174.273 143.24C164.465 142.276 154.013 145.124 144.744 140.604C145.925 140.065 147.107 139.527 148.289 138.96ZM162.626 159.522C162.863 168.662 162.298 177.831 163.086 186.957C165.961 186.943 168.837 186.929 171.712 186.957C174.325 178.355 172.579 169.215 173.248 160.372C169.822 159.083 166.198 158.913 162.626 159.522Z" fill="#59533E"/>
<path d="M101.56 144.288L102.938 143.509C103.148 147.774 103.345 152.04 103.529 156.305C108.033 156.787 112.536 157.155 117.053 157.453C118.3 167.812 118.326 178.383 116.974 188.728C112.129 188.799 107.284 188.799 102.452 189.026C100.641 179.021 101.652 168.79 101.087 158.672C92.8414 158.927 84.5828 158.828 76.3373 158.856C75.9697 158.856 75.2475 158.856 74.8799 158.856C74.9455 158.275 75.0768 157.113 75.1425 156.532C83.8475 156.149 92.5788 156.858 101.284 156.107C101.31 155.441 101.336 154.094 101.363 153.428C101.389 150.382 101.363 147.335 101.56 144.288ZM103.976 160.641C103.7 168.776 103.582 176.966 104.133 185.086C106.536 188.657 111.683 186.801 115.215 186.858C116.423 177.647 115.503 168.265 115.609 158.983C111.853 159.593 106.812 157.297 103.976 160.641Z" fill="#726345"/>
<path d="M70.9539 161.066C70.7569 157.538 73.5798 154.278 76.8754 154.434C85.0422 154.137 93.2089 154.123 101.362 153.428C101.336 154.094 101.31 155.44 101.284 156.107C92.5787 156.858 83.8473 156.149 75.1423 156.532C75.0766 157.113 74.9453 158.275 74.8797 158.856C74.5121 178.723 74.6959 198.605 74.8009 218.473C79.0287 218.473 83.2434 218.473 87.458 218.501C87.9045 219.252 88.7973 220.754 89.2306 221.491C89.2306 225.629 89.2568 229.767 89.2962 233.919C98.5002 233.891 107.704 234.004 116.895 234.075C116.961 238.921 116.541 243.768 116.79 248.614L116.777 249.351C102.754 249.805 88.6528 250.201 74.6565 249.167C77.4794 248.218 80.4073 247.622 83.3747 247.693C93.9967 247.764 104.606 247.948 115.228 247.665C115.057 244.462 114.886 241.26 114.715 238.057C107.757 237.844 100.798 237.802 93.8391 237.915C91.2788 238.099 89.0861 236.583 86.9066 235.407C86.5521 231.397 86.1057 227.4 85.633 223.404C81.6022 222.795 77.2956 223.05 73.5405 221.165C70.3237 219.465 70.967 215.143 70.7832 211.968C70.9802 195.006 70.5994 178.029 70.9539 161.066Z" fill="#392E13"/>
<path d="M176.162 158.629C184.67 158.658 193.191 158.644 201.699 158.814C201.187 160.415 200.727 162.045 200.32 163.688C193.033 161.988 185.247 161.506 178.551 165.63C182.832 174.458 193.322 170.887 200.425 168.917C200.452 169.626 200.531 171.043 200.557 171.752C193.769 173.084 185.996 176.187 179.667 171.766C177.829 167.642 177.304 163.008 176.162 158.629Z" fill="#E8CB91"/>
<path d="M76.3373 158.857C84.5829 158.828 92.8415 158.927 101.087 158.672C100.378 163.802 99.9053 168.96 99.0913 174.076C91.6992 174.43 83.9264 174.941 76.9544 171.766C75.0769 167.784 76.3111 163.108 76.3373 158.857ZM78.425 166.707C82.7184 171.511 89.7166 172.461 95.1917 169.57C98.0015 167.983 96.8855 162.739 93.6949 162.683C88.5481 161.903 81.0903 160.415 78.425 166.707Z" fill="#F4D598"/>
<path d="M103.974 160.641C106.81 157.297 111.852 159.592 115.607 158.983C115.502 168.265 116.421 177.646 115.213 186.857C111.681 186.8 106.534 188.657 104.131 185.086C103.58 176.966 103.698 168.775 103.974 160.641Z" fill="#060200"/>
<path d="M162.625 159.522C166.196 158.912 169.82 159.083 173.247 160.372C172.577 169.215 174.324 178.355 171.711 186.957C168.835 186.928 165.96 186.943 163.085 186.957C162.297 177.831 162.861 168.662 162.625 159.522Z" fill="#040300"/>
<path d="M200.322 163.688C200.729 162.044 201.188 160.415 201.7 158.814L203.355 158.771C203.565 178.426 203.578 198.081 203.355 217.736C202.357 217.736 200.388 217.736 199.39 217.736C199.98 213.584 200.493 209.404 200.676 205.195C200.926 194.057 201.215 182.89 200.558 171.752C200.532 171.043 200.453 169.626 200.427 168.917C200.348 167.174 200.309 165.431 200.322 163.688Z" fill="#D0BD8B"/>
<path d="M78.4243 166.707C81.0897 160.416 88.5474 161.903 93.6943 162.683C96.8848 162.74 98.0008 167.983 95.1911 169.57C89.7159 172.461 82.7178 171.511 78.4243 166.707Z" fill="#F8CE7A"/>
<path d="M178.553 165.63C185.249 161.507 193.035 161.988 200.322 163.689C200.309 165.432 200.348 167.175 200.427 168.918C193.324 170.888 182.833 174.459 178.553 165.63Z" fill="#FACE7C"/>
<path d="M42.0669 174.544C43.3274 174.544 44.5878 174.558 45.8614 174.558C46.1765 194.327 45.717 214.095 46.0584 233.849C55.0654 234.048 64.0724 233.863 73.0795 234.062C73.4996 234.855 74.3268 236.428 74.7338 237.208C74.7338 241.19 74.7338 245.186 74.655 249.168C88.6514 250.202 102.753 249.806 116.775 249.352L116.789 248.615C117.747 243.599 117.235 238.455 117.235 233.382C118.298 234.6 119.362 235.819 120.452 237.024C120.032 242.961 119.9 249.31 116.001 254C102.95 253.093 89.8462 253.986 76.7821 253.589C74.3005 253.689 72.7775 251.237 70.9656 249.82C70.9393 245.951 70.8605 242.083 70.7686 238.214C63.9936 237.789 57.2055 238.044 50.4174 237.959C47.3451 238.115 44.4828 236.329 42.4083 234.019C41.6599 214.223 42.4477 194.355 42.0669 174.544Z" fill="#BFBFBB"/>
<path d="M79.8693 203.792C83.9527 201.284 90.5832 205.223 89.139 210.708C90.4782 219.295 75.6678 220.528 75.8516 212.139C75.1951 208.639 77.0202 205.351 79.8693 203.792Z" fill="#F4CD8A"/>
<path d="M191.669 205.591C194.427 203.961 197.696 205.109 200.676 205.194C200.493 209.403 199.98 213.584 199.39 217.736C196.212 217.764 193.035 217.891 189.857 218.019C190.225 213.853 190.159 209.516 191.669 205.591Z" fill="#F3D086"/>
<path d="M189.857 218.019C193.035 217.892 196.212 217.764 199.39 217.736C200.387 217.736 202.357 217.736 203.355 217.736C199.101 219.536 194.466 219.323 189.989 219.493C189.503 224.084 189.188 228.704 188.991 233.324C180.456 235.18 171.712 234.727 163.086 234.287L161.353 234.245C166.014 233.366 170.714 232.743 175.441 232.601C179.104 232.587 182.78 232.587 186.444 232.587C186.483 228.52 186.522 224.467 186.575 220.414C187.665 219.621 188.768 218.813 189.857 218.019Z" fill="#9D8B62"/>
<path d="M90.0827 218.742C94.0873 219.578 98.7221 219.068 102.149 221.732C103.514 225.232 102.07 229.214 101.939 232.856C97.9343 233.239 93.9166 233.239 89.912 232.87C89.7282 228.151 89.807 223.446 90.0827 218.742Z" fill="#F1D08E"/>
<path d="M176.61 228.747C174.404 225.361 177.49 217.666 181.586 220.599C185.315 223.037 183.372 228.209 183.345 231.978C180.864 231.596 177.424 232.12 176.61 228.747Z" fill="#F4CA84"/>
<path d="M160.329 232.743C165.318 231.681 170.413 232.602 175.441 232.602C170.715 232.743 166.014 233.367 161.353 234.245L160.132 234.458C159.738 239.489 159.778 244.548 159.791 249.593C166.999 251.662 174.47 250.882 181.836 250.896C189.635 250.769 197.591 251.732 205.18 249.323C204.787 251.364 203.776 253.83 201.452 253.617C189.661 254.042 177.844 253.674 166.041 253.816C163.231 253.971 160.5 253.192 157.913 252.058V250.585C157.9 246.149 157.795 241.714 157.467 237.292C158.333 235.719 159.174 234.104 160.329 232.743Z" fill="#C7C8C3"/>
<path d="M120.453 237.022C121.411 232.615 125.928 232.757 129.276 233.097C138.441 233.99 147.645 233.706 156.836 233.649C157.059 234.854 157.269 236.073 157.466 237.291C157.794 241.713 157.899 246.148 157.912 250.584C157.295 246.885 156.731 243.186 156.192 239.474C144.717 238.808 133.202 239.077 121.7 239.275C121.438 243.257 121.451 247.296 120.742 251.221C119.849 253.106 117.591 253.177 116.002 253.999C119.902 249.308 120.033 242.96 120.453 237.022Z" fill="#FFF7E2"/>
<path d="M221.402 32.0547H213.524L217.955 34.1803V48.5284H245.035L247.497 53.8425V46.4027L221.402 44.8085V32.0547Z" fill="#989594"/>
</svg>
