<svg width="252" height="217" viewBox="0 0 252 217" fill="none" xmlns="http://www.w3.org/2000/svg">
<path d="M75.3359 0.394302C100.159 -0.338899 125.042 0.316302 149.895 0.0823019C158.829 0.331902 167.794 -0.401298 176.699 0.347502C179.066 3.1087 178.485 7.02431 178.515 10.4095C178.471 12.4687 178.426 14.5279 178.366 16.5871L176.475 16.1347C176.624 11.7667 176.46 7.39871 176.133 3.0463L174.242 2.8591C141.571 2.5627 108.885 2.6563 76.2145 2.8279C75.9911 2.2195 75.5593 1.0027 75.3359 0.394302Z" fill="#A2A2A0"/>
<path d="M233.212 63.4959C237.471 59.8611 243.01 61.3431 248.028 60.6255L249.517 60.4539C251.334 69.4395 250.426 78.6435 250.619 87.7383C250.59 94.5711 251.394 101.622 249.309 108.252L247.939 106.099C247.463 91.8879 248.148 77.6607 247.522 63.4335C243.457 63.5739 239.377 63.8859 235.386 64.7439C235.475 68.2851 235.55 71.8419 235.58 75.3831C235.192 76.0071 234.433 77.2551 234.061 77.8947C233.837 76.6311 233.405 74.1039 233.182 72.8559C233.167 71.2959 233.137 68.2071 233.123 66.6471C233.152 65.8671 233.182 64.2915 233.212 63.4959Z" fill="#A2A2A0"/>
<path d="M73.4869 15.4176C73.8741 10.3788 74.3059 5.33998 75.3334 0.394775C75.5567 1.00318 75.9886 2.21998 76.2119 2.82838C76.48 6.69718 76.4502 10.5972 76.0481 14.466C75.7801 15.0432 75.2291 16.182 74.9611 16.7592L74.0974 18.522C65.2671 17.9448 56.4368 18.5376 47.6064 18.1008L47.666 15.9792C55.8411 14.7312 64.9395 15.8856 73.4869 15.4176Z" fill="#73776D"/>
<path d="M76.2146 2.82742C108.885 2.65582 141.571 2.56222 174.242 2.85862C174.346 6.50902 174.465 10.1594 174.584 13.7942C169.417 14.855 164.131 15.1826 158.874 14.9798C131.266 14.543 103.644 15.5414 76.0508 14.465C76.4528 10.5962 76.4826 6.69622 76.2146 2.82742Z" fill="#010100"/>
<path d="M174.244 2.85962L176.135 3.04682C176.463 7.39922 176.627 11.7672 176.478 16.1352L176.433 16.8684C142.601 16.962 108.784 17.1648 74.9663 16.7592C75.2343 16.182 75.7853 15.0432 76.0533 14.466C103.646 15.5424 131.269 14.544 158.877 14.9808C164.133 15.1836 169.419 14.856 174.587 13.7952C174.468 10.1604 174.348 6.51002 174.244 2.85962Z" fill="#464709"/>
<path d="M34.0477 33.873C38.4406 33.483 42.8483 33.1866 47.1964 32.3442C56.3395 30.441 65.7207 31.0494 74.9085 32.1414C65.4676 32.6562 56.0119 32.3442 46.571 32.4846C46.5114 37.539 46.5263 42.6402 45.6329 47.6322C41.4336 47.2734 37.2344 47.0706 33.05 46.5402L33.0054 45.0738C36.326 44.9178 39.6616 44.8554 42.9376 44.2626C43.3099 41.439 43.4141 38.5998 43.5481 35.7606C40.1232 35.6202 36.6983 35.4642 33.2883 35.3394C33.467 34.9806 33.8541 34.2474 34.0477 33.873Z" fill="#464709"/>
<path d="M205.827 32.6704C210.726 33.076 215.625 33.6844 220.494 34.4956C220.494 38.536 220.539 42.5764 220.628 46.6168C215.789 46.6012 210.949 46.6636 206.11 46.7104L205.976 46.0084C206.02 41.5624 206.244 37.1008 205.827 32.6704ZM207.524 35.6968C207.524 38.6296 207.524 41.578 207.524 44.5108C211.187 44.7448 214.865 44.7916 218.544 44.6668C218.514 41.656 218.499 38.6296 218.484 35.6188C214.821 35.5252 211.173 35.5564 207.524 35.6968Z" fill="#464709"/>
<path d="M178.518 10.4104C181.853 14.7472 187.735 13.6084 192.292 15.3868C191.83 15.7612 190.922 16.5256 190.46 16.9C189.016 21.2056 189.135 25.8388 189.567 30.316C188.852 26.5564 188.465 22.7344 188.033 18.928C184.816 18.1168 181.585 17.3368 178.369 16.588C178.428 14.5288 178.473 12.4696 178.518 10.4104Z" fill="#FCF8AD"/>
<path d="M192.292 15.3859C196.744 15.1987 201.196 15.5107 205.649 15.4951C207.302 20.4091 207.123 25.6507 207.212 30.7831C211.635 30.7831 216.072 30.8455 220.51 31.0171L220.495 31.7035C220.495 32.4055 220.495 33.7939 220.495 34.4959C215.626 33.6847 210.727 33.0763 205.827 32.6707C205.768 32.1871 205.664 31.2199 205.604 30.7363C205.038 26.5711 204.651 22.3903 204.323 18.1939C200.333 18.2095 196.342 18.2407 192.366 18.0223C191.889 17.7415 190.936 17.1799 190.46 16.8991C190.922 16.5247 191.83 15.7603 192.292 15.3859Z" fill="#7B7C74"/>
<path d="M45.0515 29.9712C45.7812 25.4628 42.6094 18.1932 47.6723 15.978L47.6127 18.0996C47.5383 22.0464 47.4341 25.9932 47.2852 29.9556L47.1958 32.3424C42.8477 33.1848 38.4399 33.4812 34.0471 33.8712C33.8535 34.2456 33.4664 34.9788 33.2877 35.3376C33.0643 38.5824 32.9899 41.8272 33.0048 45.072L33.0494 46.5384C37.2338 47.0688 41.433 47.2716 45.6323 47.6304C41.6415 48.6912 37.5316 48.4416 33.4664 48.3636L33.3175 50.844C33.1834 54.5412 33.2579 58.2384 33.1537 61.9356L31.739 60.4693C30.6967 56.4444 33.1388 49.7832 27.8674 48.6288C24.6956 47.3964 21.4643 49.0968 18.3521 49.7676C18.3819 53.4336 18.3372 57.1152 18.367 60.7813C18.3819 61.6393 18.4265 63.3709 18.4563 64.2445C14.0337 59.9701 15.4037 53.3712 15.493 47.7708C17.0268 46.866 18.5903 45.9924 20.1688 45.1812C23.5043 45.1812 26.8548 45.1344 30.1904 45.0564C30.1606 41.5464 30.1457 38.052 30.1457 34.542C30.652 33.6684 31.6795 31.9212 32.2006 31.0476C36.5041 30.9696 40.8076 30.7824 45.0515 29.9712Z" fill="#7B7C74"/>
<path d="M235.818 123.291C239.779 122.371 243.784 121.685 247.775 120.905C252.287 130.577 249.89 141.887 249.786 152.245L249.577 154.086L247.507 152.666C247.597 143.259 247.805 133.853 247.656 124.446C243.606 124.368 239.555 124.337 235.52 124.274L235.818 123.291Z" fill="#7B7C74"/>
<path d="M176.476 16.1338L178.367 16.5862C181.583 17.335 184.814 18.115 188.031 18.9262C188.463 22.7326 188.85 26.5546 189.565 30.3142C191.605 36.3982 199.006 32.9818 203.577 34.4014C204.828 38.161 205.215 42.139 205.974 46.0078L206.108 46.7098C206.377 47.5678 206.942 49.2838 207.225 50.1418C207.032 50.4538 206.645 51.0622 206.451 51.3586C205.572 55.2898 204.351 59.1586 201.716 62.2006C193.615 61.8418 185.38 61.327 177.458 63.4954C176.833 67.2394 176.207 70.9834 175.657 74.743C167.958 79.9534 158.428 75.6478 150.178 78.4558C145.666 80.9674 148.138 87.2542 148.957 91.3258C152.814 92.4178 157.177 92.6206 160.423 95.3038C160.9 97.597 160.974 99.9526 161.227 102.277C160.364 109.781 169.655 112.589 174.689 109.079C178.724 105.366 179.945 99.0322 184.606 95.9902C191.143 94.009 198.44 96.6766 204.739 93.541C208.551 90.0466 209.429 84.2434 212.854 80.359C217.545 79.1578 222.518 78.9706 227.298 79.7506C231.274 81.7786 230.559 87.0826 230.961 90.9046C230.932 95.4442 232.138 99.8278 233.552 104.071C233.612 105.163 233.761 107.347 233.821 108.439C233.88 109.313 233.999 111.075 234.074 111.949C226.554 105.241 228.236 94.1182 227.581 84.9298C222.742 85.2886 217.887 85.6786 213.063 86.1466C211.99 91.045 211.067 97.363 205.796 99.2194C199.646 100.623 193.287 99.4378 187.048 99.937C182.67 99.391 181.643 104.851 179.26 107.581C176.073 113.181 168.464 115.147 163.208 111.543C158.919 109.391 157.847 104.149 156.105 99.9838C150.952 98.299 144.668 96.3334 143.388 89.9686C142.48 84.5866 142.45 77.161 146.872 73.5262C154.422 71.545 162.389 72.8398 170.087 71.8882C171.71 67.3174 171.427 59.9698 176.863 58.4098C184.546 57.193 192.364 58.3006 200.093 57.5986C200.137 52.3414 200.063 47.0686 199.869 41.8114C194.806 40.1578 188.135 39.097 186.348 32.935C184.487 29.815 184.249 23.7934 179.617 24.043C159.336 25.5718 138.965 24.6982 118.639 24.9634C105.163 25.213 91.6121 23.8558 78.2251 26.1646C78.2251 24.979 78.24 22.6234 78.24 21.4378C84.4942 19.0354 91.2547 20.3146 97.762 20.1274C123.866 20.0182 149.999 20.3302 176.103 19.987C176.178 19.207 176.341 17.647 176.431 16.867L176.476 16.1338Z" fill="#F7EA41"/>
<path d="M47.6108 18.1006C56.4411 18.5374 65.2715 17.9446 74.1018 18.5218C73.4615 22.1566 73.4168 25.885 73.2977 29.5666C64.6311 30.0346 55.9497 30.5962 47.2832 29.9566C47.4321 25.9942 47.5363 22.0474 47.6108 18.1006Z" fill="#030301"/>
<path d="M74.1003 18.5223L74.964 16.7595C75.2022 21.8763 75.1576 27.0243 74.9044 32.1411C65.7167 31.0491 56.3354 30.4407 47.1924 32.3439L47.2817 29.9571C55.9483 30.5967 64.6297 30.0351 73.2962 29.5671C73.4153 25.8855 73.46 22.1571 74.1003 18.5223Z" fill="#57530C"/>
<path d="M74.9649 16.7595C108.782 17.1651 142.599 16.9623 176.432 16.8687C176.342 17.6487 176.179 19.2087 176.104 19.9887C150 20.3319 123.867 20.0199 97.7629 20.1291C91.2556 20.3163 84.4951 19.0371 78.2409 21.4395C78.2409 22.6251 78.226 24.9807 78.226 26.1663C78.8514 30.9555 75.6796 34.4967 72.0463 36.7743C64.2136 35.3547 56.247 35.5263 48.325 36.0099C48.4888 38.9115 48.6526 41.7975 48.7568 44.6991C47.6996 51.6255 40.4328 50.9703 35.3252 50.8611L33.3149 50.8455L33.4638 48.3651C37.5291 48.4431 41.639 48.6927 45.6297 47.6319C46.5232 42.6399 46.5083 37.5387 46.5679 32.4843C56.0087 32.3439 65.4645 32.6559 74.9053 32.1411C75.1585 27.0243 75.2031 21.8763 74.9649 16.7595Z" fill="#D3C93C"/>
<path d="M190.459 16.8987C190.936 17.1795 191.889 17.7411 192.365 18.0219C192.425 22.3275 192.35 26.6331 192.335 30.9231C196.758 30.9075 201.181 30.8451 205.603 30.7359C205.663 31.2195 205.767 32.1867 205.827 32.6703C206.244 37.1007 206.02 41.5623 205.976 46.0083C205.216 42.1395 204.829 38.1615 203.578 34.4019C199.007 32.9823 191.606 36.3987 189.566 30.3147C189.134 25.8375 189.015 21.2043 190.459 16.8987Z" fill="#8B8B21"/>
<path d="M192.366 18.0232C196.342 18.2416 200.332 18.2104 204.323 18.1948C204.651 22.3912 205.038 26.572 205.604 30.7372C201.181 30.8464 196.759 30.9088 192.336 30.9244C192.351 26.6344 192.425 22.3288 192.366 18.0232Z" fill="#030400"/>
<path d="M18.1836 154.039C22.3531 154.866 28.5626 151.964 31.3323 156.145C31.6301 164.85 31.3472 173.555 31.4216 182.259C27.0139 182.478 22.6211 182.525 18.2283 182.353C18.2283 172.915 18.3325 163.477 18.1836 154.039Z" fill="#030400"/>
<path d="M120.757 197.735C121.337 193.71 119.327 188.281 123.02 185.551C125.775 185.832 128.47 186.487 131.195 187.033C131.18 190.574 131.165 194.116 131.091 197.657C134.724 201.604 139.936 201.229 144.731 200.73C146.175 204.193 146.175 207.968 146.071 211.697C132.655 212.383 119.208 212.009 105.776 211.9C106.432 208.374 104.362 203.195 108.159 201.182C111.39 200.746 114.651 200.824 117.912 200.746C118.851 199.732 119.804 198.733 120.757 197.735Z" fill="#030400"/>
<path d="M118.639 24.9633C138.965 24.6981 159.336 25.5717 179.617 24.0429C184.248 23.7933 184.486 29.8149 186.348 32.9349C188.135 39.0969 194.806 40.1577 199.869 41.8113C200.062 47.0685 200.137 52.3413 200.092 57.5985C192.364 58.3005 184.546 57.1929 176.862 58.4097C171.427 59.9697 171.71 67.3173 170.087 71.8881C162.388 72.8397 154.422 71.5449 146.872 73.5261C142.449 77.161 142.479 84.5866 143.388 89.9686C144.668 96.3334 150.952 98.299 156.104 99.9838C157.847 104.149 158.919 109.391 163.207 111.543C168.464 115.147 176.073 113.181 179.26 107.581C181.642 104.851 182.67 99.391 187.048 99.937C193.287 99.4378 199.645 100.623 205.795 99.2194C211.067 97.363 211.99 91.045 213.062 86.1466C217.887 85.6786 222.741 85.2886 227.581 84.9298C228.236 94.1182 226.553 105.241 234.073 111.949C234.475 115.209 234.043 118.47 233.537 121.683C231.869 122.604 230.202 123.54 228.549 124.46C225.868 124.741 221.952 122.541 220.344 125.677C219.257 129.795 219.316 134.132 219.033 138.375C215.311 138.391 211.499 137.97 207.85 138.968C204.649 141.495 206.972 146.113 206.733 149.561C205.676 151.386 204.619 153.211 203.577 155.036C196.161 154.35 188.611 153.227 181.225 154.677C177.503 155.816 178.247 160.902 176.847 163.928C176.669 164.443 176.296 165.488 176.118 166.003C169.938 165.66 163.714 165.738 157.549 165.083C155.077 164.973 152.918 162.977 152.307 160.496C150.535 153.289 150.327 145.77 150.803 138.375C150.982 134.257 151.578 129.702 149.15 126.114C146.381 120.981 139.441 120.903 136.419 116.192C134.721 108.455 136.27 99.7186 131.817 92.8234C128.809 90.3898 124.967 89.5006 121.736 87.457C119.994 83.947 119.458 79.8754 117.477 76.4902C114.544 74.4622 111.059 73.651 107.768 72.481C106.607 68.9397 105.475 65.383 104.388 61.7949C99.7273 61.2333 94.3219 59.2989 90.1227 62.3409C88.574 65.7261 87.7699 69.4234 86.7573 73.0114C82.4389 74.7274 75.6189 74.6026 74.5319 80.5306C72.8641 87.7378 72.7301 95.1946 71.8068 102.527C66.9822 104.757 59.8345 106.099 59.0751 112.745C56.2756 129.062 58.7921 145.754 57.0201 162.15C54.7567 162.399 52.5082 162.711 50.2448 162.758C48.1005 159.654 46.8347 155.972 44.5266 152.993C40.8337 150.419 36.1579 150.387 31.9438 149.529C31.0355 141.979 32.1374 134.319 31.0652 126.8C29.0848 122.245 22.8752 125.833 20.0609 122.385C17.991 119.359 17.3358 115.599 16.219 112.121C12.809 111.715 9.39895 111.341 6.0336 110.607L5.19971 110.295C9.57764 110.545 13.896 109.671 18.1697 108.72C18.2144 108.252 18.3335 107.316 18.3782 106.832C20.9096 93.1666 18.125 79.1578 20.4778 65.4453C23.1135 65.4921 25.7343 65.4921 28.37 65.4141C29.8442 69.8446 30.0527 75.4762 33.8052 78.5806C36.8429 79.3138 39.97 79.2982 43.0673 79.4854C44.4075 84.5554 44.3777 90.967 48.7706 94.399C52.8953 95.413 58.3454 95.5066 61.1002 91.513C63.9891 86.8798 61.8299 81.1858 61.2938 76.1782C56.9904 75.4762 52.6869 74.7742 48.3834 74.119C47.8175 70.2033 48.3834 65.7261 46.0902 62.3565C43.0822 59.7045 38.7341 60.7497 35.1007 60.1881C35.1454 57.0837 35.2198 53.9637 35.324 50.8593C40.4316 50.9685 47.6984 51.6237 48.7557 44.6973C50.1554 42.5445 51.3467 39.4401 54.1462 39.0189C60.1025 38.0673 66.327 39.1593 72.0451 36.7725C75.6785 34.4949 78.8502 30.9537 78.2248 26.1645C91.6117 23.8557 105.163 25.2129 118.639 24.9633Z" fill="#FEEA21"/>
<path d="M220.494 31.7031C225.855 32.3271 223.413 39.1443 223.889 42.9195C222.787 44.1363 221.671 45.3531 220.628 46.6167C220.539 42.5763 220.494 38.5359 220.494 34.4955C220.494 33.7935 220.494 32.4051 220.494 31.7031Z" fill="#E3E5DA"/>
<path d="M33.2887 35.3379C36.6987 35.4627 40.1236 35.6187 43.5485 35.7591C43.4145 38.5983 43.3103 41.4375 42.938 44.2611C39.662 44.8539 36.3264 44.9163 33.0057 45.0723C32.9908 41.8275 33.0653 38.5827 33.2887 35.3379Z" fill="#050500"/>
<path d="M48.3247 36.0086C56.2467 35.525 64.2133 35.3534 72.046 36.773C66.3279 39.1599 60.1034 38.0678 54.1471 39.0194C51.3476 39.4406 50.1563 42.545 48.7565 44.6979C48.6523 41.7962 48.4885 38.9102 48.3247 36.0086Z" fill="#F7EC45"/>
<path d="M207.523 35.6977C211.172 35.5573 214.82 35.5261 218.483 35.6197C218.498 38.6305 218.513 41.6569 218.543 44.6677C214.865 44.7925 211.187 44.7457 207.523 44.5117C207.523 41.5789 207.523 38.6305 207.523 35.6977Z" fill="#000600"/>
<path d="M220.626 46.6174C221.668 45.3538 222.785 44.137 223.887 42.9202C228.19 43.7314 232.866 44.1682 236.44 47.0854C239.91 50.221 237.155 55.7434 239.314 59.3782C242.203 59.815 245.226 59.5966 248.025 60.6262C243.007 61.3438 237.467 59.8618 233.209 63.4966C229.277 63.6682 225.182 64.2454 221.4 62.8882C217.692 60.0178 218.928 54.4798 218.75 50.3302C219.226 49.4098 220.164 47.5534 220.626 46.6174ZM221.802 56.8198C224.334 59.191 227.878 62.1706 230.915 58.7698C235.547 55.3378 230.141 50.0962 227.178 47.7406C224.825 50.377 223.142 53.5282 221.802 56.8198Z" fill="#F5F192"/>
<path d="M15.4908 47.7244V47.7712C15.4015 53.3716 14.0315 59.9704 18.4541 64.2448C18.9604 64.5412 19.973 65.1496 20.4793 65.446C18.1265 79.1584 20.9111 93.1672 18.3796 106.833C18.469 97.2232 18.7072 87.598 18.2009 77.9884C17.4564 77.5672 15.9822 76.7248 15.2377 76.3036C14.1059 75.7108 12.9445 75.1648 11.7681 74.6656C12.3041 74.2912 13.3763 73.5424 13.9124 73.168C15.6993 64.7908 13.7635 56.0392 15.4908 47.7244Z" fill="#F5EF95"/>
<path d="M206.109 46.7113C210.948 46.6645 215.788 46.6021 220.628 46.6177C220.166 47.5537 219.228 49.4101 218.751 50.3305C217.545 50.1901 215.133 49.8937 213.927 49.7533L212.184 49.8157C210.948 49.8937 208.477 50.0653 207.226 50.1433C206.943 49.2853 206.377 47.5693 206.109 46.7113Z" fill="#C2C296"/>
<path d="M18.3506 49.769C21.4628 49.0982 24.6941 47.3978 27.8659 48.6302C33.1373 49.7846 30.6952 56.4458 31.7375 60.4706C27.3 61.2194 22.8179 61.6406 18.3655 60.7826C18.3357 57.1166 18.3804 53.435 18.3506 49.769Z" fill="#060A00"/>
<path d="M221.805 56.8194C223.145 53.5278 224.828 50.3766 227.181 47.7402C230.144 50.0958 235.55 55.3374 230.918 58.7694C227.881 62.1702 224.337 59.1906 221.805 56.8194Z" fill="#F6E73A"/>
<path d="M33.3139 50.844L35.3242 50.8596C35.2199 53.964 35.1455 57.084 35.1008 60.1884C38.7342 60.75 43.0824 59.7048 46.0903 62.3568C48.3835 65.7264 47.8177 70.2036 48.3835 74.1192C52.687 74.7744 56.9905 75.4764 61.294 76.1784C61.83 81.186 63.9892 86.88 61.1004 91.5132C58.3456 95.5068 52.8955 95.4132 48.7707 94.3992C44.3779 90.9672 44.4076 84.5556 43.0675 79.4856C39.9701 79.2984 36.8431 79.314 33.8053 78.5808C30.0528 75.4764 29.8443 69.8448 28.3701 65.4144C30.0826 64.4472 31.6759 63.2616 33.1501 61.9356C33.2543 58.2384 33.1799 54.5412 33.3139 50.844ZM33.85 64.6188C33.4777 68.004 33.6415 71.4204 34.2223 74.7588C37.5429 74.7744 40.8636 74.8056 44.1843 74.8368C44.2736 71.6232 44.0205 68.4252 43.4844 65.274C40.2829 65.0712 37.0664 64.8372 33.85 64.6188ZM49.0238 80.2656C48.6069 82.8084 47.8921 85.3356 48.0559 87.9252C50.8256 91.7472 55.561 89.4072 59.0454 88.2996C58.286 85.866 58.6434 82.5276 56.1566 81.108C53.8038 80.5776 51.4064 80.4684 49.0238 80.2656Z" fill="#FCF58C"/>
<path d="M206.453 51.3596C206.646 51.0632 207.034 50.4548 207.227 50.1428C208.478 50.0648 210.95 49.8932 212.186 49.8152C211.099 53.9804 210.935 58.4732 209.118 62.3888C206.661 65.1812 203.251 67.0844 199.692 67.7396C195.032 68.0828 190.4 66.554 185.754 67.2404C181.987 70.5008 182.225 76.8188 178.249 79.9232C170.685 85.508 160.068 79.2836 152.92 86.0228C156.226 87.848 159.755 89.2832 162.793 91.5764C165.935 94.7432 167.945 98.8928 170.461 102.59C172.159 98.4716 172.71 93.4172 175.912 90.2192C183.432 86.4128 192.217 90.1724 200.02 87.5204C201.762 83.3084 200.199 76.1012 205.455 74.5412C214.509 72.1388 223.935 73.0904 233.182 72.8564C233.405 74.1044 233.837 76.6316 234.061 77.8952C225.618 75.836 216.251 74.9312 208.076 78.3944C205.336 82.0136 205.306 87.2864 204.041 91.67C195.851 92.4032 187.11 90.3908 179.322 93.6512C176.492 97.2236 175.748 102.122 172.918 105.694C168.66 107.66 164.594 104.696 161.229 102.278C160.976 99.9536 160.902 97.598 160.425 95.3048C157.179 92.6216 152.816 92.4188 148.959 91.3268C148.14 87.2552 145.668 80.9684 150.18 78.4568C158.43 75.6488 167.96 79.9544 175.658 74.744C176.209 70.9844 176.835 67.2404 177.46 63.4964C185.382 61.328 193.617 61.8428 201.718 62.2016C204.353 59.1596 205.574 55.2908 206.453 51.3596Z" fill="#FFFEBE"/>
<path d="M212.184 49.8139L213.926 49.7515C214.82 56.1943 215.907 63.4483 221.655 67.2235C224.931 70.5931 229.457 67.8007 233.121 66.6463C233.135 68.2063 233.165 71.2951 233.18 72.8551C223.933 73.0891 214.507 72.1375 205.453 74.5399C200.197 76.0999 201.76 83.3071 200.018 87.5191C192.215 90.1711 183.43 86.4115 175.91 90.2179C172.708 93.4159 172.157 98.4703 170.459 102.589C167.943 98.8915 165.933 94.7419 162.791 91.5751C159.753 89.2819 156.224 87.8467 152.918 86.0215C160.066 79.2823 170.683 85.5067 178.247 79.9219C182.223 76.8175 181.985 70.4995 185.752 67.2391C190.398 66.5527 195.03 68.0815 199.69 67.7383C203.249 67.0831 206.659 65.1799 209.116 62.3875C210.933 58.4719 211.097 53.9791 212.184 49.8139Z" fill="#FDFFF4"/>
<path d="M213.929 49.7515C215.135 49.8919 217.547 50.1883 218.753 50.3287C218.932 54.4783 217.696 60.0163 221.404 62.8867C225.186 64.2439 229.281 63.6667 233.212 63.4951C233.183 64.2907 233.153 65.8663 233.123 66.6463C229.46 67.8007 224.933 70.5931 221.657 67.2235C215.909 63.4483 214.822 56.1943 213.929 49.7515Z" fill="#FBF9CC"/>
<path d="M18.3647 60.7822C22.8171 61.6402 27.2993 61.219 31.7368 60.4702L33.1514 61.9366C31.6772 63.2626 30.0839 64.4482 28.3715 65.4154C25.7358 65.4934 23.115 65.4934 20.4793 65.4466C19.973 65.1502 18.9604 64.5418 18.4541 64.2454C18.4243 63.3718 18.3796 61.6402 18.3647 60.7822Z" fill="#A59C2C"/>
<path d="M90.1237 62.3428C94.323 59.3008 99.7284 61.2352 104.389 61.7968C105.476 65.3848 106.608 68.9416 107.769 72.4828C111.06 73.6528 114.545 74.464 117.478 76.492C119.459 79.8772 119.995 83.9488 121.737 87.4588C124.968 89.5024 128.81 90.3916 131.818 92.8252C136.271 99.7204 134.722 108.456 136.42 116.194C139.442 120.905 146.382 120.983 149.151 126.116C151.579 129.704 150.983 134.259 150.804 138.377C150.328 145.772 150.536 153.291 152.308 160.498C152.919 162.978 155.078 164.975 157.55 165.084C163.715 165.74 169.939 165.662 176.119 166.005C176.446 168.064 176.968 170.092 177.533 172.104C168.301 173.228 158.95 172.978 149.851 170.981C151.221 172.26 152.576 173.555 153.946 174.834C152.04 174.725 150.134 174.616 148.243 174.522C146.799 169.062 145.935 163.478 145.444 157.846C144.267 148.767 144.416 139.422 142.138 130.546C139.264 127.8 134.96 126.35 133.531 122.247C130.821 115.071 131.997 106.99 129.436 99.7828C126.919 96.6784 123.36 94.7596 120.516 92.0296C117.151 89.05 115.453 84.6664 113.428 80.6884C110.42 79.3156 107.204 78.2704 104.553 76.18C102.304 73.6684 101.024 70.4236 99.4305 67.444C92.9232 68.6764 90.3024 75.6652 85.2693 79.3C82.9165 81.4216 79.9085 82.9504 78.1812 85.7272C75.605 92.8408 76.3198 100.766 73.7884 107.895C72.0014 113.339 63.6774 112.169 62.8286 118.3C58.6145 132.933 62.8286 148.517 59.6569 163.29C58.0189 169.468 50.6181 167.393 46.0465 168.064C44.6468 161.34 38.9882 157.986 33.1361 156.286C32.9127 155.1 32.6745 153.915 32.466 152.714L31.9448 149.531C36.159 150.389 40.8347 150.42 44.5277 152.994C46.8358 155.974 48.1015 159.656 50.2458 162.76C52.5092 162.713 54.7577 162.401 57.0212 162.152C58.7932 145.756 56.2766 129.064 59.0761 112.746C59.8355 106.101 66.9832 104.759 71.8079 102.528C72.7311 95.1964 72.8651 87.7396 74.5329 80.5324C75.6199 74.6044 82.44 74.7292 86.7584 73.0132C87.7709 69.4252 88.5751 65.728 90.1237 62.3428Z" fill="#FADA50"/>
<path d="M249.517 60.4539C250.41 62.2791 251.825 63.9951 251.854 66.1635C252.093 95.0079 251.959 123.868 251.989 152.728C251.438 152.603 250.336 152.369 249.785 152.244C249.889 141.886 252.286 130.576 247.774 120.904C247.581 117.378 247.462 113.837 247.357 110.296C247.849 109.781 248.817 108.767 249.308 108.252C251.393 101.622 250.589 94.5711 250.619 87.7383C250.425 78.6435 251.333 69.4395 249.517 60.4539Z" fill="#F9E99C"/>
<path d="M33.8515 64.6194C37.068 64.8378 40.2844 65.0718 43.486 65.2746C44.022 68.4258 44.2752 71.6238 44.1858 74.8374C40.8652 74.8062 37.5445 74.775 34.2238 74.7594C33.6431 71.421 33.4793 68.0046 33.8515 64.6194Z" fill="#FFFFD3"/>
<path d="M235.385 64.7438C239.376 63.8857 243.456 63.5737 247.521 63.4333C248.147 77.6606 247.462 91.8878 247.938 106.099C244.275 105.834 240.597 105.803 236.934 105.741C236.74 95.6006 237.544 85.3826 235.579 75.383C235.549 71.8418 235.475 68.285 235.385 64.7438Z" fill="#010300"/>
<path d="M85.2693 79.2996C90.3024 75.6648 92.9232 68.676 99.4305 67.4436C101.024 70.4232 102.304 73.668 104.553 76.1796C107.204 78.27 110.42 79.3152 113.428 80.688C115.453 84.666 117.151 89.0496 120.516 92.0292C123.36 94.7592 126.919 96.678 129.436 99.7824C131.997 106.99 130.821 115.07 133.531 122.246C134.96 126.349 139.264 127.8 142.138 130.546C144.416 139.422 144.267 148.766 145.444 157.846C142.718 153.852 137.388 152.557 134.96 148.61C133.114 135.725 131.625 122.714 129.019 109.954C126.562 108.674 123.896 107.91 121.469 106.584C119.623 102.7 119.176 98.1912 116.883 94.5408C114.843 92.8092 112.133 92.31 109.75 91.296C103.585 89.9388 103.362 81.9984 100.637 77.1624C97.6138 77.958 94.591 78.738 91.5681 79.5492C90.1237 83.2152 89.0664 87.162 86.7435 90.3756C84.1375 91.998 81.1891 92.8872 78.5237 94.416C75.5753 103.043 76.9601 112.824 73.0289 121.17C70.1252 122.746 66.9236 123.557 63.8114 124.54C63.5583 122.98 63.0818 119.86 62.8286 118.3C63.6774 112.169 72.0014 113.339 73.7883 107.894C76.3198 100.765 75.605 92.8404 78.1812 85.7268C79.9085 82.95 82.9165 81.4212 85.2693 79.2996Z" fill="#F7CD7B"/>
<path d="M0.583083 76.6007C4.24625 75.6491 7.9392 74.3543 11.7662 74.6663C12.9426 75.1655 14.1041 75.7115 15.2358 76.3043C15.2507 77.0219 15.2804 78.4259 15.2953 79.1435C11.6024 79.0499 7.92431 79.0031 4.23136 78.9095C1.98283 88.9559 3.33791 99.3767 3.50171 109.579C2.42956 108.986 1.3723 108.378 0.315046 107.77C0.404392 97.3799 0.0916823 86.9903 0.583083 76.6007Z" fill="#A1A39E"/>
<path d="M15.2362 76.3044C15.9807 76.7256 17.4549 77.568 18.1995 77.9892C18.7058 87.5988 18.4675 97.224 18.3782 106.834C18.3335 107.317 18.2144 108.253 18.1697 108.721C13.896 109.673 9.57764 110.546 5.1997 110.297L3.50214 109.579C3.33834 99.3768 1.98326 88.956 4.23179 78.9096C5.00612 87.864 4.57428 96.8496 4.69341 105.804C8.163 105.835 11.6326 105.866 15.1022 105.866C15.2064 96.9588 15.1766 88.0512 15.2958 79.1436C15.2809 78.426 15.2511 77.022 15.2362 76.3044Z" fill="#787023"/>
<path d="M91.5682 79.5479C94.5911 78.7367 97.6139 77.9567 100.637 77.1611C103.362 81.9971 103.585 89.9375 109.75 91.2947C112.133 92.3087 114.843 92.8079 116.883 94.5395C119.176 98.1899 119.623 102.698 121.469 106.583C123.896 107.909 126.562 108.673 129.019 109.952C131.625 122.713 133.114 135.724 134.96 148.609C137.388 152.556 142.719 153.851 145.444 157.844C145.935 163.476 146.799 169.061 148.243 174.521C148.407 177.142 148.124 179.872 148.928 182.414C160.096 187.188 172.381 183.928 183.996 183.678C189.774 183.397 189.729 190.885 192.29 194.614C195.254 195.066 198.262 194.926 201.255 194.941C202.401 191.26 203.533 187.547 205.35 184.146C205.439 188.654 205.543 193.178 205.677 197.702C200.793 197.671 195.909 197.546 191.025 197.89C189.357 198.046 187.704 198.28 186.036 198.498C183.281 198.28 180.035 197.359 177.876 199.793C174.064 202.601 176.119 208.061 177.936 211.493C180.854 212.101 183.862 211.976 186.84 212.039C187.347 212.694 188.374 214.02 188.88 214.675C181.509 217.733 173.855 213.958 166.246 214.878C160.305 215.564 154.602 213.786 149.211 211.368C149.271 206.938 149.107 202.507 148.973 198.077C144.133 197.89 139.279 197.765 134.439 197.593C134.335 193.054 134.246 188.498 134.141 183.959C128.81 182.726 123.345 182.555 118 183.772C117.851 188.467 117.612 193.178 117.166 197.874C112.684 198.514 106.608 195.908 103.347 199.996C102.647 204.925 103.064 209.948 103.183 214.925C102.811 214.207 102.066 212.788 101.694 212.07C92.685 215.284 83.0208 211.914 73.9075 214.597C70.1104 214.925 64.1689 217.046 61.8459 212.803C66.0005 212.382 70.5869 213.396 74.4287 211.493C75.9178 207.811 76.4688 202.289 72.9545 199.668C69.4403 198.545 65.7324 198.467 62.1139 198.061C61.7268 198.03 60.9524 197.952 60.5504 197.921C61.0567 194.192 62.2479 190.355 61.5183 186.58C60.9524 184.115 58.2572 183.444 56.1575 183.46C48.6525 183.553 41.6091 179.825 34.0445 180.823C33.2106 173.663 33.6573 166.456 33.6425 159.28C35.2209 165.613 33.4638 172.883 36.7993 178.639C40.0753 179.185 43.0237 176.861 46.0615 175.925C51.0648 173.928 56.7234 173.975 61.4289 171.245C63.737 168.515 63.1265 164.474 63.5137 161.12C63.5286 148.921 64.6752 136.706 63.8115 124.538C66.9237 123.556 70.1252 122.744 73.029 121.169C76.9602 112.823 75.5753 103.042 78.5237 94.4147C81.1892 92.8859 84.1376 91.9967 86.7435 90.3743C89.0665 87.1607 90.1238 83.2139 91.5682 79.5479ZM88.2624 139.358C84.4057 139.265 79.4916 136.862 76.3348 140.201C74.2649 143.352 74.3245 147.954 75.7987 151.339C78.5982 155.816 84.2567 153.383 88.1135 152.135C88.2326 157.439 88.2922 162.774 87.7114 168.062C88.5007 169.81 88.724 172.477 90.9279 172.883C95.961 173.413 102.483 173.741 105.566 168.64L105.968 168.577C105.729 158.983 106.34 149.374 105.759 139.811C103.749 135.521 98.4627 136.816 94.7697 136.597C92.5659 136.816 88.9623 136.504 88.2624 139.358Z" fill="#FDE1AC"/>
<path d="M208.074 78.3948C216.249 74.9316 225.615 75.8364 234.058 77.8956C233.418 86.6004 233.954 95.352 233.552 104.072C232.137 99.8292 230.931 95.4456 230.961 90.906C230.559 87.084 231.274 81.78 227.298 79.752C222.518 78.972 217.544 79.1592 212.854 80.3604C209.429 84.2448 208.55 90.048 204.738 93.5424C198.439 96.678 191.143 94.0104 184.605 95.9916C179.945 99.0336 178.723 105.367 174.688 109.08C169.655 112.59 160.363 109.782 161.227 102.278C164.592 104.696 168.657 107.66 172.916 105.695C175.745 102.122 176.49 97.224 179.319 93.6516C187.107 90.3912 195.848 92.4036 204.038 91.6704C205.304 87.2868 205.334 82.014 208.074 78.3948Z" fill="#F1E973"/>
<path d="M234.061 77.8964C234.434 77.2568 235.193 76.0088 235.58 75.3848C237.546 85.3844 236.742 95.6024 236.935 105.742C240.599 105.805 244.277 105.836 247.94 106.101L249.31 108.254C248.818 108.769 247.85 109.783 247.359 110.298C242.817 109.954 238.305 109.221 233.823 108.441C233.764 107.349 233.615 105.165 233.555 104.073C233.957 95.3528 233.421 86.6012 234.061 77.8964Z" fill="#827617"/>
<path d="M4.23047 78.9084C7.92342 79.002 11.6015 79.0488 15.2944 79.1424C15.1753 88.0501 15.2051 96.9577 15.1009 105.865C11.6313 105.865 8.16167 105.834 4.69209 105.803C4.57296 96.8485 5.0048 87.8629 4.23047 78.9084Z" fill="#040600"/>
<path d="M49.0241 80.2661C51.4066 80.4689 53.8041 80.5781 56.1569 81.1085C58.6436 82.5281 58.2863 85.8665 59.0457 88.3001C55.5612 89.4077 50.8259 91.7477 48.0562 87.9257C47.8924 85.3361 48.6071 82.8089 49.0241 80.2661Z" fill="#FFFFDD"/>
<path d="M0.316052 107.769C1.37331 108.377 2.43056 108.986 3.50271 109.579L5.20028 110.296L6.03417 110.608C5.30452 114.82 4.69399 119.063 3.93455 123.275C2.41567 132.495 3.74097 141.917 3.16022 151.215L1.62645 152.432C1.26907 152.713 0.554308 153.274 0.196925 153.539C-0.115785 138.283 -0.04133 123.026 0.316052 107.769Z" fill="#EEDEA1"/>
<path d="M233.821 108.441C238.303 109.221 242.815 109.954 247.357 110.297C247.461 113.839 247.58 117.38 247.774 120.905C243.783 121.685 239.777 122.372 235.816 123.292L235.519 124.275C233.3 133.417 234.61 142.901 234.283 152.215L233.404 152.199C233.642 142.028 232.228 131.81 233.538 121.685C234.044 118.472 234.476 115.211 234.074 111.951C234 111.077 233.881 109.315 233.821 108.441Z" fill="#ECC327"/>
<path d="M6.03273 110.608C9.39808 111.341 12.8081 111.716 16.2181 112.121C17.3349 115.6 17.9901 119.36 20.06 122.386C22.8744 125.834 29.0839 122.246 31.0644 126.801C32.1365 134.32 31.0346 141.98 31.9429 149.53L32.4641 152.712C27.4757 152.634 21.8171 153.524 17.9157 149.514C18.288 141.122 18.0646 132.744 18.005 124.352C13.6271 122.854 9.0258 122.37 4.46918 123.213L3.93311 123.275C4.69254 119.063 5.30307 114.82 6.03273 110.608Z" fill="#F4C210"/>
<path d="M59.6572 163.29C62.829 148.517 58.6148 132.933 62.829 118.3C63.0821 119.86 63.5586 122.98 63.8118 124.54C64.6754 136.708 63.5288 148.923 63.5139 161.122C63.1268 164.476 63.7373 168.516 61.4292 171.246C56.7237 173.976 51.0651 173.929 46.0618 175.926C46.0916 173.305 46.1511 170.685 46.0469 168.064C50.6184 167.393 58.0192 169.468 59.6572 163.29Z" fill="#FEE481"/>
<path d="M228.55 124.462C230.203 123.541 231.871 122.605 233.539 121.685C232.228 131.809 233.643 142.027 233.405 152.198C228.491 152.136 223.532 152.479 218.797 153.961C215.655 155.396 211.321 156.286 210.309 160.295C208.507 164.304 208.016 170.56 202.699 171.028C194.361 172.182 185.888 170.84 177.534 172.104C176.968 170.092 176.447 168.064 176.119 166.004C176.298 165.49 176.67 164.444 176.849 163.93C183.654 164.647 190.623 165.739 197.413 164.351C201.732 163.664 202.163 158.438 203.578 155.038C204.62 153.212 205.678 151.387 206.735 149.562C213.883 148.751 221.358 149.11 228.103 146.208C230.843 139.328 228.848 131.638 228.55 124.462Z" fill="#F6C13A"/>
<path d="M3.16414 151.216C3.74489 141.919 2.41959 132.496 3.93847 123.277L4.47454 123.214C8.53977 123.901 12.6199 124.337 16.7298 124.634C16.5213 133.822 17.2063 143.057 16.3426 152.23C11.8009 152.792 7.21447 152.573 2.65785 152.464L1.63037 152.433L3.16414 151.216Z" fill="#070500"/>
<path d="M32.9705 185.099C36.9761 185.114 40.9818 185.145 44.9874 185.145C45.9405 189.326 45.4937 193.616 44.9725 197.813C40.9967 197.75 37.0357 197.75 33.0747 197.703C32.9853 193.507 32.9556 189.295 32.9705 185.099Z" fill="#070500"/>
<path d="M4.46904 123.213C9.02566 122.37 13.627 122.854 18.0049 124.351C18.0645 132.744 18.2878 141.121 17.9156 149.514C21.817 153.523 27.4755 152.634 32.464 152.712C32.6725 153.913 32.9107 155.099 33.1341 156.285C33.2532 157.033 33.5064 158.531 33.6404 159.28C33.6553 166.456 33.2085 173.663 34.0424 180.823L34.2211 182.056C38.5395 183.179 46.2977 179.809 47.2209 186.205C47.8166 189.653 47.6974 193.163 47.7868 196.642C52.0456 197.079 56.3044 197.515 60.5483 197.921C60.9504 197.952 61.7247 198.03 62.1119 198.061C62.3948 202.975 62.499 207.921 61.8438 212.803C61.7694 213.552 61.6056 215.065 61.5311 215.814C56.6618 216.345 51.5989 217.343 46.7891 215.923C43.4982 211.821 45.166 206.08 44.6746 201.197C40.9518 201.057 37.2142 200.963 33.4766 200.932C32.3151 199.762 31.1387 198.592 29.9772 197.422C29.9921 193.522 29.9325 189.606 29.8134 185.706C26.0013 185.644 22.1893 185.613 18.3623 185.737C17.305 184.677 16.2776 183.585 15.3096 182.446C14.2673 173.491 16.1435 164.334 14.1779 155.473C10.1872 155.099 4.76686 157.345 2.65234 152.463C7.20897 152.572 11.7954 152.79 16.3371 152.229C17.2008 143.056 16.5158 133.821 16.7243 124.632C12.6144 124.336 8.53426 123.899 4.46904 123.213ZM18.1836 154.038C18.3325 163.476 18.2283 172.914 18.2283 182.352C22.6211 182.524 27.0139 182.477 31.4216 182.259C31.3472 173.554 31.6301 164.849 31.3323 156.144C28.5626 151.963 22.3531 154.865 18.1836 154.038ZM32.9703 185.098C32.9554 189.294 32.9852 193.506 33.0745 197.703C37.0355 197.749 40.9965 197.749 44.9724 197.812C45.4936 193.615 45.9403 189.325 44.9873 185.145C40.9816 185.145 36.976 185.113 32.9703 185.098ZM48.0399 213.381C52.1349 213.349 56.2597 213.318 60.2207 212.101C59.7442 208.186 60.8908 203.709 59.1635 200.136C55.6641 198.623 51.5989 199.653 47.8761 199.278C46.6402 203.927 46.3275 208.825 48.0399 213.381Z" fill="#90938D"/>
<path d="M220.346 125.678C221.954 122.542 225.871 124.742 228.551 124.461C228.849 131.637 230.844 139.328 228.104 146.207C221.359 149.109 213.883 148.75 206.736 149.561C206.974 146.114 204.651 141.496 207.853 138.969C211.501 137.971 215.313 138.392 219.036 138.376C219.319 134.133 219.259 129.796 220.346 125.678Z" fill="#F8C204"/>
<path d="M235.518 124.275C239.554 124.337 243.604 124.369 247.654 124.447C247.803 133.853 247.595 143.26 247.506 152.667C243.113 152.339 238.69 152.308 234.282 152.215C234.61 142.901 233.3 133.417 235.518 124.275Z" fill="#090500"/>
<path d="M88.2595 139.36C88.9593 136.505 92.5629 136.817 94.7668 136.599C98.4597 136.817 103.746 135.522 105.756 139.812C106.337 149.375 105.727 158.985 105.965 168.579L105.563 168.641C99.6361 170.076 93.4862 170.264 87.7085 168.064C88.2892 162.776 88.2297 157.44 88.1106 152.136C88.0361 147.878 87.9765 143.603 88.2595 139.36ZM90.7909 140.109C91.0441 149.079 90.4782 158.08 91.1632 167.019C94.4839 168.251 100.083 169.281 102.912 166.364C103.329 157.518 102.838 148.658 103.136 139.797C100.381 139.235 97.611 138.861 94.8115 138.674C93.8138 139.032 91.7886 139.75 90.7909 140.109Z" fill="#9F9576"/>
<path d="M76.3345 140.201C79.4914 136.863 84.4054 139.265 88.2622 139.359C87.9792 143.602 88.0388 147.876 88.1133 152.135C84.2565 153.383 78.598 155.817 75.7985 151.339C74.3243 147.954 74.2647 143.352 76.3345 140.201Z" fill="#F5CB87"/>
<path d="M90.7925 140.109C91.7902 139.75 93.8153 139.032 94.813 138.674C97.6125 138.861 100.382 139.235 103.137 139.797C102.839 148.658 103.331 157.518 102.914 166.364C100.084 169.281 94.4854 168.251 91.1648 167.019C90.4798 158.08 91.0456 149.079 90.7925 140.109Z" fill="#060200"/>
<path d="M218.796 153.961C223.531 152.479 228.49 152.135 233.404 152.198L234.282 152.213C238.69 152.307 243.113 152.338 247.505 152.666L249.575 154.085C244.959 154.444 240.373 155.177 235.786 155.911C235.503 165.021 236.054 174.147 235.473 183.257C232.48 187.345 226.643 184.708 222.369 185.332C222.027 186.253 221.357 188.093 221.029 188.998C220.94 192.29 220.836 195.566 220.657 198.842C219.793 199.31 218.066 200.246 217.202 200.714C213.762 200.745 210.338 200.792 206.898 200.917C206.838 200.23 206.719 198.889 206.66 198.218C207.166 198.124 208.193 197.937 208.714 197.859C212.124 197.547 215.564 197.438 218.989 197.313C219.049 193.803 219.108 190.277 218.974 186.767C218.915 186.237 218.781 185.176 218.706 184.63C214.269 184.318 209.802 184.271 205.349 184.147C205.647 183.866 206.228 183.32 206.525 183.039C206.749 182.867 207.196 182.509 207.419 182.321C211.291 182.228 215.162 182.337 219.049 182.415C219.064 174.428 219.153 166.425 218.885 158.422C218.87 157.315 218.825 155.084 218.796 153.961ZM220.865 182.025C224.946 181.869 229.949 183.679 233.448 181.401C233.657 172.322 234.431 163.071 232.763 154.101C229.264 154.21 225.75 154.257 222.265 154.241C219.51 163.196 221.536 172.79 220.865 182.025Z" fill="#82755D"/>
<path d="M176.85 163.928C178.249 160.902 177.505 155.816 181.228 154.678C188.613 153.227 196.163 154.35 203.579 155.036C202.164 158.437 201.732 163.663 197.414 164.35C190.624 165.738 183.655 164.646 176.85 163.928Z" fill="#F9C102"/>
<path d="M210.307 160.295C211.319 156.286 215.652 155.397 218.794 153.961C218.824 155.085 218.869 157.315 218.884 158.423C213.895 160.997 215.95 167.409 215.042 172.011C215.414 177.081 210.53 179.514 207.418 182.322C207.194 182.509 206.748 182.868 206.524 183.04C206.226 183.321 205.646 183.867 205.348 184.147C203.531 187.548 202.4 191.261 201.253 194.943C198.26 194.927 195.252 195.067 192.289 194.615C189.727 190.887 189.772 183.399 183.994 183.679C172.379 183.929 160.094 187.189 148.926 182.416C148.122 179.873 148.405 177.143 148.241 174.522C150.132 174.616 152.038 174.725 153.944 174.834C152.574 173.555 151.219 172.26 149.849 170.981C158.948 172.978 168.299 173.227 177.532 172.104C185.885 170.841 194.358 172.182 202.697 171.028C208.013 170.56 208.505 164.304 210.307 160.295Z" fill="#F9CA82"/>
<path d="M220.868 182.025C221.538 172.789 219.513 163.195 222.267 154.241C225.752 154.257 229.266 154.21 232.766 154.101C234.433 163.071 233.659 172.321 233.451 181.401C229.951 183.678 224.948 181.869 220.868 182.025Z" fill="#020400"/>
<path d="M33.1353 156.286C38.9874 157.986 44.6459 161.34 46.0457 168.064C46.1499 170.685 46.0904 173.305 46.0606 175.926C43.0228 176.862 40.0744 179.187 36.7984 178.641C33.4629 172.884 35.22 165.615 33.6415 159.281C33.5075 158.532 33.2544 157.035 33.1353 156.286Z" fill="#F7CC7A"/>
<path d="M215.045 172.011C215.953 167.409 213.898 160.997 218.887 158.423C219.155 166.426 219.066 174.429 219.051 182.416C215.164 182.338 211.293 182.229 207.421 182.323C210.533 179.515 215.417 177.081 215.045 172.011Z" fill="#EAC999"/>
<path d="M87.7085 168.063C93.4862 170.262 99.6361 170.075 105.563 168.64C102.48 173.741 95.9581 173.414 90.9249 172.883C88.7211 172.478 88.4977 169.81 87.7085 168.063Z" fill="#D9CBA8"/>
<path d="M34.0459 180.824C41.6105 179.825 48.6539 183.554 56.1589 183.46C58.2586 183.445 60.9538 184.115 61.5197 186.58C62.2493 190.355 61.0581 194.193 60.5518 197.921C56.3078 197.516 52.049 197.079 47.7902 196.642C47.7009 193.163 47.82 189.653 47.2244 186.206C46.3011 179.81 38.543 183.179 34.2246 182.056L34.0459 180.824Z" fill="#F6CC8C"/>
<path d="M118.002 183.774C123.347 182.557 128.812 182.728 134.143 183.961C134.248 188.5 134.337 193.056 134.441 197.595C139.281 197.767 144.135 197.892 148.975 198.079C149.109 202.509 149.273 206.94 149.213 211.37L149.109 213.195C148.692 213.616 147.858 214.474 147.441 214.896C132.714 215.41 117.927 215.254 103.185 214.927C103.066 209.95 102.649 204.927 103.349 199.998C106.61 195.91 112.686 198.516 117.168 197.876C117.614 193.18 117.853 188.469 118.002 183.774ZM120.756 197.736C119.803 198.734 118.85 199.732 117.912 200.746C114.651 200.824 111.39 200.746 108.159 201.183C104.362 203.196 106.431 208.375 105.776 211.9C119.208 212.01 132.654 212.384 146.071 211.698C146.175 207.969 146.175 204.194 144.731 200.731C139.936 201.23 134.724 201.604 131.091 197.658C131.165 194.116 131.18 190.575 131.195 187.034C128.47 186.488 125.775 185.833 123.02 185.552C119.327 188.282 121.337 193.711 120.756 197.736Z" fill="#676147"/>
<path d="M205.349 184.147C209.802 184.272 214.269 184.319 218.706 184.631C218.781 185.177 218.915 186.238 218.974 186.768C215.266 186.784 211.529 186.643 207.881 187.454C206.064 190.684 208.268 194.49 208.714 197.86C208.193 197.938 207.166 198.125 206.66 198.218L205.677 198.452V197.704C205.543 193.18 205.438 188.656 205.349 184.147Z" fill="#533E22"/>
<path d="M207.881 187.455C211.529 186.644 215.267 186.784 218.975 186.768C219.109 190.278 219.049 193.804 218.99 197.314C215.565 197.439 212.125 197.548 208.715 197.86C208.268 194.49 206.064 190.684 207.881 187.455Z" fill="#040000"/>
<path d="M177.879 199.793C180.038 197.36 183.284 198.28 186.039 198.499C187.707 198.28 189.36 198.046 191.027 197.89C190.729 202.82 190.506 207.749 190.715 212.679C190.253 213.178 189.345 214.177 188.883 214.676C188.377 214.021 187.349 212.695 186.843 212.039C183.865 211.977 180.857 212.102 177.938 211.493C176.121 208.061 174.067 202.601 177.879 199.793Z" fill="#EDCB8C"/>
<path d="M191.025 197.89C195.909 197.547 200.793 197.671 205.678 197.703V198.451C205.633 201.727 205.529 205.019 205.216 208.279C204.963 205.846 204.576 203.428 204.233 201.01C200.377 201.01 196.535 201.025 192.693 201.041C192.648 205.019 192.633 208.981 192.633 212.959L190.712 212.679C190.504 207.749 190.727 202.819 191.025 197.89Z" fill="#695532"/>
<path d="M62.1152 198.062C65.7337 198.467 69.4416 198.545 72.9558 199.669C76.4701 202.289 75.9191 207.812 74.43 211.493C70.5881 213.397 66.0017 212.383 61.8472 212.804C62.5024 207.921 62.3981 202.976 62.1152 198.062Z" fill="#F3CE8E"/>
<path d="M205.678 198.452L206.661 198.218C206.72 198.889 206.839 200.23 206.899 200.917C207.495 206.127 207.524 211.494 205.812 216.501C200.183 216.174 193.944 218.046 188.881 214.676C189.342 214.177 190.251 213.178 190.712 212.679L192.633 212.96C196.594 213.288 200.585 213.303 204.561 213.397C204.814 211.696 205.038 209.996 205.216 208.28C205.529 205.02 205.633 201.728 205.678 198.452Z" fill="#979793"/>
<path d="M48.0403 213.381C46.3278 208.826 46.6406 203.927 47.8765 199.278C51.5992 199.653 55.6645 198.623 59.1638 200.136C60.8912 203.709 59.7446 208.186 60.2211 212.102C56.2601 213.318 52.1353 213.35 48.0403 213.381Z" fill="#070503"/>
<path d="M192.693 201.041C196.535 201.026 200.377 201.01 204.233 201.01C204.576 203.428 204.963 205.846 205.216 208.28C205.037 209.996 204.814 211.696 204.561 213.397C200.585 213.303 196.594 213.287 192.633 212.96C192.633 208.982 192.648 205.019 192.693 201.041Z" fill="#050100"/>
</svg>
