<svg width="292" height="225" viewBox="0 0 292 225" fill="none" xmlns="http://www.w3.org/2000/svg">
<path d="M81.1894 5.27981C82.5841 3.48666 84.0285 1.73088 85.5228 0C124.088 0.099619 162.665 0.0498098 201.23 0.0124527C203.521 0.0622622 206.248 0.199238 207.78 2.17917C208.652 6.3009 207.979 10.6094 209.1 14.7063C212.786 14.6066 216.472 14.6689 220.17 14.7561C223.034 18.8155 220.805 24.0455 222.997 28.3292C227.119 28.1424 231.24 28.2669 235.35 28.7027C235.736 33.1607 235.026 37.8428 236.782 42.0766C239.932 42.1139 243.095 42.1637 246.245 42.1762C246.955 42.612 248.362 43.4961 249.06 43.932C249.234 52.0509 249.222 60.1823 249.109 68.3013C253.007 69.808 257.216 69.5216 261.3 69.6088C262.209 70.5302 263.118 71.4393 264.027 72.3483C264.003 75.6357 263.99 78.9356 263.965 82.223C267.713 82.3849 271.735 81.9242 275.197 83.68C278.808 86.6436 277.277 91.8736 277.588 95.9082C282.133 95.8335 286.678 96.3316 291.086 97.4523C291.609 117.799 291.099 138.172 291.348 158.519C291.286 161.644 291.821 165.629 288.72 167.559C285.072 168.219 281.336 167.92 277.65 167.995C277.563 171.955 277.501 175.915 277.488 179.887C273.342 182.079 268.61 181.717 264.077 181.717C263.878 189.6 263.928 197.482 263.965 205.377C262.757 206.597 261.562 207.818 260.354 209.038C256.456 209.063 252.31 208.403 248.786 210.495C249.022 212.487 249.371 214.492 250.031 216.397C249.271 217.929 248.499 219.448 247.74 220.98L246.781 219.672C246.594 215.899 246.768 212.114 246.843 208.328C247.466 207.892 248.711 207.033 249.334 206.597C252.995 206.585 256.656 206.585 260.317 206.548C260.491 197.906 260.379 189.264 260.454 180.622C264.824 179.327 269.394 179.115 273.927 179.19C273.964 175.367 273.989 171.544 274.014 167.721C274.873 166.986 275.733 166.239 276.592 165.504C280.265 165.467 283.926 165.442 287.6 165.392C287.911 143.414 287.787 121.436 287.65 99.4696C283.478 99.3949 279.306 99.3699 275.135 99.3326C275.197 111.748 275.122 124.15 275.185 136.553C274.487 137.462 273.803 138.371 273.118 139.28C269.27 139.28 265.435 139.305 261.587 139.367C261.512 143.974 262.06 148.756 260.354 153.164C256.332 153.052 252.322 153.04 248.313 153.065C249.408 148.881 248.674 144.597 247.491 140.525C243.444 140.425 239.397 140.388 235.35 140.401C235.063 147.299 235.013 154.198 235.387 161.084C235.624 163.139 234.702 165.031 234.079 166.937C232.174 158.581 233.556 149.939 233.183 141.447C229.659 141.459 226.147 141.496 222.623 141.534C222.574 150.325 223.557 159.253 221.59 167.92C216.708 168.144 211.84 168.132 206.958 167.983C205.825 165.853 204.393 163.699 204.505 161.171C204.219 150.188 205.315 139.056 202.961 128.21C199.113 127.861 194.195 129.368 191.206 126.192C188.628 120.763 189.263 114.4 192.576 109.444C197.743 109.768 202.973 109.469 208.067 110.54C208.353 114.774 208.515 119.02 208.602 123.279C217.194 123.839 225.923 122.432 234.416 124.175C234.391 124.872 234.353 126.255 234.329 126.952C225.5 126.653 216.659 126.927 207.817 126.703C207.805 139.653 207.705 152.604 207.992 165.542C211.653 165.542 215.326 165.529 218.987 165.529C219.311 164.757 219.959 163.201 220.282 162.429C220.357 154.721 220.183 147.025 220.394 139.317C224.553 139.105 228.688 138.545 232.809 137.985C233.121 137.574 233.768 136.764 234.092 136.366L235.2 135.32C236.059 136.353 237.753 138.421 238.6 139.454C241.7 139.305 244.789 138.819 247.777 137.96C247.814 133.925 247.939 129.903 248.126 125.893C252.21 125.757 256.294 125.694 260.379 125.732C262.62 119.07 261.4 111.947 261.649 105.061C261.923 102.122 260.242 99.6688 258.847 97.253C255.199 97.2281 251.55 97.1534 247.902 97.0663C247.914 92.4215 248.711 87.1791 245.137 83.5181C241.875 83.543 238.6 83.5056 235.337 83.4683C235.449 79.1099 234.914 74.7391 232.909 70.8167C229.186 70.4804 224.915 71.5389 221.577 69.7457C219.734 65.9478 220.843 61.2781 220.494 57.119C216.385 57.0443 212.263 56.9945 208.154 56.9945C207.22 52.5366 206.734 48.0039 206.51 43.4588C202.413 43.4463 198.329 43.4339 194.232 43.4588C192.414 35.2153 193.572 26.7477 193.273 18.3922C192.638 18.3673 191.368 18.3423 190.733 18.3299C160 18.2054 129.256 17.9314 98.5355 18.442C98.2242 18.4793 97.5892 18.5416 97.2778 18.5789C96.8545 26.3119 97.7012 34.0821 97.0163 41.7902C93.6542 45.0153 88.0133 42.8984 83.6799 43.5584C83.5553 47.6926 83.4806 51.8392 83.4931 55.9734C79.0476 56.9696 74.5025 57.2187 69.9698 57.2187C69.9076 61.4027 69.8826 65.5867 69.92 69.7707C66.3213 70.7046 62.5856 70.3808 58.9246 70.7295C54.89 73.5935 56.2224 78.973 56.0232 83.1819C52.6859 84.1905 49.2117 84.2901 45.8496 83.3437C42.2758 86.8927 42.1886 91.7989 42.0516 96.4934C39.1129 97.6391 35.8628 97.1285 32.7746 97.2281C32.3761 97.7262 31.5667 98.7473 31.1683 99.2454C30.3464 100.279 29.5121 101.325 28.6902 102.359C28.8148 109.158 28.7899 115.957 28.7276 122.768C29.5993 123.727 30.4834 124.686 31.355 125.632C34.9787 125.607 38.6023 125.62 42.226 125.632C43.3716 128.695 43.9319 131.933 43.4089 135.195C42.9606 137.15 42.4127 139.068 41.9022 141.011C40.8936 144.983 40.1962 149.018 39.8351 153.102C36.1617 153.04 32.4882 152.977 28.8148 152.89C28.4536 148.644 29.5744 143.862 27.9929 139.977C24.444 138.47 19.986 139.566 16.076 139.255C16.213 138.67 16.4869 137.474 16.6239 136.876L15.0051 136.777C15.1794 124.76 15.1794 112.731 15.0051 100.702C15.5405 100.067 16.599 98.7722 17.122 98.1372C20.123 98.1745 23.124 98.1994 26.1251 98.2243C26.7726 97.8009 28.0925 96.9293 28.7525 96.5059C28.74 92.4464 28.7276 88.3994 28.7401 84.3524C24.6183 84.9501 20.4966 85.5478 16.3499 85.9338C16.1258 90.1925 16.9726 94.7501 15.827 98.7971C11.8422 100.217 6.91106 99.0586 2.54028 99.4571C2.46557 121.423 2.32859 143.389 2.62745 165.355C6.20127 165.43 9.78756 165.455 13.3738 165.442C14.0961 165.891 15.5405 166.787 16.2628 167.235C16.7733 171.071 15.0425 175.865 17.5827 179.015C21.7169 179.389 25.9258 179.302 29.923 180.609C30.0475 189.214 29.9106 197.818 30.0475 206.423C34.8666 206.523 39.6857 206.61 44.4923 206.934C44.5794 211.342 44.6417 215.737 44.7787 220.146C53.1093 219.635 61.6641 221.279 69.7955 218.95C69.7457 215.127 69.7706 211.317 69.8453 207.494L71.3396 207.594C72.4603 211.715 71.7007 215.986 71.3894 220.158C71.352 220.444 71.3022 221.042 71.2773 221.328C64.6278 223.794 57.4178 222.101 50.5192 222.636C47.1073 223.022 43.8448 222.2 41.0554 220.195C41.1177 216.397 41.3294 212.5 39.8476 208.913C35.6636 209.063 31.243 209.573 27.3578 207.594C26.9096 198.989 27.4326 190.372 26.9843 181.767C22.5637 181.581 17.894 182.24 13.7723 180.236C13.6851 176.176 13.5855 172.117 13.5357 168.057C9.09023 167.671 4.24625 168.817 0.174332 166.501C-0.136977 145.17 0.199238 123.826 0 102.495C0.149428 100.503 -0.298856 97.4274 2.29123 96.8421C5.96468 95.7837 9.83736 96.0327 13.6104 95.7712C13.5482 91.7117 13.6353 87.6647 13.9217 83.6301C18.1929 82.7958 22.5139 82.1732 26.8722 82.2604C27.0963 78.1013 27.2707 73.9422 27.6193 69.7831C31.7037 69.4842 35.8005 69.3473 39.8974 69.5465C42.4003 61.5396 39.9721 52.8852 41.2547 44.6418C43.9568 40.5325 49.5853 42.5622 53.6572 42.1139C53.7568 38.7393 53.8067 35.3523 53.8191 31.9777C55.3383 30.471 56.8699 28.9518 58.3891 27.4326C61.415 27.3952 64.4285 27.3579 67.4544 27.333C67.5042 24.6308 67.3548 21.9037 67.7782 19.214C68.7246 17.0722 70.5302 15.4783 72.012 13.7225C75.0877 13.735 78.1635 13.7101 81.2267 13.6852C81.2392 10.8834 81.2392 8.08159 81.1894 5.27981ZM84.7632 3.63609C84.6138 7.83254 84.6262 12.0165 84.6262 16.213C125.034 15.7896 165.442 15.8643 205.85 16.1756C205.788 15.2417 205.651 13.3614 205.588 12.4275L206.784 12.2656C206.659 9.33928 206.622 6.36316 205.464 3.61119C165.23 3.59874 124.997 3.57383 84.7632 3.63609ZM71.1901 17.396C71.0656 21.1068 71.0532 24.8176 71.215 28.5284L68.4133 29.4623C73.1452 29.811 77.902 29.8359 82.6463 29.8359L81.9365 28.2046L83.6052 28.8272C83.5678 24.9546 83.5553 21.0943 83.6052 17.2216C79.4585 17.2839 75.3243 17.2839 71.1901 17.396ZM206.771 17.2216C206.896 21.057 206.896 24.8923 206.796 28.7276L208.403 28.1797L207.693 29.8483C211.927 29.7861 216.161 29.7612 220.394 29.7861C220.245 25.627 220.183 21.443 219.261 17.3711C215.09 17.3213 210.931 17.2963 206.771 17.2216ZM57.4303 31.0064C57.3929 35.178 57.4054 39.3495 57.3182 43.5335C61.5147 43.4961 65.7111 43.4837 69.9076 43.4588C69.9574 39.2499 69.9947 35.0285 70.0321 30.8196C65.8356 30.8445 61.6267 30.857 57.4303 31.0064ZM220.407 30.8445C220.494 34.7172 220.494 38.5899 220.382 42.4626L221.901 42.0143L221.415 43.5958C225.4 43.5086 229.397 43.4961 233.395 43.5211C233.32 43.0354 233.17 42.0641 233.096 41.5785C234.665 38.1665 233.967 34.2689 232.996 30.7823C228.8 30.8819 224.603 30.8819 220.407 30.8445ZM44.7662 44.5172C44.4674 53.3086 44.6168 62.1124 44.6666 70.9038C48.477 70.8291 52.2999 70.7917 56.1103 70.6672C56.4092 61.963 56.1352 53.2588 56.2722 44.567C52.4369 44.6044 48.6016 44.5795 44.7662 44.5172ZM234.117 44.567C234.241 52.935 234.216 61.3155 234.129 69.6835L235.599 69.3846L235.287 70.8416C239.11 70.7917 242.933 70.8042 246.768 70.8914C246.681 62.1373 246.893 53.3833 246.644 44.6418C242.46 44.592 238.288 44.6044 234.117 44.567ZM30.0475 72.0868C29.9853 76.2334 29.9728 80.3801 29.8857 84.5267C33.2727 84.3773 36.6722 84.3773 40.0592 84.5516L39.8974 83.2192C40.6445 83.2441 42.1512 83.3064 42.8984 83.3313C42.6742 82.6713 42.2509 81.3514 42.0392 80.6789L43.6206 81.0525C43.6331 79.6827 43.6455 76.9183 43.658 75.5486L42.2758 76.0342C42.3754 75.0131 42.5871 72.9709 42.6867 71.9498C38.4778 71.9374 34.2564 71.9125 30.0475 72.0868ZM247.765 71.9C247.814 75.7478 247.802 79.5956 247.777 83.4309L249.321 83.0075L248.973 84.4769C252.783 84.3897 256.593 84.3773 260.404 84.5018C260.416 80.3178 260.416 76.1338 260.304 71.9623C256.12 71.9249 251.936 71.9374 247.765 71.9ZM265.41 85.8218C264.438 85.7471 262.471 85.5976 261.5 85.5105C261.549 89.296 261.549 93.0939 261.5 96.8795C265.435 98.7971 269.868 98.1123 274.089 98.2741C273.977 94.0528 273.977 89.8439 273.915 85.635C273.006 85.6474 271.188 85.6972 270.279 85.7097L270.328 84.6139C269.033 84.6014 266.443 84.589 265.148 84.5765L265.41 85.8218ZM195.901 113.454L194.195 112.906C194.145 116.803 194.145 120.688 194.182 124.586L195.901 124.075L195.29 125.557C197.544 125.557 199.798 125.57 202.064 125.62L201.604 124.349C203.31 124.399 205.016 124.461 206.722 124.511C206.622 121.162 206.622 117.824 206.722 114.475L205.377 114.412L205.738 112.868C204.704 112.968 202.637 113.155 201.604 113.254L202.052 111.934C199.798 111.972 197.544 111.984 195.303 111.984L195.901 113.454Z" fill="#B2AF8E"/>
<path d="M84.2378 109.943C88.3844 109.383 92.6058 109.731 96.7773 109.644C97.649 110.827 98.5082 112.023 99.3425 113.23L99.5791 114.936C98.9565 114.588 97.6988 113.903 97.0762 113.554C93.2906 111.525 88.9448 112.122 84.8355 112.048C84.5989 116.232 84.574 120.428 84.6736 124.612C84.0634 125.372 83.4657 126.131 82.868 126.891C74.3755 126.704 65.8705 126.779 57.378 126.853C57.3407 130.913 57.4029 134.96 57.5773 139.019C61.7364 139.019 65.8955 139.044 70.0421 139.131C70.067 143.477 70.2413 147.836 70.8266 152.144C70.9636 155.992 71.0507 159.84 71.1379 163.687C71.499 164.46 72.2213 165.991 72.5824 166.763C71.4617 166.863 69.2202 167.062 68.0995 167.162C66.7796 158.607 67.7135 149.94 67.4893 141.323C63.9653 141.472 60.4538 141.734 56.9422 141.883C56.3071 141.522 55.0121 140.788 54.377 140.426C54.0906 138.945 53.854 137.463 53.6797 135.981C53.9536 131.772 52.8703 124.836 58.2497 123.541C66.1819 122.881 74.1638 123.803 82.096 123.03C82.5318 118.747 80.6639 113.193 84.2378 109.943Z" fill="#B2AF8E"/>
<path d="M111.003 136.851C115.499 136.627 120.019 136.59 124.514 136.789C126.071 138.781 127.652 140.936 127.254 143.625C127.005 151.134 127.764 158.743 126.743 166.202C123.642 169.128 118.973 168.007 115.113 168.157C113.207 167.97 109.945 168.331 109.746 165.654C109.297 157.908 108.04 150.163 108.426 142.38C108.413 140.238 110.007 138.62 111.003 136.851ZM111.003 140.55C111.028 148.009 111.203 155.468 111.028 162.927L112.448 163.088C112.286 163.674 111.962 164.844 111.8 165.442C115.773 165.529 119.732 165.554 123.705 165.542C123.568 164.919 123.294 163.674 123.157 163.051L124.527 162.989C124.352 155.517 124.452 148.033 124.439 140.562C119.969 140.263 115.474 140.288 111.003 140.55Z" fill="#B2AF8E"/>
<path d="M164.806 137.025C169.862 136.764 175.055 136.091 180.036 137.324C182.29 139.155 181.978 142.268 182.041 144.858C181.891 152.08 181.455 159.303 181.642 166.525C176.026 168.966 169.04 168.941 163.449 166.425C164.072 156.65 161.88 146.514 164.806 137.025ZM166.874 140.263C166.849 148.668 166.687 157.074 166.961 165.479C171.058 165.579 175.167 165.554 179.264 165.342C179.363 157.074 179.301 148.793 179.45 140.524C178.467 140.537 176.499 140.574 175.516 140.599L175.852 139.366C173.635 139.379 171.419 139.379 169.202 139.354L169.426 140.774C168.791 140.649 167.509 140.388 166.874 140.263Z" fill="#B2AF8E"/>
<path d="M137.297 193.135C142.415 190.184 148.853 191.778 154.282 193.098C154.532 196.609 154.718 200.146 154.656 203.67C154.644 204.542 154.594 206.26 154.581 207.132C149.75 209.211 144.345 209.498 139.215 208.564C137.434 208.352 136.662 206.596 136.276 205.065C136.214 201.092 135.878 196.921 137.297 193.135ZM139.8 196.585L138.381 196.423C138.381 198.602 138.368 200.781 138.343 202.96L139.539 202.699C139.489 203.657 139.389 205.563 139.34 206.522C143.162 206.596 146.998 206.609 150.833 206.559C150.958 202.412 150.933 198.278 150.783 194.144C146.923 194.082 143.063 194.094 139.215 194.194C139.352 194.791 139.651 195.987 139.8 196.585Z" fill="#B2AF8E"/>
<path d="M84.7666 3.63862C125 3.57635 165.234 3.60126 205.467 3.61371C206.625 6.36568 206.663 9.3418 206.787 12.2681L205.592 12.43C205.654 13.3639 205.791 15.2442 205.853 16.1781C165.445 15.8668 125.038 15.7921 84.6296 16.2155C84.6296 12.0191 84.6172 7.83506 84.7666 3.63862Z" fill="#010201"/>
<path d="M71.1875 17.3955C75.3217 17.2835 79.4559 17.2835 83.6025 17.2212C83.5527 21.0939 83.5652 24.9541 83.6025 28.8268L81.9339 28.2042L82.6437 29.8354C77.8993 29.8354 73.1425 29.8105 68.4106 29.4619L71.2124 28.5279C71.0505 24.8171 71.063 21.1063 71.1875 17.3955Z" fill="#010201"/>
<path d="M206.773 17.2212C210.933 17.2959 215.092 17.3208 219.263 17.3706C220.185 21.4425 220.247 25.6265 220.396 29.7856C216.162 29.7607 211.929 29.7856 207.695 29.8479L208.405 28.1793L206.798 28.7272C206.898 24.8919 206.898 21.0565 206.773 17.2212Z" fill="#010201"/>
<path d="M57.427 31.0071C61.6235 30.8577 65.8324 30.8452 70.0288 30.8203C69.9915 35.0292 69.9541 39.2506 69.9043 43.4595C65.7078 43.4844 61.5114 43.4968 57.3149 43.5342C57.4021 39.3502 57.3897 35.1786 57.427 31.0071Z" fill="#010201"/>
<path d="M220.41 30.8462C224.606 30.8836 228.803 30.8836 232.999 30.7839C233.97 34.2706 234.668 38.1682 233.099 41.5801C233.173 42.0658 233.323 43.0371 233.397 43.5227C229.4 43.4978 225.403 43.5103 221.418 43.5974L221.904 42.016L220.385 42.4643C220.497 38.5916 220.497 34.7189 220.41 30.8462Z" fill="#010201"/>
<path d="M44.7642 44.5188C48.5995 44.5811 52.4349 44.606 56.2702 44.5686C56.1332 53.2604 56.4072 61.9646 56.1083 70.6688C52.2979 70.7933 48.475 70.8307 44.6646 70.9054C44.6148 62.114 44.4654 53.3102 44.7642 44.5188Z" fill="#010201"/>
<path d="M234.12 44.5688C238.291 44.6062 242.463 44.5938 246.647 44.6436C246.896 53.3851 246.684 62.1391 246.771 70.8931C242.936 70.806 239.113 70.7935 235.29 70.8433L235.601 69.3864L234.132 69.6853C234.219 61.3173 234.244 52.9368 234.12 44.5688Z" fill="#010201"/>
<path d="M30.0481 72.085C34.257 71.9107 38.4784 71.9356 42.6873 71.9481C42.5876 72.9692 42.376 75.0114 42.2763 76.0324L43.6585 75.5468C43.6461 76.9166 43.6336 79.681 43.6212 81.0508L42.0397 80.6772C42.2514 81.3496 42.6748 82.6696 42.8989 83.3295C42.1518 83.3046 40.6451 83.2424 39.8979 83.2175L40.0598 84.5499C36.6728 84.3755 33.2733 84.3755 29.8862 84.525C29.9734 80.3783 29.9859 76.2317 30.0481 72.085Z" fill="#010201"/>
<path d="M247.768 71.8994C251.94 71.9368 256.124 71.9243 260.308 71.9617C260.42 76.1332 260.42 80.3172 260.407 84.5012C256.597 84.3767 252.786 84.3891 248.976 84.4763L249.325 83.0069L247.781 83.4303C247.805 79.595 247.818 75.7472 247.768 71.8994Z" fill="#010201"/>
<path d="M16.3531 85.932C20.4997 85.546 24.6214 84.9483 28.7432 84.3506C28.7307 88.3976 28.7432 92.4446 28.7556 96.5041C28.0956 96.9275 26.7757 97.7991 26.1282 98.2225C23.1271 98.1976 20.1261 98.1727 17.1251 98.1353C16.6021 98.7704 15.5437 100.065 15.0082 100.701C15.1825 112.73 15.1825 124.758 15.0082 136.775L16.627 136.875C16.49 137.472 16.2161 138.668 16.0791 139.253C19.9892 139.564 24.4471 138.469 27.996 139.975C29.5775 143.86 28.4568 148.642 28.8179 152.888C32.4913 152.976 36.1648 153.038 39.8382 153.1C40.4857 153.113 41.7559 153.125 42.4034 153.137C42.503 157.16 42.5653 161.194 42.5653 165.229C46.8987 166.636 51.4563 166.835 55.9889 166.86C56.0387 171.405 55.6527 176.087 57.3587 180.408C61.6548 180.296 65.9633 180.321 70.2718 180.433C70.0601 181.043 69.6492 182.263 69.4375 182.874L70.9691 182.687C70.9069 186.223 70.9318 189.785 70.994 193.334C71.6415 193.134 72.9366 192.748 73.5717 192.549L73.36 193.994C76.7719 193.931 80.1839 193.944 83.6083 193.994C83.6456 198.302 83.6456 202.611 83.5709 206.919C82.2883 206.745 81.0057 206.571 79.7231 206.396L79.9224 207.704C77.0583 207.641 74.1943 207.679 71.3427 207.592L69.8484 207.492C69.7737 211.315 69.7488 215.125 69.7986 218.948C61.6672 221.277 53.1124 219.633 44.7818 220.144C44.6448 215.735 44.5826 211.34 44.4954 206.932C39.6888 206.608 34.8697 206.521 30.0507 206.421C29.9137 197.816 30.0507 189.212 29.9261 180.607C25.9289 179.3 21.72 179.387 17.5859 179.013C15.0456 175.863 16.7764 171.069 16.2659 167.233C15.5437 166.785 14.0992 165.889 13.377 165.44C9.79067 165.453 6.20439 165.428 2.63057 165.353C2.33171 143.387 2.46869 121.421 2.5434 99.4553C6.91418 99.0568 11.8453 100.215 15.8301 98.7953C16.9757 94.7483 16.1289 90.1907 16.3531 85.932Z" fill="#010201"/>
<path d="M265.414 85.8207L265.152 84.5754C266.447 84.5879 269.038 84.6003 270.333 84.6128L270.283 85.7086C271.192 85.6961 273.01 85.6463 273.919 85.6339C273.981 89.8428 273.981 94.0517 274.093 98.273C269.872 98.1112 265.439 98.796 261.504 96.8784C261.554 93.0929 261.554 89.2949 261.504 85.5094C262.475 85.5965 264.443 85.746 265.414 85.8207Z" fill="#010201"/>
<path d="M275.139 99.334C279.311 99.3713 283.482 99.3962 287.654 99.471C287.791 121.437 287.915 143.415 287.604 165.394C283.93 165.444 280.269 165.468 276.596 165.506C275.737 166.241 274.878 166.988 274.018 167.722C273.993 171.545 273.968 175.368 273.931 179.191C269.398 179.116 264.828 179.328 260.458 180.623C260.383 189.265 260.495 197.907 260.321 206.549C256.66 206.586 252.999 206.586 249.338 206.599C248.715 207.034 247.47 207.894 246.847 208.33C246.773 212.115 246.598 215.901 246.785 219.674L247.744 220.981C247.868 221.143 248.105 221.454 248.229 221.604C247.358 220.707 246.312 220.296 245.104 220.334C236.923 220.259 228.729 220.483 220.548 220.234C220.51 216.062 220.486 211.891 220.448 207.719C215.953 207.607 211.47 207.483 206.975 207.67C206.8 203.199 206.788 198.729 206.825 194.258C211.296 193.312 215.841 192.839 220.411 192.851C220.411 188.705 220.423 184.546 220.473 180.399C224.707 180.324 228.953 180.312 233.199 180.386L232.614 178.88L234.171 179.365C234.183 175.231 234.183 171.097 234.084 166.963C238.23 166.627 242.389 166.564 246.536 166.664C248.18 162.293 247.644 157.599 248.317 153.066C252.326 153.041 256.336 153.053 260.358 153.166C262.064 148.757 261.516 143.976 261.591 139.368C265.439 139.306 269.274 139.281 273.122 139.281C273.807 138.372 274.491 137.463 275.189 136.554C275.127 124.152 275.201 111.749 275.139 99.334Z" fill="#010201"/>
<path d="M84.6787 124.612C84.579 120.428 84.6039 116.232 84.8405 112.048C88.9498 112.123 93.2957 111.525 97.0812 113.555C97.1684 117.154 97.1559 120.752 97.131 124.351C92.9844 124.438 88.8253 124.488 84.6787 124.612Z" fill="#010201"/>
<path d="M195.903 113.453L195.305 111.983C197.546 111.983 199.8 111.971 202.054 111.934L201.606 113.254C202.639 113.154 204.707 112.967 205.74 112.868L205.379 114.412L206.724 114.474C206.624 117.824 206.624 121.161 206.724 124.51C205.018 124.461 203.312 124.398 201.606 124.349L202.067 125.619C199.8 125.569 197.546 125.556 195.293 125.556L195.903 124.075L194.184 124.585C194.147 120.688 194.147 116.802 194.197 112.905L195.903 113.453Z" fill="#010201"/>
<path d="M207.822 126.701C216.663 126.926 225.505 126.652 234.333 126.95C234.184 130.088 234.246 133.226 234.097 136.364C233.773 136.763 233.125 137.572 232.814 137.983C228.692 138.544 224.558 139.104 220.399 139.316C220.187 147.024 220.362 154.719 220.287 162.427C219.963 163.199 219.316 164.756 218.992 165.528C215.331 165.528 211.658 165.54 207.997 165.54C207.71 152.602 207.81 139.652 207.822 126.701Z" fill="#010201"/>
<path d="M57.5817 139.018C57.4074 134.958 57.3451 130.911 57.3825 126.852C65.875 126.777 74.38 126.702 82.8725 126.889L83.4702 126.902C82.8351 140.126 84.6532 153.55 82.225 166.637C79.0123 166.525 75.7995 166.562 72.5868 166.762C72.2257 165.99 71.5035 164.458 71.1424 163.686C71.0552 159.838 70.968 155.99 70.831 152.143C70.2458 147.834 70.0715 143.476 70.0466 139.13C65.8999 139.043 61.7408 139.018 57.5817 139.018Z" fill="#010201"/>
<path d="M166.878 140.264C167.513 140.388 168.795 140.65 169.43 140.774L169.206 139.355C171.423 139.38 173.639 139.38 175.856 139.367L175.52 140.6C176.503 140.575 178.471 140.538 179.455 140.525C179.305 148.794 179.367 157.074 179.268 165.343C175.171 165.555 171.062 165.579 166.965 165.48C166.691 157.074 166.853 148.669 166.878 140.264Z" fill="#010201"/>
<path d="M111.004 140.55C115.474 140.289 119.97 140.264 124.44 140.563C124.452 148.034 124.353 155.518 124.527 162.989L123.157 163.052C123.294 163.674 123.568 164.919 123.705 165.542C119.733 165.554 115.773 165.53 111.801 165.442C111.963 164.845 112.286 163.674 112.448 163.089L111.029 162.927C111.203 155.468 111.029 148.009 111.004 140.55Z" fill="#010201"/>
<path d="M139.805 196.585C139.655 195.987 139.356 194.792 139.219 194.194C143.067 194.094 146.927 194.082 150.788 194.144C150.937 198.278 150.962 202.413 150.837 206.559C147.002 206.609 143.167 206.597 139.344 206.522C139.394 205.563 139.493 203.658 139.543 202.699L138.348 202.961C138.373 200.781 138.385 198.602 138.385 196.423L139.805 196.585Z" fill="#010201"/>
<path d="M97.2746 18.5777C97.586 18.5403 98.221 18.478 98.5323 18.4407C97.6109 27.0826 100.425 35.8366 98.221 44.3292C93.8752 44.5533 89.5417 44.8148 85.1959 45.0887C84.9219 49.2105 84.7102 53.3447 84.5608 57.4664C80.2398 58.0517 75.8815 58.3754 71.5232 58.5498C71.3488 62.8832 71.1122 67.229 70.8258 71.5625C66.6667 72.1726 62.5076 72.8202 58.3486 73.4677C58.3112 77.0913 58.2738 80.715 58.2738 84.3386C53.9404 85.3846 49.5198 85.8702 45.0743 86.0695C44.6759 90.1912 45.3483 94.6118 43.9038 98.5343C40.7285 102.345 35.2121 99.5554 31.165 99.2441C31.5635 98.746 32.3729 97.7249 32.7714 97.2268C35.8596 97.1272 39.1096 97.6377 42.0484 96.4921C42.1854 91.7976 42.2726 86.8913 45.8464 83.3424C49.2085 84.2888 52.6827 84.1892 56.02 83.1805C56.2192 78.9716 54.8868 73.5922 58.9214 70.7282C62.5824 70.3795 66.3181 70.7033 69.9168 69.7693C69.8794 65.5853 69.9043 61.4013 69.9666 57.2174C74.4993 57.2174 79.0444 56.9683 83.4899 55.9721C83.4774 51.8379 83.5521 47.6913 83.6767 43.5571C88.0101 42.8971 93.651 45.014 97.0131 41.7889C97.698 34.0808 96.8513 26.3106 97.2746 18.5777Z" fill="#FAE0AB"/>
<path d="M190.734 18.3281C191.369 18.3406 192.639 18.3655 193.274 18.3904C193.573 26.7459 192.415 35.2135 194.233 43.457C198.33 43.4321 202.414 43.4445 206.511 43.457C206.735 48.0021 207.221 52.5348 208.155 56.9927C212.264 56.9927 216.386 57.0425 220.495 57.1172C220.844 61.2763 219.735 65.946 221.578 69.7439C224.916 71.5371 229.187 70.4786 232.91 70.8149C234.915 74.7373 235.45 79.1081 235.338 83.4665C238.601 83.5038 241.876 83.5412 245.138 83.5163C248.712 87.1773 247.915 92.4197 247.903 97.0644C251.551 97.1516 255.2 97.2263 258.848 97.2512C260.243 99.667 261.924 102.12 261.65 105.059C261.401 111.945 262.621 119.068 260.38 125.73C256.296 125.692 252.211 125.755 248.127 125.892C247.94 129.901 247.816 133.923 247.778 137.958C244.79 138.817 241.701 139.303 238.601 139.452C237.754 138.419 236.061 136.352 235.201 135.318C238.713 135.331 242.224 135.605 245.736 135.741C246.346 132.093 246.794 128.419 247.093 124.746C251.414 123.949 255.773 123.339 260.156 122.891C260.343 115.581 260.355 108.259 260.156 100.95C255.76 100.153 251.34 99.5051 246.894 98.9821C246.471 94.9849 247.268 90.5394 245.524 86.866C242.336 84.5872 237.468 86.6169 234.056 84.6619C232.325 81.2499 233.209 77.0161 232.885 73.2804C228.813 71.8982 224.492 71.7986 220.234 71.8359C219.574 67.764 219.636 63.4804 218.067 59.6202C214.642 57.3289 209.998 58.4372 206.038 58.0263C205.502 54.1536 206.187 49.6707 203.659 46.3958C199.637 44.9388 193.585 46.5701 191.132 42.2616C190.261 34.317 191.107 26.2976 190.734 18.3281Z" fill="#FAE0AB"/>
<path d="M157.501 110.828C169.244 111.301 180.899 106.943 192.58 109.446C189.267 114.402 188.632 120.765 191.21 126.194C194.199 129.369 199.117 127.863 202.965 128.211C205.319 139.057 204.223 150.19 204.509 161.173C204.397 163.701 205.829 165.855 206.962 167.984C211.844 168.134 216.712 168.146 221.594 167.922C223.561 159.255 222.578 150.327 222.627 141.535C226.151 141.498 229.663 141.461 233.187 141.448C233.56 149.941 232.178 158.583 234.083 166.938V166.963C234.183 171.097 234.183 175.231 234.171 179.366L232.614 178.88L233.199 180.387C228.953 180.312 224.707 180.325 220.473 180.399C220.423 184.546 220.411 188.705 220.411 192.852C215.841 192.839 211.296 193.312 206.825 194.259C206.788 198.729 206.8 203.2 206.975 207.67C198.345 208.454 189.865 206.176 181.273 205.889C172.419 204.632 163.13 207.408 154.662 203.673C154.725 200.149 154.538 196.612 154.289 193.101C148.86 191.781 142.422 190.187 137.304 193.138C135.884 196.924 136.22 201.095 136.283 205.067C135.747 203.299 135.286 201.506 134.801 199.713C134.477 201.792 134.128 203.872 133.805 205.964C122.199 206.948 110.407 203.399 98.8758 206.375C93.8949 207.894 88.6649 207.994 83.5719 206.923C83.6466 202.614 83.6466 198.306 83.6092 193.997C80.1848 193.947 76.7729 193.935 73.3609 193.997L73.5726 192.553C72.9376 192.752 71.6425 193.138 70.995 193.337C70.9327 189.788 70.9078 186.227 70.9701 182.69L69.4384 182.877C69.6501 182.267 70.0611 181.047 70.2728 180.437C65.9642 180.325 61.6557 180.3 57.3597 180.412C57.5091 167.573 57.3223 154.722 56.9487 141.884C60.4603 141.735 63.9719 141.473 67.4959 141.324C67.72 149.941 66.7861 158.608 68.106 167.162C69.2268 167.063 71.4682 166.864 72.5889 166.764C75.8016 166.565 79.0143 166.527 82.227 166.639C82.8123 166.664 83.9703 166.727 84.5556 166.764C84.6179 153.477 84.8171 140.191 84.8918 126.904C88.6773 127.253 92.7493 128.747 96.4601 127.352C100.557 124.7 99.4237 119.096 99.5856 114.937L99.349 113.231C98.5147 112.023 97.6555 110.828 96.7838 109.645C105.413 109.321 114.03 109.583 122.66 109.608C134.315 109.097 145.846 111.475 157.501 110.828ZM111.004 136.853C110.008 138.622 108.414 140.24 108.427 142.382C108.041 150.165 109.298 157.91 109.747 165.656C109.946 168.333 113.208 167.972 115.114 168.159C118.974 168.009 123.644 169.13 126.744 166.204C127.765 158.745 127.006 151.136 127.255 143.627C127.653 140.938 126.072 138.783 124.515 136.791C120.02 136.592 115.5 136.629 111.004 136.853ZM164.811 137.028C161.885 146.516 164.076 156.653 163.454 166.428C169.045 168.943 176.031 168.968 181.647 166.527C181.46 159.305 181.896 152.083 182.045 144.86C181.983 142.27 182.294 139.157 180.04 137.327C175.059 136.094 169.867 136.766 164.811 137.028Z" fill="#FAE0AB"/>
<path d="M43.413 135.197C46.8374 135.471 50.2618 135.72 53.6862 135.982C53.8605 137.464 54.0971 138.945 54.3835 140.427C54.0099 140.228 53.2752 139.817 52.9017 139.605C49.9007 139.319 46.8872 139.319 43.8737 139.294C43.3881 139.717 42.4043 140.589 41.9062 141.013C42.4168 139.07 42.9647 137.152 43.413 135.197Z" fill="#FAE0AB"/>
<path d="M98.5371 18.4436C129.257 17.933 160.002 18.207 190.734 18.3315C191.108 26.301 190.261 34.3204 191.133 42.265C193.586 46.5735 199.638 44.9422 203.66 46.3992C206.188 49.6741 205.503 54.157 206.038 58.0297C209.998 58.4406 214.643 57.3324 218.067 59.6236C219.636 63.4838 219.574 67.7674 220.234 71.8394C224.493 71.802 228.814 71.9016 232.886 73.2839C233.209 77.0196 232.325 81.2534 234.056 84.6653C237.468 86.6203 242.337 84.5906 245.525 86.8694C247.268 90.5428 246.471 94.9883 246.894 98.9856C251.34 99.5086 255.761 100.156 260.156 100.953C260.355 108.263 260.343 115.585 260.156 122.894C255.773 123.342 251.415 123.953 247.094 124.75C246.795 128.423 246.347 132.096 245.736 135.745C242.225 135.608 238.713 135.334 235.202 135.322L234.093 136.368C234.243 133.23 234.181 130.092 234.33 126.954C234.355 126.256 234.392 124.874 234.417 124.177C225.925 122.433 217.196 123.84 208.603 123.28C208.516 119.021 208.354 114.775 208.068 110.541C202.975 109.47 197.745 109.769 192.577 109.446C180.897 106.943 169.242 111.301 157.499 110.828C145.844 111.475 134.313 109.097 122.657 109.607C114.028 109.583 105.411 109.321 96.7814 109.645C92.6098 109.732 88.3885 109.383 84.2418 109.944C80.668 113.194 82.5359 118.747 82.1 123.031C74.1679 123.803 66.1859 122.882 58.2538 123.542C52.8744 124.837 53.9577 131.773 53.6838 135.982C50.2594 135.72 46.835 135.471 43.4106 135.197C43.9336 131.935 43.3732 128.697 42.2276 125.634C38.604 125.621 34.9803 125.609 31.3567 125.634C30.485 124.687 29.6009 123.728 28.7293 122.77C28.7915 115.958 28.8164 109.159 28.6919 102.36C29.5137 101.327 30.3481 100.281 31.1699 99.2471C35.2169 99.5584 40.7333 102.348 43.9087 98.5373C45.3531 94.6148 44.6807 90.1942 45.0792 86.0724C49.5247 85.8732 53.9453 85.3876 58.2787 84.3416C58.2787 80.7179 58.316 77.0943 58.3534 73.4706C62.5125 72.8231 66.6716 72.1756 70.8307 71.5654C71.1171 67.232 71.3536 62.8861 71.528 58.5527C75.8863 58.3784 80.2446 58.0546 84.5656 57.4693C84.715 53.3476 84.9267 49.2134 85.2007 45.0917C89.5465 44.8177 93.88 44.5562 98.2258 44.3321C100.43 35.8396 97.6157 27.0855 98.5371 18.4436Z" fill="#F5F1DA"/>
<path d="M134.8 199.71C135.286 201.504 135.747 203.297 136.282 205.065C136.668 206.597 137.44 208.352 139.221 208.564C144.351 209.498 149.756 209.212 154.587 207.132C154.6 206.26 154.65 204.542 154.662 203.67C163.13 207.406 172.419 204.629 181.273 205.887C189.865 206.173 198.345 208.452 206.974 207.668C211.47 207.481 215.952 207.605 220.448 207.717C220.485 211.889 220.51 216.06 220.547 220.232C228.729 220.481 236.922 220.257 245.103 220.332C246.311 220.294 247.357 220.705 248.229 221.602C248.279 222.237 248.378 223.482 248.441 224.117C239.637 225.101 230.584 225.549 221.842 223.918C216.388 222.249 216.438 215.948 216.6 211.291C210.125 209.585 203.787 213.719 197.336 212.013C190.002 210.37 182.493 211.69 175.071 211.428C151.387 211.939 127.715 209.498 104.056 210.395C93.9194 212.362 83.6337 211.154 73.3979 211.353C73.0119 214.33 73.9084 217.928 71.3931 220.157C71.7044 215.986 72.464 211.715 71.3433 207.593C74.1949 207.68 77.0589 207.643 79.9229 207.705L79.7237 206.397C81.0063 206.572 82.2889 206.746 83.5715 206.92C88.6645 207.991 93.8945 207.892 98.8754 206.372C110.406 203.396 122.199 206.945 133.804 205.962C134.128 203.87 134.477 201.79 134.8 199.71Z" fill="#F5F1DA"/>
<path d="M97.0822 113.554C97.7049 113.903 98.9626 114.588 99.5852 114.936C99.4233 119.095 100.556 124.699 96.4596 127.351C92.7488 128.746 88.6769 127.252 84.8914 126.903C84.8167 140.19 84.6174 153.476 84.5552 166.763C83.9699 166.726 82.8118 166.663 82.2266 166.638C84.6548 153.551 82.8367 140.127 83.4718 126.903L82.8741 126.89C83.4718 126.131 84.0695 125.371 84.6797 124.612C88.8263 124.487 92.9854 124.437 97.1321 124.35C97.157 120.751 97.1694 117.153 97.0822 113.554Z" fill="#DD8727"/>
<path d="M41.9001 141.009C42.3982 140.586 43.3819 139.714 43.8676 139.291C46.881 139.316 49.8945 139.316 52.8955 139.602C53.2691 139.814 54.0038 140.225 54.3774 140.424C55.0124 140.785 56.3075 141.52 56.9426 141.881C57.3161 154.72 57.5029 167.57 57.3535 180.409C55.6475 176.088 56.0335 171.406 55.9837 166.861C51.4511 166.836 46.8935 166.636 42.5601 165.229C42.5601 161.195 42.4978 157.16 42.3982 153.138C41.7507 153.126 40.4805 153.113 39.833 153.101C40.1941 149.016 40.8915 144.982 41.9001 141.009Z" fill="#DD8727"/>
<path d="M235.347 140.4C239.394 140.387 243.441 140.425 247.488 140.524C248.671 144.596 249.406 148.88 248.31 153.064C247.637 157.596 248.173 162.291 246.529 166.662C242.382 166.562 238.223 166.624 234.077 166.961V166.936C234.699 165.031 235.621 163.138 235.384 161.083C235.011 154.197 235.06 147.298 235.347 140.4Z" fill="#DD8727"/>
</svg>
