<svg width="263" height="245" viewBox="0 0 263 245" fill="none" xmlns="http://www.w3.org/2000/svg">
<path d="M76.649 0.507335C111.963 -0.465012 147.307 0.29309 182.636 0.111804L182.434 2.12242C148.285 2.45203 114.135 2.00706 80.0004 2.33667C79.6436 7.24785 79.6436 12.2744 78.2782 17.0372C68.7361 19.773 58.7285 17.9602 48.9692 18.5205C48.9692 23.3493 49.0623 28.1945 49.3881 33.0233C44.3921 33.666 39.4116 34.3912 34.4155 35.0339C34.3225 39.632 34.2138 44.23 34.0432 48.8281C29.0471 49.273 24.0511 49.8334 19.0551 50.3278C17.5966 61.2214 22.0496 73.3345 15.6727 83.0745C11.7783 82.8767 7.86834 82.8602 3.97392 82.7943C3.61706 93.5066 3.72567 104.219 3.98944 114.931C4.0515 120.205 3.95841 125.479 3.8498 130.752C3.67912 140.624 3.72567 150.496 3.88083 160.368C8.33381 160.467 12.8023 160.516 17.2553 160.582C17.8914 160.994 18.5431 161.406 19.1792 161.818C19.0085 171.871 19.0551 181.941 19.1637 191.994C23.3839 192.027 27.6042 192.027 31.8244 192.01C31.9796 182.798 31.421 173.536 32.2899 164.356C32.5847 162.725 32.9261 161.126 33.2519 159.527C37.4101 159.313 41.5682 159.132 45.7264 158.967C47.1228 139.421 45.773 119.875 45.8661 100.313C45.9747 94.6602 45.9902 88.8921 47.5728 83.4535C51.25 80.2398 56.1219 79.3828 60.5438 77.8502C61.4127 73.796 62.0489 69.6429 63.5384 65.77C71.0479 61.7982 80.0159 62.9683 88.084 63.9736C94.6782 64.6328 94.6006 73.4828 96.7107 78.5918C99.6742 78.4435 102.638 78.3116 105.601 78.1633C106.656 73.763 107.246 69.0661 109.573 65.1602C118.789 62.0619 129.138 62.3915 138.417 65.0613C140.635 69.8077 141.07 75.1803 141.97 80.3222C144.84 79.4653 147.773 78.7731 150.472 77.4382C153.653 72.8895 152.97 63.7264 159.658 63.3638C163.211 63.1661 168.781 63.5122 169.665 68.0772C171.574 76.8284 170.751 85.8926 170.922 94.8086C174.599 94.7591 178.292 94.7262 181.985 94.7097C182.838 89.782 182.869 84.3929 185.491 80.0585C192.752 78.6577 200.215 78.9544 207.554 79.4158C209.757 79.8443 212.861 79.4323 213.729 82.234C216.724 91.1664 215.56 100.906 215.777 110.201C216.134 126.171 214.288 142.173 216.15 158.094C220.665 159.297 225.149 160.615 229.555 162.214C230.098 172.184 230.067 182.172 229.912 192.159C234.319 192.192 238.741 192.208 243.147 192.356L245.133 193.213C241.13 195.669 236.568 196.542 232.038 197.053C231.479 201.734 231.976 207.535 228.05 210.749C224.202 211.935 220.137 211.886 216.196 212.413C216.041 217.473 215.638 222.516 215.002 227.542C209.711 227.954 204.42 228.053 199.129 228.07C199.036 226.85 198.85 224.427 198.757 223.208C198.431 218.231 198.509 213.254 198.741 208.277C203.163 207.963 207.57 207.65 211.992 207.304C212.55 202.426 212.736 197.432 214.288 192.768C218.663 191.796 223.163 191.879 227.6 191.73C227.957 182.699 227.973 173.635 227.507 164.603C222.853 163.878 218.043 163.565 213.621 161.686C212.938 158.341 212.892 154.896 212.83 151.501C212.892 128.791 213.248 106.098 212.674 83.3876C203.784 82.9426 194.894 82.9591 186.019 83.4535C185.32 88.4306 184.607 93.4242 183.815 98.4013C179.533 98.7474 175.142 99.6044 170.906 98.5332C168.579 96.572 168.238 93.21 168.005 90.2929C167.571 83.025 167.85 75.7407 167.741 68.4563C163.862 68.1761 159.983 67.896 156.104 67.6158C155.08 72.5929 155.53 78.5588 152.086 82.5471C148.378 83.6348 144.328 83.6348 140.604 82.4977C137.16 78.5424 136.772 72.8071 135.376 67.863C127.866 67.1049 119.813 65.1602 112.599 68.3574C111.078 72.5435 110.52 77.0426 108.875 81.1792C105.058 83.1239 100.776 83.6183 96.6797 84.6072C95.7332 89.0239 95.2057 93.622 93.4369 97.7915C88.7822 101.104 82.6536 98.8792 77.4093 98.9122C77.13 93.1605 76.2922 87.1452 78.2627 81.6242C82.4364 79.6795 87.0445 79.1356 91.482 78.2127C91.544 74.587 91.5595 70.9778 91.5751 67.3686C82.9949 66.561 74.3527 66.7423 65.8191 67.9289C64.8417 72.3951 63.8642 76.8613 62.8401 81.3111C58.4958 82.1845 54.1514 83.025 49.807 83.8326C49.233 109.921 50.8621 136.092 48.6899 162.131C43.9111 162.609 39.1633 163.153 34.4 163.615C34.3535 172.975 34.338 182.353 34.3225 191.714C39.1013 191.879 44.0042 191.73 48.6123 193.279C49.6674 197.779 49.8691 202.426 50.2415 207.024C54.8806 207.502 59.5043 207.98 64.1435 208.425C64.3607 213.468 64.6244 218.511 64.5158 223.554C64.2676 225.219 63.5073 226.586 62.2506 227.658C57.4562 228.498 52.5688 228.103 47.7435 228.201C47.0763 223.274 46.7194 218.297 46.3936 213.336C41.5527 212.413 35.0051 213.962 31.7158 209.298C31.5917 204.931 31.6848 200.547 31.7314 196.18C26.9681 195.488 22.1117 195.109 17.5346 193.444C15.0365 183.836 16.6036 173.75 16.3709 163.928C11.7007 162.972 5.40136 164.537 2.03447 160.318C-1.75134 146.821 2.31375 132.648 1.75519 118.87C1.19663 108.323 -0.308386 97.7256 0.948379 87.1616C1.3673 84.706 1.83277 81.789 3.98944 80.3387C8.10107 78.9214 12.461 78.7071 16.7122 78.1139C16.5726 68.4069 16.3709 58.6834 16.1847 48.9599C20.1722 46.1253 25.1838 46.9658 29.7143 46.4878C29.9626 41.5107 30.847 36.5996 32.2278 31.8367C37.0222 31.7049 41.801 31.5895 46.5953 31.4247C46.766 26.2498 46.5953 21.009 47.5262 15.9001C57.1149 14.8124 66.7966 15.8012 76.4163 15.3068C76.5404 10.3791 76.618 5.43499 76.649 0.507335ZM80.9003 84.4588C81.0555 87.689 81.102 90.9357 81.4744 94.1494C84.5775 94.6767 87.7117 94.8086 90.8303 95.0723C90.8613 91.2488 90.8769 87.4253 90.9079 83.6019C87.572 83.9479 84.2362 84.2281 80.9003 84.4588ZM35.2224 195.076C32.5382 198.784 33.7794 203.712 33.4846 208.029C38.0307 208.194 42.5612 208.227 47.1073 208.227C47.1694 203.827 47.1849 199.41 47.1073 195.01C43.1508 194.927 39.1788 194.763 35.2224 195.076ZM217.05 195.306C213 198.092 215.374 203.926 214.753 208.161C219.284 208.211 223.83 208.194 228.361 208.095C228.407 203.744 228.392 199.394 228.361 195.043C224.59 194.977 220.789 194.647 217.05 195.306ZM49.1709 212.529C48.7365 215.989 48.752 219.5 48.5813 222.977C53.1429 224.625 57.9217 224.839 62.4833 223.093C62.4212 219.302 62.3902 215.528 62.3902 211.737C58.1234 210.699 52.5998 208.161 49.1709 212.529ZM203.691 210.93C198.043 212.232 200.091 219.78 199.44 224.23C203.799 224.46 208.19 224.839 212.519 224.164C213.512 220.258 213.419 216.154 213.047 212.182C211.185 208.507 206.654 210.04 203.691 210.93Z" fill="#84A58D"/>
<path d="M183.719 4.52808C185.053 7.95601 185.612 11.6147 185.968 15.2733C195.293 16.2786 204.866 14.3175 214.067 16.1962C217.589 19.6736 215.479 25.7549 216.1 30.287C221.266 31.2264 226.464 31.968 231.615 32.9569C231.693 37.456 231.786 41.9387 231.895 46.4214C237.092 46.5368 242.306 47.163 247.193 49.1901C246.991 58.7653 246.883 68.3734 247.1 77.965C252.267 78.4924 261.343 76.5971 262.352 84.2935C262.693 109.904 262.135 135.531 262.647 161.142C257.775 163.235 252.546 163.993 247.317 164.158C246.821 174.376 247.271 184.594 246.805 194.811C246.293 194.202 245.269 192.966 244.757 192.356C243.035 182.006 243.95 171.459 244.4 161.043C249.474 160.944 254.578 161.471 259.621 160.746C259.962 147.727 259.218 134.724 258.504 121.737C259.249 108.833 259.683 95.9122 259.699 82.9586C259.171 82.9586 258.132 82.9586 257.604 82.9586C253.042 82.9256 248.496 82.8762 243.95 82.7608C243.438 76.7784 242.756 70.796 242.756 64.7806C242.725 60.265 242.818 55.7658 242.647 51.2502C237.915 49.9153 233.058 49.1077 228.186 48.6463C228.326 44.2295 228.357 39.7963 228.311 35.3795C223.19 35.0499 218.117 34.4731 213.059 33.6655C213.121 28.5896 213.152 23.5136 213.152 18.4376C208.559 18.4376 203.982 18.5529 199.389 18.6683C193.99 18.9814 188.684 17.7289 183.501 16.2127C183.47 12.3233 183.517 8.41746 183.719 4.52808Z" fill="#84A58D"/>
<path d="M91.6207 224.494C98.0597 223.868 104.53 224.016 110.969 224.577C110.751 230.493 111.248 236.492 110.131 242.326C104.7 245.128 97.9976 245.293 92.5517 242.491C91.0467 236.64 91.7293 230.493 91.6207 224.494ZM95.3134 228.186C92.7844 231.482 93.7929 235.998 95.5152 239.409C99.3785 239.953 103.288 239.755 107.183 239.805C107.198 236.278 107.959 232.603 106.966 229.175C104.421 225.236 98.6959 225.912 95.3134 228.186Z" fill="#84A58D"/>
<path d="M80.0004 2.33632C114.135 2.00671 148.285 2.45168 182.434 2.12207L183.846 2.08911C183.815 2.69889 183.753 3.91844 183.722 4.52822C183.521 8.41761 183.474 12.3235 183.505 16.2129C176.151 14.5483 168.563 15.8009 161.1 15.6196C134.46 15.5207 107.82 15.702 81.1641 15.6196C81.2727 11.895 81.4124 8.1704 81.5365 4.44582C80.2487 13.609 78.8523 22.7721 77.7196 31.9682C68.2706 32.1495 58.7906 31.7704 49.3882 33.0229C49.0623 28.1942 48.9692 23.3489 48.9692 18.5201C58.7286 17.9598 68.7361 19.7726 78.2782 17.0369C79.6436 12.274 79.6436 7.24749 80.0004 2.33632Z" fill="#010402"/>
<path d="M199.388 18.6694C203.981 18.5541 208.558 18.4387 213.15 18.4387C213.15 23.5147 213.119 28.5907 213.057 33.6667C218.115 34.4742 223.189 35.051 228.309 35.3806C228.356 39.7974 228.325 44.2307 228.185 48.6474C223.763 48.3508 219.341 48.1695 214.935 47.8399C214.749 43.4396 214.749 38.9899 213.988 34.6225C209.489 32.2823 204.384 32.0845 199.497 31.5407C199.404 27.2558 199.373 22.9544 199.388 18.6694Z" fill="#010402"/>
<path d="M34.0366 48.8269C34.2073 44.2288 34.3159 39.6308 34.409 35.0327C38.7068 35.1975 42.9891 35.3623 47.2714 35.5931C47.0697 39.5648 46.9766 43.5531 46.3715 47.4919C42.3064 48.3819 38.1483 48.4972 34.0366 48.8269Z" fill="#010402"/>
<path d="M19.2823 51.6475C23.9059 51.598 28.5296 51.6475 33.1532 51.7793C32.8119 55.1413 33.5722 58.8659 32.1137 61.9807C28.964 65.6888 23.2077 65.6888 19.7478 62.5081C18.9875 58.9483 19.2357 55.2567 19.2823 51.6475Z" fill="#010402"/>
<path d="M229.816 51.7936C234.098 51.5958 238.365 51.431 242.647 51.2498C242.818 55.7654 242.725 60.2646 242.756 64.7802C239.001 64.6484 234.998 65.1593 231.538 63.264C229.614 59.8526 230.188 55.6006 229.816 51.7936Z" fill="#010402"/>
<path d="M3.97336 82.7954C7.86778 82.8613 11.7777 82.8778 15.6721 83.0756C16.1841 83.125 17.2237 83.2074 17.7357 83.2404C17.6892 92.832 18.3098 102.555 16.8668 112.048C13.2517 115.031 8.24015 114.125 3.98888 114.932C3.72511 104.22 3.6165 93.5077 3.97336 82.7954Z" fill="#010402"/>
<path d="M243.952 82.7603C248.498 82.8756 253.044 82.9251 257.605 82.958C258.304 93.5714 258.381 104.267 257.155 114.848C253.044 114.106 248.156 115.111 244.712 112.145C243.067 102.454 244.743 92.5332 243.952 82.7603Z" fill="#010402"/>
<path d="M244.817 131.361C248.401 128.527 253.164 129.318 257.338 128.725C257.835 138.827 259.371 149.408 256.966 159.263C252.916 161.372 248.23 160.07 243.917 160.054C244.6 150.512 243.064 140.739 244.817 131.361Z" fill="#010402"/>
<path d="M3.84861 130.753C8.11541 131.231 14.182 128.924 16.8352 133.555C18.6195 142.422 17.4248 151.585 17.2541 160.583C12.8011 160.517 8.33263 160.468 3.87965 160.369C3.72449 150.497 3.67794 140.625 3.84861 130.753Z" fill="#010402"/>
<path d="M93.4959 145.635C98.2592 145.619 103.023 145.602 107.786 145.602C109.756 155.886 109.818 166.895 107.398 177.096C102.96 177.063 98.523 177.228 94.0855 177.014C92.6426 171.377 94.1011 165.362 92.7667 159.66C91.7892 154.979 92.2237 150.184 93.4959 145.635Z" fill="#010402"/>
<path d="M19.1792 161.819C23.5701 162.511 27.9455 163.352 32.2899 164.357C31.421 173.536 31.9796 182.798 31.8244 192.011C27.6042 192.028 23.3839 192.028 19.1637 191.995C19.0551 181.942 19.0085 171.872 19.1792 161.819Z" fill="#010402"/>
<path d="M231.877 162.229C235.384 162.163 238.875 162.13 242.382 162.114C242.769 172.035 242.769 181.956 242.506 191.878C238.891 191.911 235.275 191.927 231.676 191.878C231.381 181.989 231.35 172.101 231.877 162.229Z" fill="#010402"/>
<path d="M35.2164 195.075C39.1729 194.762 43.1449 194.927 47.1014 195.009C47.179 199.41 47.1635 203.826 47.1014 208.227C42.5553 208.227 38.0248 208.194 33.4787 208.029C33.7735 203.711 32.5322 198.783 35.2164 195.075Z" fill="#010402"/>
<path d="M217.047 195.307C220.787 194.647 224.588 194.977 228.358 195.043C228.389 199.394 228.405 203.745 228.358 208.095C223.828 208.194 219.282 208.211 214.751 208.161C215.372 203.926 212.998 198.092 217.047 195.307Z" fill="#010402"/>
<path d="M49.1697 212.526C52.5986 208.159 58.1222 210.697 62.389 211.735C62.389 215.526 62.42 219.3 62.4821 223.09C57.9205 224.837 53.1417 224.623 48.5801 222.975C48.7507 219.498 48.7352 215.987 49.1697 212.526Z" fill="#010402"/>
<path d="M203.688 210.93C206.652 210.04 211.182 208.508 213.044 212.183C213.417 216.155 213.51 220.258 212.517 224.164C208.188 224.84 203.797 224.461 199.437 224.23C200.089 219.78 198.041 212.232 203.688 210.93Z" fill="#010402"/>
<path d="M154.303 226.256C158.974 226.239 163.659 226.256 168.345 226.256C168.873 231.002 171.402 237.314 167.352 240.956C163.07 240.709 157.189 243.181 154.272 238.83C153.993 234.644 154.195 230.442 154.303 226.256Z" fill="#010402"/>
<path d="M95.3113 228.186C98.6937 225.911 104.419 225.236 106.964 229.174C107.957 232.602 107.196 236.278 107.181 239.804C103.286 239.755 99.3764 239.953 95.5131 239.409C93.7908 235.997 92.7823 231.482 95.3113 228.186Z" fill="#010402"/>
<path d="M77.72 31.9699C78.8526 22.7738 80.249 13.6106 81.5368 4.44751C81.4127 8.17209 81.273 11.8967 81.1644 15.6213C107.82 15.7037 134.461 15.5224 161.101 15.6213C168.564 15.8025 176.151 14.55 183.505 16.2146C188.688 17.7308 193.994 18.9833 199.393 18.6701C199.378 22.9551 199.409 27.2565 199.502 31.5414C204.39 32.0852 209.494 32.283 213.994 34.6232C214.754 38.9906 214.754 43.4403 214.94 47.8406C219.347 48.1702 223.769 48.3515 228.19 48.6481C233.062 49.1096 237.919 49.9171 242.651 51.252C238.369 51.4333 234.102 51.5981 229.82 51.7959C230.192 55.6029 229.618 59.8548 231.542 63.2663C235.002 65.1615 239.005 64.6506 242.76 64.7825C242.76 70.7979 243.442 76.7803 243.954 82.7627C244.746 92.5356 243.07 102.457 244.715 112.147C248.159 115.114 253.046 114.109 257.158 114.85C258.384 104.27 258.306 93.5739 257.608 82.9604C258.136 82.9604 259.175 82.9604 259.703 82.9604C259.687 95.9141 259.253 108.835 258.508 121.739C259.222 134.726 259.966 147.729 259.625 160.748C254.583 161.473 249.478 160.946 244.404 161.045C243.954 171.461 243.039 182.008 244.761 192.358H243.148C238.741 192.209 234.319 192.193 229.913 192.16C230.068 182.173 230.099 172.186 229.556 162.215C228.842 151.849 229.339 141.45 230.021 131.083C234.288 130.062 239.144 130.193 242.868 127.507C245.475 123.898 243.334 119.036 243.023 114.965C238.757 113.894 234.226 113.219 230.44 110.697C227.709 96.4744 232.24 81.4278 227.865 67.4853C223.675 65.3263 219.067 64.4364 214.583 63.2333C213.575 54.4822 212.721 45.6981 212.039 36.8975C203.459 35.266 194.289 35.0188 186.438 30.6679C184.731 27.1741 183.893 23.3012 182.28 19.7743C177.935 18.4889 173.358 19.214 168.936 19.214C144.127 20.2358 119.24 18.1263 94.4768 20.3347C92.8167 24.5702 92.9098 31.1623 87.7586 32.3819C75.7029 36.8975 62.6853 35.8263 50.1642 37.5897C49.6832 44.7258 49.5902 51.9772 47.8369 58.9154C46.3939 66.5624 34.7107 62.261 33.3143 69.7431C31.7627 76.5331 32.4299 83.5702 31.7162 90.4755C31.7782 96.5403 24.5014 96.9029 20.607 99.342C19.8933 108.324 16.5108 117.471 18.3417 126.452C22.2361 129.402 27.0149 130.589 31.0955 133.176C33.4074 141.713 32.7867 150.745 33.2522 159.529C32.9264 161.127 32.585 162.726 32.2902 164.357C27.9459 163.352 23.5705 162.512 19.1795 161.819C18.5434 161.407 17.8917 160.995 17.2556 160.583C17.4263 151.585 18.621 142.422 16.8367 133.555C14.1835 128.924 8.11689 131.232 3.8501 130.754C3.95871 125.48 4.0518 120.206 3.98974 114.933C8.24102 114.125 13.2526 115.031 16.8677 112.048C18.3107 102.556 17.69 92.8322 17.7366 83.2406C17.2246 83.2076 16.185 83.1252 15.673 83.0758C22.0499 73.3358 17.5969 61.2227 19.0554 50.3291C24.0514 49.8347 29.0475 49.2744 34.0435 48.8294C38.1551 48.4998 42.3133 48.3844 46.3784 47.4945C46.9835 43.5556 47.0766 39.5674 47.2783 35.5956C42.996 35.3649 38.7137 35.2001 34.4159 35.0352C39.4119 34.3925 44.3924 33.6674 49.3884 33.0246C58.7909 31.7721 68.271 32.1512 77.72 31.9699ZM19.2881 51.6476C19.2416 55.2568 18.9933 58.9484 19.7536 62.5082C23.2136 65.6889 28.9699 65.6889 32.1196 61.9808C33.578 58.866 32.8178 55.1414 33.1591 51.7794C28.5354 51.6476 23.9118 51.5981 19.2881 51.6476ZM244.823 131.364C243.07 140.741 244.606 150.514 243.923 160.056C248.237 160.073 252.922 161.374 256.972 159.265C259.377 149.41 257.841 138.829 257.344 128.727C253.171 129.32 248.407 128.529 244.823 131.364ZM231.883 162.231C231.356 172.103 231.387 181.992 231.681 191.88C235.281 191.929 238.896 191.913 242.511 191.88C242.775 181.959 242.775 172.037 242.387 162.116C238.881 162.133 235.39 162.166 231.883 162.231Z" fill="#048976"/>
<path d="M168.931 19.2114C173.353 19.2114 177.93 18.4862 182.274 19.7717C183.888 23.2985 184.726 27.1714 186.433 30.6653C194.284 35.0161 203.453 35.2633 212.033 36.8949C212.716 45.6955 213.569 54.4796 214.578 63.2307C219.062 64.4338 223.67 65.3237 227.859 67.4827C232.235 81.4251 227.704 96.4718 230.435 110.694C234.221 113.216 238.751 113.892 243.018 114.963C243.328 119.034 245.47 123.895 242.863 127.505C239.139 130.191 234.283 130.059 230.016 131.081C229.333 141.447 228.837 151.846 229.551 162.212C225.144 160.614 220.66 159.295 216.145 158.092C214.283 142.172 216.13 126.17 215.773 110.2C215.555 100.905 216.719 91.1651 213.725 82.2327C212.856 79.431 209.753 79.843 207.549 79.4145C200.211 78.9531 192.748 78.6564 185.486 80.0573C182.864 84.3916 182.833 89.7807 181.98 94.7084C178.287 94.7249 174.594 94.7578 170.917 94.8073C170.746 85.8913 171.569 76.8271 169.66 68.0759C168.776 63.5109 163.206 63.1648 159.653 63.3625C152.965 63.7251 153.648 72.8882 150.467 77.4369C147.768 78.7718 144.835 79.464 141.965 80.3209C141.065 75.179 140.631 69.8064 138.412 65.06C129.134 62.3902 118.785 62.0606 109.568 65.1589C107.241 69.0648 106.651 73.7617 105.596 78.162C102.633 78.3103 99.6694 78.4422 96.7059 78.5905C94.5958 73.4815 94.6733 64.6315 88.0792 63.9723C80.0111 62.967 71.0431 61.7969 63.5335 65.7687C62.044 69.6416 61.4079 73.7947 60.539 77.8489C56.1171 79.3816 51.2451 80.2385 47.5679 83.4522C45.9854 88.8908 45.9698 94.6589 45.8612 100.312C45.7681 119.874 47.118 139.42 45.7216 158.966C41.5634 159.131 37.4052 159.312 33.247 159.526C32.7816 150.742 33.4022 141.711 31.0904 133.174C27.0098 130.586 22.231 129.4 18.3365 126.45C16.5057 117.468 19.8881 108.321 20.6018 99.3394C24.4962 96.9003 31.7731 96.5377 31.711 90.4729C32.4247 83.5676 31.7575 76.5304 33.3091 69.7405C34.7055 62.2583 46.3888 66.5597 47.8317 58.9128C49.585 51.9745 49.6781 44.7231 50.1591 37.5871C62.6802 35.8237 75.6978 36.8949 87.7534 32.3792C92.9046 31.1597 92.8115 24.5675 94.4716 20.332C119.235 18.1236 144.122 20.2331 168.931 19.2114Z" fill="#03BC9F"/>
<path d="M80.9004 84.4581C84.2362 84.2273 87.5721 83.9472 90.908 83.6011C90.8769 87.4245 90.8614 91.248 90.8304 95.0715C87.7117 94.8078 84.5776 94.6759 81.4745 94.1486C81.1021 90.9349 81.0555 87.6882 80.9004 84.4581Z" fill="#03BC9F"/>
<path d="M15.2674 77.2884C15.7794 67.8616 12.2884 57.9074 16.1828 48.9585C16.369 58.682 16.5707 68.4054 16.7103 78.1124C12.459 78.7057 8.09915 78.92 3.98751 80.3373C1.83084 81.7876 1.36537 84.7046 0.946453 87.1602C-0.310311 97.7242 1.1947 108.321 1.75327 118.869C2.31183 132.646 -1.75327 146.819 2.03254 160.317C5.39943 164.536 11.6988 162.97 16.369 163.926C16.6017 173.749 15.0346 183.835 17.5326 193.443C22.1097 195.107 26.9661 195.486 31.7294 196.178C31.6829 200.546 31.5898 204.93 31.7139 209.297C30.5192 205.556 29.5417 201.749 28.6884 197.909C24.4992 196.558 16.7879 198.453 15.9035 192.256C15.2363 183.011 16.0587 173.633 14.0261 164.503C9.77484 163.695 4.32886 165.195 0.961969 161.718C-0.387889 157.35 0.139642 152.637 0.0465479 148.105C0.387891 128.295 0.356859 108.486 0 88.6764C0.294797 85.3638 -0.574077 80.7823 2.59111 78.7552C6.70274 77.5521 11.0471 77.651 15.2674 77.2884Z" fill="#FDE1AF"/>
<path d="M65.816 67.9298C74.3496 66.7432 82.9918 66.5619 91.5719 67.3695C91.5564 70.9787 91.5409 74.5879 91.4788 78.2136C87.0414 79.1365 82.4332 79.6804 78.2595 81.6251C76.2891 87.146 77.1269 93.1614 77.4062 98.9131C82.6505 98.8801 88.7791 101.105 93.4338 97.7924C95.2026 93.6228 95.7301 89.0248 96.6766 84.608C100.773 83.6192 105.055 83.1248 108.872 81.1801C110.516 77.0435 111.075 72.5443 112.596 68.3583C119.81 65.1611 127.863 67.1058 135.372 67.8639C136.769 72.808 137.157 78.5432 140.601 82.4985C144.325 83.6357 148.375 83.6357 152.083 82.548C155.527 78.5597 155.077 72.5938 156.101 67.6167C159.98 67.8968 163.859 68.177 167.738 68.4572C167.847 75.7415 167.567 83.0259 168.002 90.2938C168.235 93.2108 168.576 96.5728 170.903 98.534C175.139 99.6052 179.53 98.7483 183.812 98.4022C184.604 93.4251 185.317 88.4315 186.015 83.4544C194.89 82.96 203.781 82.9435 212.671 83.3885C213.245 106.099 212.888 128.792 212.826 151.502C212.888 154.897 212.935 158.342 213.618 161.687C218.04 163.566 222.849 163.879 227.504 164.604C227.97 173.635 227.954 182.7 227.597 191.731C223.16 191.879 218.66 191.797 214.285 192.769C212.733 197.433 212.547 202.427 211.989 207.305C207.567 207.651 203.16 207.964 198.738 208.277C198.505 213.255 198.428 218.232 198.754 223.209C189.522 224.165 180.259 224.956 170.981 224.511C170.531 231.202 170.081 237.893 169.693 244.6C163.983 244.188 156.443 247.023 152.176 241.766C149.926 236.377 150.345 230.213 149.693 224.461C136.784 224.511 123.875 224.923 110.966 224.577C104.527 224.016 98.0575 223.868 91.6185 224.494C82.5884 225.269 73.5273 224.28 64.5127 223.555C64.6213 218.512 64.3576 213.469 64.1403 208.426C59.5012 207.981 54.8775 207.503 50.2384 207.025C49.866 202.427 49.6643 197.779 48.6092 193.28C44.0011 191.731 39.0981 191.879 34.3193 191.715C34.3349 182.354 34.3504 172.976 34.3969 163.615C39.1602 163.154 43.908 162.61 48.6868 162.132C50.859 136.093 49.2298 109.922 49.8039 83.8334C54.1483 83.0259 58.4927 82.1854 62.837 81.3119C63.8611 76.8622 64.8385 72.396 65.816 67.9298ZM154.488 131.182C152.734 136.604 153.014 142.454 152.952 148.107C153.277 163.335 152.424 178.596 153.976 193.775C158.599 194.088 163.487 195.225 167.924 193.231C172.408 183.689 168.064 172.334 171.462 162.396C174.782 160.435 178.49 159.479 182.09 158.292C182.276 155.013 182.447 151.733 182.618 148.453C178.816 147.465 175.015 146.492 171.214 145.52C170.174 140.246 171.027 133.885 167.738 129.484C163.564 128.463 157.544 127.095 154.488 131.182ZM93.4959 145.635C92.2236 150.184 91.7891 154.98 92.7666 159.66C94.101 165.362 92.6425 171.378 94.0855 177.014C98.5229 177.228 102.96 177.063 107.398 177.096C109.818 166.895 109.756 155.886 107.786 145.602C103.022 145.602 98.2592 145.619 93.4959 145.635ZM154.302 226.258C154.193 230.444 153.991 234.646 154.27 238.832C157.187 243.183 163.068 240.711 167.35 240.958C171.4 237.316 168.871 231.004 168.343 226.258C163.657 226.258 158.972 226.241 154.302 226.258Z" fill="#FDE1AF"/>
<path d="M154.487 131.179C157.543 127.092 163.563 128.46 167.737 129.482C171.026 133.882 170.173 140.243 171.213 145.517C175.014 146.49 178.815 147.462 182.617 148.451C182.446 151.73 182.275 155.01 182.089 158.29C178.489 159.476 174.781 160.432 171.461 162.393C168.063 172.331 172.407 183.686 167.923 193.228C163.486 195.222 158.598 194.085 153.975 193.772C152.423 178.594 153.277 163.333 152.951 148.105C153.013 142.452 152.733 136.601 154.487 131.179Z" fill="#F8BC5D"/>
</svg>
